<svg width="462" height="467" viewBox="0 0 462 467" fill="none" xmlns="http://www.w3.org/2000/svg">
<path d="M115.772 2.70032H26.3242V95.9407H115.772V2.70032Z" fill="#E0E0E0"/>
<path d="M109.718 2.70032H20.2695V95.9407H109.718V2.70032Z" fill="#EBEBEB"/>
<path d="M97.6977 15.2363H32.2998V83.4047H97.6977V15.2363Z" fill="#FAFAFA"/>
<path d="M32.3 83.8577C31.8188 84.5447 31.272 85.1833 30.6672 85.7644C29.6137 86.8178 28.1389 88.3453 26.4534 89.9782C24.7679 91.611 23.293 93.0542 22.2396 94.0761C21.6698 94.6673 21.0455 95.2034 20.375 95.6773C20.8373 94.988 21.3704 94.349 21.9657 93.7706C23.0191 92.7171 24.494 91.1791 26.1795 89.5568C27.865 87.9345 29.3398 86.4807 30.4459 85.4484C31.0039 84.8519 31.6257 84.3185 32.3 83.8577V83.8577Z" fill="#E0E0E0"/>
<path d="M97.6963 83.6576C98.365 84.1415 98.9858 84.6883 99.5503 85.2904C100.604 86.3439 102.131 87.8187 103.764 89.5042C105.397 91.1897 106.83 92.6645 107.862 93.718C108.456 94.2849 108.993 94.9095 109.463 95.5826C108.789 95.1092 108.168 94.5654 107.609 93.9603C106.556 92.9068 105.028 91.432 103.395 89.7465C101.763 88.061 100.33 86.5862 99.2975 85.5327C98.6992 84.9659 98.1625 84.3373 97.6963 83.6576V83.6576Z" fill="#E0E0E0"/>
<path d="M97.5186 15.4154C97.9984 14.7435 98.5455 14.1223 99.1514 13.5614C100.205 12.5079 101.669 10.9804 103.313 9.34757C104.956 7.71473 106.473 6.27152 107.579 5.24967C108.151 4.65649 108.779 4.12023 109.454 3.64844C108.972 4.31544 108.425 4.93297 107.821 5.49197C106.768 6.54541 105.304 8.08344 103.607 9.70574C101.911 11.328 100.447 12.7818 99.3305 13.8142C98.7821 14.4077 98.175 14.9442 97.5186 15.4154V15.4154Z" fill="#E0E0E0"/>
<path d="M32.1185 15.5839C31.4498 15.1 30.829 14.5533 30.2645 13.9511C29.211 12.8976 27.673 11.4228 26.0507 9.73731C24.4284 8.0518 22.9746 6.57698 21.9423 5.52353C21.3491 4.95859 20.816 4.33373 20.3516 3.65894C21.0177 4.13801 21.6352 4.68139 22.1951 5.28124C23.2485 6.33468 24.7866 7.8095 26.4089 9.49502C28.0312 11.1805 29.4849 12.6554 30.5173 13.7088C31.1156 14.2757 31.6524 14.9042 32.1185 15.5839V15.5839Z" fill="#E0E0E0"/>
<path d="M97.5164 83.4048C97.5164 83.4048 97.5164 83.2889 97.5164 83.0782C97.5164 82.8675 97.5164 82.5304 97.5164 82.1301C97.5164 81.2768 97.5164 80.0232 97.5164 78.4536C97.5164 75.23 97.5164 70.5317 97.5164 64.5586C97.5164 52.6231 97.4532 35.61 97.4005 15.2364L97.6218 15.447H32.403L32.6453 15.2048C32.6453 40.2241 32.6453 63.6632 32.6453 83.3732L32.4346 83.1625L79.6711 83.2678L92.9234 83.331H96.4314H92.9761H79.7553L32.3503 83.4364H32.1396V83.2257C32.1396 63.4841 32.1396 40.0344 32.1396 15.0573V14.8044H32.3925H97.6112H97.8219V15.0257C97.8219 35.452 97.7376 52.5178 97.7166 64.5376C97.7166 70.4895 97.7166 75.1668 97.6534 78.3798C97.6534 79.96 97.6534 81.182 97.6534 82.0142C97.6534 82.4145 97.6534 82.72 97.6534 82.9412C97.6534 83.1625 97.5164 83.4048 97.5164 83.4048Z" fill="#E0E0E0"/>
<path d="M49.5551 43.7109C49.5551 43.7109 48.154 60.5661 66.4102 60.5661C66.4313 51.5802 59.0045 44.4694 49.5551 43.7109Z" fill="#EBEBEB"/>
<path d="M83.0016 43.7213C83.0016 43.7213 66.1465 42.3203 66.1465 60.5765C75.1324 60.6081 82.2431 53.1707 83.0016 43.7213Z" fill="#EBEBEB"/>
<path d="M65.62 34.4828C65.62 34.4828 51.8304 46.8608 66.3784 60.5871C73.1416 53.4237 72.5306 42.1835 65.62 34.4828Z" fill="#E0E0E0"/>
<path d="M346.068 344.132C340.502 340.653 334.215 338.491 327.686 337.812C324.684 337.506 321.365 337.59 318.984 339.413C318.708 339.576 318.48 339.809 318.323 340.088C318.166 340.367 318.085 340.683 318.089 341.004C318.239 341.445 318.542 341.819 318.942 342.057C326.422 347.756 337.736 348.483 346.068 344.111" fill="#E0E0E0"/>
<path d="M345.594 343.606C341.337 340.482 337.364 336.989 333.722 333.166C330.065 329.316 327.495 324.565 326.274 319.397C325.958 317.828 325.863 316.037 326.864 314.794C336.345 322.168 343.719 331.744 345.594 343.606" fill="#E0E0E0"/>
<path d="M345.971 344.059C345.092 338.892 345.164 333.608 346.182 328.468C347.372 323.379 350.143 318.512 354.494 315.605C356.126 319.429 355.421 323.832 354.272 327.825C352.488 334.014 349.705 339.871 346.034 345.165" fill="#E0E0E0"/>
<path d="M355.243 360.714C349.618 361.398 344.709 364.369 340.495 368.172C336.274 372.023 333.333 377.074 332.067 382.646C337.598 382.309 342.286 378.432 345.678 374.05C349.07 369.668 351.44 364.885 355.159 360.798" fill="#E0E0E0"/>
<path d="M357.265 363.337C355.049 357.708 354.274 351.614 355.01 345.61C355.746 339.605 357.969 333.88 361.479 328.952C364.692 340.361 363.512 353.255 357.265 363.337Z" fill="#E0E0E0"/>
<path d="M369.518 377.937C364.37 377.616 359.242 378.818 354.772 381.392C350.302 383.966 346.689 387.798 344.383 392.412C344.067 393.033 343.793 393.823 344.214 394.382C344.431 394.592 344.696 394.746 344.986 394.83C345.277 394.915 345.583 394.927 345.879 394.866C350.83 394.55 355.223 391.569 358.847 388.177C362.471 384.785 365.631 380.855 369.634 377.927" fill="#E0E0E0"/>
<path d="M369.128 377.147C366.491 368.65 366.33 359.576 368.665 350.99C369.581 347.619 371.13 344.08 374.248 342.499C374.372 342.416 374.512 342.359 374.659 342.334C374.806 342.309 374.957 342.315 375.101 342.352C375.352 342.484 375.544 342.706 375.639 342.974C376.682 345.329 377.134 347.904 376.955 350.474C376.768 353.034 376.374 355.574 375.775 358.069C374.796 362.715 374.28 367.708 371.73 371.711C371.126 372.673 370.584 373.672 370.108 374.703C369.623 375.757 369.623 376.083 369.181 376.894" fill="#E0E0E0"/>
<path d="M401.574 381.983C399.172 372.828 401.722 361.746 407.484 354.245C407.916 353.698 408.474 353.108 409.17 353.192C410.223 353.287 410.507 354.709 410.455 355.773C410.023 365.178 406.945 374.27 401.574 382.004" fill="#E0E0E0"/>
<path d="M404.503 383.974C415.617 386.871 428.363 384.058 437.602 377.242C432.065 374.466 425.737 373.692 419.694 375.051C413.71 376.42 408.243 379.096 404.513 383.974" fill="#E0E0E0"/>
<path d="M406.967 377.885C413.193 367.74 425.118 361.124 437.011 360.524C435.642 365.359 431.66 369.109 427.182 371.385C422.705 373.66 417.701 374.64 412.761 375.599C410.843 375.967 408.21 376.378 406.967 377.885Z" fill="#E0E0E0"/>
<path d="M402.196 348.346C403.882 342.573 405.578 336.758 406.041 330.754C406.505 324.749 405.641 318.502 402.534 313.351C396.719 324.601 396.139 337.738 402.017 348.947" fill="#E0E0E0"/>
<path d="M421.768 338.454C428.562 326.097 442.426 316.237 456.458 314.847C451.043 328.331 436.284 338.739 421.768 338.454Z" fill="#E0E0E0"/>
<path d="M417.491 340.877C427.625 342.415 436.264 348.894 445.734 352.813C447.717 353.775 449.919 354.197 452.118 354.035C453.143 354.029 454.142 353.709 454.979 353.116C455.815 352.524 456.449 351.688 456.794 350.723C457.14 349.757 457.179 348.709 456.908 347.72C456.637 346.732 456.068 345.85 455.278 345.196C453.936 343.959 452.36 343.003 450.643 342.384C440.319 338.085 429.258 337.98 418.387 340.582" fill="#E0E0E0"/>
<path d="M411.623 347.988C413.92 348.641 414.699 349.831 416.522 351.38C422.718 356.646 430.048 360.41 437.938 362.378C438.76 362.578 439.824 362.662 440.235 361.925C440.645 361.188 440.14 360.492 439.676 359.923C436.236 355.886 431.771 352.851 426.75 351.138C421.799 349.305 417.522 347.082 411.623 347.556" fill="#E0E0E0"/>
<path d="M404.997 305.039C409.157 308.867 414.072 311.781 419.426 313.595C424.78 315.41 430.454 316.083 436.084 315.573C436.601 315.584 437.103 315.404 437.496 315.068C438.275 314.215 437.338 312.898 436.442 312.192C427.299 305.071 416.237 302.11 405.008 304.997" fill="#E0E0E0"/>
<path d="M412.847 302.174C418.349 298.123 424.731 295.431 431.472 294.318C438.213 293.204 445.122 293.702 451.635 295.769C446.747 300.583 439.973 303.143 433.147 303.88C426.332 304.504 419.461 303.927 412.847 302.174Z" fill="#E0E0E0"/>
<path d="M409.728 282.442C408.832 273.32 409.412 266.125 408.78 256.96C408.78 256.222 408.579 255.348 407.895 255.085C406.936 254.716 406.146 255.885 405.788 256.854C404.459 261.103 404.119 265.598 404.793 269.998C405.466 274.398 407.136 278.586 409.675 282.242" fill="#E0E0E0"/>
<path d="M409.075 283.443C415.259 279.619 419.894 274.637 424.182 268.769C427.163 264.681 429.681 259.793 429.006 254.779C424.793 254.695 420.832 257.002 418.103 260.194C415.503 263.498 413.613 267.303 412.552 271.371C411.34 275.384 410.497 279.503 409.075 283.443" fill="#E0E0E0"/>
<path d="M423.916 279.324C437.514 274.288 450.104 266.864 461.092 257.402C456.657 255.611 451.611 256.686 447.134 258.456C436.989 262.554 428.699 269.464 423.727 279.198" fill="#E0E0E0"/>
<path d="M413.246 288.437C420.115 289.185 427.088 289.68 433.894 288.542C440.699 287.404 446.914 284.771 453.161 282.137C453.718 281.967 454.189 281.59 454.478 281.084C454.575 280.794 454.581 280.482 454.497 280.188C454.412 279.895 454.24 279.634 454.004 279.44C453.525 279.058 452.961 278.794 452.36 278.671C445.566 276.765 438.223 277.618 431.534 279.914C425.16 282.077 419.031 284.901 413.246 288.342" fill="#E0E0E0"/>
<path d="M374.058 305.355C369.38 295.874 369.686 284.876 373.721 275.132C376.575 279.472 376.881 284.992 376.396 290.164C375.912 295.337 374.289 300.636 374.205 305.829" fill="#E0E0E0"/>
<path d="M355.348 295.916C349.487 295.84 343.674 296.988 338.281 299.286C332.888 301.584 328.034 304.982 324.029 309.263C329.865 310.18 335.87 308.673 341.179 306.103C346.489 303.533 351.208 299.877 355.928 296.264" fill="#E0E0E0"/>
<path d="M342.78 291.713C337.06 291.249 331.551 290.544 326.052 292.229C320.553 293.915 315.517 297.739 313.315 303.037C318.711 303.471 324.125 302.449 328.991 300.077C333.827 297.706 338.442 294.906 342.78 291.713" fill="#E0E0E0"/>
<path d="M361.395 291.903C356.255 288.532 350.966 285.108 344.983 283.707C338.999 282.306 332.046 283.338 327.864 287.857C332.721 290.702 338.599 291.018 344.224 291.018C349.85 291.018 356.739 290.944 362.038 292.819" fill="#E0E0E0"/>
<path d="M361.427 292.176C352.631 283.538 349.302 268.021 352.841 256.222C359.782 266.85 362.817 279.559 361.427 292.176" fill="#E0E0E0"/>
<path d="M385.613 267.705C387.278 263.849 388.436 259.804 389.932 255.875C391.287 251.891 393.37 248.194 396.074 244.972C398.828 241.734 402.743 239.706 406.977 239.325C405.622 245.274 403.042 250.876 399.401 255.773C395.761 260.67 391.141 264.755 385.834 267.768" fill="#E0E0E0"/>
<path d="M381.242 272.803C378.492 269.032 375.321 263.902 371.603 261.079C367.884 258.255 363.028 256.549 358.487 257.634C360.841 261.756 364.123 265.274 368.072 267.907C372.022 270.54 376.531 272.217 381.242 272.803" fill="#E0E0E0"/>
<path d="M382.117 268.01C380.316 263.438 378.504 258.814 377.777 253.957C377.05 249.101 377.493 243.908 379.979 239.673C384.804 248.796 386.363 258.635 382.36 268.116" fill="#E0E0E0"/>
<path d="M385.656 239.683C388.395 230.634 396.675 223.966 405.619 220.911C406.73 220.461 407.932 220.28 409.127 220.384C409.721 220.453 410.282 220.694 410.74 221.078C411.199 221.462 411.535 221.971 411.708 222.544C412.035 224.082 410.76 225.462 409.601 226.484C402.607 232.452 394.476 236.943 385.698 239.683" fill="#E0E0E0"/>
<path d="M385.761 232.277C386.108 226.452 386.467 220.531 388.363 215.001C390.259 209.47 393.925 204.287 399.245 201.875C400.151 207.764 397.549 213.621 394.41 218.73C391.27 223.839 387.499 228.58 385.613 234.237" fill="#E0E0E0"/>
<path d="M385.613 236.302C383.359 229.707 383.117 221.332 379.177 215.58C376.417 211.567 371.992 208.828 369.612 204.582C368.176 208.659 368.376 213.133 370.17 217.066C371.964 220.958 374.436 224.5 377.47 227.526C380.399 230.687 382.896 232.994 385.613 236.302Z" fill="#E0E0E0"/>
<path d="M385.657 430.483C385.488 430.483 385.33 386.491 385.32 332.249C385.309 278.008 385.436 233.995 385.615 233.995C385.794 233.995 385.941 277.976 385.952 332.249C385.963 386.523 385.836 430.483 385.657 430.483Z" fill="#E0E0E0"/>
<path d="M424.095 298.718C423.565 298.977 423.011 299.185 422.441 299.34L417.89 300.878C414.056 302.184 408.778 304.038 403.058 306.419C397.338 308.8 392.049 310.822 389.005 313.456C387.793 314.473 386.828 315.752 386.182 317.196C385.75 318.249 385.676 318.86 385.613 318.85C385.587 318.696 385.587 318.54 385.613 318.386C385.681 317.948 385.791 317.518 385.939 317.101C386.513 315.567 387.458 314.199 388.689 313.119C390.526 311.567 392.581 310.293 394.788 309.337C397.222 308.199 399.929 307.009 402.795 305.829C408.536 303.48 413.856 301.615 417.732 300.446C419.671 299.845 421.251 299.392 422.357 299.098C422.923 298.916 423.505 298.789 424.095 298.718V298.718Z" fill="#E0E0E0"/>
<path d="M436.695 267.768C436.695 267.768 436.558 267.958 436.231 268.263L434.82 269.591L429.552 274.373L412.012 289.996C405.165 296.085 399.255 301.91 395.157 306.293C393.103 308.484 391.481 310.296 390.375 311.56C389.869 312.15 389.448 312.613 389.1 313.014C388.752 313.414 388.647 313.519 388.626 313.498C388.735 313.301 388.862 313.114 389.005 312.94C389.269 312.582 389.658 312.055 390.185 311.402C391.239 310.085 392.808 308.241 394.82 305.987C400.114 300.204 405.712 294.708 411.591 289.522C418.46 283.433 424.717 277.934 429.257 274.036L434.662 269.401L436.147 268.168C436.314 268.014 436.497 267.88 436.695 267.768V267.768Z" fill="#E0E0E0"/>
<path d="M404.629 296.19C404.45 296.106 405.872 292.808 407.304 288.626C408.737 284.444 409.411 280.926 409.601 280.957C409.79 280.989 409.359 284.602 407.905 288.837C407.297 290.629 406.594 292.387 405.798 294.104C405.51 294.852 405.116 295.554 404.629 296.19V296.19Z" fill="#E0E0E0"/>
<path d="M385.697 322.79C385.304 322.421 384.95 322.011 384.643 321.568L381.936 318.102C379.671 315.163 376.532 311.117 373.013 306.682C369.495 302.247 366.261 298.255 363.922 295.4L361.173 291.997C360.812 291.596 360.494 291.159 360.225 290.691C360.642 291.034 361.023 291.419 361.362 291.839C362.068 292.598 363.069 293.725 364.28 295.126C366.714 297.939 370.011 301.868 373.53 306.314C377.048 310.759 380.145 314.847 382.326 317.849C383.379 319.355 384.275 320.577 384.865 321.441C385.181 321.866 385.459 322.317 385.697 322.79V322.79Z" fill="#E0E0E0"/>
<path d="M377.27 311.992C377.165 312.108 374.921 309.432 373.741 305.387C373.077 303.23 372.806 300.971 372.941 298.718H373.215C373.099 299.224 373.004 299.498 372.951 299.487C372.899 299.477 372.899 299.192 372.951 298.676H373.236C373.367 300.871 373.746 303.044 374.363 305.155C375.49 309.095 377.439 311.886 377.27 311.992Z" fill="#E0E0E0"/>
<path d="M366.441 298.308C365.683 297.727 364.855 297.246 363.976 296.875C361.758 296.212 359.424 296.025 357.129 296.327C354.805 296.506 352.5 296.88 350.239 297.444C349.313 297.74 348.366 297.966 347.405 298.118C348.251 297.617 349.167 297.244 350.123 297.012C352.386 296.308 354.723 295.867 357.086 295.695C359.466 295.378 361.887 295.638 364.145 296.453C365.104 296.782 365.918 297.438 366.441 298.308V298.308Z" fill="#E0E0E0"/>
<path d="M363.808 294.989C363.808 295.084 362.375 294.41 360.036 293.609C353.918 291.513 347.365 291.016 341 292.166C338.567 292.598 337.092 293.051 337.061 292.945C337.369 292.751 337.707 292.609 338.061 292.524C338.995 292.197 339.949 291.93 340.916 291.723C347.343 290.312 354.044 290.821 360.184 293.188C361.106 293.541 362.007 293.949 362.88 294.41C363.502 294.747 363.829 294.947 363.808 294.989Z" fill="#E0E0E0"/>
<path d="M385.614 280.957C385.445 280.957 384.213 276.743 382.864 271.392C381.516 266.04 380.547 261.711 380.757 261.669C380.968 261.627 382.158 265.882 383.507 271.234C384.855 276.585 385.782 280.915 385.614 280.957Z" fill="#E0E0E0"/>
<path d="M385.793 280.957C385.604 281.02 384.803 278.155 382.738 275.226C381.443 273.495 379.932 271.938 378.24 270.591C378.881 270.751 379.476 271.058 379.978 271.487C381.254 272.421 382.361 273.564 383.255 274.868C384.618 276.642 385.493 278.741 385.793 280.957V280.957Z" fill="#E0E0E0"/>
<path d="M385.656 407.065C385.593 407.065 385.456 406.012 384.961 404.137C384.235 401.507 383.251 398.956 382.021 396.52C378.988 390.315 373.457 382.436 366.43 374.556C362.944 370.574 359.573 366.824 356.707 363.231C354.134 360.067 351.806 356.711 349.744 353.192C348.365 350.817 347.191 348.329 346.236 345.755C345.909 344.828 345.678 344.122 345.541 343.648C345.45 343.375 345.393 343.092 345.372 342.805C345.435 342.805 345.751 343.859 346.478 345.607C347.519 348.131 348.744 350.575 350.144 352.918C352.244 356.381 354.593 359.687 357.171 362.81C360.047 366.36 363.428 370.1 366.915 374.082C373.963 381.993 379.483 389.957 382.443 396.278C383.644 398.755 384.573 401.354 385.213 404.031C385.389 404.756 385.519 405.492 385.603 406.233C385.653 406.507 385.671 406.787 385.656 407.065V407.065Z" fill="#E0E0E0"/>
<path d="M420.399 367.803C419.813 368.19 419.204 368.542 418.576 368.857C416.929 369.795 415.352 370.851 413.857 372.017C411.644 373.737 409.569 375.629 407.652 377.674C405.472 379.971 403.228 382.646 400.942 385.501C396.37 391.242 392.093 396.32 389.533 400.376C388.227 402.388 387.279 404.084 386.657 405.274C386.37 405.91 386.036 406.522 385.656 407.107C385.686 406.928 385.743 406.754 385.825 406.591C385.962 406.264 386.151 405.769 386.436 405.169C387.239 403.439 388.143 401.758 389.143 400.133C391.64 395.983 395.885 390.832 400.447 385.101C402.743 382.235 405.008 379.56 407.231 377.263C409.179 375.224 411.294 373.349 413.551 371.659C415.087 370.524 416.719 369.526 418.429 368.678C419.029 368.372 419.482 368.182 419.851 368.045C420.015 367.928 420.202 367.845 420.399 367.803V367.803Z" fill="#E0E0E0"/>
<path d="M421.073 380.529C419.807 380.813 418.522 380.999 417.228 381.087C414.139 381.407 411.085 382.007 408.105 382.878C405.159 383.839 402.396 385.289 399.93 387.166C398.044 388.63 397.159 389.831 397.075 389.757C397.207 389.429 397.4 389.129 397.644 388.872C398.242 388.107 398.912 387.402 399.646 386.765C402.082 384.736 404.886 383.195 407.905 382.225C410.926 381.329 414.04 380.778 417.185 380.581C418.477 380.445 419.778 380.427 421.073 380.529V380.529Z" fill="#E0E0E0"/>
<path d="M398.191 388.366C397.99 388.251 399.729 385.596 401.067 382.046C402.404 378.496 402.626 375.304 402.857 375.335C402.957 376.036 402.935 376.749 402.794 377.442C402.602 379.102 402.224 380.734 401.667 382.309C401.085 383.87 400.336 385.364 399.434 386.765C399.109 387.363 398.69 387.904 398.191 388.366V388.366Z" fill="#E0E0E0"/>
<path d="M431.65 333.629C431.453 333.757 431.245 333.866 431.028 333.956L429.216 334.778C428.426 335.115 427.468 335.547 426.383 336.116C425.298 336.684 424.033 337.253 422.706 338.054L420.599 339.244C419.872 339.666 419.145 340.161 418.387 340.635C416.838 341.583 415.29 342.742 413.636 343.911C406.55 349.202 400.367 355.606 395.327 362.873C394.21 364.569 393.104 366.16 392.219 367.74C391.766 368.519 391.292 369.257 390.903 369.994L389.775 372.101C389.027 373.45 388.501 374.735 387.974 375.841C387.447 376.947 387.036 377.948 386.731 378.727L385.973 380.56C385.895 380.782 385.792 380.994 385.667 381.192C385.698 380.961 385.759 380.735 385.846 380.518C386.025 380.023 386.236 379.402 386.499 378.633C386.833 377.638 387.216 376.66 387.647 375.704C388.143 374.577 388.648 373.271 389.375 371.901L390.429 369.731C390.808 368.983 391.271 368.235 391.724 367.434C392.588 365.833 393.684 364.274 394.8 362.515C399.819 355.156 406.053 348.704 413.236 343.437C414.921 342.257 416.491 341.109 418.06 340.182C418.84 339.708 419.567 339.223 420.304 338.812L422.411 337.643C423.749 336.874 425.045 336.316 426.151 335.789C427.09 335.321 428.054 334.903 429.037 334.535L430.902 333.83C431.14 333.727 431.392 333.66 431.65 333.629Z" fill="#E0E0E0"/>
<path d="M404.155 352.044C404.413 351.158 404.939 350.374 405.662 349.8C407.354 348.322 409.515 347.494 411.761 347.461C413.958 347.446 416.136 347.873 418.166 348.715C419.026 348.986 419.842 349.38 420.589 349.884C419.724 349.712 418.877 349.458 418.061 349.126C416.049 348.438 413.94 348.082 411.814 348.072C409.707 348.117 407.67 348.833 405.999 350.116C405.34 350.714 404.724 351.359 404.155 352.044V352.044Z" fill="#E0E0E0"/>
<path d="M400.046 356.289C399.867 356.194 401.415 353.919 401.773 350.664C402.131 347.408 401.194 344.838 401.384 344.785C401.573 344.733 401.805 345.354 402.1 346.429C402.85 349.261 402.5 352.272 401.12 354.856C400.583 355.825 400.151 356.331 400.046 356.289Z" fill="#E0E0E0"/>
<path d="M355.274 413.386C356.223 430.241 361.29 447.296 369.085 464.583H402.964C410.401 447.412 415.11 430.346 415.953 413.386H355.274Z" fill="#E0E0E0"/>
<path d="M410.464 440.533C410.464 440.712 399.308 440.86 385.54 440.86C371.771 440.86 360.626 440.712 360.626 440.533C360.626 440.354 371.782 440.217 385.54 440.217C399.298 440.217 410.464 440.364 410.464 440.533Z" fill="#FAFAFA"/>
<path d="M409.705 446.622C409.705 446.801 399.244 446.948 386.35 446.948C373.456 446.948 362.984 446.801 362.984 446.622C362.984 446.443 373.445 446.306 386.35 446.306C399.254 446.306 409.705 446.453 409.705 446.622Z" fill="#FAFAFA"/>
<path d="M369.601 424.373C370.023 429.569 370.023 434.79 369.601 439.985C369.422 439.985 369.285 436.488 369.285 432.179C369.285 427.871 369.454 424.373 369.601 424.373Z" fill="#FAFAFA"/>
<path d="M387.785 424.373C387.964 424.373 388.101 427.986 388.101 432.453C388.101 436.92 387.964 440.533 387.785 440.533C387.606 440.533 387.469 436.92 387.469 432.453C387.469 427.986 387.606 424.373 387.785 424.373Z" fill="#FAFAFA"/>
<path d="M404.828 424.236C405.007 424.236 405.144 427.923 405.144 432.474C405.144 437.025 405.007 440.723 404.828 440.723C404.649 440.723 404.512 437.036 404.512 432.474C404.512 427.913 404.649 424.236 404.828 424.236Z" fill="#FAFAFA"/>
<path d="M414.899 424.373C414.899 424.552 401.815 424.689 385.677 424.689C369.538 424.689 356.454 424.552 356.454 424.373C356.454 424.194 369.527 424.057 385.677 424.057C401.826 424.057 414.899 424.194 414.899 424.373Z" fill="#FAFAFA"/>
<path d="M396.696 256.665H12.7363V268.495H396.696V256.665Z" fill="#EBEBEB"/>
<path d="M45.9532 267.041L17.1836 464.53H23.3568L58.8368 268.495L45.9532 267.041Z" fill="#EBEBEB"/>
<path d="M369.582 265.788L399.931 464.531H393.769L356.688 267.6L369.582 265.788Z" fill="#EBEBEB"/>
<path d="M27.3166 209.018V235.649H22.8711V238.514H27.3166V256.338H110.454V240.115H104.302V236.576H110.454V231.308H113.193V228.907H109.928V209.018H27.3166Z" fill="#F5F5F5"/>
<path d="M88.3633 209.06V256.033H110.433V239.82H104.281V236.586L110.433 236.691V231.393H113.225L113.172 228.654L109.927 228.58V208.986L88.3633 209.06Z" fill="#E0E0E0"/>
<path d="M89.9331 238.124C89.9331 238.293 74.9004 238.419 56.3492 238.419C37.7981 238.419 22.7549 238.293 22.7549 238.124C22.7549 237.956 37.7981 237.829 56.3492 237.829C74.9004 237.829 89.9331 237.966 89.9331 238.124Z" fill="#E0E0E0"/>
<path d="M89.9331 235.417C89.9331 235.585 74.9004 235.712 56.3492 235.712C37.7981 235.712 22.7549 235.585 22.7549 235.417C22.7549 235.248 37.7981 235.122 56.3492 235.122C74.9004 235.122 89.9331 235.259 89.9331 235.417Z" fill="#E0E0E0"/>
<path d="M94.2534 228.137C94.2534 228.306 79.2102 228.432 60.6695 228.432C42.1289 228.432 27.0752 228.306 27.0752 228.137C27.0752 227.969 42.1079 227.843 60.6695 227.843C79.2312 227.843 94.2534 227.979 94.2534 228.137Z" fill="#E0E0E0"/>
<path d="M94.6518 247.995C94.6518 248.163 79.6191 248.3 61.068 248.3C42.5168 248.3 27.4736 248.163 27.4736 247.995C27.4736 247.826 42.5063 247.7 61.068 247.7C79.6297 247.7 94.6518 247.816 94.6518 247.995Z" fill="#E0E0E0"/>
<path d="M116.595 191.151H102.1V208.385H116.595V191.151Z" fill="#F5F5F5"/>
<path d="M102.595 190.024H37.0918V209.46H102.595V190.024Z" fill="#E0E0E0"/>
<path d="M117.027 191.667H100.836V190.055H117.027C117.245 190.055 117.454 190.142 117.608 190.296C117.763 190.45 117.849 190.659 117.849 190.877C117.841 191.09 117.751 191.29 117.598 191.438C117.444 191.585 117.24 191.667 117.027 191.667Z" fill="#E0E0E0"/>
<path d="M117.027 209.471H100.836V207.827H117.027C117.245 207.827 117.454 207.914 117.608 208.068C117.763 208.222 117.849 208.431 117.849 208.649C117.849 208.867 117.763 209.076 117.608 209.23C117.454 209.384 117.245 209.471 117.027 209.471Z" fill="#E0E0E0"/>
<path d="M97.4547 190.024H89.7119V209.46H97.4547V190.024Z" fill="#EBEBEB"/>
<path d="M51.0709 190.245H43.3281V209.681H51.0709V190.245Z" fill="#EBEBEB"/>
<path d="M116.596 194.006C116.596 194.006 113.435 194.09 109.59 194.09C105.745 194.09 102.574 194.09 102.574 194.006C102.574 193.922 105.735 193.911 109.59 193.911C113.446 193.911 116.596 193.953 116.596 194.006Z" fill="#E0E0E0"/>
<path d="M116.596 196.587C116.596 196.587 113.435 196.671 109.59 196.671C105.745 196.671 102.574 196.671 102.574 196.587C102.574 196.503 105.735 196.503 109.59 196.503C113.446 196.503 116.596 196.534 116.596 196.587Z" fill="#E0E0E0"/>
<path d="M116.596 199.768C116.596 199.768 113.435 199.853 109.59 199.853C105.745 199.853 102.574 199.853 102.574 199.768C102.574 199.684 105.735 199.684 109.59 199.684C113.446 199.684 116.596 199.716 116.596 199.768Z" fill="#E0E0E0"/>
<path d="M116.596 202.95C116.596 202.95 113.435 203.034 109.59 203.034C105.745 203.034 102.574 203.034 102.574 202.95C102.574 202.865 105.735 202.865 109.59 202.865C113.446 202.865 116.596 202.897 116.596 202.95Z" fill="#E0E0E0"/>
<path d="M116.596 206.131C116.596 206.131 113.435 206.215 109.59 206.215C105.745 206.215 102.574 206.215 102.574 206.131C102.574 206.047 105.735 206.047 109.59 206.047C113.446 206.047 116.596 206.078 116.596 206.131Z" fill="#E0E0E0"/>
<path d="M85.5391 198.02H56.0742V201.517H85.5391V198.02Z" fill="#EBEBEB"/>
<path d="M88.8384 171.157L96.9921 190.308H91.7459L88.1221 180.079L88.8384 171.157Z" fill="#E0E0E0"/>
<path d="M63.809 153.838L60.6592 190.308H87.3008L90.2294 153.838H63.809Z" fill="#EBEBEB"/>
<path d="M66.4094 156.724L63.6494 187.274L83.6543 187.538L86.3512 156.545L66.4094 156.724Z" fill="#FAFAFA"/>
<path d="M70.6556 160.959L69.0859 181.976H79.7573L81.6325 160.959H70.6556Z" fill="#E0E0E0"/>
<path d="M376.81 18.2767L366.96 18.33L367.225 67.346L377.075 67.2927L376.81 18.2767Z" fill="#E0E0E0"/>
<path d="M307.125 18.4011L281.611 18.5392L281.758 45.6018L307.272 45.4637L307.125 18.4011Z" fill="#EBEBEB"/>
<path d="M332.512 18.2743L306.998 18.4124L307.144 45.475L332.658 45.3369L332.512 18.2743Z" fill="#F5F5F5"/>
<path d="M281.651 26.0341C298.601 26.1816 315.603 26.0341 332.553 25.8024C332.615 25.79 332.671 25.7565 332.712 25.7075C332.752 25.6585 332.774 25.5971 332.774 25.5337C332.774 25.4704 332.752 25.409 332.712 25.36C332.671 25.311 332.615 25.2775 332.553 25.2651C315.607 25.1668 298.643 25.2686 281.661 25.5706C281.6 25.5706 281.541 25.595 281.498 25.6385C281.454 25.6819 281.43 25.7409 281.43 25.8024C281.43 25.8638 281.454 25.9228 281.498 25.9662C281.541 26.0097 281.6 26.0341 281.661 26.0341H281.651Z" fill="#E0E0E0"/>
<path d="M312.063 45.0263L265.712 45.2771L265.831 67.3254L312.182 67.0746L312.063 45.0263Z" fill="#EBEBEB"/>
<path d="M358.193 44.7662L311.842 45.017L311.961 67.0652L358.312 66.8145L358.193 44.7662Z" fill="#F5F5F5"/>
<path d="M265.732 51.4221C296.524 51.7698 327.421 51.4221 358.214 50.9692C358.286 50.9692 358.356 50.9403 358.407 50.8889C358.459 50.8376 358.488 50.7679 358.488 50.6953C358.488 50.6226 358.459 50.553 358.407 50.5016C358.356 50.4502 358.286 50.4214 358.214 50.4214C327.421 50.2633 296.513 50.2739 265.732 50.9586C265.67 50.9586 265.611 50.983 265.568 51.0265C265.524 51.07 265.5 51.1289 265.5 51.1904C265.5 51.2519 265.524 51.3108 265.568 51.3543C265.611 51.3977 265.67 51.4221 265.732 51.4221V51.4221Z" fill="#E0E0E0"/>
<path d="M427.973 67.3397H248.402V75.2406H427.973V67.3397Z" fill="#E0E0E0"/>
<path d="M285.095 71.1426H277.805V98.1002H285.095V71.1426Z" fill="#E0E0E0"/>
<path d="M393.915 71.1426H386.625V98.1002H393.915V71.1426Z" fill="#E0E0E0"/>
<path d="M386.413 5.28986e-05L376.563 0.0533447L376.928 67.4728L386.778 67.4195L386.413 5.28986e-05Z" fill="#EBEBEB"/>
<path d="M401.807 12.5581L386.501 12.6409L386.797 67.2717L402.103 67.1889L401.807 12.5581Z" fill="#F5F5F5"/>
<path d="M401.71 23.095C399.166 23.3589 396.607 23.4469 394.051 23.3584C391.499 23.4471 388.944 23.3591 386.403 23.095C391.499 22.7439 396.614 22.7439 401.71 23.095V23.095Z" fill="#E0E0E0"/>
<path d="M401.71 20.7986C399.166 21.0625 396.607 21.1505 394.051 21.062C391.499 21.1507 388.944 21.0627 386.403 20.7986C391.499 20.4475 396.614 20.4475 401.71 20.7986V20.7986Z" fill="#E0E0E0"/>
<path d="M401.71 58.9859C396.614 59.337 391.499 59.337 386.403 58.9859C391.499 58.6348 396.614 58.6348 401.71 58.9859V58.9859Z" fill="#E0E0E0"/>
<path d="M401.71 56.6894C396.614 57.0405 391.499 57.0405 386.403 56.6894C391.499 56.3382 396.614 56.3382 401.71 56.6894V56.6894Z" fill="#E0E0E0"/>
<path d="M394.307 51.6855C394.16 51.6855 394.033 46.176 394.033 39.3708C394.033 32.5655 394.16 27.0665 394.307 27.0665C394.455 27.0665 394.57 32.576 394.57 39.3708C394.57 46.1655 394.444 51.6855 394.307 51.6855Z" fill="#E0E0E0"/>
<path d="M418.536 25.9919H401.87V67.2343H418.536V25.9919Z" fill="#EBEBEB"/>
<path d="M384.181 11.5282C384.183 12.0891 384.019 12.638 383.709 13.1054C383.399 13.5728 382.957 13.9376 382.439 14.1537C381.922 14.3698 381.351 14.4275 380.801 14.3193C380.251 14.2112 379.745 13.9421 379.347 13.5462C378.95 13.1503 378.679 12.6454 378.569 12.0955C378.459 11.5455 378.514 10.9752 378.728 10.4567C378.943 9.93832 379.306 9.49512 379.772 9.18327C380.238 8.87143 380.786 8.70496 381.347 8.70496C382.097 8.70495 382.816 9.00206 383.347 9.53122C383.879 10.0604 384.178 10.7785 384.181 11.5282V11.5282Z" fill="#E0E0E0"/>
<path d="M382.222 19.3237H380.474V59.4284H382.222V19.3237Z" fill="#E0E0E0"/>
<path d="M442.131 464.531C442.131 464.678 343.107 464.804 221.076 464.804C99.0449 464.804 0 464.678 0 464.531C0 464.383 98.9606 464.257 221.076 464.257C343.191 464.257 442.131 464.373 442.131 464.531Z" fill="#263238"/>
<path d="M219.262 331.08L262.695 464.531H254.784L203.902 331.08H219.262Z" fill="#E0E0E0"/>
<path d="M219.263 331.08H218.209H215.26L203.861 331.143L203.967 330.985C212.689 353.708 231.493 402.851 253.279 459.737C253.868 461.297 254.458 462.898 255.048 464.383L254.796 464.215H262.696L262.433 464.573C250.308 427.165 239.489 393.823 231.704 369.826C227.827 357.806 224.709 348.136 222.56 341.446C221.507 338.107 220.664 335.515 220.095 333.745L219.463 331.733C219.326 331.28 219.263 331.038 219.263 331.038C219.263 331.038 219.347 331.249 219.495 331.691L220.158 333.661C220.738 335.42 221.591 337.98 222.687 341.288C224.878 347.956 228.038 357.595 231.978 369.563C239.826 393.592 250.729 426.965 262.949 464.373L263.065 464.731H254.637L254.564 464.552C253.984 463.014 253.384 461.465 252.794 459.906C231.146 402.936 212.447 353.74 203.819 331.049V330.891H203.988L215.449 330.954H218.367C218.957 331.059 219.263 331.08 219.263 331.08Z" fill="#263238"/>
<path d="M133.786 331.08L90.3525 464.531H98.2534L149.145 331.08H133.786Z" fill="#E0E0E0"/>
<path d="M133.786 331.08C133.786 331.08 134.113 331.08 134.766 331.08H137.684L149.145 331.017H149.314L149.251 331.175C140.634 353.866 121.935 403.062 100.287 460.032L98.5064 464.678L98.4432 464.857H90.0156L90.1315 464.499L121.113 369.689L130.405 341.415C131.458 338.107 132.354 335.547 132.933 333.788L133.597 331.818C133.744 331.375 133.828 331.165 133.828 331.165C133.828 331.165 133.765 331.407 133.628 331.86L132.996 333.872C132.427 335.642 131.595 338.233 130.531 341.573C128.372 348.262 125.264 357.933 121.387 369.952C113.592 393.95 102.783 427.291 90.6582 464.699L90.3949 464.341H98.2957L98.0429 464.51L99.8127 459.864C121.598 402.978 140.402 353.793 149.072 331.122L149.188 331.28L137.779 331.217H134.84L133.786 331.08Z" fill="#263238"/>
<path d="M205.021 334.009C204.783 334.211 204.529 334.394 204.262 334.557L202.029 336.031L193.801 341.425C186.859 345.997 177.283 352.339 166.759 359.397L139.812 377.569L131.638 383.057L129.415 384.469C129.164 384.655 128.896 384.818 128.614 384.953C128.846 384.746 129.093 384.556 129.352 384.385L131.522 382.836L139.602 377.211C146.439 372.491 155.93 366.012 166.465 358.954C176.999 351.896 186.596 345.597 193.601 341.109C197.099 338.876 199.922 337.074 201.923 335.842L204.209 334.451C204.468 334.283 204.739 334.136 205.021 334.009V334.009Z" fill="#263238"/>
<path d="M121.692 188.813C121.692 188.813 108.081 190.214 106.101 198.409C104.12 206.605 97.6732 307.968 106.101 322.326C114.528 336.685 223.033 334.683 230.565 332.713C238.097 330.743 241.647 325.855 240.878 319.882C240.109 313.909 166.221 306.503 166.221 306.503L170.73 200.716C170.73 200.716 144.162 187.338 121.692 188.813Z" fill="#263238"/>
<path d="M240.943 322.442H240.617H239.647L235.929 322.537C232.695 322.621 228.017 322.663 222.234 322.653C210.646 322.653 194.686 322.252 177.083 320.988C168.287 320.346 159.912 319.535 152.317 318.671C144.721 317.807 137.895 316.859 132.185 315.963C129.32 315.542 126.75 315.089 124.485 314.71C122.22 314.331 120.271 313.983 118.68 313.656L115.025 312.951L114.077 312.761L113.761 312.677C113.869 312.662 113.979 312.662 114.087 312.677L115.046 312.814L118.722 313.414C120.313 313.688 122.262 314.014 124.537 314.352C126.813 314.689 129.383 315.131 132.238 315.521C137.958 316.374 144.785 317.249 152.369 318.112C159.954 318.976 168.329 319.745 177.125 320.388C194.718 321.652 210.678 322.084 222.234 322.21C228.007 322.274 232.684 322.284 235.929 322.274H240.627L240.943 322.442Z" fill="#455A64"/>
<path d="M225.014 386.449C224.93 386.576 207.737 374.493 186.626 359.481C165.515 344.47 148.46 332.176 148.544 332.092C148.629 332.007 165.821 344.048 186.942 359.07C208.064 374.092 225.098 386.323 225.014 386.449Z" fill="#263238"/>
<path d="M131.31 97.8053L122.619 82.4987C127.987 73.7835 129.901 63.3756 127.984 53.321C126.068 43.2664 120.46 34.2922 112.262 28.1625C104.065 22.0328 93.8715 19.1909 83.6853 20.1955C73.4991 21.2 64.057 25.9783 57.2149 33.5911C50.3729 41.204 46.6259 51.1007 46.7104 61.336C46.7949 71.5713 50.7047 81.4048 57.6715 88.9036C64.6382 96.4025 74.1579 101.024 84.3593 101.861C94.5607 102.697 104.706 99.6871 112.801 93.4229L131.31 97.8053Z" fill="white"/>
<path d="M131.311 97.8052L112.749 93.5915H112.496L112.654 93.3808L112.886 93.6125C107.18 98.0708 100.393 100.935 93.218 101.914C91.0693 102.219 88.8976 102.332 86.7288 102.251C85.6121 102.188 84.4744 102.156 83.3262 102.061L79.8603 101.545C69.5325 99.5186 60.3642 93.6349 54.2195 85.0902C50.807 80.3771 48.4402 74.9898 47.2773 69.2885C46.0971 63.2413 46.2626 57.0084 47.7619 51.0323C49.3136 44.795 52.329 39.0172 56.5581 34.1772C60.8518 29.2092 66.2691 25.3377 72.3598 22.8843C78.202 20.5773 84.4878 19.6125 90.7529 20.061C96.6695 20.4691 102.424 22.1739 107.608 25.0544C116.925 30.2082 123.909 38.7415 127.118 48.8938C128.382 53.2273 128.983 57.7275 128.898 62.241C128.675 69.4403 126.556 76.4534 122.757 82.5724V82.4039L131.311 97.7947C130.742 96.8255 128.066 92.2009 122.483 82.5619V82.4882V82.4039C126.201 76.3135 128.253 69.3531 128.435 62.2199C128.503 57.764 127.892 53.3236 126.623 49.0518C123.451 39.0157 116.557 30.5754 107.355 25.4652C102.24 22.6351 96.5647 20.9663 90.7319 20.5772C84.5627 20.1393 78.374 21.0933 72.6232 23.3688C66.6294 25.7878 61.2989 29.6014 57.0743 34.4932C52.9082 39.2597 49.9396 44.9514 48.415 51.0955C46.9283 56.9765 46.7592 63.1133 47.9199 69.0673C49.0461 74.7077 51.3665 80.0417 54.7251 84.7109C60.7733 93.161 69.8143 98.9887 80.0078 101.008L83.4315 101.534C84.5692 101.629 85.6859 101.661 86.792 101.735C88.9353 101.821 91.082 101.718 93.2075 101.429C100.316 100.491 107.053 97.6969 112.738 93.3281L113.792 92.538L113.002 93.5915L112.907 93.3386L131.311 97.8052Z" fill="#263238"/>
<path d="M80.7132 55.5622H83.3047L88.9512 47.6824V42.51C88.9512 42.51 92.9543 42.2677 92.4908 49.0308C92.0272 55.7939 92.4908 54.0768 92.4908 54.0768C92.4908 54.0768 100.992 54.0768 101.698 54.8564C102.214 55.3831 102.446 63.8317 102.53 68.4037C102.589 69.5086 102.275 70.6013 101.639 71.5066C101.003 72.412 100.082 73.0777 99.0221 73.397C98.7237 73.4803 98.4154 73.5228 98.1056 73.5234C95.9987 73.5234 85.1588 71.7958 85.1588 71.7958H80.6816L80.7132 55.5622Z" fill="#F9D422"/>
<path d="M73.2969 54.14L74.8981 71.8484H79.3331V54.4982L73.2969 54.14Z" fill="#F9D422"/>
<path d="M295.196 278.545C295.196 278.545 319.573 278.545 320.574 301.257C321.575 323.969 249.614 443.788 249.614 443.788L226.828 432.969L275.687 316.701L169.668 306.271L172.67 279.598L295.196 278.545Z" fill="#FFBE9D"/>
<path d="M254.429 436.877L253.723 438.489C253.723 438.489 276.056 461.454 274.054 466.743L220.213 442.513L229.009 424.921C235.34 432.242 243.536 436.435 254.429 436.877Z" fill="#455A64"/>
<g opacity="0.6">
<path d="M231.882 433.117C231.293 433.043 230.698 433.187 230.208 433.523C229.719 433.859 229.37 434.363 229.228 434.939C229.13 435.525 229.262 436.127 229.595 436.619C229.928 437.111 230.438 437.456 231.019 437.583C231.642 437.66 232.272 437.503 232.787 437.143C233.303 436.784 233.667 436.246 233.81 435.634C233.851 435.013 233.649 434.401 233.246 433.927C232.842 433.453 232.27 433.155 231.651 433.096" fill="white"/>
</g>
<g opacity="0.6">
<path d="M220.211 442.524L222.318 438.31L273.147 463.077C273.147 463.077 275.074 465.184 274.042 466.764L220.211 442.524Z" fill="white"/>
</g>
<path d="M253.837 438.721C253.711 438.974 252.341 438.51 250.677 438.774C249.012 439.037 247.812 439.827 247.611 439.616C247.411 439.406 248.496 438.057 250.529 437.773C252.563 437.489 254.006 438.5 253.837 438.721Z" fill="#263238"/>
<path d="M258.443 443.598C258.391 443.872 257.042 443.809 255.652 444.525C254.261 445.242 253.471 446.295 253.218 446.169C252.965 446.042 253.46 444.473 255.209 443.62C256.958 442.766 258.549 443.346 258.443 443.598Z" fill="#263238"/>
<path d="M258.611 451.794C258.347 451.794 258.611 450.267 259.885 449.129C261.16 447.991 262.698 447.981 262.709 448.244C262.719 448.507 261.655 448.939 260.602 449.887C259.548 450.836 258.885 451.889 258.611 451.794Z" fill="#263238"/>
<path d="M249.078 192.91L253.408 206.152L229.8 207.996L227.051 200.906L249.078 192.91Z" fill="#FFBE9D"/>
<path d="M316.107 210.282C316.56 211.188 317.739 211.335 318.645 211.809C319.489 212.292 320.181 213.003 320.641 213.859C321.101 214.716 321.311 215.685 321.247 216.655C321.096 218.595 320.454 220.466 319.383 222.091C319.053 222.751 318.574 223.325 317.982 223.766C317.682 223.974 317.325 224.086 316.96 224.086C316.595 224.086 316.238 223.974 315.938 223.766C315.243 223.186 315.327 222.112 315.475 221.216C316.033 217.856 315.306 213.611 316.096 210.292" fill="#FFBE9D"/>
<path d="M159.101 44.248C158.901 42.7707 159.261 41.2721 160.112 40.0475C160.962 38.823 162.24 37.9613 163.694 37.6324L189.756 21.0512C199.69 18.8179 212.205 35.4096 213.985 45.4173C215.784 56.4169 216.49 67.5676 216.092 78.7062C215.376 95.8352 204.146 97.6682 204.146 97.6682L212.574 154.628L171.963 129.588L159.101 44.248Z" fill="#FFBE9D"/>
<path d="M208.572 59.6284C208.642 60.1886 208.49 60.7538 208.15 61.2042C207.81 61.6546 207.307 61.9547 206.749 62.0408C206.2 62.1424 205.634 62.0219 205.173 61.7059C204.713 61.3899 204.397 60.9041 204.295 60.3553C204.225 59.7951 204.377 59.2299 204.717 58.7795C205.057 58.3291 205.559 58.029 206.117 57.9429C206.666 57.8413 207.233 57.9618 207.693 58.2778C208.154 58.5938 208.47 59.0796 208.572 59.6284V59.6284Z" fill="#263238"/>
<path d="M211.922 53.4762C211.711 53.708 209.984 53.6764 207.803 54.5297C205.622 55.383 204.179 56.5207 203.905 56.4575C203.631 56.3943 203.905 56.0888 204.569 55.5621C205.484 54.8145 206.521 54.2301 207.634 53.8344C208.697 53.4255 209.825 53.2149 210.963 53.2129C211.722 53.1918 212.027 53.3709 211.922 53.4762Z" fill="#263238"/>
<path d="M186.997 60.6714C187.064 61.2326 186.91 61.7978 186.568 62.2479C186.226 62.6979 185.723 62.9976 185.164 63.0838C184.617 63.1823 184.052 63.0603 183.595 62.7446C183.137 62.4288 182.822 61.9449 182.72 61.3982C182.648 60.8376 182.798 60.271 183.139 59.8199C183.479 59.3689 183.983 59.0694 184.542 58.9859C185.091 58.8843 185.658 59.0047 186.118 59.3208C186.579 59.6368 186.895 60.1226 186.997 60.6714Z" fill="#263238"/>
<path d="M189.261 57.8903C188.945 58.0167 187.323 57.0475 184.805 56.6788C182.288 56.3101 180.318 56.6788 180.075 56.5103C179.833 56.3417 180.318 56.1626 181.129 55.9625C182.392 55.7115 183.691 55.6866 184.963 55.8887C186.196 56.0576 187.387 56.4579 188.471 57.0686C189.219 57.5005 189.461 57.8376 189.261 57.8903Z" fill="#263238"/>
<path d="M199.543 72.2171C200.719 71.685 201.958 71.3062 203.23 71.0899C203.809 70.9635 204.357 70.7844 204.41 70.363C204.391 69.7457 204.181 69.1494 203.809 68.6565C203.107 67.2519 202.349 65.8157 201.534 64.3479C198.374 58.2063 195.972 53.1287 196.267 53.0023C196.562 52.8759 199.301 57.7533 202.482 63.8949L204.684 68.2351C205.141 68.9084 205.347 69.7217 205.263 70.5316C205.201 70.7503 205.09 70.9521 204.938 71.1217C204.787 71.2914 204.599 71.4246 204.389 71.5113C204.07 71.6361 203.738 71.721 203.399 71.7641C202.137 72.0754 200.842 72.2276 199.543 72.2171V72.2171Z" fill="#263238"/>
<path d="M204.136 97.7105C196.267 98.874 188.23 97.778 180.96 94.5502C180.96 94.5502 187.881 106.391 204.526 102.851L204.136 97.7105Z" fill="#EB996E"/>
<path d="M199.805 77.8951C199.239 77.1572 198.514 76.5556 197.685 76.1344C196.856 75.7133 195.942 75.4834 195.012 75.4617C194.475 75.4729 193.953 75.6471 193.517 75.9612C193.08 76.2754 192.75 76.7147 192.568 77.2209C192.386 77.8749 192.365 78.5632 192.506 79.2271C192.647 79.8911 192.947 80.5111 193.379 81.0344C193.804 81.5881 194.381 82.0057 195.04 82.2359C195.699 82.4661 196.41 82.4989 197.088 82.3301C198.186 81.8768 199.123 81.102 199.774 80.1074C200.01 79.8541 200.18 79.5466 200.269 79.2119C200.307 79.0008 200.299 78.7838 200.245 78.5763C200.19 78.3688 200.09 78.1758 199.953 78.011" fill="#EB996E"/>
<path d="M192.897 74.619C193.276 74.5453 193.571 77.063 195.931 78.601C198.291 80.1391 200.945 79.5491 201.008 79.8968C201.008 80.0548 200.471 80.4551 199.333 80.6237C197.862 80.8153 196.371 80.4834 195.12 79.6861C193.919 78.9141 193.065 77.7052 192.739 76.3151C192.518 75.23 192.728 74.619 192.897 74.619Z" fill="#263238"/>
<path d="M190 47.5348C189.779 48.1669 187.44 47.9035 184.733 48.2828C182.026 48.662 179.792 49.431 179.413 48.8727C179.245 48.5988 179.624 47.9984 180.467 47.3663C181.645 46.5883 182.985 46.0891 184.385 45.9066C185.785 45.7241 187.208 45.863 188.547 46.3128C189.579 46.7869 190.095 47.2293 190 47.5348Z" fill="#263238"/>
<path d="M212.049 48.2827C211.596 48.8621 209.553 48.5461 207.161 48.7884C204.77 49.0306 202.79 49.6416 202.263 49.136C202.021 48.8937 202.263 48.3248 203.116 47.7349C204.276 46.9916 205.598 46.5401 206.971 46.419C208.343 46.2979 209.724 46.5109 210.996 47.0396C211.902 47.4926 212.239 47.9983 212.049 48.2827Z" fill="#263238"/>
<path d="M147.671 88.0294C148.092 80.3919 149.314 55.9414 154.244 42.6048C159.174 29.2682 166.116 23.2952 173.259 20.4825C175.956 19.3299 178.906 18.893 181.822 19.2141C184.737 19.5352 187.521 20.6035 189.903 22.3155C193.569 24.9069 195.697 33.4399 195.697 33.4399C195.697 33.4399 178.368 39.4234 173.575 50.295C168.023 62.7256 167.033 68.7724 167.033 68.7724L165.537 75.3986C165.537 75.3986 168.792 104.2 170.256 110.162L146.765 132.874C147.534 125.374 147.249 95.6563 147.671 88.0294Z" fill="#263238"/>
<path d="M196.215 33.482C196.215 33.482 206.254 31.2171 211.321 42.2677C213.617 47.2716 215.893 62.4201 215.893 62.4201C215.893 62.4201 216.746 50.0421 215.419 43.3106C214.091 36.5791 209.72 28.3622 203.968 24.2011C198.216 20.04 193.855 18.4704 184.858 20.0506C187.567 20.7279 190.027 22.1642 191.948 24.1906C193.307 25.7813 193.981 27.1929 196.215 33.482Z" fill="#263238"/>
<path d="M167.226 69.5941C166.615 65.8859 162.274 63.8633 159.262 66.1072C157.608 67.3292 156.491 69.5414 157.102 73.4813C158.745 84.0157 168.932 80.1601 168.901 79.8651C168.869 79.5702 167.942 73.9237 167.226 69.5941Z" fill="#FFBE9D"/>
<path d="M165.076 76.3783C165.076 76.3783 164.918 76.5363 164.634 76.7259C164.224 76.9753 163.735 77.0617 163.264 76.9682C162.095 76.7365 160.894 75.1142 160.547 73.239C160.378 72.3436 160.414 71.4218 160.652 70.5422C160.695 70.1982 160.822 69.8702 161.023 69.5872C161.223 69.3042 161.49 69.075 161.8 68.9199C162.003 68.8348 162.228 68.8219 162.439 68.8832C162.65 68.9446 162.834 69.0766 162.959 69.257C163.149 69.5309 163.106 69.7416 163.17 69.7521C163.233 69.7627 163.37 69.5414 163.17 69.1201C163.071 68.8694 162.889 68.6609 162.653 68.5301C162.33 68.3586 161.951 68.3208 161.6 68.4248C161.182 68.5783 160.809 68.8358 160.518 69.1731C160.227 69.5104 160.026 69.9164 159.936 70.3526C159.633 71.3279 159.575 72.3625 159.767 73.3655C160.157 75.4724 161.547 77.2843 163.138 77.4844C163.431 77.5217 163.729 77.4928 164.01 77.3998C164.291 77.3068 164.547 77.1522 164.76 76.9472C165.097 76.6311 165.118 76.3888 165.076 76.3783Z" fill="#EB996E"/>
<path d="M177.399 19.3236C177.399 19.4079 178.853 19.1972 181.171 19.2393C182.527 19.2659 183.87 19.5041 185.153 19.9451C186.71 20.5212 188.142 21.3941 189.367 22.5155C191.634 24.5418 193.401 27.0658 194.528 29.8897C195.392 31.9965 195.582 33.4924 195.708 33.4714C195.693 33.1336 195.644 32.7983 195.561 32.4706C194.721 28.5239 192.639 24.95 189.619 22.2733C188.356 21.1028 186.869 20.1998 185.248 19.6186C183.93 19.1779 182.549 18.9607 181.16 18.976C180.23 18.9756 179.301 19.0354 178.379 19.1551C178.048 19.184 177.721 19.2404 177.399 19.3236V19.3236Z" fill="#455A64"/>
<path d="M158.344 78.3271C158.348 78.2674 158.348 78.2076 158.344 78.148L158.196 77.6739C158.123 77.4527 158.049 77.1893 157.954 76.8944L157.67 75.8409C157.095 73.538 156.854 71.1647 156.953 68.7934C157.087 65.2758 157.952 61.8246 159.492 58.6593C161.461 54.827 164.27 51.4888 167.709 48.8938C169.474 47.5316 171.321 46.2792 173.24 45.1436C175.094 44.0269 176.958 43.0999 178.686 42.0675C181.707 40.2243 184.581 38.1498 187.282 35.8627C189.589 33.9138 191.369 32.2389 192.549 31.059C193.15 30.4691 193.603 30.0056 193.908 29.679L194.256 29.3103C194.33 29.226 194.372 29.1839 194.361 29.1733L194.235 29.2787L193.856 29.6263L192.465 30.9853C191.232 32.1335 189.431 33.7769 187.103 35.6836C184.392 37.9329 181.519 39.9787 178.507 41.8041C176.8 42.8576 174.915 43.7319 173.05 44.8591C171.113 45.9943 169.251 47.254 167.477 48.6305C163.98 51.2503 161.127 54.6334 159.134 58.5223C157.589 61.7318 156.741 65.2325 156.648 68.7934C156.575 71.1847 156.856 73.5736 157.48 75.8831L157.796 76.9365C157.912 77.2315 158.007 77.4843 158.081 77.7055L158.27 78.1796C158.312 78.2744 158.333 78.3271 158.344 78.3271Z" fill="#455A64"/>
<path d="M155.448 74.619C155.448 74.619 155.448 74.5558 155.448 74.4505L155.384 73.9448C155.384 73.5024 155.216 72.8914 155.132 72.017C154.883 69.6442 154.845 67.2542 155.016 64.8746C155.273 61.3505 155.981 57.8739 157.123 54.5298C158.549 50.4455 160.63 46.6206 163.285 43.2053C166.02 39.83 169.211 36.8517 172.766 34.3564C175.927 31.9966 179.087 30.1426 181.605 28.4781C184.122 26.8137 186.219 25.539 187.62 24.5699C188.326 24.1063 188.852 23.7166 189.211 23.4532L189.621 23.1582L189.758 23.0424C189.758 23.0424 189.695 23.0424 189.6 23.1266L189.168 23.39L187.536 24.4434C186.124 25.3599 184.038 26.6557 181.457 28.2358C178.876 29.816 175.8 31.7122 172.556 34.0719C168.992 36.5702 165.8 39.56 163.075 42.9525C160.366 46.4005 158.248 50.2734 156.807 54.4139C155.652 57.7906 154.943 61.3038 154.7 64.8641C154.553 67.2542 154.634 69.6528 154.942 72.0275C155.047 72.8703 155.195 73.5129 155.269 73.9553C155.269 74.1555 155.342 74.324 155.374 74.4505C155.405 74.5769 155.437 74.619 155.448 74.619Z" fill="#455A64"/>
<path d="M211.689 115.187C211.689 115.187 225.268 120.707 227.87 127.776C230.472 134.844 250.214 193.216 250.214 193.216L227.301 202.002L216.851 153.964L211.689 115.187Z" fill="#455A64"/>
<path d="M141.489 280.947C141.489 280.947 281.597 274.51 290.394 276.828C299.19 279.145 304.447 283.58 306.195 294.125C307.944 304.67 334.954 444.378 334.954 444.378L310.388 451.605C310.388 451.605 275.919 372.912 274.455 359.744C272.991 346.576 268.134 319.587 268.134 319.587C268.134 319.587 214.872 320.461 175.653 319.587C136.433 318.713 141.7 282.411 141.7 282.411L141.489 280.947Z" fill="#FFBE9D"/>
<path d="M310.082 452.237L309.903 451.815C308.491 448.592 275.392 372.902 273.938 359.797C272.59 347.714 268.345 323.664 267.712 320.114C262.445 320.198 212.544 320.935 175.662 320.114C163.474 319.84 154.299 316.142 148.368 309.137C139.392 298.529 140.994 283.675 141.194 282.421L140.867 280.452H141.457C147.188 280.188 281.765 274.036 290.53 276.354C300.369 278.956 305.057 284.086 306.722 294.062C308.449 304.47 335.165 442.914 335.481 444.315L335.565 444.778L310.082 452.237ZM268.587 319.05L268.671 319.492C268.724 319.756 273.538 346.65 274.992 359.681C276.372 372.122 307.954 444.705 310.693 450.962L334.364 444.009C332.636 435.066 307.375 304.323 305.689 294.209C304.109 284.728 299.642 279.819 290.267 277.354C281.966 275.153 152.044 281.01 142.11 281.463L142.268 282.421V282.495C142.268 282.653 140.161 297.812 149.2 308.473C154.931 315.236 163.843 318.797 175.705 319.071C214.461 319.935 267.628 319.071 268.165 319.071L268.587 319.05Z" fill="#EB996E"/>
<path d="M150.949 205.383L154.478 227.21C154.478 227.21 139.15 256.254 137.422 281.221C136.601 293.082 143.406 317.375 143.406 317.375C143.406 317.375 197.384 323.306 226.502 322.547L257.568 321.188L263.046 272.656L228.177 267.621L228.703 201.485C228.703 201.485 235.024 184.072 235.509 178.92C236.625 168.049 236.162 157.051 225.301 142.956L211.69 115.187L207.15 113.08L209.309 146.717L170.184 109.541L150.369 116.651L144.754 143.146L150.949 205.383Z" fill="#455A64"/>
<g opacity="0.3">
<path d="M218.767 275.658C216.229 276.101 197.909 276.364 195.37 276.807C194.938 276.939 194.484 276.982 194.035 276.933C193.586 276.884 193.151 276.744 192.758 276.522C192.441 276.222 192.221 275.834 192.127 275.408C192.033 274.981 192.07 274.536 192.231 274.131C192.567 273.315 193.095 272.593 193.769 272.024C198.204 267.81 203.967 265.377 209.571 262.996C211.362 262.248 213.3 261.479 215.175 261.943C216.095 262.247 216.926 262.77 217.598 263.467C218.27 264.165 218.762 265.015 219.031 265.946C219.565 267.803 219.786 269.736 219.684 271.666" fill="black"/>
</g>
<g opacity="0.3">
<path d="M152.393 220.605C158.935 219.078 163.043 212.631 165.698 206.458C168.353 200.284 170.544 193.469 175.748 189.213C179.561 186.052 184.67 184.662 187.968 180.996C189.535 179.2 190.574 177.005 190.97 174.655C191.366 172.305 191.104 169.891 190.212 167.68C189.263 165.426 187.357 163.298 184.944 163.172C182.1 163.024 179.888 165.489 178.15 167.754C170.2 178.169 162.703 188.914 155.659 199.989C151.877 205.941 148.105 213.168 150.739 219.71" fill="black"/>
</g>
<path d="M152.434 120.128C152.434 120.128 141.362 123.646 137.359 130.588C133.356 137.531 126.719 171.241 125.118 180.322C123.517 189.402 115.774 226.768 125.118 232.646C134.462 238.524 146.745 229.486 149.948 224.103C153.15 218.72 166.224 190.73 166.224 190.73L154.478 180.859C154.478 180.859 156.585 154.164 155.815 148.55C155.046 142.935 152.434 120.128 152.434 120.128Z" fill="#FFBE9D"/>
<path d="M117.712 189.434L143.405 191.109L155.141 177.33L158.385 155.629L157.522 114.113C157.522 114.113 134.588 119.706 129.626 137.141C125.95 150.025 117.712 189.434 117.712 189.434Z" fill="#455A64"/>
<path d="M163.179 140.333C161.704 140.133 159.818 141.871 161.072 146.064C162.125 149.561 164.106 152.964 163.958 154.912C163.811 156.861 163.052 160.917 163.052 163.024C162.961 165.084 162.76 167.137 162.452 169.176L144.965 190.245L160.103 203.603L172.081 184.788C172.081 184.788 175.694 185.389 177.79 182.987L180.951 179.373C180.951 179.373 189.062 176.371 187.408 171.999C187.408 171.999 189.81 169.713 187.629 166.047C187.629 166.047 188.767 162.234 187.113 159.99C187.113 159.99 186.966 154.881 185.607 153.975C184.248 153.069 170.195 152.921 170.195 152.921C169.43 150.586 168.547 148.29 167.551 146.042C166.013 143.504 165.233 140.607 163.179 140.333Z" fill="#FFBE9D"/>
<path d="M169.162 161.054C169.162 161.107 168.793 160.907 168.467 160.411C168.041 159.744 167.856 158.952 167.94 158.165C168.024 157.379 168.373 156.644 168.93 156.082C169.352 155.671 169.71 155.545 169.742 155.597C169.115 156.356 168.685 157.256 168.488 158.22C168.489 159.205 168.72 160.175 169.162 161.054V161.054Z" fill="#EB996E"/>
<path d="M186.523 159.611C184.405 160.228 182.225 160.613 180.023 160.759C177.84 161.077 175.628 161.151 173.429 160.98C175.593 160.603 177.777 160.347 179.971 160.211C182.141 159.886 184.329 159.686 186.523 159.611Z" fill="#EB996E"/>
<path d="M187.767 165.637C186.021 166.346 184.177 166.786 182.299 166.943C180.448 167.286 178.555 167.349 176.685 167.132C176.685 166.974 179.171 166.816 182.226 166.395C185.281 165.974 187.735 165.489 187.767 165.637Z" fill="#EB996E"/>
<path d="M187.461 171.82C184.735 172.656 181.87 172.939 179.033 172.653C180.419 172.349 181.829 172.17 183.247 172.115C184.64 171.895 186.05 171.796 187.461 171.82V171.82Z" fill="#EB996E"/>
<path d="M174.188 173.716C174.188 173.78 173.893 173.716 173.535 173.516C173.062 173.194 172.731 172.705 172.608 172.147C172.473 171.595 172.548 171.013 172.818 170.514C173.029 170.145 173.261 169.998 173.313 170.04C173.366 170.082 172.881 170.956 173.134 172.02C173.387 173.084 174.261 173.58 174.188 173.716Z" fill="#EB996E"/>
<path d="M170.732 168.702C170.732 168.755 170.384 168.576 170.058 168.123C169.638 167.524 169.397 166.819 169.362 166.09C169.319 165.358 169.479 164.629 169.826 163.983C170.11 163.498 170.384 163.287 170.437 163.33C170.115 164.201 169.937 165.119 169.91 166.047C170.045 166.97 170.322 167.865 170.732 168.702Z" fill="#EB996E"/>
<path d="M183.142 178.467C182.378 178.872 181.539 179.116 180.677 179.184C179.842 179.424 178.966 179.485 178.106 179.363C178.869 178.953 179.709 178.709 180.572 178.647C181.405 178.4 182.282 178.339 183.142 178.467V178.467Z" fill="#EB996E"/>
<path d="M176.369 153.016C176.369 153.174 174.262 153.174 171.597 153.438C168.931 153.701 166.877 154.112 166.835 153.964C168.328 153.332 169.924 152.975 171.544 152.911C173.146 152.66 174.779 152.696 176.369 153.016Z" fill="#EB996E"/>
<path d="M222.625 203.655H309.703C311.24 203.655 312.714 204.266 313.8 205.352C314.887 206.439 315.497 207.913 315.497 209.449V271.171H216.853V209.439C216.855 207.908 217.464 206.44 218.546 205.356C219.628 204.272 221.094 203.661 222.625 203.655V203.655Z" fill="#E0E0E0"/>
<path d="M315.495 275.658H199.616C199.616 274.479 200.085 273.349 200.918 272.515C201.752 271.681 202.883 271.213 204.062 271.213H315.495V275.658Z" fill="#E0E0E0"/>
<path d="M311.852 207.995H219.844V271.213H311.852V207.995Z" fill="white"/>
<path d="M311.841 271.171C311.841 271.171 311.841 270.77 311.841 270.012C311.841 269.253 311.841 268.116 311.841 266.662C311.841 263.723 311.841 259.425 311.778 253.926C311.778 242.928 311.715 227.158 311.662 207.953L311.883 208.175H219.886L220.16 207.901C220.16 230.476 220.16 251.914 220.16 271.107L219.918 270.855L286.19 270.981L305.152 271.055H310.198H311.493H311.946H311.525H310.25H305.257L286.39 271.118L219.949 271.244H219.696V271.171C219.696 251.966 219.696 230.529 219.696 207.964V207.69H219.97H311.968H312.189V207.964C312.189 227.221 312.104 243.044 312.073 254.073C312.073 259.551 312.073 263.828 312.073 266.715C312.073 268.158 312.073 269.264 312.073 270.022C312.073 270.781 311.841 271.171 311.841 271.171Z" fill="#263238"/>
<path d="M315.012 271.171C315.012 271.329 290.14 271.445 259.464 271.445C228.788 271.445 203.905 271.329 203.905 271.171C203.905 271.013 228.777 270.897 259.464 270.897C290.151 270.897 315.012 271.065 315.012 271.171Z" fill="#263238"/>
<path d="M265.838 263.786C279.19 263.786 290.014 252.962 290.014 239.609C290.014 226.257 279.19 215.433 265.838 215.433C252.485 215.433 241.661 226.257 241.661 239.609C241.661 252.962 252.485 263.786 265.838 263.786Z" fill="#F9D422"/>
<path d="M250.814 240.199L255.934 235.354L263.003 241.864L276.919 228.77L281.975 233.552L262.929 251.629L250.814 240.199Z" fill="white"/>
<path d="M162.473 169.176C162.589 169.271 155.33 178.036 146.26 188.739C137.19 199.442 129.742 208.038 129.626 207.964C129.51 207.89 136.769 199.115 145.839 188.401C154.909 177.688 162.357 169.081 162.473 169.176Z" fill="#EB996E"/>
<path d="M161.22 155.597C160.983 158.653 160.565 161.693 159.967 164.699C159.552 167.738 158.954 170.75 158.176 173.717C158.412 170.657 158.831 167.614 159.429 164.604C159.851 161.57 160.449 158.562 161.22 155.597V155.597Z" fill="#263238"/>
<path d="M228.704 201.485C228.742 201.27 228.798 201.059 228.872 200.853L229.441 199.083C229.947 197.556 230.695 195.344 231.548 192.594C232.567 189.382 233.418 186.119 234.098 182.818C234.946 178.788 235.325 174.673 235.225 170.556C234.844 163.06 232.739 155.753 229.073 149.203C227.984 147.208 226.788 145.274 225.491 143.409C225.048 142.745 224.669 142.25 224.437 141.902C224.302 141.729 224.185 141.542 224.09 141.344C224.251 141.49 224.396 141.652 224.522 141.829C224.796 142.166 225.207 142.64 225.681 143.293C227.05 145.119 228.302 147.029 229.431 149.013C231.108 151.967 232.487 155.079 233.55 158.305C234.871 162.256 235.634 166.373 235.815 170.535C235.921 174.697 235.525 178.857 234.635 182.924C233.926 186.233 233.032 189.5 231.959 192.71C231.053 195.449 230.252 197.651 229.684 199.157C229.41 199.859 229.189 200.439 229.02 200.895C228.939 201.104 228.833 201.302 228.704 201.485V201.485Z" fill="#263238"/>
<path d="M206.316 168.681C206.359 169.172 206.359 169.665 206.316 170.156C206.314 170.734 206.272 171.311 206.189 171.883C206.113 172.647 205.997 173.407 205.842 174.159C205.673 175.071 205.448 175.972 205.168 176.856C204.871 177.882 204.519 178.891 204.114 179.879C203.142 182.108 201.934 184.227 200.511 186.2C199.053 188.168 197.382 189.97 195.529 191.572C194.716 192.266 193.865 192.913 192.979 193.511C192.221 194.049 191.43 194.538 190.609 194.975C189.929 195.368 189.225 195.72 188.502 196.028C187.984 196.281 187.449 196.495 186.901 196.671C186.445 196.859 185.972 197.003 185.489 197.103C185.437 196.987 187.459 196.365 190.367 194.669C191.162 194.212 191.932 193.713 192.674 193.173C193.495 192.626 194.286 191.93 195.149 191.225C198.779 188.031 201.657 184.074 203.577 179.637C203.979 178.672 204.33 177.688 204.63 176.687C204.922 175.816 205.164 174.93 205.357 174.032C206.232 170.788 206.211 168.681 206.316 168.681Z" fill="#263238"/>
<path d="M235.277 178.257C235.217 178.199 235.167 178.131 235.129 178.057L234.761 177.414C234.413 176.835 233.939 176.045 233.338 175.065C232.738 174.085 231.8 172.884 230.821 171.515C229.841 170.145 228.598 168.649 227.281 166.974C221.866 160.359 213.871 151.668 204.706 142.387C195.541 133.106 186.934 125.016 180.624 119.211L176.326 115.366C175.062 114.25 173.966 113.259 173.05 112.501L170.943 110.721L170.406 110.246C170.336 110.197 170.276 110.137 170.227 110.067C170.302 110.104 170.373 110.15 170.437 110.204C170.595 110.32 170.785 110.457 171.006 110.636L173.176 112.332L176.516 115.134C177.811 116.251 179.265 117.526 180.866 118.927C187.261 124.615 195.888 132.695 205.096 141.966C214.303 151.236 222.235 160.001 227.576 166.69C228.882 168.386 230.062 169.914 231.074 171.283L233.518 174.907C234.076 175.96 234.571 176.719 234.855 177.319L235.192 177.951C235.263 178.155 235.291 178.257 235.277 178.257Z" fill="#263238"/>
<path d="M214.819 226.989C214.625 227.057 214.423 227.096 214.218 227.105L212.501 227.347C211.005 227.547 208.825 227.779 206.181 228.022C200.797 228.506 193.329 228.896 185.112 228.801C176.895 228.706 169.394 228.106 164.043 227.495C161.356 227.189 159.186 226.894 157.722 226.652L156.005 226.378C155.804 226.356 155.606 226.31 155.415 226.241C155.618 226.216 155.823 226.216 156.026 226.241L157.754 226.42C159.25 226.599 161.43 226.831 164.074 227.084C169.436 227.6 176.884 228.137 185.143 228.232C193.402 228.327 200.829 227.99 206.212 227.611C208.898 227.421 211.079 227.253 212.533 227.116L214.26 226.979C214.446 226.963 214.634 226.966 214.819 226.989V226.989Z" fill="#263238"/>
<path d="M260.443 203.582C260.443 203.582 277.699 196.85 279.332 196.313C280.964 195.776 296.05 194.596 296.05 194.596L315.496 201.58C315.496 201.58 315.675 205.573 311.135 205.035C307.132 204.359 303.185 203.388 299.326 202.128L296.598 203.75L260.443 203.582Z" fill="#FFBE9D"/>
<path d="M314.557 206.142C315.01 207.058 316.19 207.195 317.096 207.68C317.934 208.169 318.621 208.881 319.08 209.736C319.539 210.591 319.753 211.556 319.698 212.525C319.547 214.463 318.905 216.33 317.834 217.951C317.505 218.605 317.029 219.175 316.443 219.615C316.143 219.824 315.786 219.935 315.421 219.935C315.056 219.935 314.699 219.824 314.399 219.615C314.112 219.265 313.918 218.847 313.837 218.401C313.756 217.954 313.79 217.495 313.936 217.066C314.494 213.705 313.767 209.449 314.557 206.131" fill="#FFBE9D"/>
<path d="M334.111 439.163L334.701 440.807C334.701 440.807 366.726 442.06 368.917 447.264L313.211 466.837L307.448 448.033C317.087 448.961 325.905 446.348 334.111 439.163Z" fill="#455A64"/>
<g opacity="0.6">
<path d="M315.18 451.973C314.7 452.326 314.368 452.844 314.245 453.427C314.123 454.01 314.219 454.617 314.516 455.134C314.852 455.635 315.369 455.987 315.958 456.114C316.548 456.242 317.164 456.136 317.677 455.818C318.185 455.446 318.536 454.898 318.663 454.281C318.79 453.664 318.682 453.021 318.362 452.479C317.96 452.005 317.39 451.704 316.772 451.639C316.154 451.574 315.535 451.751 315.043 452.131" fill="white"/>
</g>
<g opacity="0.6">
<path d="M313.211 466.837L311.831 462.318L365.725 445.21C365.725 445.21 368.58 445.421 368.886 447.317L313.211 466.837Z" fill="white"/>
</g>
<path d="M334.955 440.902C335.039 441.176 333.723 441.776 332.69 443.124C331.658 444.473 331.352 445.863 331.068 445.842C330.784 445.821 330.625 444.104 331.9 442.503C333.175 440.902 334.924 440.628 334.955 440.902Z" fill="#263238"/>
<path d="M341.643 441.26C341.802 441.502 340.78 442.376 340.263 443.851C339.747 445.326 339.905 446.643 339.631 446.727C339.358 446.811 338.641 445.326 339.326 443.504C340.011 441.681 341.549 441.007 341.643 441.26Z" fill="#263238"/>
<path d="M347.417 447.096C347.195 447.243 346.363 446.043 346.511 444.283C346.658 442.524 347.754 441.513 347.943 441.692C348.133 441.871 347.638 442.956 347.511 444.378C347.385 445.8 347.68 446.97 347.417 447.096Z" fill="#263238"/>
</svg>
