<svg width="409" height="365" viewBox="0 0 409 365" fill="none" xmlns="http://www.w3.org/2000/svg">
<path d="M387.121 183.472C387.121 183.472 387.121 178.359 379.963 171.273C372.805 164.187 368.265 160.077 368.265 160.077C368.265 160.077 364.707 171.774 371.333 178.901C376.197 183.907 381.471 188.497 387.1 192.624L387.121 183.472Z" fill="#F9D422"/>
<path d="M376.794 215.232C376.794 215.232 376.794 210.119 369.636 203.033C362.478 195.947 357.959 191.836 357.959 191.836C357.959 191.836 354.39 203.534 361.026 210.661C365.89 215.667 371.165 220.257 376.794 224.383V215.232Z" fill="#F9D422"/>
<path d="M386.671 192.133C386.671 192.133 387.213 187.082 395.045 180.752C402.878 174.423 407.857 170.864 407.857 170.864C407.857 170.864 410.158 182.869 402.837 189.27C397.471 193.735 391.742 197.743 385.709 201.254L386.671 192.133Z" fill="#F9D422"/>
<path d="M374.196 229.639C374.196 229.639 375.219 224.67 383.716 219.199C392.213 213.728 397.489 210.712 397.489 210.712C397.489 210.712 398.512 222.901 390.567 228.473C384.762 232.351 378.643 235.737 372.274 238.596L374.196 229.639Z" fill="#F9D422"/>
<path d="M376.537 270.54C376.537 270.54 376.537 265.427 383.695 258.331C390.852 251.235 395.382 247.145 395.382 247.145C395.382 247.145 398.951 258.842 392.315 265.959C387.452 270.97 382.178 275.563 376.547 279.692L376.537 270.54Z" fill="#F9D422"/>
<path d="M376.426 280.52C376.426 280.52 377.142 275.489 371.109 267.432C365.076 259.374 361.119 254.691 361.119 254.691C361.119 254.691 355.935 265.765 361.467 273.751C365.567 279.399 370.134 284.693 375.117 289.58L376.426 280.52Z" fill="#F9D422"/>
<path d="M369.401 310.102C369.401 310.102 369.401 304.989 376.559 297.903C383.717 290.817 388.257 286.706 388.257 286.706C388.257 286.706 391.815 298.404 385.189 305.531C380.324 310.538 375.05 315.132 369.422 319.264L369.401 310.102Z" fill="#F9D422"/>
<path d="M374.155 336.923C374.155 336.923 372.866 332.004 377.948 323.313C383.03 314.621 386.435 309.529 386.435 309.529C386.435 309.529 392.836 319.938 388.245 328.507C384.81 334.582 380.874 340.359 376.476 345.778L374.155 336.923Z" fill="#F9D422"/>
<path d="M387.765 182.173C387.408 187.468 386.759 192.738 385.823 197.961C383.001 212.502 375.966 221.888 373.154 235.018C370.342 248.147 378.42 265.07 376.221 281.941C374.023 298.813 367.499 308.19 369.37 319.448C371.241 330.706 381.099 361.197 381.099 361.197" stroke="#263238" stroke-linecap="round" stroke-linejoin="round"/>
<path d="M386.609 195.518L394.278 189.628" stroke="#263238" stroke-linecap="round" stroke-linejoin="round"/>
<path d="M386.968 188.738L383.747 183.022" stroke="#263238" stroke-linecap="round" stroke-linejoin="round"/>
<path d="M373.583 234.414C373.583 234.414 380.004 229.598 386.61 224.782" stroke="#263238" stroke-linecap="round" stroke-linejoin="round"/>
<path d="M376.793 224.383C376.793 224.383 371.435 213.892 365.371 206.939" stroke="#263238" stroke-linecap="round" stroke-linejoin="round"/>
<path d="M376.794 277.78C380.458 271.01 385.087 264.81 390.537 259.374" stroke="#263238" stroke-linecap="round" stroke-linejoin="round"/>
<path d="M375.546 284.917C373.597 280.327 371.268 275.908 368.582 271.706C364.84 266.174 364.298 265.458 364.298 265.458" stroke="#263238" stroke-linecap="round" stroke-linejoin="round"/>
<path d="M369.401 319.447C371.032 315.417 372.966 311.517 375.189 307.78C377.413 304.308 379.92 301.024 382.684 297.964" stroke="#263238" stroke-linecap="round" stroke-linejoin="round"/>
<path d="M376.476 345.778C376.104 341.924 376.767 338.041 378.399 334.53C381.078 329.356 384.104 322.577 385.352 319.898" stroke="#263238" stroke-linecap="round" stroke-linejoin="round"/>
<path d="M329.021 251.419C329.021 251.419 328.469 248.229 332.16 242.983C335.851 237.738 338.295 234.701 338.295 234.701C338.295 234.701 341.792 241.654 338.418 246.828C335.912 250.498 333.104 253.952 330.023 257.155L329.021 251.419Z" fill="#F9D422"/>
<path d="M338.949 270.213C338.949 270.213 338.397 267.023 342.088 261.777C345.78 256.532 348.224 253.495 348.224 253.495C348.224 253.495 351.721 260.448 348.346 265.632C345.838 269.298 343.03 272.749 339.951 275.949L338.949 270.213Z" fill="#F9D422"/>
<path d="M330.238 256.797C330.238 256.797 329.358 253.73 323.755 250.57C318.151 247.41 314.654 245.754 314.654 245.754C314.654 245.754 314.511 253.535 319.767 256.746C323.615 258.961 327.64 260.853 331.802 262.401L330.238 256.797Z" fill="#F9D422"/>
<path d="M342.14 278.966C342.14 278.966 340.934 275.96 335.044 273.444C329.154 270.929 325.473 269.62 325.473 269.62C325.473 269.62 326.148 277.371 331.751 280.009C335.812 281.808 340.015 283.265 344.318 284.365L342.14 278.966Z" fill="#F9D422"/>
<path d="M345.106 304.866C345.106 304.866 344.564 301.676 339.319 297.985C334.073 294.294 330.77 292.238 330.77 292.238C330.77 292.238 329.809 299.958 334.727 303.701C338.32 306.317 342.127 308.626 346.108 310.603L345.106 304.866Z" fill="#F9D422"/>
<path d="M346.272 311.114C346.272 311.114 345.249 308.047 348.184 302.32C351.118 296.594 353.061 293.251 353.061 293.251C353.061 293.251 357.509 299.631 354.912 305.245C352.955 309.23 350.667 313.044 348.071 316.646L346.272 311.114Z" fill="#F9D422"/>
<path d="M355.208 336.831C355.208 336.831 355.576 333.62 360.597 329.673C365.617 325.726 368.777 323.446 368.777 323.446C368.777 323.446 370.178 331.104 365.484 335.123C362.047 337.936 358.38 340.457 354.523 342.659L355.208 336.831Z" fill="#F9D422"/>
<path d="M353.868 328.896C353.868 328.896 353.316 325.706 348.08 322.014C342.845 318.323 339.552 316.268 339.552 316.268C339.552 316.268 338.591 323.988 343.51 327.74C347.105 330.353 350.912 332.661 354.89 334.642L353.868 328.896Z" fill="#F9D422"/>
<path d="M353.869 346.238C353.869 346.238 354.135 343.007 350.004 338.109C345.873 333.211 343.194 330.389 343.194 330.389C343.194 330.389 340.3 337.608 344.114 342.485C346.91 345.92 349.988 349.114 353.317 352.035L353.869 346.238Z" fill="#F9D422"/>
<path d="M328.479 250.662C329.28 253.945 330.259 257.181 331.414 260.356C334.758 269.17 340.187 274.293 343.378 282.218C346.568 290.142 343.378 301.645 346.527 311.983C349.676 322.321 354.891 327.495 354.891 334.755C354.891 342.015 352.069 362.21 352.069 362.21" stroke="#263238" stroke-linecap="round" stroke-linejoin="round"/>
<path d="M330.657 258.904L325.207 256.051" stroke="#263238" stroke-linecap="round" stroke-linejoin="round"/>
<path d="M329.697 254.691L331.087 250.765" stroke="#263238" stroke-linecap="round" stroke-linejoin="round"/>
<path d="M343.04 281.89C343.04 281.89 338.49 279.569 333.837 277.258" stroke="#263238" stroke-linecap="round" stroke-linejoin="round"/>
<path d="M339.943 275.949C341.285 271.736 343.049 267.67 345.209 263.812" stroke="#263238" stroke-linecap="round" stroke-linejoin="round"/>
<path d="M345.738 309.427C342.704 305.587 339.129 302.209 335.125 299.396" stroke="#263238" stroke-linecap="round" stroke-linejoin="round"/>
<path d="M347.295 313.762C348.023 310.677 349.004 307.657 350.23 304.733C351.978 300.858 352.275 300.347 352.275 300.347" stroke="#263238" stroke-linecap="round" stroke-linejoin="round"/>
<path d="M354.646 340.266C356.419 338.069 358.383 336.033 360.515 334.182C361.872 333.184 363.144 332.075 364.319 330.869" stroke="#263238" stroke-linecap="round" stroke-linejoin="round"/>
<path d="M354.892 334.755C353.431 332.398 351.793 330.156 349.994 328.047C348.221 326.112 346.292 324.327 344.227 322.709" stroke="#263238" stroke-linecap="round" stroke-linejoin="round"/>
<path d="M353.315 352.036C353.132 349.577 352.295 347.212 350.892 345.185C348.652 342.23 346.014 338.303 344.94 336.759" stroke="#263238" stroke-linecap="round" stroke-linejoin="round"/>
<path d="M38.5934 206.877L34.1147 194.086L38.5934 199.515L35.0759 180.322L40.5158 194.086L42.4381 167.203L45.6386 192.797L49.1561 187.685V194.086L53.3178 185.445L51.0785 200.476L54.9129 197.92L48.8391 206.233L38.5934 206.877Z" fill="#F9D422"/>
<path d="M52.6731 203.677H36.0366L39.0326 237.267H49.6771L52.6731 203.677Z" fill="#263238" stroke="#263238" stroke-linecap="round" stroke-linejoin="round"/>
<path d="M83.8803 236.889H27.2017V356.933H83.8803V236.889Z" fill="white" stroke="#263238" stroke-linecap="round" stroke-linejoin="round"/>
<path d="M86.9788 236.889H55.5361V356.933H86.9788V236.889Z" fill="white" stroke="#263238" stroke-linecap="round" stroke-linejoin="round"/>
<path d="M83.4409 236.889H55.5361V356.933H83.4409V236.889Z" fill="#263238" stroke="#263238" stroke-linecap="round" stroke-linejoin="round"/>
<path d="M80.3017 329.018H55.5361V353.6H80.3017V329.018Z" fill="#F9D422" stroke="#263238" stroke-linecap="round" stroke-linejoin="round"/>
<path d="M80.3017 330.348H55.5361V333.497H80.3017V330.348Z" fill="white" stroke="#263238" stroke-linecap="round" stroke-linejoin="round"/>
<path d="M80.3017 348.446H55.5361V351.596H80.3017V348.446Z" fill="white" stroke="#263238" stroke-linecap="round" stroke-linejoin="round"/>
<path d="M60.2295 329.529V360.614" stroke="#263238" stroke-linecap="round" stroke-linejoin="round"/>
<path d="M68.8696 329.529V360.614" stroke="#263238" stroke-linecap="round" stroke-linejoin="round"/>
<path d="M76.4575 329.529V360.614" stroke="#263238" stroke-linecap="round" stroke-linejoin="round"/>
<path d="M80.3017 241.347H55.5361V277.493H80.3017V241.347Z" fill="#F9D422" stroke="#263238" stroke-linecap="round" stroke-linejoin="round"/>
<path d="M80.3017 242.86H55.5361V246.439H80.3017V242.86Z" fill="white" stroke="#263238" stroke-linecap="round" stroke-linejoin="round"/>
<path d="M80.3017 266.031H55.5361V269.609H80.3017V266.031Z" fill="white" stroke="#263238" stroke-linecap="round" stroke-linejoin="round"/>
<path d="M60.2295 241.92V277.248" stroke="#263238" stroke-linecap="round" stroke-linejoin="round"/>
<path d="M68.8696 241.92V277.248" stroke="#263238" stroke-linecap="round" stroke-linejoin="round"/>
<path d="M76.4575 241.92V277.248" stroke="#263238" stroke-linecap="round" stroke-linejoin="round"/>
<path d="M80.3017 284.906H55.5361V321.053H80.3017V284.906Z" fill="#F9D422" stroke="#263238" stroke-linecap="round" stroke-linejoin="round"/>
<path d="M80.3017 286.42H55.5361V289.999H80.3017V286.42Z" fill="white" stroke="#263238" stroke-linecap="round" stroke-linejoin="round"/>
<path d="M80.3017 309.59H55.5361V313.169H80.3017V309.59Z" fill="white" stroke="#263238" stroke-linecap="round" stroke-linejoin="round"/>
<path d="M60.2295 285.489V320.807" stroke="#263238" stroke-linecap="round" stroke-linejoin="round"/>
<path d="M68.8696 285.489V320.807" stroke="#263238" stroke-linecap="round" stroke-linejoin="round"/>
<path d="M76.4575 285.489V320.807" stroke="#263238" stroke-linecap="round" stroke-linejoin="round"/>
<path d="M83.8703 276.992H55.5361V281.103H83.8703V276.992Z" fill="white" stroke="#263238" stroke-linecap="round" stroke-linejoin="round"/>
<path d="M83.8703 320.828H55.5361V324.938H83.8703V320.828Z" fill="white" stroke="#263238" stroke-linecap="round" stroke-linejoin="round"/>
<path d="M83.8716 236.889V356.923" stroke="#263238" stroke-linecap="round" stroke-linejoin="round"/>
<path d="M51.5376 236.889V356.923H55.5357V241.347H83.3791V236.837L51.5376 236.889Z" fill="white" stroke="#263238" stroke-linecap="round" stroke-linejoin="round"/>
<path d="M55.5361 241.347V236.889" stroke="#263238" stroke-linecap="round" stroke-linejoin="round"/>
<path d="M83.6557 181.744C80.6801 176.008 79.4326 171.897 79.4326 170.946C79.4326 169.065 83.5227 167.94 83.5227 167.94C89.9033 164.565 119.914 169.443 133.422 171.692C140.983 173.011 148.633 173.763 156.306 173.942C156.306 173.942 158.177 172.449 160.396 170.568C162.615 168.686 173.147 156.314 177.278 155.23C181.409 154.146 185.152 156.733 185.152 156.733C185.152 156.733 191.911 160.823 190.776 161.61C189.641 162.398 173.147 176.611 169.016 179.239C164.885 181.867 156.265 180.742 148.76 182.245C142.298 183.533 116.121 185.128 110.119 185.619C105.611 186.688 100.88 186.295 96.6111 184.495" fill="white"/>
<path d="M185.225 156.692C185.225 156.692 181.472 154.064 177.351 155.189C173.231 156.314 162.719 168.696 160.47 170.527C158.22 172.357 156.379 173.901 156.379 173.901C148.706 173.722 141.057 172.97 133.495 171.651C119.988 169.402 89.9765 164.494 83.596 167.899C83.596 167.899 79.5059 169.024 79.5059 170.905C79.6479 171.957 79.9193 172.987 80.3137 173.973L80.8761 174.177C80.8761 174.177 88.3712 173.39 104.548 173.778C120.724 174.167 158.138 176.386 160.541 177.255C161.564 177.643 168.813 176.007 176.85 173.165C182.986 168.165 190.194 161.917 190.92 161.477C191.984 160.813 185.225 156.692 185.225 156.692Z" fill="#F9D422"/>
<path opacity="0.5" d="M185.225 156.692C185.225 156.692 181.472 154.064 177.351 155.189C173.231 156.314 162.719 168.696 160.47 170.527C158.22 172.357 156.379 173.901 156.379 173.901C148.706 173.722 141.057 172.97 133.495 171.651C119.988 169.402 89.9765 164.494 83.596 167.899C83.596 167.899 79.5059 169.024 79.5059 170.905C79.6479 171.957 79.9193 172.987 80.3137 173.973L80.8761 174.177C80.8761 174.177 88.3712 173.39 104.548 173.778C120.724 174.167 158.138 176.386 160.541 177.255C161.564 177.643 168.813 176.007 176.85 173.165C182.986 168.165 190.194 161.917 190.92 161.477C191.984 160.813 185.225 156.692 185.225 156.692Z" fill="white"/>
<path d="M83.6557 181.744C80.6801 176.008 79.4326 171.897 79.4326 170.946C79.4326 169.065 83.5227 167.94 83.5227 167.94C89.9033 164.565 119.914 169.443 133.422 171.692C140.983 173.011 148.633 173.763 156.306 173.942C156.306 173.942 158.177 172.449 160.396 170.568C162.615 168.686 173.147 156.314 177.278 155.23C181.409 154.146 185.152 156.733 185.152 156.733C185.152 156.733 191.911 160.823 190.776 161.61C189.641 162.398 173.147 176.611 169.016 179.239C164.885 181.867 156.265 180.742 148.76 182.245C142.298 183.533 116.121 185.128 110.119 185.619C105.611 186.688 100.88 186.295 96.6111 184.495" stroke="#263238" stroke-linecap="round" stroke-linejoin="round"/>
<path d="M231.832 215.099C232.51 213.81 233.528 212.732 234.775 211.981C236.022 211.229 237.451 210.833 238.907 210.835H307.11C307.11 210.835 312.038 210.835 310.566 220.201C309.094 229.568 288.868 286.757 283.98 304.048C279.093 321.339 278.06 357.782 278.06 357.782H196.258C196.258 357.782 202.741 270.632 231.832 215.099Z" fill="white"/>
<path opacity="0.16" d="M262.548 210.835H238.907C237.451 210.833 236.022 211.229 234.775 211.981C233.527 212.732 232.509 213.81 231.831 215.099C202.74 270.632 196.186 357.751 196.186 357.751H232.874L241.923 323.384L279.654 331.166C279.92 328.282 280.227 325.348 280.585 322.454L279.757 313.251C279.757 313.251 272.026 305.122 269.593 303.087C267.159 301.052 268.775 297.381 268.366 281.522C267.957 265.663 253.723 254.262 248.426 244.496C243.13 234.731 251.279 228.627 258.601 218.862C261.208 215.334 262.271 212.737 262.548 210.835Z" fill="black"/>
<path d="M231.832 215.099C232.51 213.81 233.528 212.732 234.775 211.981C236.022 211.229 237.451 210.833 238.907 210.835H307.11C307.11 210.835 312.038 210.835 310.566 220.201C309.094 229.568 288.868 286.757 283.98 304.048C279.093 321.339 278.06 357.782 278.06 357.782H196.258C196.258 357.782 202.741 270.632 231.832 215.099Z" stroke="#263238" stroke-linecap="round" stroke-linejoin="round"/>
<path d="M295.278 227.103C288.386 243.188 273.805 306.86 271.433 357.752H278.018C278.018 357.752 279.04 321.268 283.938 304.018C288.836 286.768 309.082 229.568 310.524 220.171C311.966 210.774 307.068 210.804 307.068 210.804C307.068 210.804 300.81 214.209 295.278 227.103Z" fill="#263238" stroke="#263238" stroke-linecap="round" stroke-linejoin="round"/>
<path d="M175.468 194.955C175.468 194.955 164.588 188.574 160.468 177.326C156.347 166.079 192.728 148.062 208.526 146.937C224.324 145.812 228.783 149.933 238.18 166.068C247.577 182.204 253.937 204.331 249.059 215.211C244.182 226.091 235.93 228.719 241.902 237.707C247.873 246.695 264.786 272.217 263.661 284.221C262.536 296.226 250.91 306.717 234.008 307.862C217.105 309.007 194.61 298.854 175.857 282.299C157.103 265.744 161.971 241.398 168.699 233.525C175.427 225.651 185.581 222.645 186.327 214.771C187.074 206.898 175.468 194.955 175.468 194.955Z" fill="#263238" stroke="#263238" stroke-linecap="round" stroke-linejoin="round"/>
<path d="M221.84 177.153C227.618 187.91 234.847 202.317 237.107 211.019C241.054 226.255 220.746 235.846 226.38 243.177" stroke="white" stroke-linecap="round" stroke-linejoin="round"/>
<path d="M213.968 163.062C213.968 163.062 216.217 166.897 219.326 172.541" stroke="white" stroke-linecap="round" stroke-linejoin="round"/>
<path d="M244.274 190.129C244.941 192.145 245.373 194.231 245.563 196.345" stroke="white" stroke-linecap="round" stroke-linejoin="round"/>
<path d="M217.873 157.469C217.873 157.469 235.645 170.598 242.741 186.314" stroke="white" stroke-linecap="round" stroke-linejoin="round"/>
<path d="M193.21 167.316C180.521 170.875 162.269 176.652 163.751 179.985" stroke="white" stroke-linecap="round" stroke-linejoin="round"/>
<path d="M204.937 164.187C204.937 164.187 202.227 164.862 198.188 165.946" stroke="white" stroke-linecap="round" stroke-linejoin="round"/>
<path d="M189.243 157.561C196.511 155.27 204.124 154.267 211.738 154.596" stroke="white" stroke-linecap="round" stroke-linejoin="round"/>
<path d="M184.068 159.678C185.217 159.079 186.406 158.56 187.626 158.124" stroke="white" stroke-linecap="round" stroke-linejoin="round"/>
<path d="M79.4327 170.946C79.428 171.018 79.428 171.089 79.4327 171.161C79.428 171.089 79.428 171.018 79.4327 170.946V170.946ZM83.6557 181.744C81.9335 178.59 80.562 175.257 79.5656 171.805C80.5572 175.259 81.9289 178.592 83.6557 181.744V181.744ZM79.4531 171.222C79.4531 171.283 79.4531 171.355 79.4531 171.447C79.4736 171.355 79.4634 171.283 79.4531 171.222V171.222ZM79.5043 171.508C79.5169 171.609 79.5374 171.708 79.5656 171.805C79.5374 171.708 79.5169 171.609 79.5043 171.508ZM83.6557 181.734C87.4799 188.977 92.2378 195.688 97.8075 201.693C111.315 216.326 150.335 254.599 154.046 257.227C157.758 259.855 156.674 267.35 154.046 274.855C151.419 282.361 141.664 293.261 142.042 305.245C142.42 317.229 146.132 335.634 145.795 339.387C145.457 343.14 136.07 355.901 136.07 355.901H232.863C232.863 355.901 220.797 340.563 220.797 335.317C220.797 330.072 237.362 262.861 238.108 257.983C238.855 253.106 235.859 249.732 229.857 249.353C223.854 248.975 200.97 244.098 199.845 240.345C198.721 236.592 205.848 222.338 205.848 222.338L183.352 223.463C183.352 223.463 182.227 233.218 180.724 235.099C179.221 236.981 176.971 233.218 171.716 230.6C166.46 227.983 156.378 225.723 152.584 222.717C148.791 219.71 112.818 185.906 112.818 185.906" fill="white"/>
<path d="M158.332 225.61C160.203 228.882 162.074 231.838 162.074 231.838C162.074 231.838 168.383 235.386 169.958 235.386C171.533 235.386 181.001 240.498 181.001 240.498C181.001 240.498 188.895 238.525 186.114 231.817C185.237 230.1 184.129 228.511 182.822 227.093C182.351 230.069 181.595 233.964 180.705 235.079C179.202 236.95 176.952 233.197 171.696 230.58C168.291 228.882 162.78 227.328 158.332 225.61Z" fill="#F9D422"/>
<path d="M139.067 210.426C127.482 199.7 112.819 185.947 112.819 185.947L104.291 184.719L103.269 185.292C103.269 185.292 127.339 206.591 132.462 208.964C134.534 209.916 136.786 210.415 139.067 210.426Z" fill="#F9D422"/>
<path d="M151.204 221.531L150.284 220.713C150.755 221.49 151.02 221.98 151.02 221.98L151.204 221.531Z" fill="#F9D422"/>
<g opacity="0.5">
<path d="M158.332 225.61C160.203 228.882 162.074 231.838 162.074 231.838C162.074 231.838 168.383 235.386 169.958 235.386C171.533 235.386 181.001 240.498 181.001 240.498C181.001 240.498 188.895 238.525 186.114 231.817C185.237 230.1 184.129 228.511 182.822 227.093C182.351 230.069 181.595 233.964 180.705 235.079C179.202 236.95 176.952 233.197 171.696 230.58C168.291 228.882 162.78 227.328 158.332 225.61Z" fill="white"/>
<path d="M139.067 210.426C127.482 199.7 112.819 185.947 112.819 185.947L104.291 184.719L103.269 185.292C103.269 185.292 127.339 206.591 132.462 208.964C134.534 209.916 136.786 210.415 139.067 210.426Z" fill="white"/>
<path d="M151.204 221.531L150.284 220.713C150.755 221.49 151.02 221.98 151.02 221.98L151.204 221.531Z" fill="white"/>
</g>
<path d="M83.6557 181.734C87.4799 188.977 92.2378 195.688 97.8075 201.693C111.315 216.326 150.335 254.599 154.046 257.227C157.758 259.855 156.674 267.35 154.046 274.855C151.419 282.361 141.664 293.261 142.042 305.245C142.42 317.229 146.132 335.634 145.795 339.387C145.457 343.14 136.07 355.901 136.07 355.901H232.863C232.863 355.901 220.797 340.563 220.797 335.317C220.797 330.072 237.362 262.861 238.108 257.983C238.855 253.106 235.859 249.732 229.857 249.353C223.854 248.975 200.97 244.098 199.845 240.345C198.721 236.592 205.848 222.338 205.848 222.338L183.352 223.463C183.352 223.463 182.227 233.218 180.724 235.099C179.221 236.981 176.971 233.218 171.716 230.6C166.46 227.983 156.378 225.723 152.584 222.717C148.791 219.71 112.818 185.906 112.818 185.906M79.4327 170.946C79.428 171.018 79.428 171.089 79.4327 171.161C79.428 171.089 79.428 171.018 79.4327 170.946V170.946ZM83.6557 181.744C81.9335 178.59 80.562 175.257 79.5656 171.805C80.5572 175.259 81.9289 178.592 83.6557 181.744V181.744ZM79.4531 171.222C79.4531 171.283 79.4531 171.355 79.4531 171.447C79.4736 171.355 79.4634 171.283 79.4531 171.222V171.222ZM79.5043 171.508C79.5169 171.609 79.5374 171.708 79.5656 171.805C79.5374 171.708 79.5169 171.609 79.5043 171.508Z" stroke="#263238" stroke-linecap="round" stroke-linejoin="round"/>
<path d="M112.818 185.946C112.818 185.946 100.834 186.171 94.1465 180.66" stroke="#263238" stroke-linecap="round" stroke-linejoin="round"/>
<path d="M199.856 240.345C198.731 236.602 205.858 222.338 205.858 222.338L183.363 223.463C183.363 223.463 182.238 233.218 180.735 235.099C179.232 236.981 176.982 233.218 171.726 230.6C171.328 230.396 170.888 230.201 170.438 230.007L169.078 251.388C169.078 251.388 171.052 272.094 194.713 268.158C204.294 266.562 214.519 258.014 223.344 248.402C214.264 246.736 200.715 243.218 199.856 240.345Z" fill="white"/>
<path d="M199.222 225.17C199.222 225.17 197.862 232.799 196.768 241.234C195.674 249.67 194.866 255.949 194.866 255.949L199.856 240.345L205.48 223.811C205.48 223.811 200.04 223.811 199.222 225.17Z" fill="#F9D422"/>
<path opacity="0.5" d="M199.222 225.17C199.222 225.17 197.862 232.799 196.768 241.234C195.674 249.67 194.866 255.949 194.866 255.949L199.856 240.345L205.48 223.811C205.48 223.811 200.04 223.811 199.222 225.17Z" fill="white"/>
<path d="M199.856 240.345C198.731 236.602 205.858 222.338 205.858 222.338L183.363 223.463C183.363 223.463 182.238 233.218 180.735 235.099C179.232 236.981 176.982 233.218 171.726 230.6C171.328 230.396 170.888 230.201 170.438 230.007L169.078 251.388C169.078 251.388 171.052 272.094 194.713 268.158C204.294 266.562 214.519 258.014 223.344 248.402C214.264 246.736 200.715 243.218 199.856 240.345Z" stroke="#263238" stroke-linecap="round" stroke-linejoin="round"/>
<path d="M180.725 235.099C179.222 236.971 176.972 233.218 171.717 230.6C168.404 228.933 163.127 227.42 158.761 225.784C157.524 222.849 155.888 219.025 154.835 216.714C152.963 212.624 149.957 215.211 149.957 215.211C148.389 213.427 147.121 211.4 146.205 209.209C144.333 205.119 141.327 205.456 137.206 204.71C133.086 203.963 124.445 196.08 124.445 196.08C124.445 196.08 120.406 193.012 118.739 191.489C116.797 195.313 112.144 202.041 102.083 206.244C118.126 223.003 150.673 254.844 154.088 257.237C157.841 259.855 156.716 267.36 154.088 274.865C151.46 282.371 141.705 293.271 142.084 305.255C142.462 317.239 146.174 335.644 145.836 339.397C145.499 342.741 138.014 353.222 136.388 355.471L140.202 355.901H160.06C159.947 345.839 159.958 304.774 166.839 288.414C174.723 269.61 180.725 235.099 180.725 235.099Z" fill="#F9D422"/>
<path opacity="0.16" d="M171.716 230.6C168.403 228.933 163.127 227.42 158.76 225.784C157.523 222.849 155.887 219.025 154.834 216.714C152.963 212.624 149.957 215.211 149.957 215.211C148.388 213.427 147.121 211.4 146.204 209.209C144.333 205.119 141.326 205.456 137.206 204.71C133.085 203.963 124.444 196.08 124.444 196.08C124.444 196.08 120.406 193.012 118.739 191.489C117.907 193.112 116.917 194.65 115.784 196.08C122.491 201.755 129.895 207.767 132.482 208.963C137.594 211.326 138.791 209.352 142.707 211.724C146.623 214.097 150.989 221.95 150.989 221.95C150.989 221.95 153.362 215.63 155.335 219.976C157.308 224.322 162.043 231.807 162.043 231.807C162.043 231.807 168.352 235.355 169.926 235.355C171.164 235.355 177.227 238.504 179.804 239.864C180.377 236.868 180.694 235.069 180.694 235.069C179.221 236.971 176.972 233.218 171.716 230.6Z" fill="black"/>
<path d="M180.725 235.099C179.222 236.971 176.972 233.218 171.717 230.6C168.404 228.933 163.127 227.42 158.761 225.784C157.524 222.849 155.888 219.025 154.835 216.714C152.963 212.624 149.957 215.211 149.957 215.211C148.389 213.427 147.121 211.4 146.205 209.209C144.333 205.119 141.327 205.456 137.206 204.71C133.086 203.963 124.445 196.08 124.445 196.08C124.445 196.08 120.406 193.012 118.739 191.489C116.797 195.313 112.144 202.041 102.083 206.244C118.126 223.003 150.673 254.844 154.088 257.237C157.841 259.855 156.716 267.36 154.088 274.865C151.46 282.371 141.705 293.271 142.084 305.255C142.462 317.239 146.174 335.644 145.836 339.397C145.499 342.741 138.014 353.222 136.388 355.471L140.202 355.901H160.06C159.947 345.839 159.958 304.774 166.839 288.414C174.723 269.61 180.725 235.099 180.725 235.099Z" stroke="#263238" stroke-linecap="round" stroke-linejoin="round"/>
<path d="M180.991 233.791C180.991 233.791 176.328 232.359 173.455 234.875C170.582 237.39 166.297 250.294 163.772 264.293C162.215 272.442 163.289 280.875 166.839 288.373C166.839 288.373 172.739 272.902 174.528 265.366C176.318 257.83 180.991 233.791 180.991 233.791Z" fill="#F9D422"/>
<path opacity="0.16" d="M172.042 236.071C172.042 236.071 175.417 235.253 176.807 235.723C177.978 236.225 179.073 236.89 180.059 237.697L180.99 233.791C179.594 233.077 178.011 232.816 176.46 233.044C174.139 233.515 172.042 236.071 172.042 236.071Z" fill="black"/>
<path d="M180.991 233.791C180.991 233.791 176.328 232.359 173.455 234.875C170.582 237.39 166.297 250.294 163.772 264.293C162.215 272.442 163.289 280.875 166.839 288.373C166.839 288.373 172.739 272.902 174.528 265.366C176.318 257.83 180.991 233.791 180.991 233.791Z" stroke="#263238" stroke-linecap="round" stroke-linejoin="round"/>
<path d="M149.589 235.018L155.592 259.405L142.084 228.637" stroke="#263238" stroke-linecap="round" stroke-linejoin="round"/>
<path d="M189.131 355.901H232.875C232.875 355.901 220.809 340.563 220.809 335.317C220.809 330.072 237.374 262.861 238.12 257.983C238.867 253.106 235.871 249.732 229.868 249.353C223.866 248.975 200.982 244.098 199.857 240.345C199.857 240.345 191.227 270.734 188.231 291.369C185.654 309.069 188.323 345.798 189.131 355.901Z" fill="#F9D422"/>
<path opacity="0.16" d="M229.868 249.353C224.949 249.046 208.702 245.713 202.372 242.461L204.673 247.778C208.841 249.99 213.324 251.549 217.966 252.4C225.583 253.76 232.67 253.494 237.302 260.304L237.527 260.642C237.813 259.333 238.007 258.413 238.068 257.983C238.876 253.106 235.87 249.731 229.868 249.353Z" fill="black"/>
<path d="M189.131 355.901H232.875C232.875 355.901 220.809 340.563 220.809 335.317C220.809 330.072 237.374 262.861 238.12 257.983C238.867 253.106 235.871 249.732 229.868 249.353C223.866 248.975 200.982 244.098 199.857 240.345C199.857 240.345 191.227 270.734 188.231 291.369C185.654 309.069 188.323 345.798 189.131 355.901Z" stroke="#263238" stroke-linecap="round" stroke-linejoin="round"/>
<path d="M199.857 240.345C199.857 240.345 188.282 277.156 188.23 291.369C188.23 291.369 204.673 271.46 206.82 257.472C208.967 243.484 199.857 240.345 199.857 240.345Z" fill="#F9D422"/>
<path opacity="0.16" d="M197.862 245.048C199.601 244.99 201.328 245.356 202.894 246.115C204.46 246.874 205.818 248.003 206.85 249.404C206.85 249.404 204.58 242.727 199.856 240.345L197.862 245.048Z" fill="black"/>
<path d="M199.857 240.345C199.857 240.345 188.282 277.156 188.23 291.369C188.23 291.369 204.673 271.46 206.82 257.472C208.967 243.484 199.857 240.345 199.857 240.345Z" stroke="#263238" stroke-linecap="round" stroke-linejoin="round"/>
<path d="M323.428 348.978C323.428 348.978 331.905 349.326 337.457 350.123C341.16 350.625 344.887 350.922 348.623 351.013C348.623 351.013 345.555 344.816 342.283 343.068C339.011 341.319 333.081 338.19 328.111 338.886C323.142 339.581 316.035 344.591 316.628 346.187C317.221 347.782 319.87 348.498 323.428 348.978Z" fill="white"/>
<path d="M323.428 348.978C323.428 348.978 331.905 349.326 337.457 350.123C341.16 350.625 344.887 350.922 348.623 351.013C348.623 351.013 345.555 344.816 342.283 343.068C339.011 341.319 333.081 338.19 328.111 338.886C323.142 339.581 316.035 344.591 316.628 346.187C317.221 347.782 319.87 348.498 323.428 348.978Z" fill="#F9D422"/>
<path opacity="0.5" d="M323.428 348.978C323.428 348.978 331.905 349.326 337.457 350.123C341.16 350.625 344.887 350.922 348.623 351.013C348.623 351.013 345.555 344.816 342.283 343.068C339.011 341.319 333.081 338.19 328.111 338.886C323.142 339.581 316.035 344.591 316.628 346.187C317.221 347.782 319.87 348.498 323.428 348.978Z" fill="white"/>
<path d="M323.428 348.978C323.428 348.978 331.905 349.326 337.457 350.123C341.16 350.625 344.887 350.922 348.623 351.013C348.623 351.013 345.555 344.816 342.283 343.068C339.011 341.319 333.081 338.19 328.111 338.886C323.142 339.581 316.035 344.591 316.628 346.187C317.221 347.782 319.87 348.498 323.428 348.978Z" stroke="#263238" stroke-linecap="round" stroke-linejoin="round"/>
<path d="M337.507 346.442C337.507 346.442 344.225 342.956 345.902 343.007C347.579 343.058 358.725 350.594 358.173 351.8C357.798 352.36 357.256 352.787 356.625 353.022C355.994 353.257 355.305 353.288 354.655 353.109C353.418 352.526 345.912 349.336 345.912 349.336L341.004 350.492L337.507 346.442Z" fill="white"/>
<path d="M337.507 346.442C337.507 346.442 344.225 342.956 345.902 343.007C347.579 343.058 358.725 350.594 358.173 351.8C357.62 353.007 354.982 353.989 354.655 353.109C354.328 352.23 345.912 349.336 345.912 349.336L341.004 350.492L337.507 346.442Z" fill="#F9D422"/>
<path opacity="0.5" d="M337.507 346.442C337.507 346.442 344.225 342.956 345.902 343.007C347.579 343.058 358.725 350.594 358.173 351.8C357.62 353.007 354.982 353.989 354.655 353.109C354.328 352.23 345.912 349.336 345.912 349.336L341.004 350.492L337.507 346.442Z" fill="white"/>
<path d="M337.507 346.442C337.507 346.442 344.225 342.956 345.902 343.007C347.579 343.058 358.725 350.594 358.173 351.8C357.798 352.36 357.256 352.787 356.625 353.022C355.994 353.257 355.305 353.288 354.655 353.109C353.418 352.526 345.912 349.336 345.912 349.336L341.004 350.492L337.507 346.442Z" stroke="#263238" stroke-linecap="round" stroke-linejoin="round"/>
<path d="M332.714 340.706C332.714 340.706 341.671 340.42 343.45 341.32C345.23 342.219 353.267 356.003 352.06 357.005C350.853 358.007 347.52 357.711 347.622 356.596C347.725 355.482 340.219 348.099 340.219 348.099L334.381 346.821L332.714 340.706Z" fill="white"/>
<path d="M332.714 340.706C332.714 340.706 341.671 340.42 343.45 341.32C345.23 342.219 353.267 356.003 352.06 357.005C350.853 358.007 347.52 357.711 347.622 356.596C347.725 355.482 340.219 348.099 340.219 348.099L334.381 346.821L332.714 340.706Z" fill="#F9D422"/>
<path opacity="0.5" d="M332.714 340.706C332.714 340.706 341.671 340.42 343.45 341.32C345.23 342.219 353.267 356.003 352.06 357.005C350.853 358.007 347.52 357.711 347.622 356.596C347.725 355.482 340.219 348.099 340.219 348.099L334.381 346.821L332.714 340.706Z" fill="white"/>
<path d="M332.714 340.706C332.714 340.706 341.671 340.42 343.45 341.32C345.23 342.219 353.267 356.003 352.06 357.005C350.853 358.007 347.52 357.711 347.622 356.596C347.725 355.482 340.219 348.099 340.219 348.099L334.381 346.821L332.714 340.706Z" stroke="#263238" stroke-linecap="round" stroke-linejoin="round"/>
<path d="M327.406 338.855C327.406 338.855 336.476 338.559 338.276 339.479C340.075 340.399 348.215 354.336 346.988 355.359C345.761 356.381 342.407 356.064 342.509 354.939C342.611 353.815 335.014 346.34 335.014 346.34L329.104 345.041L327.406 338.855Z" fill="white"/>
<path d="M327.406 338.855C327.406 338.855 336.476 338.559 338.276 339.479C340.075 340.399 348.215 354.336 346.988 355.359C345.761 356.381 342.407 356.064 342.509 354.939C342.611 353.815 335.014 346.34 335.014 346.34L329.104 345.041L327.406 338.855Z" fill="#F9D422"/>
<path opacity="0.5" d="M327.406 338.855C327.406 338.855 336.476 338.559 338.276 339.479C340.075 340.399 348.215 354.336 346.988 355.359C345.761 356.381 342.407 356.064 342.509 354.939C342.611 353.815 335.014 346.34 335.014 346.34L329.104 345.041L327.406 338.855Z" fill="white"/>
<path d="M327.406 338.855C327.406 338.855 336.476 338.559 338.276 339.479C340.075 340.399 348.215 354.336 346.988 355.359C345.761 356.381 342.407 356.064 342.509 354.939C342.611 353.815 335.014 346.34 335.014 346.34L329.104 345.041L327.406 338.855Z" stroke="#263238" stroke-linecap="round" stroke-linejoin="round"/>
<path d="M224.284 286.89C230.848 297.003 244.029 322.628 247.874 325.511C253.876 330.01 294 340.931 297.865 343.917C301.73 346.902 301.464 349.898 305.125 350.993C308.785 352.087 322.508 355.226 327.743 355.717C332.978 356.207 330.637 352.966 330.637 352.966L321.71 346.831L329.492 344.909C329.492 344.909 337.293 354.295 338.756 354.807C340.218 355.318 342.795 354.807 342.631 353.651C342.345 351.8 334.021 336.657 331.066 336.013C328.111 335.368 310.176 337.853 310.176 337.853C310.176 337.853 272.557 312.484 271.882 311.584C271.882 311.584 269.633 305.204 267.792 302.576C265.952 299.948 264.786 300.705 264.786 300.705C264.786 300.705 265.543 297.32 264.418 296.195L258.416 290.193L258.201 290.479C257.179 288.434 256.156 286.103 255.031 283.444C251.892 276.052 240.777 255.305 238.906 252.309C237.505 250.069 225.767 248.464 219.815 247.789" fill="#F9D422"/>
<path opacity="0.16" d="M250.422 287.534C255.33 291.89 253.694 291.89 252.599 295.715C251.505 299.539 253.418 294.355 258.05 294.631C262.682 294.907 261.322 300.889 260.77 301.983C260.217 303.077 266.496 304.437 265.402 306.881C264.307 309.324 258.05 312.873 254.512 316.421C250.974 319.969 263.766 310.695 268.121 310.429C269.451 310.337 270.545 310.511 271.465 310.49C270.5 307.754 269.26 305.123 267.764 302.637C265.882 300.009 264.757 300.766 264.757 300.766C264.757 300.766 265.514 297.381 264.389 296.257L258.387 290.254L258.172 290.541C257.15 288.496 256.127 286.164 255.002 283.506C251.863 276.113 240.748 255.366 238.877 252.37C237.476 250.13 225.738 248.525 219.787 247.85L220.329 252.584L220.461 252.687C220.461 252.687 227.813 254.047 230.268 254.323C232.722 254.599 235.718 256.767 235.441 258.413C235.165 260.059 228.09 267.401 230.268 267.953C232.445 268.505 234.9 262.503 237.354 263.321C239.808 264.139 245.483 283.179 250.422 287.534Z" fill="black"/>
<path d="M224.284 286.89C230.848 297.003 244.029 322.628 247.874 325.511C253.876 330.01 294 340.931 297.865 343.917C301.73 346.902 301.464 349.898 305.125 350.993C308.785 352.087 322.508 355.226 327.743 355.717C332.978 356.207 330.637 352.966 330.637 352.966L321.71 346.831L329.492 344.909C329.492 344.909 337.293 354.295 338.756 354.807C340.218 355.318 342.795 354.807 342.631 353.651C342.345 351.8 334.021 336.657 331.066 336.013C328.111 335.368 310.176 337.853 310.176 337.853C310.176 337.853 272.557 312.484 271.882 311.584C271.882 311.584 269.633 305.204 267.792 302.576C265.952 299.948 264.786 300.705 264.786 300.705C264.786 300.705 265.543 297.32 264.418 296.195L258.416 290.193L258.201 290.479C257.179 288.434 256.156 286.103 255.031 283.444C251.892 276.052 240.777 255.305 238.906 252.309C237.505 250.069 225.767 248.464 219.815 247.789" stroke="#263238" stroke-linecap="round" stroke-linejoin="round"/>
<path d="M224.386 273.015C224.11 273.935 223.875 274.855 223.691 275.796" stroke="#263238" stroke-linecap="round" stroke-linejoin="round"/>
<path d="M234.325 256.092C231.111 259.754 228.402 263.829 226.267 268.209" stroke="#263238" stroke-linecap="round" stroke-linejoin="round"/>
<path d="M249.346 314.151C252.107 310.061 256.503 304.876 261.35 303.394" stroke="#263238" stroke-linecap="round" stroke-linejoin="round"/>
<path d="M246.289 319.182C246.289 319.182 246.779 318.221 247.659 316.769" stroke="#263238" stroke-linecap="round" stroke-linejoin="round"/>
<path d="M246.289 312.719C246.289 312.719 251.309 300.163 256.33 296.931C261.35 293.7 258.477 300.163 258.477 300.163" stroke="#263238" stroke-linecap="round" stroke-linejoin="round"/>
<path d="M297.867 343.927C301.742 346.923 301.466 349.909 305.126 351.003C308.787 352.097 322.509 355.236 327.745 355.727C332.98 356.218 330.638 352.976 330.638 352.976L321.712 346.841L329.493 344.919C329.493 344.919 337.295 354.306 338.757 354.817C340.22 355.328 343.001 355.512 342.633 353.661C341.917 350.082 334.023 336.667 331.068 336.023C328.113 335.379 310.178 337.863 310.178 337.863C310.178 337.863 275.913 314.345 272.16 311.799C257.61 313.2 250.687 320.818 247.773 325.388L247.875 325.47C253.877 330.01 294.001 340.931 297.867 343.927Z" fill="white"/>
<path d="M342.621 353.702C340.76 349.152 334.011 336.708 331.056 336.064C328.101 335.42 310.166 337.904 310.166 337.904C310.166 337.904 275.901 314.386 272.148 311.84C268.329 312.172 264.582 313.079 261.033 314.529C266.442 317.597 302.497 338.047 307.047 338.957C311.873 339.98 327.978 337.332 330.81 339.234C332.61 340.44 337.968 348.937 341.588 354.97C342.621 354.817 342.999 354.623 342.621 353.702Z" fill="#F9D422"/>
<path opacity="0.5" d="M342.621 353.702C339.717 347.189 334.011 336.708 331.056 336.064C328.101 335.42 310.166 337.904 310.166 337.904C310.166 337.904 275.901 314.386 272.148 311.84C268.329 312.172 264.582 313.079 261.033 314.529C266.442 317.597 302.497 338.047 307.047 338.957C311.873 339.98 327.978 337.332 330.81 339.234C332.61 340.44 337.968 348.937 341.588 354.97C342.621 354.817 343.03 354.612 342.621 353.702Z" fill="white"/>
<path d="M297.867 343.927C301.742 346.923 301.466 349.909 305.126 351.003C308.787 352.097 322.509 355.236 327.745 355.727C332.98 356.218 330.638 352.976 330.638 352.976L321.712 346.841L329.493 344.919C329.493 344.919 337.295 354.306 338.757 354.817C340.22 355.328 343.001 355.512 342.633 353.661C341.917 350.082 334.023 336.667 331.068 336.023C328.113 335.379 310.178 337.863 310.178 337.863C310.178 337.863 275.913 314.345 272.16 311.799C257.61 313.2 250.687 320.818 247.773 325.388L247.875 325.47C253.877 330.01 294.001 340.931 297.867 343.927Z" stroke="#263238" stroke-linecap="round" stroke-linejoin="round"/>
<path d="M207.495 165.373L176.696 178.227C176.323 183.639 174.983 188.941 172.739 193.881C169.099 201.581 171.226 216.152 174.723 224.015C178.22 231.879 193.629 228.801 199.263 227.819C203.085 227.092 206.827 226 210.44 224.557C212.085 225.191 213.864 225.396 215.61 225.153C217.355 224.91 219.011 224.226 220.42 223.167C220.42 223.167 203.936 176.897 207.495 165.373Z" fill="white"/>
<path d="M207.495 165.373L176.696 178.227C176.323 183.639 174.983 188.941 172.739 193.881C169.099 201.581 171.226 216.152 174.723 224.015C175.308 225.28 176.25 226.346 177.433 227.083V226.49C177.433 226.49 171.717 212.328 172.801 204.158C173.884 195.988 178.527 191.888 179.069 186.724C179.611 181.56 179.334 179.106 189.693 175.292C200.051 171.478 204.397 167.94 205.48 171.744C206.564 175.548 210.931 200.62 213.927 206.612C216.923 212.604 216.646 218.882 212.025 221.592C207.353 224.396 202.348 226.602 197.126 228.157L199.304 227.778C203.126 227.051 206.868 225.959 210.481 224.516C212.125 225.15 213.905 225.355 215.65 225.112C217.396 224.869 219.052 224.185 220.46 223.126C220.46 223.126 203.936 176.897 207.495 165.373Z" fill="#F9D422"/>
<path opacity="0.5" d="M207.495 165.373L176.696 178.227C176.323 183.639 174.983 188.941 172.739 193.881C169.099 201.581 171.226 216.152 174.723 224.015C175.308 225.28 176.25 226.346 177.433 227.083V226.49C177.433 226.49 171.717 212.328 172.801 204.158C173.884 195.988 178.527 191.888 179.069 186.724C179.611 181.56 179.334 179.106 189.693 175.292C200.051 171.478 204.397 167.94 205.48 171.744C206.564 175.548 210.931 200.62 213.927 206.612C216.923 212.604 216.646 218.882 212.025 221.592C207.353 224.396 202.348 226.602 197.126 228.157L199.304 227.778C203.126 227.051 206.868 225.959 210.481 224.516C212.125 225.15 213.905 225.355 215.65 225.112C217.396 224.869 219.052 224.185 220.46 223.126C220.46 223.126 203.936 176.897 207.495 165.373Z" fill="white"/>
<path d="M207.495 165.373L176.696 178.227C176.323 183.639 174.983 188.941 172.739 193.881C169.099 201.581 171.226 216.152 174.723 224.015C178.22 231.879 193.629 228.801 199.263 227.819C203.085 227.092 206.827 226 210.44 224.557C212.085 225.191 213.864 225.396 215.61 225.153C217.355 224.91 219.011 224.226 220.42 223.167C220.42 223.167 203.936 176.897 207.495 165.373Z" stroke="#263238" stroke-linecap="round" stroke-linejoin="round"/>
<path d="M191.931 185.527C192.015 187.338 191.79 189.15 191.267 190.885C190.449 192.93 182.729 200.968 182.964 201.837C183.199 202.706 183.894 205.497 185.264 205.763" stroke="#263238" stroke-linecap="round" stroke-linejoin="round"/>
<path d="M200.49 192.716C201.564 190.568 205.092 192.664 205.04 197.501" stroke="#263238" stroke-linecap="round" stroke-linejoin="round"/>
<path d="M183.005 186.396C183.005 186.396 186.011 185.077 188.7 189.945" stroke="#263238" stroke-linecap="round" stroke-linejoin="round"/>
<path d="M196.215 199.802C199.689 199.977 202.992 201.362 205.551 203.718" stroke="#263238" stroke-width="0.5" stroke-linecap="round" stroke-linejoin="round"/>
<path d="M179.375 193.411C181.171 193.651 182.925 194.136 184.589 194.853" stroke="#263238" stroke-width="0.5" stroke-linecap="round" stroke-linejoin="round"/>
<path d="M191.594 180.987C190.8 180.568 189.919 180.338 189.021 180.317C188.123 180.295 187.233 180.483 186.42 180.865C183.669 182.184 181.982 183.636 182.166 181.949C182.35 180.261 185.581 178.4 186.553 178.155C187.524 177.91 191.87 177.235 191.594 180.987Z" fill="#263238"/>
<path d="M199.304 177.173C202.17 179.492 204.448 182.457 205.95 185.824C207.995 190.936 209.611 185.353 207.995 182.01C206.38 178.666 201.707 175.108 199.304 177.173Z" fill="#263238"/>
<path d="M220.869 231.909C220.869 234.292 219.519 236.224 217.863 236.224C216.206 236.224 214.867 234.292 214.867 231.909C214.867 229.527 216.206 223.463 217.863 223.463C219.519 223.463 220.869 229.527 220.869 231.909Z" fill="#F9D422" stroke="#263238" stroke-linecap="round" stroke-linejoin="round"/>
<path d="M200.756 191.785C200.639 192.098 200.546 192.419 200.48 192.746C200.184 194.26 199.887 197.419 200.48 197.552C201.073 197.685 202.525 194.73 202.781 193.217C202.838 192.92 202.873 192.619 202.883 192.317C202.185 192.098 201.475 191.92 200.756 191.785Z" fill="#263238"/>
<path d="M183.311 186.1C183.22 186.367 183.149 186.641 183.097 186.918C182.79 188.431 182.8 191.755 183.444 191.877C184.088 192 185.142 188.891 185.438 187.378C185.512 187.011 185.553 186.638 185.561 186.264C184.829 186.062 184.065 186.007 183.311 186.1V186.1Z" fill="#263238"/>
<path d="M200.49 192.767L201.513 190.865C203.134 191.181 204.603 192.03 205.685 193.278" stroke="#263238" stroke-width="0.75" stroke-linecap="round" stroke-linejoin="round"/>
<path d="M183.312 186.1L184.335 184.904C184.335 184.904 184.774 184.689 187.187 185.783" stroke="#263238" stroke-width="0.75" stroke-linecap="round" stroke-linejoin="round"/>
<path d="M179.436 213.831C179.436 213.831 181.153 210.671 183.454 210.671C185.755 210.671 187.473 215.835 187.473 215.835" stroke="#263238" stroke-linecap="round" stroke-linejoin="round"/>
<path d="M105.395 350.093C103.172 349.982 100.988 349.462 98.9532 348.559C98.6695 348.454 98.4101 348.292 98.1909 348.084C97.9716 347.876 97.797 347.625 97.6778 347.347C97.5585 347.069 97.4971 346.77 97.4972 346.467C97.4973 346.165 97.559 345.865 97.6785 345.587C97.798 345.31 97.9728 345.059 98.1922 344.851C98.4117 344.643 98.6712 344.481 98.955 344.377C99.2387 344.272 99.5409 344.226 99.8429 344.242C100.145 344.258 100.441 344.335 100.712 344.469C102.757 345.338 105.405 345.88 106.111 345.573C107.41 344.121 109.403 335.348 106.827 331.114C106.244 330.174 105.702 330 105.344 329.959C103.882 329.754 101.714 331.258 100.947 332.004C100.734 332.205 100.483 332.363 100.208 332.467C99.9339 332.572 99.6417 332.621 99.3483 332.612C99.0549 332.604 98.766 332.538 98.4982 332.417C98.2304 332.297 97.9889 332.126 97.7875 331.912C97.5861 331.699 97.4287 331.447 97.3243 331.173C97.22 330.899 97.1706 330.607 97.1792 330.313C97.1877 330.02 97.254 329.731 97.3741 329.463C97.4943 329.195 97.666 328.954 97.8796 328.752C98.2783 328.364 101.97 325.041 105.906 325.572C106.883 325.715 107.813 326.081 108.625 326.641C109.438 327.201 110.11 327.941 110.59 328.804C114.383 334.99 111.786 346.759 108.872 349.09C107.859 349.807 106.634 350.16 105.395 350.093V350.093Z" fill="white"/>
<path d="M108.391 330.44C108.123 329.804 107.703 329.245 107.168 328.81C106.633 328.375 106 328.078 105.323 327.945C102.767 327.536 100.364 330.102 100.098 330.388C99.8537 330.683 99.7027 331.043 99.6644 331.424C99.6262 331.805 99.7024 332.188 99.8834 332.525C100.286 332.445 100.657 332.254 100.957 331.973C101.724 331.258 103.892 329.754 105.354 329.928C105.712 329.928 106.254 330.143 106.837 331.084C109.413 335.276 107.419 344.09 106.121 345.542C105.415 345.849 102.777 345.307 100.722 344.438C100.469 344.332 100.199 344.273 99.9242 344.264C99.9429 344.544 100.031 344.816 100.181 345.053C100.331 345.29 100.538 345.487 100.783 345.624C102.076 346.315 103.502 346.719 104.965 346.81C105.8 346.85 106.618 346.564 107.246 346.013C109.168 344.244 110.865 335.194 108.391 330.44Z" fill="#F9D422"/>
<path opacity="0.5" d="M108.391 330.44C108.123 329.804 107.703 329.245 107.168 328.81C106.633 328.375 106 328.078 105.323 327.945C102.767 327.536 100.364 330.102 100.098 330.388C99.8537 330.683 99.7027 331.043 99.6644 331.424C99.6262 331.805 99.7024 332.188 99.8834 332.525C100.286 332.445 100.657 332.254 100.957 331.973C101.724 331.258 103.892 329.754 105.354 329.928C105.712 329.928 106.254 330.143 106.837 331.084C109.413 335.276 107.419 344.09 106.121 345.542C105.415 345.849 102.777 345.307 100.722 344.438C100.469 344.332 100.199 344.273 99.9242 344.264C99.9429 344.544 100.031 344.816 100.181 345.053C100.331 345.29 100.538 345.487 100.783 345.624C102.076 346.315 103.502 346.719 104.965 346.81C105.8 346.85 106.618 346.564 107.246 346.013C109.168 344.244 110.865 335.194 108.391 330.44Z" fill="white"/>
<path d="M105.395 350.093C103.172 349.982 100.988 349.462 98.9532 348.559C98.6695 348.454 98.4101 348.292 98.1909 348.084C97.9716 347.876 97.797 347.625 97.6778 347.347C97.5585 347.069 97.4971 346.77 97.4972 346.467C97.4973 346.165 97.559 345.865 97.6785 345.587C97.798 345.31 97.9728 345.059 98.1922 344.851C98.4117 344.643 98.6712 344.481 98.955 344.377C99.2387 344.272 99.5409 344.226 99.8429 344.242C100.145 344.258 100.441 344.335 100.712 344.469C102.757 345.338 105.405 345.88 106.111 345.573C107.41 344.121 109.403 335.348 106.827 331.114C106.244 330.174 105.702 330 105.344 329.959C103.882 329.754 101.714 331.258 100.947 332.004C100.734 332.205 100.483 332.363 100.208 332.467C99.9339 332.572 99.6417 332.621 99.3483 332.612C99.0549 332.604 98.766 332.538 98.4982 332.417C98.2304 332.297 97.9889 332.126 97.7875 331.912C97.5861 331.699 97.4287 331.447 97.3243 331.173C97.22 330.899 97.1706 330.607 97.1792 330.313C97.1877 330.02 97.254 329.731 97.3741 329.463C97.4943 329.195 97.666 328.954 97.8796 328.752C98.2783 328.364 101.97 325.041 105.906 325.572C106.883 325.715 107.813 326.081 108.625 326.641C109.438 327.201 110.11 327.941 110.59 328.804C114.383 334.99 111.786 346.759 108.872 349.09C107.859 349.807 106.634 350.16 105.395 350.093V350.093Z" stroke="#263238" stroke-linecap="round" stroke-linejoin="round"/>
<path d="M101.489 323.711H76.8975V356.35H101.489V323.711Z" fill="white"/>
<path d="M86.9693 323.711H76.8975V356.35H86.9693V323.711Z" fill="#F9D422"/>
<path opacity="0.5" d="M86.9693 323.711H76.8975V356.35H86.9693V323.711Z" fill="white"/>
<path d="M101.489 323.711H76.8975V356.35H101.489V323.711Z" stroke="#263238" stroke-linecap="round" stroke-linejoin="round"/>
<path d="M236.626 355.9H131.572L128.146 298.148C128.052 297.588 128.079 297.014 128.228 296.466C128.377 295.918 128.642 295.409 129.007 294.973C129.371 294.538 129.826 294.186 130.339 293.944C130.853 293.701 131.413 293.573 131.981 293.567H236.176C236.748 293.567 237.312 293.691 237.831 293.931C238.349 294.171 238.809 294.521 239.178 294.958C239.547 295.394 239.816 295.905 239.967 296.456C240.118 297.007 240.147 297.585 240.052 298.148L236.626 355.9Z" fill="#263238" stroke="#263238" stroke-linecap="round" stroke-linejoin="round"/>
<path d="M136.747 294.948H235.421C235.978 294.942 236.53 295.058 237.038 295.288C237.546 295.518 237.997 295.856 238.36 296.279C238.724 296.702 238.99 297.199 239.141 297.736C239.292 298.272 239.324 298.835 239.235 299.385" stroke="white" stroke-linecap="round" stroke-linejoin="round"/>
<path d="M128.913 298.475C128.995 297.509 129.439 296.609 130.155 295.955C130.872 295.301 131.808 294.942 132.778 294.948" stroke="white" stroke-linecap="round" stroke-linejoin="round"/>
<path d="M237.065 350.277H131.131V355.901H237.065V350.277Z" fill="white" stroke="#263238" stroke-linecap="round" stroke-linejoin="round"/>
<path d="M183.722 329.458C187.867 329.458 191.227 327.443 191.227 324.959C191.227 322.474 187.867 320.46 183.722 320.46C179.577 320.46 176.217 322.474 176.217 324.959C176.217 327.443 179.577 329.458 183.722 329.458Z" fill="white" stroke="#263238" stroke-linecap="round" stroke-linejoin="round"/>
<path d="M396.846 355.236H2.29346V364.817H396.846V355.236Z" fill="#263238"/>
<path d="M294.542 0H104.731C98.3324 0 93.1455 5.18688 93.1455 11.5852V120.495C93.1455 126.893 98.3324 132.08 104.731 132.08H294.542C300.941 132.08 306.128 126.893 306.128 120.495V11.5852C306.128 5.18688 300.941 0 294.542 0Z" fill="#F9D422"/>
<path d="M204.646 75.9023C221.864 73.1352 233.578 56.9343 230.811 39.7165C228.044 22.4987 211.843 10.784 194.625 13.5511C177.407 16.3182 165.693 32.5192 168.46 49.737C171.227 66.9548 187.428 78.6694 204.646 75.9023Z" fill="#263238"/>
<path d="M199.396 50.564L188.874 64.0715C188.517 64.6338 188.025 65.0983 187.443 65.4232C186.861 65.748 186.207 65.9231 185.541 65.9325C184.627 65.945 183.745 65.5959 183.087 64.9611C182.752 64.6543 182.488 64.2791 182.312 63.8609C182.135 63.4427 182.051 62.9914 182.064 62.5378C182.097 61.5217 182.456 60.5432 183.087 59.7462L195.081 44.9094L183.833 30.0623C183.311 29.3655 183.024 28.5201 183.015 27.6491C183.013 27.1297 183.118 26.6153 183.324 26.1384C183.529 25.6615 183.832 25.2324 184.212 24.8781C184.568 24.5056 184.997 24.2093 185.472 24.0072C185.946 23.8051 186.457 23.7013 186.973 23.7022C187.633 23.7129 188.28 23.8888 188.856 24.2139C189.431 24.5389 189.915 25.0028 190.265 25.5632L200.429 38.9481L210.654 25.7881C211.02 25.1742 211.531 24.6598 212.143 24.2906C212.755 23.9215 213.448 23.7088 214.162 23.6715C214.604 23.6704 215.043 23.7607 215.449 23.9366C215.856 24.1125 216.221 24.3704 216.524 24.694C216.846 24.9974 217.103 25.3634 217.278 25.7696C217.454 26.1757 217.545 26.6135 217.546 27.0561C217.535 27.8481 217.262 28.6141 216.769 29.2341L204.734 44.6333L216.36 59.9712C216.91 60.6568 217.215 61.5058 217.229 62.3844C217.232 62.8924 217.125 63.3951 216.915 63.8576C216.705 64.3202 216.397 64.7316 216.012 65.0634C215.262 65.7848 214.262 66.1879 213.221 66.1882C212.557 66.1799 211.906 66.0052 211.327 65.6801C210.748 65.355 210.26 64.8898 209.908 64.3272L199.396 50.564Z" fill="white"/>
<path d="M259.798 109.206H139.436C136.995 109.206 134.655 108.236 132.929 106.51C131.203 104.784 130.233 102.444 130.233 100.003V100.003C130.233 97.5623 131.203 95.2216 132.929 93.4957C134.655 91.7699 136.995 90.8003 139.436 90.8003H259.798C262.238 90.8003 264.579 91.7699 266.305 93.4957C268.031 95.2216 269 97.5623 269 100.003V100.003C269 102.444 268.031 104.784 266.305 106.51C264.579 108.236 262.238 109.206 259.798 109.206V109.206Z" fill="white"/>
<path d="M155.929 102.968C155.849 102.968 155.77 102.952 155.696 102.92C155.622 102.889 155.555 102.842 155.5 102.784C155.439 102.724 155.392 102.652 155.36 102.573C155.329 102.494 155.314 102.409 155.316 102.324C155.316 102.18 155.355 102.039 155.428 101.915L156.349 100.484H154.467C154.38 100.488 154.293 100.474 154.212 100.442C154.131 100.41 154.058 100.362 153.997 100.3C153.892 100.177 153.834 100.021 153.834 99.8598C153.834 99.6985 153.892 99.5425 153.997 99.4201C154.058 99.3578 154.131 99.3092 154.212 99.2775C154.293 99.2457 154.38 99.2316 154.467 99.2361L156.318 99.2872L155.5 97.9579C155.418 97.8218 155.372 97.6669 155.367 97.508C155.365 97.4228 155.38 97.338 155.411 97.2589C155.443 97.1797 155.491 97.1079 155.551 97.0479C155.608 96.9894 155.677 96.943 155.752 96.9114C155.828 96.8798 155.909 96.8636 155.991 96.8638C156.105 96.8621 156.218 96.8942 156.314 96.956C156.411 97.0179 156.487 97.1067 156.533 97.2115L157.433 98.8169L158.291 97.2831C158.346 97.1637 158.431 97.0615 158.54 96.9876C158.648 96.9137 158.774 96.8709 158.905 96.8638C158.985 96.8638 159.065 96.8802 159.139 96.9118C159.212 96.9434 159.279 96.9897 159.334 97.0479C159.394 97.1041 159.442 97.1723 159.473 97.2481C159.505 97.3238 159.521 97.4055 159.519 97.4876C159.517 97.6328 159.475 97.7746 159.396 97.8966L158.496 99.3383L160.367 99.2872C160.454 99.2821 160.541 99.2959 160.623 99.3277C160.704 99.3594 160.777 99.4084 160.838 99.4713C160.943 99.5937 161 99.7497 161 99.911C161 100.072 160.943 100.228 160.838 100.351C160.777 100.414 160.704 100.462 160.623 100.494C160.541 100.526 160.454 100.54 160.367 100.535H158.476L159.314 101.844C159.409 102.002 159.461 102.181 159.467 102.365C159.47 102.448 159.456 102.53 159.427 102.608C159.397 102.685 159.351 102.756 159.294 102.815C159.24 102.872 159.175 102.918 159.103 102.95C159.031 102.981 158.953 102.998 158.874 102.999C158.748 102.996 158.625 102.957 158.52 102.886C158.415 102.815 158.332 102.716 158.281 102.6L157.433 101.097L156.584 102.6C156.522 102.719 156.428 102.817 156.312 102.882C156.195 102.947 156.063 102.977 155.929 102.968V102.968Z" fill="black"/>
<path d="M165.317 102.968C165.236 102.968 165.157 102.952 165.083 102.92C165.009 102.889 164.943 102.843 164.887 102.784C164.827 102.724 164.779 102.653 164.748 102.573C164.716 102.494 164.701 102.409 164.703 102.324C164.703 102.18 164.742 102.039 164.816 101.915L165.736 100.484H163.854C163.767 100.488 163.681 100.474 163.599 100.442C163.518 100.411 163.445 100.362 163.384 100.3C163.279 100.177 163.221 100.021 163.221 99.8599C163.221 99.6986 163.279 99.5426 163.384 99.4203C163.445 99.3579 163.518 99.3093 163.599 99.2776C163.681 99.2458 163.767 99.2317 163.854 99.2362L165.705 99.2873L164.836 97.9069C164.754 97.7708 164.708 97.6159 164.703 97.457C164.701 97.3718 164.716 97.287 164.748 97.2079C164.779 97.1287 164.827 97.0569 164.887 96.9969C164.944 96.9384 165.013 96.892 165.088 96.8604C165.164 96.8288 165.245 96.8126 165.327 96.8128C165.441 96.8111 165.554 96.8432 165.65 96.905C165.747 96.9668 165.823 97.0557 165.869 97.1605L166.769 98.7658L167.628 97.232C167.682 97.1127 167.767 97.0105 167.876 96.9366C167.984 96.8627 168.11 96.8198 168.241 96.8128C168.321 96.8128 168.401 96.8291 168.475 96.8608C168.549 96.8924 168.615 96.9387 168.671 96.9969C168.73 97.0531 168.778 97.1213 168.81 97.197C168.841 97.2728 168.857 97.3544 168.855 97.4365C168.853 97.5818 168.811 97.7236 168.732 97.8456L167.832 99.2873L169.703 99.2362C169.79 99.2311 169.877 99.2449 169.959 99.2766C170.04 99.3084 170.113 99.3574 170.174 99.4203C170.279 99.5426 170.337 99.6986 170.337 99.8599C170.337 100.021 170.279 100.177 170.174 100.3C170.113 100.362 170.04 100.411 169.959 100.443C169.877 100.475 169.79 100.489 169.703 100.484H167.812L168.65 101.793C168.745 101.951 168.797 102.13 168.803 102.314C168.806 102.397 168.792 102.479 168.763 102.557C168.733 102.634 168.687 102.705 168.63 102.764C168.576 102.821 168.511 102.867 168.439 102.899C168.367 102.93 168.289 102.947 168.21 102.948C168.084 102.946 167.96 102.907 167.855 102.837C167.749 102.766 167.667 102.666 167.617 102.549L166.769 101.046L165.92 102.549C165.87 102.669 165.786 102.772 165.679 102.847C165.572 102.921 165.447 102.963 165.317 102.968V102.968Z" fill="black"/>
<path d="M174.703 102.968C174.623 102.968 174.543 102.952 174.469 102.92C174.395 102.889 174.329 102.843 174.273 102.784C174.213 102.724 174.165 102.653 174.134 102.573C174.102 102.494 174.087 102.409 174.089 102.324C174.089 102.18 174.128 102.039 174.202 101.915L175.122 100.484H173.241C173.154 100.488 173.067 100.474 172.986 100.442C172.905 100.411 172.831 100.362 172.77 100.3C172.665 100.177 172.607 100.021 172.607 99.8599C172.607 99.6986 172.665 99.5426 172.77 99.4203C172.831 99.3579 172.905 99.3093 172.986 99.2776C173.067 99.2458 173.154 99.2317 173.241 99.2362L175.091 99.2873L174.222 97.9069C174.14 97.7708 174.095 97.6159 174.089 97.457C174.087 97.3718 174.102 97.287 174.134 97.2079C174.165 97.1287 174.213 97.0569 174.273 96.9969C174.331 96.9384 174.399 96.892 174.475 96.8604C174.55 96.8288 174.631 96.8126 174.713 96.8128C174.828 96.8111 174.94 96.8432 175.036 96.905C175.133 96.9668 175.209 97.0557 175.255 97.1605L176.155 98.7658L177.014 97.232C177.068 97.1127 177.154 97.0105 177.262 96.9366C177.37 96.8627 177.496 96.8198 177.627 96.8128C177.708 96.8128 177.787 96.8291 177.861 96.8608C177.935 96.8924 178.001 96.9387 178.057 96.9969C178.117 97.0531 178.164 97.1213 178.196 97.197C178.228 97.2728 178.243 97.3544 178.241 97.4365C178.239 97.5818 178.197 97.7236 178.118 97.8456L177.218 99.2873L179.09 99.2362C179.177 99.2311 179.264 99.2449 179.345 99.2766C179.426 99.3084 179.499 99.3574 179.56 99.4203C179.665 99.5426 179.723 99.6986 179.723 99.8599C179.723 100.021 179.665 100.177 179.56 100.3C179.499 100.362 179.426 100.411 179.345 100.443C179.264 100.475 179.177 100.489 179.09 100.484H177.198L178.036 101.793C178.131 101.951 178.184 102.13 178.19 102.314C178.193 102.397 178.179 102.479 178.149 102.557C178.119 102.634 178.074 102.705 178.016 102.764C177.962 102.821 177.897 102.867 177.825 102.899C177.753 102.93 177.675 102.947 177.597 102.948C177.47 102.946 177.346 102.907 177.241 102.837C177.136 102.766 177.053 102.666 177.004 102.549L176.155 101.046L175.306 102.549C175.256 102.669 175.172 102.772 175.065 102.847C174.959 102.921 174.833 102.963 174.703 102.968V102.968Z" fill="black"/>
<path d="M184.131 102.968C184.051 102.968 183.971 102.952 183.897 102.92C183.824 102.889 183.757 102.843 183.702 102.784C183.641 102.724 183.594 102.653 183.562 102.573C183.53 102.494 183.515 102.409 183.518 102.324C183.517 102.18 183.556 102.039 183.63 101.915L184.55 100.484H182.669C182.582 100.488 182.495 100.474 182.414 100.442C182.333 100.411 182.259 100.362 182.199 100.3C182.093 100.177 182.036 100.021 182.036 99.8599C182.036 99.6986 182.093 99.5426 182.199 99.4203C182.259 99.3579 182.333 99.3093 182.414 99.2776C182.495 99.2458 182.582 99.2317 182.669 99.2362L184.52 99.2873L183.651 97.9069C183.569 97.7708 183.523 97.6159 183.518 97.457C183.515 97.3718 183.53 97.287 183.562 97.2079C183.594 97.1287 183.641 97.0569 183.702 96.9969C183.759 96.9384 183.827 96.892 183.903 96.8604C183.978 96.8288 184.059 96.8126 184.141 96.8128C184.256 96.8111 184.368 96.8432 184.465 96.905C184.561 96.9668 184.637 97.0557 184.683 97.1605L185.583 98.7658L186.442 97.232C186.496 97.1127 186.582 97.0105 186.69 96.9366C186.798 96.8627 186.925 96.8198 187.056 96.8128C187.136 96.8128 187.215 96.8291 187.289 96.8608C187.363 96.8924 187.43 96.9387 187.485 96.9969C187.545 97.0531 187.592 97.1213 187.624 97.197C187.656 97.2728 187.671 97.3544 187.669 97.4365C187.668 97.5818 187.625 97.7236 187.546 97.8456L186.647 99.2873L188.518 99.2362C188.605 99.2311 188.692 99.2449 188.773 99.2766C188.854 99.3084 188.928 99.3574 188.988 99.4203C189.093 99.5426 189.151 99.6986 189.151 99.8599C189.151 100.021 189.093 100.177 188.988 100.3C188.928 100.362 188.854 100.411 188.773 100.443C188.692 100.475 188.605 100.489 188.518 100.484H186.626L187.465 101.793C187.559 101.951 187.612 102.13 187.618 102.314C187.621 102.397 187.607 102.479 187.577 102.557C187.547 102.634 187.502 102.705 187.444 102.764C187.39 102.821 187.325 102.867 187.253 102.899C187.181 102.93 187.104 102.947 187.025 102.948C186.898 102.945 186.775 102.906 186.67 102.835C186.565 102.764 186.482 102.665 186.432 102.549L185.583 101.046L184.734 102.549C184.684 102.669 184.601 102.772 184.494 102.847C184.387 102.921 184.261 102.963 184.131 102.968V102.968Z" fill="black"/>
<path d="M193.477 102.968C193.396 102.968 193.317 102.952 193.243 102.92C193.169 102.889 193.103 102.843 193.047 102.784C192.987 102.724 192.939 102.653 192.908 102.573C192.876 102.494 192.861 102.409 192.863 102.324C192.868 102.181 192.907 102.041 192.976 101.915L193.896 100.484H192.015C191.928 100.488 191.841 100.474 191.76 100.442C191.678 100.411 191.605 100.362 191.544 100.3C191.439 100.177 191.381 100.021 191.381 99.86C191.381 99.6986 191.439 99.5426 191.544 99.4203C191.605 99.358 191.678 99.3093 191.76 99.2776C191.841 99.2459 191.928 99.2317 192.015 99.2362L193.865 99.2873L192.996 97.9069C192.914 97.7708 192.868 97.6159 192.863 97.457C192.861 97.3718 192.876 97.287 192.908 97.2079C192.939 97.1287 192.987 97.0569 193.047 96.9969C193.105 96.9384 193.173 96.892 193.249 96.8604C193.324 96.8288 193.405 96.8126 193.487 96.8128C193.602 96.8111 193.714 96.8432 193.81 96.905C193.907 96.9669 193.983 97.0557 194.029 97.1605L194.929 98.7658L195.788 97.2321C195.842 97.1127 195.928 97.0105 196.036 96.9366C196.144 96.8627 196.27 96.8198 196.401 96.8128C196.482 96.8116 196.562 96.8273 196.636 96.8591C196.71 96.8908 196.776 96.9377 196.831 96.9969C196.891 97.0531 196.938 97.1213 196.97 97.197C197.001 97.2728 197.017 97.3544 197.015 97.4366C197.013 97.5818 196.971 97.7236 196.892 97.8456L195.992 99.2873L197.863 99.2362C197.95 99.2311 198.038 99.2449 198.119 99.2766C198.2 99.3084 198.273 99.3574 198.334 99.4203C198.439 99.5426 198.497 99.6986 198.497 99.86C198.497 100.021 198.439 100.177 198.334 100.3C198.273 100.362 198.2 100.411 198.119 100.443C198.038 100.475 197.95 100.489 197.863 100.484H195.972L196.81 101.793C196.905 101.951 196.958 102.13 196.964 102.314C196.967 102.397 196.953 102.479 196.923 102.557C196.893 102.634 196.848 102.705 196.79 102.764C196.736 102.821 196.671 102.867 196.599 102.899C196.527 102.93 196.449 102.947 196.371 102.948C196.244 102.945 196.121 102.906 196.016 102.835C195.911 102.764 195.828 102.665 195.777 102.549L194.929 101.046L194.08 102.549C194.03 102.669 193.946 102.772 193.839 102.847C193.733 102.921 193.607 102.963 193.477 102.968V102.968Z" fill="black"/>
<path d="M202.863 102.968C202.783 102.968 202.703 102.952 202.629 102.92C202.556 102.889 202.489 102.843 202.434 102.784C202.373 102.724 202.326 102.653 202.294 102.573C202.262 102.494 202.247 102.409 202.25 102.324C202.254 102.181 202.293 102.041 202.362 101.915L203.282 100.484H201.411C201.322 100.489 201.234 100.475 201.151 100.444C201.068 100.412 200.993 100.363 200.93 100.3C200.825 100.177 200.768 100.021 200.768 99.86C200.768 99.6986 200.825 99.5426 200.93 99.4203C200.993 99.3572 201.068 99.3081 201.151 99.2764C201.234 99.2446 201.322 99.2309 201.411 99.2362L203.252 99.2873L202.382 97.9069C202.3 97.7708 202.255 97.6159 202.25 97.457C202.247 97.3718 202.262 97.287 202.294 97.2079C202.326 97.1287 202.373 97.0569 202.434 96.9969C202.491 96.9384 202.559 96.892 202.635 96.8604C202.71 96.8288 202.791 96.8126 202.873 96.8128C202.988 96.8111 203.1 96.8432 203.197 96.905C203.293 96.9669 203.369 97.0557 203.415 97.1605L204.315 98.7658L205.174 97.2321C205.228 97.1127 205.314 97.0105 205.422 96.9366C205.53 96.8627 205.657 96.8198 205.787 96.8128C205.868 96.8116 205.948 96.8273 206.022 96.8591C206.096 96.8908 206.162 96.9377 206.217 96.9969C206.277 97.0531 206.324 97.1213 206.356 97.197C206.388 97.2728 206.403 97.3544 206.401 97.4366C206.4 97.5818 206.357 97.7236 206.278 97.8456L205.378 99.2873L207.25 99.2362C207.337 99.2311 207.424 99.2449 207.505 99.2766C207.586 99.3084 207.66 99.3574 207.72 99.4203C207.825 99.5426 207.883 99.6986 207.883 99.86C207.883 100.021 207.825 100.177 207.72 100.3C207.66 100.362 207.586 100.411 207.505 100.443C207.424 100.475 207.337 100.489 207.25 100.484H205.358L206.196 101.793C206.291 101.951 206.344 102.13 206.35 102.314C206.353 102.397 206.339 102.479 206.309 102.557C206.279 102.634 206.234 102.705 206.176 102.764C206.122 102.821 206.057 102.867 205.985 102.899C205.913 102.93 205.835 102.947 205.757 102.948C205.63 102.945 205.507 102.906 205.402 102.835C205.297 102.764 205.214 102.665 205.164 102.549L204.315 101.046L203.466 102.549C203.416 102.669 203.332 102.772 203.226 102.847C203.119 102.921 202.993 102.963 202.863 102.968V102.968Z" fill="black"/>
<path d="M212.25 102.968C212.17 102.968 212.09 102.952 212.017 102.92C211.943 102.889 211.876 102.842 211.821 102.784C211.76 102.724 211.713 102.652 211.681 102.573C211.649 102.494 211.634 102.409 211.637 102.324C211.637 102.18 211.675 102.039 211.749 101.915L212.669 100.484H210.788C210.701 100.488 210.614 100.474 210.533 100.442C210.452 100.41 210.378 100.362 210.318 100.3C210.213 100.177 210.155 100.021 210.155 99.8598C210.155 99.6985 210.213 99.5425 210.318 99.4202C210.378 99.3578 210.452 99.3092 210.533 99.2775C210.614 99.2457 210.701 99.2316 210.788 99.2361L212.639 99.2872L211.739 97.9579C211.657 97.8218 211.611 97.6669 211.606 97.508C211.604 97.4228 211.619 97.338 211.65 97.2589C211.682 97.1798 211.73 97.108 211.79 97.0479C211.847 96.9894 211.916 96.943 211.991 96.9114C212.067 96.8798 212.148 96.8636 212.23 96.8638C212.344 96.8621 212.457 96.8942 212.553 96.956C212.649 97.0179 212.726 97.1067 212.772 97.2115L213.672 98.8169L214.53 97.2831C214.585 97.1637 214.67 97.0615 214.779 96.9876C214.887 96.9137 215.013 96.8709 215.144 96.8638C215.224 96.8626 215.304 96.8784 215.378 96.9101C215.452 96.9418 215.519 96.9888 215.573 97.0479C215.633 97.1041 215.681 97.1723 215.712 97.2481C215.744 97.3238 215.76 97.4055 215.757 97.4876C215.756 97.6328 215.714 97.7746 215.635 97.8966L214.735 99.3383L216.606 99.2872C216.693 99.2821 216.78 99.2959 216.862 99.3277C216.943 99.3594 217.016 99.4084 217.077 99.4713C217.182 99.5937 217.239 99.7497 217.239 99.911C217.239 100.072 217.182 100.228 217.077 100.351C217.016 100.414 216.943 100.463 216.862 100.494C216.78 100.526 216.693 100.54 216.606 100.535H214.715L215.553 101.844C215.648 102.002 215.7 102.181 215.706 102.365C215.709 102.448 215.695 102.53 215.666 102.608C215.636 102.685 215.59 102.756 215.533 102.815C215.479 102.872 215.414 102.918 215.342 102.95C215.27 102.981 215.192 102.998 215.113 102.999C214.987 102.996 214.864 102.957 214.759 102.886C214.654 102.815 214.571 102.716 214.52 102.6L213.672 101.097L212.823 102.6C212.768 102.706 212.686 102.796 212.586 102.86C212.485 102.925 212.369 102.962 212.25 102.968V102.968Z" fill="black"/>
<path d="M221.638 102.968C221.557 102.968 221.478 102.952 221.404 102.92C221.33 102.889 221.264 102.843 221.208 102.784C221.148 102.724 221.1 102.652 221.069 102.573C221.037 102.494 221.022 102.409 221.024 102.324C221.029 102.181 221.068 102.041 221.137 101.915L222.057 100.484H220.186C220.099 100.49 220.011 100.477 219.93 100.445C219.848 100.413 219.775 100.364 219.715 100.3C219.604 100.18 219.542 100.023 219.542 99.8599C219.542 99.6967 219.604 99.5395 219.715 99.4202C219.775 99.3562 219.848 99.3065 219.93 99.2746C220.011 99.2427 220.099 99.2296 220.186 99.2362L222.026 99.2873L221.157 97.9069C221.075 97.7707 221.029 97.6158 221.024 97.457C221.021 97.3734 221.036 97.2901 221.066 97.212C221.096 97.134 221.141 97.0628 221.2 97.0026C221.258 96.9425 221.327 96.8948 221.404 96.8621C221.481 96.8295 221.564 96.8127 221.648 96.8128C221.762 96.8111 221.875 96.8432 221.971 96.905C222.068 96.9668 222.144 97.0557 222.19 97.1605L223.09 98.7658L223.949 97.232C224.003 97.1127 224.089 97.0105 224.197 96.9366C224.305 96.8626 224.431 96.8198 224.562 96.8128C224.643 96.8102 224.723 96.8254 224.797 96.8572C224.872 96.889 224.938 96.9366 224.992 96.9968C225.052 97.053 225.099 97.1212 225.131 97.197C225.162 97.2728 225.178 97.3544 225.176 97.4365C225.174 97.5817 225.132 97.7236 225.053 97.8455L224.153 99.2873L226.024 99.2362C226.111 99.231 226.199 99.2448 226.28 99.2766C226.361 99.3084 226.434 99.3574 226.495 99.4202C226.6 99.5426 226.658 99.6986 226.658 99.8599C226.658 100.021 226.6 100.177 226.495 100.3C226.434 100.362 226.361 100.411 226.28 100.443C226.199 100.475 226.111 100.489 226.024 100.484H224.133L224.971 101.792C225.066 101.95 225.119 102.13 225.125 102.314C225.127 102.395 225.114 102.475 225.086 102.55C225.057 102.626 225.014 102.695 224.959 102.754C224.904 102.813 224.838 102.86 224.765 102.894C224.691 102.927 224.612 102.945 224.531 102.948C224.405 102.945 224.282 102.906 224.177 102.835C224.072 102.764 223.989 102.665 223.938 102.549L223.09 101.046L222.241 102.549C222.191 102.669 222.107 102.772 222 102.846C221.893 102.921 221.768 102.963 221.638 102.968V102.968Z" fill="black"/>
<path d="M231.025 102.968C230.945 102.968 230.865 102.952 230.791 102.92C230.718 102.889 230.651 102.843 230.595 102.784C230.535 102.724 230.487 102.652 230.456 102.573C230.424 102.494 230.409 102.409 230.411 102.324C230.416 102.181 230.455 102.041 230.524 101.915L231.444 100.484H229.563C229.477 100.489 229.392 100.475 229.312 100.443C229.233 100.411 229.161 100.362 229.103 100.3C228.991 100.18 228.929 100.023 228.929 99.8599C228.929 99.6967 228.991 99.5395 229.103 99.4202C229.161 99.3576 229.233 99.3087 229.312 99.2769C229.392 99.245 229.477 99.2312 229.563 99.2362L231.413 99.2873L230.544 97.9069C230.462 97.7707 230.417 97.6158 230.411 97.457C230.409 97.3734 230.423 97.2901 230.453 97.212C230.483 97.134 230.529 97.0628 230.587 97.0026C230.645 96.9425 230.715 96.8948 230.792 96.8621C230.869 96.8295 230.952 96.8127 231.035 96.8128C231.15 96.8111 231.262 96.8432 231.359 96.905C231.455 96.9668 231.531 97.0557 231.577 97.1605L232.477 98.7658L233.336 97.232C233.39 97.1127 233.476 97.0105 233.584 96.9366C233.692 96.8626 233.819 96.8198 233.949 96.8128C234.03 96.8102 234.11 96.8254 234.185 96.8572C234.259 96.889 234.325 96.9366 234.379 96.9968C234.439 97.053 234.486 97.1212 234.518 97.197C234.55 97.2728 234.565 97.3544 234.563 97.4365C234.562 97.5817 234.519 97.7236 234.44 97.8455L233.54 99.2873L235.412 99.2362C235.499 99.231 235.586 99.2448 235.667 99.2766C235.748 99.3084 235.821 99.3574 235.882 99.4202C235.987 99.5426 236.045 99.6986 236.045 99.8599C236.045 100.021 235.987 100.177 235.882 100.3C235.821 100.362 235.748 100.411 235.667 100.443C235.586 100.475 235.499 100.489 235.412 100.484H233.52L234.358 101.792C234.453 101.95 234.506 102.13 234.512 102.314C234.514 102.395 234.501 102.475 234.473 102.55C234.445 102.626 234.402 102.695 234.347 102.754C234.292 102.813 234.225 102.86 234.152 102.894C234.079 102.927 233.999 102.945 233.919 102.948C233.792 102.945 233.669 102.906 233.564 102.835C233.459 102.764 233.376 102.665 233.326 102.549L232.477 101.046L231.628 102.549C231.578 102.669 231.494 102.772 231.388 102.846C231.281 102.921 231.155 102.963 231.025 102.968V102.968Z" fill="black"/>
<path d="M240.37 102.968C240.289 102.968 240.21 102.952 240.136 102.92C240.062 102.889 239.996 102.843 239.94 102.784C239.88 102.724 239.832 102.652 239.801 102.573C239.769 102.494 239.754 102.409 239.756 102.324C239.761 102.181 239.799 102.041 239.869 101.915L240.789 100.484H238.907C238.822 100.489 238.736 100.475 238.657 100.443C238.577 100.411 238.506 100.362 238.447 100.3C238.336 100.18 238.274 100.023 238.274 99.8599C238.274 99.6967 238.336 99.5395 238.447 99.4202C238.506 99.3576 238.577 99.3087 238.657 99.2769C238.736 99.245 238.822 99.2312 238.907 99.2362L240.758 99.2873L239.889 97.9069C239.807 97.7707 239.761 97.6158 239.756 97.457C239.754 97.3718 239.769 97.287 239.801 97.2079C239.832 97.1287 239.88 97.0569 239.94 96.9968C239.997 96.9384 240.066 96.892 240.141 96.8604C240.217 96.8288 240.298 96.8126 240.38 96.8128C240.494 96.8111 240.607 96.8432 240.703 96.905C240.8 96.9668 240.876 97.0557 240.922 97.1605L241.822 98.7658L242.681 97.232C242.735 97.1127 242.82 97.0105 242.929 96.9366C243.037 96.8626 243.163 96.8198 243.294 96.8128C243.375 96.8102 243.455 96.8254 243.529 96.8572C243.603 96.889 243.67 96.9366 243.724 96.9968C243.783 97.053 243.831 97.1212 243.863 97.197C243.894 97.2728 243.91 97.3544 243.908 97.4365C243.906 97.5817 243.864 97.7236 243.785 97.8455L242.885 99.2873L244.756 99.2362C244.843 99.231 244.93 99.2448 245.012 99.2766C245.093 99.3084 245.166 99.3574 245.227 99.4202C245.332 99.5426 245.39 99.6986 245.39 99.8599C245.39 100.021 245.332 100.177 245.227 100.3C245.166 100.362 245.093 100.411 245.012 100.443C244.93 100.475 244.843 100.489 244.756 100.484H242.865L243.703 101.792C243.798 101.95 243.85 102.13 243.856 102.314C243.859 102.397 243.846 102.479 243.816 102.557C243.786 102.634 243.74 102.705 243.683 102.764C243.629 102.821 243.564 102.867 243.492 102.899C243.42 102.93 243.342 102.947 243.263 102.948C243.137 102.945 243.014 102.906 242.909 102.835C242.804 102.764 242.721 102.665 242.67 102.549L241.822 101.046L240.973 102.549C240.923 102.669 240.839 102.772 240.732 102.846C240.625 102.921 240.5 102.963 240.37 102.968V102.968Z" fill="black"/>
<path d="M272.539 125.587H285.045" stroke="white" stroke-width="3" stroke-linecap="round" stroke-linejoin="round"/>
<path d="M99.0874 33.5082V116.568C99.0874 118.973 100.043 121.28 101.744 122.981C103.445 124.682 105.752 125.638 108.157 125.638H260.667" stroke="white" stroke-width="3" stroke-linecap="round" stroke-linejoin="round"/>
<path d="M99.0874 11.483V23.9374" stroke="white" stroke-width="3" stroke-linecap="round" stroke-linejoin="round"/>
</svg>
