<svg width="493" height="489" viewBox="0 0 493 489" fill="none" xmlns="http://www.w3.org/2000/svg">
<path d="M80.6262 445.78V479.323H129.682H183.782V445.78H80.6262Z" fill="#F5F5F5"/>
<path d="M76.2993 436.408V445.78H187.398V436.408H129.684H76.2993Z" fill="#E0E0E0"/>
<path d="M131.848 479.323H183.782V445.78H187.397V436.408H129.683V444.912L131.848 479.323Z" fill="#E0E0E0"/>
<path d="M115.971 451.186H95.0522V456.239H115.971V451.186Z" fill="#E0E0E0"/>
<path d="M119.223 462.557H92.3604V473.214H119.223V462.557Z" fill="white"/>
<path d="M96.5027 402.909V436.452H145.559H199.658V402.909H96.5027Z" fill="#F5F5F5"/>
<path d="M92.175 393.526V402.909H203.263V393.526H145.56H92.175Z" fill="#E0E0E0"/>
<path d="M147.723 436.452H199.658V402.909H203.262V393.526H145.559V402.041L147.723 436.452Z" fill="#E0E0E0"/>
<path d="M131.847 408.315H110.928V413.369H131.847V408.315Z" fill="#E0E0E0"/>
<path d="M135.1 419.675H108.237V430.333H135.1V419.675Z" fill="white"/>
<path d="M97.0402 33.1144C99.8233 31.4387 102.816 30.1383 105.94 29.247L107.763 20.4575L122.629 20.2158L124.826 28.9394C127.977 29.7172 131.01 30.9106 133.846 32.4881L141.361 27.566L152.062 37.8936L147.404 45.5844C149.084 48.3652 150.385 51.3581 151.271 54.4838L160.061 56.3076L160.313 71.1838L151.568 73.2822C150.79 76.433 149.597 79.4663 148.019 82.3024L152.941 89.8174L142.614 100.519L134.923 95.8602C132.142 97.5403 129.149 98.841 126.024 99.7276L124.2 108.517L109.335 108.77L107.137 100.046C103.986 99.2683 100.953 98.0749 98.1169 96.4974L90.602 101.42L79.9008 91.0919L84.5592 83.4011C82.8792 80.6242 81.5785 77.6348 80.6918 74.5128L71.9024 72.678L71.6497 57.8128L80.3732 55.6703C81.1511 52.5196 82.3444 49.4863 83.922 46.6501L79.0548 39.1571L89.3824 28.4559L97.0732 33.1144H97.0402ZM104.973 52.8907C102.781 55.1604 101.311 58.0292 100.75 61.1341C100.189 64.239 100.561 67.4407 101.819 70.3342C103.077 73.2277 105.165 75.6831 107.819 77.3898C110.473 79.0966 113.573 79.978 116.728 79.9227C119.883 79.8674 122.951 78.8778 125.543 77.079C128.135 75.2803 130.136 72.7532 131.292 69.8174C132.448 66.8815 132.708 63.6688 132.038 60.5854C131.368 57.5021 129.799 54.6867 127.529 52.4951C124.481 49.561 120.392 47.9578 116.162 48.0381C111.932 48.1185 107.907 49.8758 104.973 52.9236V52.8907Z" fill="#EBEBEB"/>
<path d="M336.236 15.3926C339.546 13.3934 343.108 11.8453 346.828 10.7891L349.025 0.30763L366.725 0L369.274 10.3935C373.028 11.3186 376.642 12.7411 380.019 14.6235L388.973 8.75651L401.718 21.0618L396.17 30.2138C398.171 33.5225 399.719 37.0847 400.773 40.8051L411.255 43.0025L411.562 60.7133L401.169 63.2622C400.239 67.0148 398.816 70.6279 396.939 74.0073L402.806 82.9616L390.5 95.6953L381.348 90.147C378.042 92.1524 374.479 93.701 370.757 94.7505L368.56 105.232L350.849 105.551L348.3 95.146C344.544 94.2258 340.93 92.803 337.555 90.9161L328.601 96.7831L315.867 84.4888L321.415 75.3367C319.412 72.0293 317.863 68.4667 316.812 64.7454L306.33 62.5481L306.012 44.8373L316.416 42.2883C317.34 38.5339 318.763 34.92 320.646 31.5432L314.779 22.5999L327.073 9.85519L336.226 15.3486L336.236 15.3926ZM345.685 38.9813C343.076 41.6844 341.327 45.1005 340.659 48.7976C339.991 52.4948 340.435 56.3069 341.933 59.752C343.432 63.1971 345.919 66.1205 349.079 68.1524C352.239 70.1844 355.93 71.2336 359.687 71.1676C363.443 71.1015 367.096 69.9231 370.182 67.7813C373.269 65.6395 375.651 62.6305 377.028 59.1348C378.404 55.6391 378.714 51.8138 377.916 48.1424C377.119 44.471 375.251 41.1185 372.548 38.5089C368.922 35.0116 364.056 33.0969 359.019 33.1855C353.982 33.2741 349.186 35.3587 345.685 38.9813V38.9813Z" fill="#EBEBEB"/>
<path d="M338.917 159.177C341.501 157.615 344.284 156.407 347.19 155.585L348.893 147.399L362.725 147.147L364.714 155.277C367.645 155.999 370.468 157.107 373.108 158.573L380.106 153.992L390.049 163.605L385.721 170.746C387.282 173.331 388.491 176.114 389.313 179.02L397.498 180.723L397.751 194.555L389.621 196.555C388.898 199.486 387.789 202.308 386.325 204.948L390.906 211.936L381.293 221.89L374.151 217.55C371.565 219.111 368.783 220.323 365.878 221.154L364.175 229.339L350.343 229.581L348.343 221.462C345.412 220.74 342.589 219.632 339.949 218.166L332.962 222.747L322.964 213.123L327.304 205.981C325.743 203.395 324.531 200.613 323.7 197.708L315.559 196.005L315.273 182.173L323.392 180.184C324.114 177.252 325.222 174.43 326.688 171.79L322.107 164.792L331.709 154.838L338.862 159.177H338.917ZM346.289 177.602C344.249 179.713 342.88 182.382 342.357 185.271C341.834 188.16 342.179 191.139 343.349 193.832C344.519 196.525 346.461 198.81 348.93 200.399C351.399 201.988 354.283 202.809 357.219 202.758C360.154 202.707 363.009 201.787 365.421 200.114C367.834 198.441 369.696 196.09 370.772 193.358C371.849 190.627 372.091 187.637 371.468 184.768C370.845 181.899 369.386 179.279 367.274 177.24C364.442 174.506 360.641 173.008 356.706 173.076C352.771 173.144 349.024 174.772 346.289 177.602V177.602Z" fill="#E0E0E0"/>
<path d="M412.76 116.614C414.196 115.749 415.74 115.077 417.352 114.615L418.297 110.066L425.988 109.934L427.086 114.45C428.716 114.846 430.283 115.463 431.745 116.285L435.634 113.736L441.128 119.075L438.722 123.042C439.591 124.48 440.264 126.028 440.721 127.645L445.27 128.59L445.402 136.281L440.886 137.379C440.487 139.006 439.874 140.573 439.062 142.038L441.6 145.927L436.26 151.421L432.294 149.014C430.858 149.88 429.314 150.552 427.702 151.014L426.746 155.563L419.055 155.694L417.956 151.179C416.329 150.776 414.763 150.159 413.298 149.344L409.409 151.893L403.915 146.553L406.321 142.587C405.456 141.147 404.784 139.599 404.322 137.984L399.773 137.039L399.641 129.348L404.157 128.249C404.56 126.622 405.177 125.056 405.992 123.591L403.443 119.702L408.782 114.208L412.76 116.614ZM416.847 126.854C415.718 128.028 414.961 129.51 414.674 131.113C414.387 132.716 414.581 134.369 415.232 135.862C415.883 137.354 416.962 138.621 418.333 139.501C419.703 140.381 421.304 140.835 422.932 140.806C424.561 140.777 426.144 140.266 427.482 139.337C428.82 138.409 429.853 137.104 430.451 135.589C431.048 134.074 431.183 132.416 430.838 130.824C430.494 129.232 429.685 127.778 428.515 126.645C427.736 125.891 426.815 125.299 425.807 124.901C424.798 124.504 423.721 124.309 422.637 124.328C421.554 124.348 420.484 124.581 419.49 125.014C418.497 125.448 417.598 126.073 416.847 126.854V126.854Z" fill="#F5F5F5"/>
<path d="M193.197 15.4145C194.631 14.5448 196.176 13.8722 197.79 13.4149L198.735 8.86634L206.426 8.7345L207.524 13.2391C209.15 13.6449 210.716 14.2618 212.183 15.0739L216.072 12.525L221.565 17.8646L219.159 21.8308C220.029 23.2649 220.702 24.8096 221.159 26.4233L225.707 27.3682L225.839 35.059L221.324 36.1576C220.925 37.7844 220.311 39.3509 219.5 40.8161L222.038 44.7054L216.698 50.1988L212.732 47.7927C211.313 48.6903 209.779 49.3925 208.172 49.8802L207.217 54.4288L199.526 54.5716L198.427 50.056C196.8 49.6532 195.233 49.0362 193.769 48.2212L189.879 50.7701L184.386 45.4305L186.726 41.4094C185.861 39.973 185.189 38.4288 184.727 36.8169L180.189 35.872L180.046 28.1812L184.562 27.0825C184.973 25.4496 185.601 23.8792 186.429 22.4131L183.881 18.5348L189.22 13.0413L193.197 15.4475V15.4145ZM197.284 25.7092C196.155 26.8829 195.399 28.3649 195.112 29.9681C194.824 31.5713 195.018 33.2237 195.67 34.7166C196.321 36.2095 197.4 37.476 198.77 38.356C200.141 39.236 201.742 39.6901 203.37 39.661C204.998 39.6319 206.582 39.1208 207.92 38.1923C209.258 37.2638 210.291 35.9596 210.888 34.4443C211.486 32.9291 211.621 31.2708 211.276 29.6789C210.932 28.087 210.123 26.633 208.953 25.5004C208.173 24.7479 207.252 24.1564 206.244 23.7596C205.235 23.3628 204.159 23.1686 203.075 23.188C201.992 23.2073 200.923 23.44 199.929 23.8726C198.936 24.3052 198.037 24.9292 197.284 25.7092V25.7092Z" fill="#F5F5F5"/>
<path d="M123.992 139.511C125.426 138.641 126.971 137.969 128.585 137.511L129.529 132.963L137.22 132.831L138.319 137.346C139.952 137.742 141.523 138.36 142.988 139.181L146.867 136.632L152.36 141.972L149.943 145.938C150.815 147.375 151.487 148.924 151.943 150.542L156.491 151.486L156.623 159.177L152.118 160.276C151.716 161.903 151.099 163.47 150.284 164.934L152.822 168.824L147.493 174.317L143.516 171.911C142.079 172.776 140.535 173.449 138.923 173.911L137.978 178.459L130.288 178.591L129.189 174.075C127.558 173.675 125.987 173.057 124.519 172.241L120.641 174.79L115.148 169.45L117.565 165.484C116.695 164.046 116.022 162.497 115.565 160.88L111.017 159.935L110.874 152.245L115.389 151.146C115.79 149.518 116.407 147.951 117.224 146.487L114.675 142.598L120.015 137.105L123.992 139.511V139.511ZM128.09 149.751C126.959 150.924 126.202 152.406 125.913 154.009C125.624 155.613 125.818 157.266 126.469 158.76C127.119 160.254 128.198 161.521 129.569 162.402C130.94 163.283 132.541 163.737 134.17 163.708C135.8 163.679 137.384 163.167 138.722 162.238C140.061 161.309 141.093 160.004 141.69 158.487C142.287 156.971 142.421 155.312 142.075 153.72C141.729 152.128 140.919 150.674 139.747 149.542C138.968 148.79 138.049 148.198 137.041 147.802C136.034 147.405 134.958 147.211 133.875 147.23C132.793 147.25 131.725 147.482 130.732 147.915C129.739 148.347 128.842 148.971 128.09 149.751V149.751Z" fill="#F5F5F5"/>
<path d="M470.923 480.399C470.923 480.553 366.306 480.685 237.277 480.685C108.248 480.685 3.60889 480.564 3.60889 480.399C3.60889 480.234 108.204 480.113 237.277 480.113C366.35 480.113 470.923 480.245 470.923 480.399Z" fill="#263238"/>
<path d="M316.646 480.19L174.169 480.102C157.029 480.102 143.142 465.49 143.153 447.483L143.219 72.0953C143.219 54.0769 157.128 39.4753 174.279 39.4863L316.756 39.5742C333.896 39.5742 347.783 54.1867 347.772 72.1941L347.706 447.603C347.706 465.6 333.797 480.201 316.646 480.19Z" fill="#263238"/>
<path d="M316.603 52.8461H288.982C285.28 52.8461 282.269 56.1421 282.269 60.2073V65.4699C282.269 69.5461 279.27 72.8421 275.567 72.8421H221.732C218.018 72.8421 215.019 69.5461 215.019 65.4699V60.1963C215.019 56.1311 212.019 52.8241 208.317 52.8241H198.593H174.422C162.414 52.8241 152.668 63.0419 152.668 75.6657L152.603 442.077C152.603 454.69 162.326 464.918 174.324 464.918L316.526 465.006C328.535 465.006 338.269 454.789 338.269 442.165L338.346 75.6987C338.346 63.0638 328.612 52.8571 316.603 52.8461Z" fill="white"/>
<path d="M271.588 232.778C271.588 234.733 271.008 236.645 269.922 238.271C268.835 239.897 267.291 241.165 265.484 241.913C263.677 242.661 261.689 242.857 259.771 242.476C257.853 242.094 256.091 241.152 254.708 239.77C253.325 238.387 252.383 236.625 252.002 234.707C251.62 232.789 251.816 230.8 252.564 228.994C253.313 227.187 254.58 225.642 256.206 224.556C257.832 223.469 259.744 222.889 261.7 222.889C264.322 222.889 266.838 223.931 268.692 225.786C270.546 227.64 271.588 230.155 271.588 232.778V232.778Z" fill="#F9D422"/>
<path d="M232.279 243.347C238.104 243.347 242.826 238.615 242.826 232.778C242.826 226.94 238.104 222.208 232.279 222.208C226.453 222.208 221.731 226.94 221.731 232.778C221.731 238.615 226.453 243.347 232.279 243.347Z" fill="#F9D422"/>
<path d="M209.678 225.296C215.861 225.296 220.874 220.273 220.874 214.078C220.874 207.883 215.861 202.861 209.678 202.861C203.495 202.861 198.483 207.883 198.483 214.078C198.483 220.273 203.495 225.296 209.678 225.296Z" fill="#F9D422"/>
<path d="M205.096 197.038C211.552 197.038 216.786 191.789 216.786 185.315C216.786 178.84 211.552 173.592 205.096 173.592C198.64 173.592 193.406 178.84 193.406 185.315C193.406 191.789 198.64 197.038 205.096 197.038Z" fill="#F9D422"/>
<path d="M219.411 172.262C226.086 172.262 231.497 166.837 231.497 160.144C231.497 153.451 226.086 148.025 219.411 148.025C212.737 148.025 207.326 153.451 207.326 160.144C207.326 166.837 212.737 172.262 219.411 172.262Z" fill="#F9D422"/>
<path d="M246.932 163.396C254.208 163.396 260.106 157.483 260.106 150.189C260.106 142.896 254.208 136.983 246.932 136.983C239.657 136.983 233.759 142.896 233.759 150.189C233.759 157.483 239.657 163.396 246.932 163.396Z" fill="#F9D422"/>
<path d="M293.101 213.847C293.096 215.739 292.531 217.587 291.477 219.158C290.423 220.729 288.927 221.952 287.178 222.673C285.429 223.394 283.506 223.58 281.651 223.208C279.796 222.837 278.093 221.924 276.757 220.584C275.421 219.245 274.511 217.54 274.144 215.684C273.776 213.829 273.967 211.906 274.692 210.158C275.417 208.411 276.644 206.918 278.217 205.867C279.79 204.817 281.639 204.256 283.531 204.256C284.789 204.257 286.035 204.507 287.197 204.989C288.358 205.472 289.414 206.179 290.302 207.07C291.191 207.96 291.896 209.017 292.376 210.18C292.856 211.343 293.102 212.589 293.101 213.847V213.847Z" fill="#F9D422"/>
<path d="M288.652 193.895C293.555 193.895 297.53 189.911 297.53 184.996C297.53 180.081 293.555 176.097 288.652 176.097C283.749 176.097 279.775 180.081 279.775 184.996C279.775 189.911 283.749 193.895 288.652 193.895Z" fill="#F9D422"/>
<path d="M273.884 167.933C278.362 167.933 281.993 164.293 281.993 159.803C281.993 155.313 278.362 151.673 273.884 151.673C269.406 151.673 265.776 155.313 265.776 159.803C265.776 164.293 269.406 167.933 273.884 167.933Z" fill="#F9D422"/>
<g opacity="0.5">
<path d="M271.588 232.778C271.588 234.733 271.008 236.645 269.922 238.271C268.835 239.897 267.291 241.165 265.484 241.913C263.677 242.661 261.689 242.857 259.771 242.476C257.853 242.094 256.091 241.152 254.708 239.77C253.325 238.387 252.383 236.625 252.002 234.707C251.62 232.789 251.816 230.8 252.564 228.994C253.313 227.187 254.58 225.642 256.206 224.556C257.832 223.469 259.744 222.889 261.7 222.889C264.322 222.889 266.838 223.931 268.692 225.786C270.546 227.64 271.588 230.155 271.588 232.778V232.778Z" fill="white"/>
</g>
<g opacity="0.4">
<path d="M232.279 243.347C238.104 243.347 242.826 238.615 242.826 232.778C242.826 226.94 238.104 222.208 232.279 222.208C226.453 222.208 221.731 226.94 221.731 232.778C221.731 238.615 226.453 243.347 232.279 243.347Z" fill="white"/>
</g>
<g opacity="0.3">
<path d="M209.678 225.296C215.861 225.296 220.874 220.273 220.874 214.078C220.874 207.883 215.861 202.861 209.678 202.861C203.495 202.861 198.483 207.883 198.483 214.078C198.483 220.273 203.495 225.296 209.678 225.296Z" fill="white"/>
</g>
<g opacity="0.2">
<path d="M205.096 197.038C211.552 197.038 216.786 191.789 216.786 185.315C216.786 178.84 211.552 173.592 205.096 173.592C198.64 173.592 193.406 178.84 193.406 185.315C193.406 191.789 198.64 197.038 205.096 197.038Z" fill="white"/>
</g>
<g opacity="0.1">
<path d="M219.411 172.262C226.086 172.262 231.497 166.837 231.497 160.144C231.497 153.451 226.086 148.025 219.411 148.025C212.737 148.025 207.326 153.451 207.326 160.144C207.326 166.837 212.737 172.262 219.411 172.262Z" fill="white"/>
</g>
<g opacity="0.2">
<path d="M246.932 163.396C254.208 163.396 260.106 157.483 260.106 150.189C260.106 142.896 254.208 136.983 246.932 136.983C239.657 136.983 233.759 142.896 233.759 150.189C233.759 157.483 239.657 163.396 246.932 163.396Z" fill="white"/>
</g>
<g opacity="0.6">
<path d="M293.101 213.847C293.096 215.739 292.531 217.587 291.477 219.158C290.423 220.729 288.927 221.952 287.178 222.673C285.429 223.394 283.506 223.58 281.651 223.208C279.796 222.837 278.093 221.924 276.757 220.584C275.421 219.245 274.511 217.54 274.144 215.684C273.776 213.829 273.967 211.906 274.692 210.158C275.417 208.411 276.644 206.918 278.217 205.867C279.79 204.817 281.639 204.256 283.531 204.256C284.789 204.257 286.035 204.507 287.197 204.989C288.358 205.472 289.414 206.179 290.302 207.07C291.191 207.96 291.896 209.017 292.376 210.18C292.856 211.343 293.102 212.589 293.101 213.847V213.847Z" fill="white"/>
</g>
<g opacity="0.7">
<path d="M288.652 193.895C293.555 193.895 297.53 189.911 297.53 184.996C297.53 180.081 293.555 176.097 288.652 176.097C283.749 176.097 279.775 180.081 279.775 184.996C279.775 189.911 283.749 193.895 288.652 193.895Z" fill="white"/>
</g>
<g opacity="0.8">
<path d="M273.884 167.933C278.362 167.933 281.993 164.293 281.993 159.803C281.993 155.313 278.362 151.673 273.884 151.673C269.406 151.673 265.776 155.313 265.776 159.803C265.776 164.293 269.406 167.933 273.884 167.933Z" fill="white"/>
</g>
<path d="M215.358 327.847C215.35 327.37 215.439 326.897 215.621 326.456C215.803 326.016 216.073 325.617 216.415 325.284C216.756 324.952 217.162 324.693 217.608 324.523C218.054 324.354 218.529 324.277 219.005 324.298C219.478 324.281 219.949 324.363 220.388 324.539C220.827 324.715 221.224 324.981 221.554 325.32L221.082 325.781C220.814 325.511 220.494 325.298 220.14 325.156C219.787 325.014 219.408 324.947 219.027 324.957C218.648 324.957 218.272 325.032 217.921 325.177C217.571 325.323 217.252 325.535 216.984 325.804C216.716 326.072 216.503 326.391 216.358 326.741C216.212 327.092 216.138 327.468 216.138 327.847C216.138 328.226 216.212 328.602 216.358 328.953C216.503 329.303 216.716 329.622 216.984 329.89C217.252 330.158 217.571 330.371 217.921 330.517C218.272 330.662 218.648 330.737 219.027 330.737C219.409 330.748 219.789 330.679 220.143 330.536C220.496 330.392 220.816 330.176 221.082 329.902L221.554 330.363C221.223 330.704 220.824 330.972 220.384 331.15C219.943 331.328 219.469 331.412 218.994 331.396C218.519 331.415 218.045 331.337 217.6 331.167C217.156 330.997 216.751 330.738 216.411 330.405C216.07 330.073 215.801 329.675 215.62 329.235C215.439 328.795 215.35 328.323 215.358 327.847V327.847Z" fill="#263238"/>
<path d="M228.939 324.298V331.275H228.213V328.055H223.819V331.275H223.083V324.298H223.819V327.418H228.213V324.298H228.939Z" fill="#263238"/>
<path d="M236.165 330.637V331.275H231.243V324.298H236.011V324.935H231.979V327.418H235.583V328.055H231.979V330.637H236.165Z" fill="#263238"/>
<path d="M237.199 327.847C237.192 327.37 237.281 326.897 237.463 326.456C237.645 326.016 237.915 325.617 238.256 325.284C238.598 324.952 239.004 324.693 239.45 324.523C239.895 324.354 240.371 324.277 240.847 324.298C241.32 324.281 241.791 324.363 242.23 324.539C242.669 324.715 243.066 324.981 243.396 325.32L242.924 325.781C242.656 325.511 242.335 325.298 241.982 325.156C241.628 325.014 241.25 324.947 240.869 324.957C240.49 324.957 240.114 325.032 239.763 325.177C239.413 325.323 239.094 325.535 238.826 325.804C238.558 326.072 238.345 326.391 238.199 326.741C238.054 327.092 237.98 327.468 237.98 327.847C237.98 328.226 238.054 328.602 238.199 328.953C238.345 329.303 238.558 329.622 238.826 329.89C239.094 330.158 239.413 330.371 239.763 330.517C240.114 330.662 240.49 330.737 240.869 330.737C241.251 330.748 241.631 330.679 241.984 330.536C242.338 330.392 242.658 330.176 242.924 329.902L243.396 330.363C243.065 330.704 242.666 330.972 242.225 331.15C241.784 331.328 241.311 331.412 240.836 331.396C240.361 331.415 239.886 331.337 239.442 331.167C238.998 330.997 238.593 330.738 238.253 330.405C237.912 330.073 237.643 329.675 237.462 329.235C237.281 328.795 237.192 328.323 237.199 327.847Z" fill="#263238"/>
<path d="M247.153 328.001L245.724 329.451V331.275H244.955V324.298H245.691V328.517L249.779 324.298H250.625L247.614 327.462L250.833 331.275H249.965L247.153 328.001Z" fill="#263238"/>
<path d="M252.032 324.298H252.768V331.275H252.032V324.298Z" fill="#263238"/>
<path d="M260.843 324.298V331.275H260.239L255.767 325.649V331.308H255.031V324.331H255.636L260.118 330V324.331L260.843 324.298Z" fill="#263238"/>
<path d="M268.029 327.847H268.732V330.506C268.019 331.103 267.113 331.42 266.183 331.396C265.717 331.396 265.256 331.304 264.825 331.126C264.394 330.947 264.003 330.686 263.674 330.356C263.344 330.027 263.083 329.636 262.904 329.205C262.726 328.774 262.634 328.313 262.634 327.847C262.634 327.381 262.726 326.92 262.904 326.489C263.083 326.058 263.344 325.667 263.674 325.338C264.003 325.008 264.394 324.747 264.825 324.568C265.256 324.39 265.717 324.298 266.183 324.298C266.662 324.277 267.14 324.356 267.586 324.53C268.033 324.704 268.438 324.969 268.776 325.309L268.314 325.77C267.979 325.415 267.56 325.149 267.095 324.996C266.63 324.843 266.135 324.808 265.654 324.894C265.172 324.98 264.72 325.185 264.338 325.49C263.955 325.795 263.655 326.191 263.464 326.641C263.272 327.091 263.196 327.582 263.242 328.069C263.288 328.556 263.455 329.024 263.727 329.43C263.999 329.837 264.368 330.169 264.801 330.397C265.233 330.625 265.716 330.742 266.205 330.737C266.855 330.757 267.494 330.568 268.029 330.198V327.847Z" fill="#263238"/>
<path d="M270.294 330.78C270.292 330.71 270.305 330.64 270.331 330.575C270.356 330.51 270.395 330.45 270.444 330.4C270.493 330.35 270.552 330.31 270.617 330.283C270.681 330.256 270.751 330.242 270.821 330.242C270.964 330.242 271.101 330.298 271.202 330.399C271.303 330.5 271.359 330.637 271.359 330.78C271.359 330.924 271.303 331.062 271.202 331.165C271.102 331.267 270.965 331.327 270.821 331.329C270.75 331.328 270.681 331.313 270.616 331.284C270.551 331.256 270.492 331.215 270.443 331.164C270.394 331.113 270.356 331.053 270.33 330.987C270.305 330.921 270.292 330.851 270.294 330.78Z" fill="#263238"/>
<path d="M272.423 330.78C272.422 330.71 272.434 330.64 272.46 330.575C272.486 330.51 272.524 330.45 272.574 330.4C272.623 330.35 272.681 330.31 272.746 330.283C272.811 330.256 272.88 330.242 272.95 330.242C273.021 330.242 273.091 330.256 273.156 330.283C273.222 330.31 273.281 330.349 273.331 330.399C273.381 330.449 273.421 330.509 273.448 330.574C273.475 330.639 273.489 330.709 273.489 330.78C273.489 330.924 273.432 331.062 273.332 331.165C273.231 331.267 273.094 331.327 272.95 331.329C272.879 331.329 272.809 331.315 272.743 331.287C272.678 331.259 272.619 331.219 272.57 331.167C272.52 331.116 272.482 331.055 272.457 330.989C272.432 330.922 272.42 330.851 272.423 330.78Z" fill="#263238"/>
<path d="M274.511 330.78C274.51 330.71 274.523 330.64 274.548 330.575C274.574 330.51 274.613 330.45 274.662 330.4C274.711 330.35 274.77 330.31 274.834 330.283C274.899 330.256 274.969 330.242 275.039 330.242C275.109 330.242 275.179 330.256 275.243 330.283C275.308 330.31 275.367 330.35 275.416 330.4C275.465 330.45 275.503 330.51 275.529 330.575C275.555 330.64 275.568 330.71 275.566 330.78C275.568 330.851 275.555 330.921 275.529 330.987C275.504 331.053 275.465 331.113 275.416 331.164C275.367 331.215 275.309 331.256 275.244 331.284C275.179 331.313 275.11 331.328 275.039 331.329C274.968 331.329 274.897 331.315 274.832 331.287C274.766 331.259 274.707 331.219 274.658 331.167C274.609 331.116 274.57 331.055 274.545 330.989C274.52 330.922 274.508 330.851 274.511 330.78V330.78Z" fill="#263238"/>
<path d="M300.252 283.932H190.79C183.982 283.932 178.463 289.452 178.463 296.26V298.303C178.463 305.111 183.982 310.63 190.79 310.63H300.252C307.06 310.63 312.579 305.111 312.579 298.303V296.26C312.579 289.452 307.06 283.932 300.252 283.932Z" fill="#F5F5F5"/>
<path d="M240.693 283.932H190.79C183.982 283.932 178.463 289.452 178.463 296.26V298.303C178.463 305.111 183.982 310.63 190.79 310.63H240.693C247.501 310.63 253.02 305.111 253.02 298.303V296.26C253.02 289.452 247.501 283.932 240.693 283.932Z" fill="#F9D422"/>
<path d="M285.08 299.281C285.08 300.665 284.124 301.72 282.19 301.72C281.658 301.743 281.126 301.657 280.627 301.469C280.129 301.28 279.674 300.991 279.29 300.621L279.597 300.16C279.934 300.499 280.337 300.765 280.781 300.941C281.226 301.117 281.702 301.199 282.179 301.182C283.707 301.182 284.487 300.412 284.487 299.314C284.487 298.215 283.761 297.413 281.52 297.413H279.85L280.29 293.403H284.684V293.952H280.817L280.498 296.864H281.674C284.168 296.809 285.08 297.765 285.08 299.281Z" fill="#F9D422"/>
<path d="M291.607 299.281C291.607 300.665 290.651 301.72 288.717 301.72C288.184 301.743 287.653 301.657 287.154 301.469C286.655 301.28 286.2 300.991 285.817 300.621L286.124 300.16C286.461 300.499 286.864 300.765 287.308 300.941C287.753 301.117 288.229 301.199 288.706 301.182C290.233 301.182 291.002 300.412 291.002 299.314C291.002 298.215 290.288 297.413 288.047 297.413H286.377L286.805 293.403H291.2V293.952H287.322L287.014 296.864H288.19C290.684 296.809 291.607 297.765 291.607 299.281Z" fill="#F9D422"/>
<path d="M292.506 295.534C292.506 294.194 293.253 293.337 294.319 293.337C295.385 293.337 296.154 294.227 296.154 295.534C296.154 296.842 295.396 297.732 294.319 297.732C293.242 297.732 292.506 296.886 292.506 295.534ZM295.704 295.534C295.704 294.436 295.143 293.711 294.319 293.711C293.495 293.711 292.957 294.403 292.957 295.534C292.957 296.666 293.506 297.369 294.319 297.369C295.132 297.369 295.704 296.677 295.704 295.534ZM299.351 293.337H299.89L294.253 301.61H293.748L299.351 293.337ZM297.439 299.424C297.439 298.072 298.187 297.226 299.263 297.226C300.34 297.226 301.076 298.105 301.076 299.424C301.076 300.742 300.34 301.621 299.263 301.621C298.187 301.621 297.439 300.786 297.439 299.435V299.424ZM300.626 299.424C300.626 298.325 300.076 297.589 299.263 297.589C298.45 297.589 297.879 298.281 297.879 299.424C297.879 300.566 298.439 301.259 299.263 301.259C300.087 301.259 300.626 300.566 300.626 299.435V299.424Z" fill="#F9D422"/>
<g opacity="0.2">
<path d="M210.886 283.932L200.866 310.312H208.228L217.577 283.932H210.886Z" fill="white"/>
</g>
<g opacity="0.2">
<path d="M228.97 283.932L218.939 310.312H226.312L235.65 283.932H228.97Z" fill="white"/>
</g>
<g opacity="0.2">
<path d="M246.682 285.921L237.343 310.477H241.738C242.9 310.228 244.034 309.86 245.121 309.378L251.549 291.184C250.4 289.044 248.725 287.233 246.682 285.921V285.921Z" fill="white"/>
</g>
<g opacity="0.2">
<path d="M193.318 283.899L184.1 308.158C186.069 309.44 188.345 310.172 190.692 310.279L200.042 283.91L193.318 283.899Z" fill="white"/>
</g>
<path d="M300.012 310.63C301.022 310.57 302.026 310.423 303.011 310.191C305.841 309.468 308.329 307.777 310.043 305.412C311.282 303.719 312.065 301.737 312.317 299.655C312.441 298.461 312.47 297.26 312.405 296.062C312.357 294.774 312.105 293.502 311.658 292.293C310.904 290.221 309.61 288.388 307.911 286.984C306.211 285.579 304.166 284.655 301.989 284.306C300.351 284.133 298.702 284.078 297.056 284.141L191.033 284.229C189.771 284.248 188.518 284.44 187.309 284.8C186.117 285.198 184.989 285.764 183.958 286.481C181.937 287.933 180.404 289.963 179.563 292.304C178.08 296.93 178.563 302.511 181.76 306.093C183.316 307.896 185.362 309.209 187.649 309.872C189.847 310.554 192.297 310.301 194.648 310.356H208.425L256.086 310.411L288.223 310.51H297.012H299.275H300.056H299.275H297.012L288.223 310.564L256.086 310.652L208.425 310.718H191.121C189.903 310.708 188.691 310.538 187.517 310.213C185.1 309.519 182.939 308.131 181.302 306.221C179.666 304.311 178.626 301.963 178.31 299.468C178.182 298.209 178.153 296.941 178.222 295.677C178.276 294.389 178.532 293.117 178.981 291.909C179.879 289.445 181.508 287.314 183.65 285.8C184.729 285.054 185.909 284.465 187.155 284.053C188.421 283.672 189.733 283.469 191.055 283.449L297.078 283.526C298.755 283.527 300.43 283.652 302.088 283.899C304.325 284.266 306.422 285.226 308.161 286.679C309.9 288.133 311.218 290.026 311.976 292.162C313.58 297.391 312.635 302.5 310.24 305.522C308.486 307.912 305.939 309.602 303.055 310.29C302.626 310.4 302.189 310.477 301.748 310.521C301.432 310.575 301.112 310.6 300.792 310.597C300.275 310.641 300.012 310.63 300.012 310.63Z" fill="#263238"/>
<path d="M191.439 430.365V439.33C191.439 439.507 191.391 439.68 191.301 439.832C191.211 439.984 191.082 440.11 190.928 440.195C190.773 440.28 190.598 440.322 190.421 440.317C190.245 440.312 190.073 440.259 189.923 440.165L182.87 435.682C182.731 435.591 182.618 435.467 182.539 435.322C182.461 435.176 182.42 435.013 182.42 434.847C182.42 434.682 182.461 434.519 182.539 434.373C182.618 434.227 182.731 434.103 182.87 434.012L189.923 429.53C190.073 429.436 190.245 429.383 190.421 429.378C190.598 429.373 190.773 429.415 190.928 429.5C191.082 429.585 191.211 429.711 191.301 429.863C191.391 430.015 191.439 430.188 191.439 430.365V430.365Z" fill="#E0E0E0"/>
<path d="M249.35 434.76C249.348 435.982 248.984 437.177 248.303 438.193C247.622 439.209 246.655 440 245.524 440.466C244.394 440.933 243.151 441.054 241.951 440.814C240.752 440.574 239.651 439.984 238.787 439.119C237.923 438.253 237.335 437.151 237.097 435.951C236.86 434.752 236.983 433.509 237.451 432.379C237.92 431.249 238.712 430.284 239.729 429.605C240.746 428.925 241.942 428.563 243.165 428.563C243.978 428.563 244.783 428.723 245.534 429.035C246.286 429.346 246.968 429.803 247.543 430.379C248.117 430.954 248.573 431.637 248.883 432.389C249.193 433.141 249.352 433.946 249.35 434.76V434.76Z" fill="#E0E0E0"/>
<path d="M303.132 429.376H295.837C294.702 429.376 293.782 430.296 293.782 431.431V438.759C293.782 439.894 294.702 440.813 295.837 440.813H303.132C304.267 440.813 305.187 439.894 305.187 438.759V431.431C305.187 430.296 304.267 429.376 303.132 429.376Z" fill="#E0E0E0"/>
<path d="M434.536 282.68C435.173 278.18 435.423 273.633 435.283 269.09C435.136 264.526 433.856 260.071 431.558 256.125C431.196 255.543 428.328 251.73 427.669 251.906C427.197 252.049 429.24 255.752 429.075 256.224C427.718 260.757 427.764 265.594 429.207 270.1C430.508 274.479 432.295 278.699 434.536 282.68" fill="#263238"/>
<path d="M414.562 312.465C413.892 309.323 413.354 306.851 413.332 306.862C413.31 306.873 402.345 307.961 399.444 297.403C398.06 292.305 396.06 281.581 394.357 271.858C393.476 266.815 394.527 261.624 397.3 257.32C400.073 253.016 404.365 249.914 409.322 248.632L410.343 248.368C421.517 246.171 429.636 254.422 431.537 265.651L439.425 304.687L422.077 323.09L414.562 312.465Z" fill="#FFBE9D"/>
<path d="M413.332 306.807C418.221 305.513 422.637 302.844 426.055 299.117C426.055 299.117 424.78 307.829 413.969 309.609L413.332 306.807Z" fill="#EB996E"/>
<path d="M399.872 280.175C399.98 280.562 400.234 280.893 400.579 281.097C400.925 281.302 401.337 281.365 401.728 281.274C401.925 281.24 402.112 281.166 402.28 281.058C402.447 280.95 402.591 280.809 402.703 280.644C402.815 280.479 402.892 280.293 402.931 280.097C402.969 279.902 402.967 279.7 402.926 279.505C402.82 279.119 402.568 278.789 402.224 278.584C401.88 278.379 401.47 278.315 401.08 278.406C400.883 278.441 400.695 278.514 400.527 278.622C400.36 278.73 400.215 278.871 400.102 279.036C399.99 279.2 399.911 279.386 399.871 279.582C399.832 279.778 399.832 279.979 399.872 280.175Z" fill="#263238"/>
<path d="M397.751 275.605C397.993 275.758 398.916 274.616 400.542 274.198C402.168 273.781 403.574 274.286 403.706 274.033C403.838 273.781 403.486 273.616 402.86 273.374C402.032 273.07 401.131 273.028 400.278 273.253C399.42 273.469 398.651 273.95 398.081 274.627C397.674 275.11 397.674 275.539 397.751 275.605Z" fill="#263238"/>
<path d="M414.584 277.231C414.692 277.618 414.946 277.948 415.292 278.153C415.638 278.358 416.049 278.421 416.441 278.329C416.637 278.297 416.825 278.225 416.992 278.118C417.16 278.011 417.305 277.871 417.418 277.707C417.531 277.543 417.609 277.358 417.649 277.163C417.689 276.968 417.689 276.767 417.649 276.572C417.55 276.176 417.301 275.834 416.954 275.619C416.608 275.404 416.191 275.332 415.792 275.418C415.592 275.453 415.4 275.529 415.23 275.64C415.059 275.751 414.913 275.896 414.8 276.066C414.687 276.235 414.61 276.426 414.572 276.626C414.535 276.826 414.539 277.032 414.584 277.231V277.231Z" fill="#263238"/>
<path d="M413.859 272.133C414.1 272.287 415.023 271.144 416.649 270.727C418.275 270.309 419.682 270.814 419.802 270.573C419.923 270.331 419.583 270.155 418.967 269.914C418.138 269.599 417.23 269.556 416.375 269.793C415.515 269.999 414.744 270.476 414.177 271.155C413.826 271.671 413.738 272.078 413.859 272.133Z" fill="#263238"/>
<path d="M411.265 286.097C410.337 286.059 409.408 286.129 408.496 286.306C408.068 286.372 407.65 286.394 407.508 286.13C407.38 285.704 407.38 285.249 407.508 284.823C407.639 283.724 407.782 282.559 407.925 281.34C408.463 276.396 408.738 272.375 408.54 272.364C408.343 272.353 407.738 276.33 407.2 281.274C407.079 282.493 406.958 283.647 406.848 284.757C406.719 285.328 406.793 285.926 407.057 286.449C407.156 286.577 407.282 286.682 407.427 286.757C407.571 286.831 407.73 286.872 407.892 286.877C408.14 286.88 408.388 286.85 408.628 286.789C409.533 286.67 410.419 286.437 411.265 286.097Z" fill="#263238"/>
<path d="M416.353 286.031C416.078 286.086 416.54 287.855 415.353 289.492C414.167 291.129 412.233 291.437 412.288 291.689C412.343 291.942 412.793 291.931 413.595 291.744C414.631 291.487 415.544 290.877 416.177 290.019C416.786 289.191 417.046 288.158 416.902 287.141C416.771 286.372 416.452 285.987 416.353 286.031Z" fill="#263238"/>
<path d="M412.231 265.519C412.505 265.914 414.077 265.288 416.043 265.024C418.01 264.761 419.691 264.882 419.845 264.42C419.911 264.2 419.526 263.849 418.801 263.585C417.836 263.263 416.807 263.176 415.801 263.332C414.794 263.474 413.835 263.851 413 264.431C412.374 264.882 412.11 265.321 412.231 265.519Z" fill="#263238"/>
<path d="M397.026 270.023C397.411 270.32 398.432 269.65 399.773 269.276C401.113 268.903 402.322 268.881 402.486 268.43C402.552 268.211 402.278 267.892 401.684 267.672C400.907 267.422 400.073 267.41 399.29 267.639C398.506 267.869 397.809 268.328 397.29 268.958C396.916 269.463 396.85 269.881 397.026 270.023Z" fill="#263238"/>
<path d="M432.7 273.66C432.865 273.539 439.413 269.628 441.061 276.956C442.709 284.284 435.04 284.394 434.974 284.185C434.909 283.977 432.7 273.66 432.7 273.66Z" fill="#FFBE9D"/>
<path d="M436.579 280.889C436.579 280.889 436.733 280.944 436.963 280.999C437.296 281.058 437.638 280.987 437.919 280.801C438.326 280.4 438.617 279.896 438.762 279.343C438.907 278.79 438.9 278.209 438.743 277.659C438.618 277.028 438.355 276.431 437.974 275.912C437.856 275.699 437.686 275.518 437.481 275.386C437.276 275.254 437.042 275.174 436.799 275.154C436.645 275.15 436.494 275.199 436.372 275.293C436.25 275.387 436.164 275.521 436.128 275.671C436.073 275.901 436.128 276.033 436.128 276.055C436.128 276.077 435.942 275.967 435.942 275.649C435.937 275.453 436.003 275.261 436.128 275.11C436.212 275.012 436.314 274.931 436.429 274.872C436.544 274.814 436.67 274.779 436.799 274.77C437.111 274.761 437.42 274.832 437.697 274.977C437.973 275.121 438.209 275.333 438.381 275.594C438.831 276.156 439.137 276.82 439.271 277.527C439.556 279.011 439.117 280.56 438.172 281.098C437.99 281.202 437.785 281.263 437.575 281.274C437.366 281.285 437.156 281.248 436.963 281.164C436.634 281.065 436.557 280.911 436.579 280.889Z" fill="#EB996E"/>
<path d="M396.466 258.63C395.148 258.234 397.873 253.631 400.488 251.686C404.454 248.742 410.903 246.061 415.199 246.336C420.374 246.665 424.944 248.225 428.383 252.126C431.715 256.14 433.921 260.966 434.778 266.112C435.168 267.654 435.145 269.272 434.712 270.803C434.041 272.638 432.295 274.099 432.866 276.297C432.981 276.694 433.015 277.111 432.968 277.522C432.921 277.933 432.793 278.331 432.591 278.692C431.558 280.406 429.636 279.428 428.592 278.241C426.395 275.725 425.45 272.352 424.604 269.1C423.871 266.822 423.518 264.439 423.56 262.047C423.659 260.75 423.978 259.476 424.01 258.179C424.061 257.53 423.971 256.878 423.745 256.267C423.519 255.656 423.164 255.102 422.703 254.642C422.473 254.467 422.231 254.309 421.978 254.169C420.765 253.5 419.397 253.165 418.012 253.2C416.628 253.235 415.278 253.638 414.1 254.367C410.299 256.707 403.74 260.399 401.608 259.399C400.11 258.816 398.752 257.925 397.62 256.784L396.466 258.63Z" fill="#263238"/>
<path d="M413.617 242.314C414.122 242.26 426.494 241.941 431.624 249.917C436.755 257.894 436.569 260.783 436.569 260.783C437.099 260.958 437.601 261.206 438.063 261.52C438.689 261.97 438.678 264.903 437.074 264.98C424.362 262.783 410.706 265.727 395.752 270.001L384.172 272.781C381.041 273.979 379.69 273.407 380.876 272.243C381.766 271.364 390.006 265.365 390.006 265.365L391.468 263.585L394.566 255.773C394.566 255.773 393.742 255.004 394.72 253.95C395.698 252.895 403.74 243.402 413.617 242.314Z" fill="#F9D422"/>
<path d="M391.435 263.585C391.587 263.56 391.738 263.523 391.885 263.475L393.171 263.124C394.269 262.794 395.895 262.398 397.906 261.937C403.159 260.805 408.5 260.132 413.87 259.926C419.241 259.742 424.619 259.859 429.977 260.278C432.042 260.421 433.701 260.575 434.855 260.673L436.173 260.783H436.635L436.184 260.717L434.855 260.575C433.756 260.454 432.053 260.278 429.988 260.124C424.629 259.651 419.246 259.512 413.87 259.707C408.486 259.91 403.132 260.601 397.873 261.772C393.852 262.739 391.435 263.585 391.435 263.585Z" fill="#263238"/>
<g opacity="0.3">
<path d="M425.603 244.743C425.603 244.743 412.473 245.841 407.518 250.038L408.09 249.544L403.343 253.246C402.993 253.612 402.566 253.896 402.093 254.076C401.62 254.257 401.113 254.33 400.608 254.29C402.529 251.74 404.91 249.571 407.628 247.896C412.451 244.775 420.637 241.886 425.603 244.743Z" fill="black"/>
</g>
<path d="M425.802 244.764C425.374 244.582 424.933 244.432 424.484 244.314C423.262 243.97 422.005 243.771 420.737 243.721C418.85 243.647 416.963 243.847 415.134 244.314C412.876 244.839 410.756 245.839 408.915 247.247C407.985 248 407.105 248.811 406.278 249.675C405.476 250.5 404.663 251.258 403.96 252.06C403.344 252.854 402.657 253.589 401.906 254.257C401.229 254.792 400.44 255.167 399.598 255.356C396.511 256.18 394.446 256.015 394.533 255.784C394.569 255.835 394.614 255.878 394.667 255.91C394.72 255.943 394.78 255.963 394.841 255.971C395.18 256.044 395.528 256.07 395.874 256.048C397.143 255.999 398.403 255.811 399.631 255.488C400.501 255.312 401.317 254.936 402.015 254.389C402.775 253.719 403.473 252.984 404.103 252.191C404.795 251.411 405.619 250.642 406.421 249.818C407.243 248.967 408.116 248.167 409.036 247.423C410.855 246.028 412.948 245.033 415.178 244.501C416.988 244.029 418.856 243.819 420.726 243.874C421.991 243.91 423.247 244.087 424.473 244.402L425.461 244.676C425.573 244.714 425.687 244.743 425.802 244.764Z" fill="#263238"/>
<g opacity="0.3">
<path d="M433.633 253.28C431.492 253.674 429.315 253.836 427.14 253.763C424.613 253.84 422.141 254.027 419.614 253.994C417.702 253.994 415.472 254.071 413.977 253.071C414.007 253.527 414.153 253.969 414.401 254.353C414.649 254.738 414.991 255.053 415.395 255.268C416.766 255.744 418.206 255.989 419.658 255.993C424.673 256.254 429.702 255.963 434.655 255.125C434.359 254.472 434.017 253.841 433.633 253.236" fill="black"/>
</g>
<path d="M431.02 249.05C432.602 249.313 433.591 249.511 433.942 250.72C434.228 251.719 434.338 253.016 433.382 253.444C433.085 253.56 432.767 253.616 432.448 253.609L416.045 254.422C415.492 254.517 414.923 254.412 414.441 254.125C414.143 253.82 413.976 253.41 413.976 252.983C413.976 252.556 414.143 252.146 414.441 251.84C415.069 251.263 415.852 250.881 416.693 250.742C421.358 249.551 426.162 248.993 430.976 249.083" fill="#F9D422"/>
<path d="M414.737 254.29C414.492 254.155 414.288 253.958 414.143 253.719C413.968 253.385 413.889 253.009 413.914 252.633C413.939 252.257 414.068 251.895 414.286 251.588C415.077 250.767 416.123 250.24 417.253 250.093C418.516 249.841 419.923 249.577 421.395 249.357C423.911 248.946 426.459 248.762 429.009 248.808C429.987 248.808 430.767 248.896 431.316 248.94L431.942 249.006H432.162L431.953 248.951L431.327 248.852C430.778 248.786 429.987 248.687 429.009 248.654C426.435 248.567 423.859 248.732 421.318 249.148C419.846 249.368 418.439 249.643 417.176 249.907C416.009 250.065 414.933 250.624 414.133 251.489C413.902 251.817 413.771 252.205 413.753 252.606C413.736 253.007 413.833 253.404 414.034 253.752C414.148 253.935 414.307 254.086 414.495 254.191L414.737 254.29Z" fill="#263238"/>
<path d="M393.567 258.223L403.323 255.532L403.202 258.509L392.468 260.992L393.567 258.223Z" fill="white"/>
<path d="M410.617 263.178C410.617 263.123 406.079 263.607 400.487 264.277C394.895 264.947 390.379 265.508 390.379 265.562C390.379 265.617 394.927 265.134 400.509 264.464C406.09 263.794 410.628 263.233 410.617 263.178Z" fill="#263238"/>
<path d="M382.426 323.09L392.314 347.085L396.709 328.638C397.609 325.083 399.389 321.812 401.883 319.124C402.764 318.197 403.72 317.345 404.74 316.575L412.508 352.15C412.508 352.15 405.916 372.41 390.259 372.882C385.711 373.014 378.778 370.125 376.614 365.06C375.515 362.555 361.595 329.506 361.595 329.506L382.426 323.09Z" fill="#E0E0E0"/>
<path d="M386.654 342.273L387.215 338.724L375.558 328.836L373.492 331.154L366.845 338.768L391.961 359.138L398.015 351.864L386.654 342.273Z" fill="#263238"/>
<path d="M480.835 386.725C481.165 381.781 475.166 325.199 475.166 325.199L462.301 306.192L437.767 301.874C437.393 304.862 435.471 312.663 425.352 315.542C420.144 317.025 414.486 311.828 414.486 311.828L404.74 316.563L408.443 343.064L413.222 373.299L481.088 392.592C481.088 392.592 480.506 391.68 480.835 386.725Z" fill="#E0E0E0"/>
<path d="M416.264 376.442L413.221 339.966L448.708 332.78L480.603 379.98L481.537 396.108L432.492 394.581L416.264 376.442Z" fill="#F9D422"/>
<path d="M407.101 329.045C407.292 329.601 407.428 330.176 407.508 330.759C407.739 331.857 408.024 333.483 408.354 335.472C409.002 339.471 409.727 345.02 410.452 351.15C411.177 357.281 411.826 362.818 412.375 366.828C412.65 368.751 412.869 370.344 413.034 371.564C413.147 372.14 413.209 372.724 413.221 373.311C413.044 372.75 412.908 372.177 412.814 371.597C412.584 370.498 412.298 368.883 411.979 366.883C411.32 362.884 410.595 357.347 409.881 351.216C409.167 345.085 408.497 339.537 407.947 335.538C407.684 333.615 407.464 332.011 407.288 330.792C407.182 330.215 407.12 329.631 407.101 329.045V329.045Z" fill="#263238"/>
<path d="M386.689 342.207C386.689 342.207 391.446 342.811 393.116 343.679C394.786 344.547 399.653 347.766 399.653 347.766L409.454 349.623L407.113 365.818L400.521 362.522L386.063 363.961C386.063 363.961 382.909 363.236 382.909 360.983C382.158 360.527 381.518 359.91 381.033 359.177C380.549 358.444 380.233 357.612 380.108 356.742C378.59 354.804 377.182 352.783 375.889 350.689C375.537 349.711 377.504 347.393 377.504 347.393C377.504 347.393 381.635 350.897 384.096 351.447C386.557 351.996 388.875 351.007 389.095 349.392C389.589 346.151 386.689 342.207 386.689 342.207Z" fill="#FFBE9D"/>
<g opacity="0.3">
<path d="M412.684 370.146C412.684 370.146 445.644 381.946 456.631 381.243C465.981 380.65 470.584 376.266 471.331 370.146C472.078 364.027 473.1 337.999 473.1 337.999L455.466 368.619L412.508 367.268L412.684 370.146Z" fill="black"/>
</g>
<path d="M466.124 368.498C468.497 361.73 471.101 348.722 471.101 348.722L475.199 327.045C475.345 321.393 473.449 315.878 469.859 311.51C467.168 308.279 463.399 305.522 458.367 305.544C447.721 305.544 448.095 325.221 448.095 325.221L445.194 353.336L403.51 346.525L400.862 366.565L449.885 377.145C451.947 377.66 454.097 377.719 456.184 377.319C458.271 376.919 460.246 376.068 461.971 374.827C463.964 373.186 465.412 370.98 466.124 368.498V368.498Z" fill="#E0E0E0"/>
<path d="M459.541 307.269C459.541 307.357 458.695 307.401 457.399 307.752C455.698 308.189 454.12 309.01 452.786 310.153C451.453 311.296 450.4 312.73 449.708 314.344C449.17 315.586 449.005 316.421 448.917 316.41C448.877 315.655 449.016 314.902 449.324 314.212C449.943 312.483 450.999 310.943 452.388 309.742C453.778 308.54 455.455 307.719 457.256 307.357C458 307.145 458.783 307.115 459.541 307.269V307.269Z" fill="#263238"/>
<path d="M475.198 327.034C475.198 327.034 475.198 327.221 475.132 327.561C475.066 327.902 474.978 328.429 474.868 329.078L473.825 334.923C473.352 337.461 472.781 340.57 472.122 344.163C471.463 347.755 470.682 351.853 469.639 356.347C469.122 358.599 468.54 360.95 467.903 363.378C467.584 364.598 467.222 365.829 466.804 367.081C466.425 368.373 465.943 369.633 465.365 370.85C464.765 372.124 463.943 373.281 462.937 374.266C461.862 375.241 460.633 376.032 459.3 376.607C456.501 377.798 453.409 378.124 450.423 377.541L411.661 369.202L400.773 366.85L400.51 366.795V366.543C401.421 359.621 402.311 352.919 403.157 346.492V346.217H403.432L445.226 353.117L444.995 353.293C445.929 344.58 446.687 337.559 447.193 332.692C447.456 330.297 447.676 328.429 447.819 327.133C447.896 326.518 447.951 326.034 447.995 325.694C448.039 325.353 448.072 325.199 448.072 325.199C448.072 325.199 448.072 325.375 448.072 325.694C448.072 326.012 448.006 326.529 447.951 327.144C447.83 328.44 447.654 330.308 447.423 332.714C446.951 337.592 446.248 344.613 445.391 353.337V353.545H445.182L403.432 346.821L403.74 346.591C402.905 353.007 402.026 359.709 401.114 366.631L400.971 366.301L411.859 368.641L450.599 377.024C453.479 377.598 456.465 377.291 459.168 376.145C460.454 375.62 461.64 374.876 462.673 373.948C463.647 372.998 464.444 371.882 465.024 370.652C465.59 369.459 466.063 368.225 466.442 366.96C466.826 365.719 467.189 364.488 467.54 363.28C468.21 360.852 468.782 358.511 469.309 356.27C470.408 351.787 471.199 347.711 471.869 344.108C472.539 340.504 473.176 337.428 473.671 334.89C474.165 332.352 474.55 330.429 474.825 329.067C474.956 328.429 475.066 327.968 475.143 327.561C475.22 327.155 475.198 327.034 475.198 327.034Z" fill="#263238"/>
<path d="M450.038 360.456C448.971 359.342 448.038 358.107 447.258 356.776C446.555 355.677 445.951 354.699 445.522 354.04C445.277 353.695 444.938 353.428 444.544 353.271C444.544 353.271 444.676 353.172 444.94 353.216C445.289 353.309 445.6 353.509 445.83 353.787C446.509 354.643 447.144 355.535 447.731 356.457C448.662 357.69 449.437 359.033 450.038 360.456V360.456Z" fill="#263238"/>
<path d="M442.908 334.714C442.908 334.714 435.491 315.904 443.226 306.708C444.13 305.656 445.27 304.833 446.554 304.306C447.837 303.779 449.227 303.563 450.609 303.676C453.048 303.863 456.289 304.335 458.366 305.533C458.366 305.533 451.774 304.357 449.038 307.269C447.017 309.466 442.149 316.399 447.28 333.066L442.908 334.714Z" fill="#F9D422"/>
<path d="M413.353 340.844L405.794 316.058C406.23 315.268 406.905 314.637 407.722 314.254C408.539 313.871 409.456 313.756 410.342 313.927L417.638 340.844H413.353Z" fill="#F9D422"/>
<path d="M388.709 349.612C388.61 349.733 384.512 346.646 379.546 342.712C376.496 340.414 373.562 337.965 370.757 335.373C370.855 335.252 374.954 338.34 379.92 342.273C382.97 344.571 385.904 347.02 388.709 349.612V349.612Z" fill="#455A64"/>
<path d="M368.998 336.307L366.746 334.23L367.823 332.901L370.438 334.659L368.998 336.307Z" fill="#455A64"/>
<path d="M347.817 303.896C347.565 302.916 347.704 301.876 348.204 300.997C348.704 300.118 349.527 299.467 350.498 299.182C354.585 297.974 360.891 296.469 362.583 298.084C365.187 300.468 371.373 306.236 371.373 306.236L379.964 324.068L366.055 328.166L362.1 314.597C362.1 314.597 355.771 314.937 356.332 311.543C356.332 311.543 353.167 310.301 353.618 308.378C354.068 306.456 356.672 306.005 356.672 306.005L356.112 302.61L347.795 304.071L347.817 303.896Z" fill="#FFBE9D"/>
<path d="M354.66 308.609H347.651V300.38H354.66C355.756 300.38 356.807 300.815 357.582 301.59C358.356 302.365 358.792 303.415 358.792 304.511V304.511C358.78 305.6 358.34 306.641 357.567 307.408C356.794 308.175 355.75 308.606 354.66 308.609V308.609Z" fill="#455A64"/>
<path d="M360.001 304.324L349.476 301.611C349.476 301.611 346.652 300.819 348.124 303.874C349.597 306.928 354.002 306.247 355.694 308.06C357.386 309.873 358.353 312.927 365.374 314.059" fill="#FFBE9D"/>
<path d="M365.373 314.059C364.904 314.058 364.436 314.006 363.978 313.905C362.721 313.674 361.499 313.283 360.341 312.74C359.544 312.35 358.804 311.851 358.144 311.257C357.408 310.559 356.738 309.794 356.144 308.972C355.046 307.071 352.453 307.17 350.168 306.126C349.583 305.861 349.054 305.488 348.607 305.027C348.191 304.561 347.867 304.021 347.652 303.434C347.541 303.141 347.471 302.834 347.443 302.522C347.429 302.342 347.456 302.161 347.52 301.992C347.585 301.823 347.686 301.67 347.816 301.545C348.085 301.379 348.388 301.278 348.703 301.247C349.017 301.217 349.334 301.258 349.629 301.369L355.057 302.83L358.704 303.863C359.157 303.97 359.599 304.121 360.023 304.313C359.557 304.291 359.096 304.214 358.649 304.083L354.947 303.215L349.453 301.874C349.242 301.795 349.016 301.762 348.79 301.777C348.565 301.793 348.345 301.856 348.146 301.962C347.871 302.171 347.948 302.742 348.146 303.237C348.337 303.752 348.62 304.228 348.981 304.643C349.388 305.039 349.86 305.362 350.376 305.599C351.471 306.031 352.59 306.398 353.727 306.697C354.299 306.857 354.843 307.101 355.342 307.423C355.794 307.767 356.191 308.178 356.518 308.642C357.087 309.451 357.727 310.209 358.43 310.905C359.058 311.481 359.755 311.976 360.506 312.378C362.075 313.082 363.704 313.644 365.373 314.059V314.059Z" fill="#EB996E"/>
<path d="M364.714 365.323C363.471 365.286 362.258 364.933 361.189 364.297C360.12 363.66 359.231 362.762 358.606 361.687C357.796 360.222 357.336 358.591 357.259 356.92C357.183 355.249 357.494 353.583 358.166 352.051C358.254 351.853 358.342 351.645 358.441 351.458L358.342 351.205C357.706 349.348 357.373 347.4 357.353 345.437C356.958 338.999 356.584 333.011 356.254 327.034C355.925 321.057 355.529 315.036 355.156 308.587H355.705C356.101 315.036 356.474 321.035 356.804 327.034C357.133 333.033 357.529 338.999 357.902 345.437C357.916 347.303 358.216 349.156 358.792 350.93C359.467 349.68 360.608 348.748 361.968 348.338C362.442 348.233 362.932 348.231 363.407 348.329C363.883 348.427 364.332 348.625 364.725 348.909C365.108 349.169 365.428 349.509 365.666 349.905C365.903 350.302 366.051 350.745 366.099 351.205C366.13 351.697 366.057 352.191 365.885 352.652C365.712 353.114 365.444 353.535 365.097 353.885C364.751 354.236 364.334 354.51 363.874 354.688C363.414 354.866 362.922 354.944 362.429 354.919C361.64 354.786 360.894 354.465 360.255 353.983C359.617 353.501 359.103 352.872 358.759 352.15L358.672 352.348C358.033 353.798 357.736 355.376 357.804 356.959C357.873 358.542 358.305 360.088 359.067 361.478C359.766 362.747 360.874 363.742 362.21 364.303C363.547 364.863 365.033 364.956 366.428 364.565C368.988 363.642 370.988 360.555 371.284 357.039C371.419 353.71 370.66 350.406 369.087 347.47C368.384 345.997 367.571 344.558 366.791 343.163C366.011 341.767 365.165 340.262 364.451 338.768C363.856 337.675 363.514 336.462 363.451 335.219C363.41 334.579 363.556 333.941 363.872 333.383C364.188 332.825 364.66 332.371 365.231 332.077C365.541 331.976 365.87 331.953 366.191 332.008C366.512 332.064 366.815 332.197 367.073 332.396C367.33 332.596 367.536 332.855 367.67 333.152C367.805 333.448 367.865 333.773 367.846 334.099H367.307C367.322 333.865 367.277 333.632 367.177 333.421C367.077 333.209 366.925 333.027 366.736 332.89C366.555 332.744 366.342 332.645 366.114 332.601C365.886 332.557 365.65 332.569 365.428 332.637C364.967 332.898 364.588 333.284 364.335 333.75C364.083 334.217 363.967 334.745 364 335.274C364.071 336.429 364.394 337.553 364.945 338.57C365.648 340.075 366.472 341.537 367.274 342.965C368.076 344.393 368.867 345.811 369.581 347.305C371.19 350.343 371.949 353.759 371.779 357.193C371.515 360.335 369.801 364.027 366.571 365.191C365.964 365.337 365.336 365.382 364.714 365.323V365.323ZM359.056 351.469C359.348 352.189 359.813 352.824 360.412 353.319C361.01 353.814 361.722 354.152 362.484 354.303C362.893 354.323 363.301 354.254 363.681 354.1C364.06 353.947 364.402 353.712 364.681 353.413C364.978 353.134 365.208 352.791 365.354 352.411C365.5 352.031 365.56 351.622 365.527 351.216C365.491 350.839 365.375 350.474 365.185 350.146C364.996 349.818 364.738 349.535 364.429 349.315C364.101 349.074 363.726 348.905 363.328 348.82C362.93 348.735 362.519 348.735 362.121 348.821C361.464 349.036 360.856 349.381 360.335 349.836C359.814 350.291 359.39 350.846 359.089 351.469H359.056Z" fill="#455A64"/>
<path d="M428.702 466.38L454.103 457.689C454.103 457.689 471.462 480.564 476.318 479.465L461.245 429.585L421.099 441.495L428.702 466.38Z" fill="#455A64"/>
<path d="M447.282 442.923C447.282 442.399 447.476 441.893 447.827 441.503C448.178 441.114 448.661 440.868 449.183 440.814C449.705 440.795 450.215 440.977 450.607 441.322C451 441.667 451.245 442.15 451.292 442.671C451.282 443.221 451.07 443.748 450.698 444.152C450.325 444.557 449.818 444.812 449.271 444.868C448.72 444.831 448.205 444.581 447.836 444.171C447.466 443.76 447.272 443.222 447.293 442.671" fill="#E0E0E0"/>
<path d="M462.277 429.234L458.387 430.332L473.186 478.191C473.186 478.191 474.834 480.125 476.318 479.4L462.277 429.234Z" fill="#E0E0E0"/>
<path d="M454.093 458.59C454.335 458.513 454.093 457.261 454.5 455.833C454.906 454.404 455.752 453.449 455.599 453.251C455.445 453.053 454.137 453.844 453.654 455.591C453.171 457.338 453.885 458.689 454.093 458.59Z" fill="#263238"/>
<path d="M457.839 463.15C458.092 463.15 458.19 461.952 458.937 460.81C459.685 459.667 460.728 459.107 460.651 458.865C460.575 458.623 459.135 458.865 458.19 460.326C457.245 461.788 457.608 463.216 457.839 463.15Z" fill="#263238"/>
<path d="M464.991 464.227C464.991 463.985 463.661 464.018 462.519 465.051C461.376 466.084 461.189 467.369 461.42 467.413C461.651 467.457 462.156 466.534 463.112 465.71C464.068 464.886 465.046 464.479 464.991 464.227Z" fill="#263238"/>
<path d="M448.082 459.909C448.28 459.744 447.598 458.722 447.28 457.316C446.961 455.91 447.071 454.712 446.818 454.646C446.566 454.58 446.016 455.877 446.423 457.525C446.829 459.173 447.928 460.085 448.082 459.909Z" fill="#263238"/>
<path d="M425.614 398.635C424.637 398.372 381.612 444.516 380.634 452.152C379.656 459.788 381.217 466.435 386.303 470.72C391.39 475.005 449.269 460.942 449.269 460.942L443.776 436.694L464.651 429.662L445.973 395.438L425.614 398.635Z" fill="#F9D422"/>
<g opacity="0.3">
<path d="M415.428 408.864L414.055 410.347C414.055 410.347 438.709 436.221 446.279 435.859L458.365 431.761L417.45 406.623L415.428 408.864Z" fill="black"/>
</g>
<path d="M443.94 437.331C443.94 437.485 435.008 440.254 423.9 443.517C412.793 446.78 403.728 449.307 403.684 449.153C403.641 448.999 412.617 446.241 423.735 442.967C434.854 439.693 443.896 437.177 443.94 437.331Z" fill="#263238"/>
<path d="M390.215 440.001L398.576 466.523C398.576 466.523 374.405 483.937 375.504 488.991L427.527 474.62L416.199 432.749L390.215 440.001Z" fill="#455A64"/>
<path d="M414.035 459.832C414.577 459.844 415.096 460.055 415.491 460.427C415.887 460.798 416.131 461.302 416.177 461.843C416.198 462.396 416.002 462.936 415.63 463.346C415.259 463.757 414.741 464.006 414.188 464.04C413.616 464.008 413.075 463.767 412.67 463.361C412.264 462.956 412.023 462.415 411.991 461.843C412.068 460.744 413.243 459.645 414.298 459.854" fill="#E0E0E0"/>
<path d="M427.844 475.708L426.745 471.643L376.799 485.783C376.799 485.783 374.756 487.431 375.47 488.991L427.844 475.708Z" fill="#E0E0E0"/>
<path d="M397.673 466.49C397.761 466.743 399.058 466.49 400.53 466.984C402.002 467.479 402.969 468.336 403.178 468.171C403.386 468.006 402.595 466.644 400.805 466.105C399.014 465.567 397.541 466.281 397.673 466.49Z" fill="#263238"/>
<path d="M392.83 470.258C392.83 470.522 394.049 470.643 395.214 471.478C396.378 472.313 396.939 473.39 397.18 473.302C397.422 473.214 397.18 471.742 395.741 470.731C394.302 469.72 392.764 470.017 392.83 470.258Z" fill="#263238"/>
<path d="M391.534 477.642C391.775 477.642 391.775 476.268 390.743 475.06C389.71 473.851 388.369 473.62 388.315 473.862C388.26 474.104 389.204 474.642 390.039 475.653C390.874 476.664 391.27 477.686 391.534 477.642Z" fill="#263238"/>
<path d="M396.423 460.239C396.588 460.436 397.665 459.766 399.126 459.47C400.588 459.173 401.829 459.316 401.906 459.052C401.983 458.788 400.653 458.195 398.929 458.569C397.204 458.942 396.248 460.074 396.423 460.239Z" fill="#263238"/>
<g opacity="0.3">
<path d="M427.877 465.776L424.669 453.196L427.064 452.086L412.506 412.468L409.727 414.885L421.164 451.175L425.262 466.325L427.877 465.776Z" fill="black"/>
</g>
<path d="M393.533 367.707C390.711 367.101 387.792 367.101 384.97 367.708C382.148 368.314 379.487 369.512 377.163 371.223C374.812 372.878 372.987 375.173 371.904 377.836C370.821 380.499 370.526 383.417 371.054 386.242C373.394 402.722 394.39 458.755 394.39 458.755L423.439 450.021C423.604 450.021 423.769 449.493 423.67 449.636C423.439 450.021 408.937 403.316 409.299 403.865C409.662 404.414 438.612 427.827 450.632 432.068C456.012 434.02 461.878 434.189 467.362 432.551C472.846 430.913 477.658 427.554 481.087 422.971C483.9 419.038 484.098 401.745 481.087 392.604C481.087 392.604 397.258 368.839 395.686 368.257C394.981 368.027 394.262 367.844 393.533 367.707Z" fill="#F9D422"/>
<path d="M392.346 384.803C396.986 387.936 400.905 392.022 403.841 396.788C406.778 401.555 408.664 406.893 409.375 412.446" fill="#F9D422"/>
<path d="M482.273 422.4L481.921 422.96C481.558 423.49 481.166 424 480.746 424.487C479.075 426.351 477.147 427.967 475.022 429.288C471.645 431.447 467.86 432.887 463.903 433.518C461.413 433.922 458.877 433.955 456.377 433.617C453.554 433.276 450.811 432.451 448.269 431.178C446.884 430.596 445.577 429.805 444.182 429.091C442.786 428.377 441.424 427.52 440.04 426.641C437.264 424.919 434.414 423.044 431.492 421.015C425.632 416.972 419.538 412.424 413.21 407.37L410.837 405.447L409.65 404.458L409.331 404.162L409.178 404.019C409.276 404.019 408.903 403.887 409.386 404.085C409.771 403.678 409.496 403.887 409.584 403.843V403.92L409.793 404.667C410.408 406.645 411.023 408.655 411.661 410.699C412.95 414.764 414.265 418.928 415.605 423.191C418.33 431.717 421.164 440.616 424.098 449.812L424.186 450.076L423.911 450.163L394.499 459.019L394.235 459.096L394.148 458.843C392.269 453.811 390.324 448.46 388.38 443.022C384.161 431.222 380.15 419.664 376.624 408.38C374.855 402.744 373.207 397.174 371.888 391.626C371.723 390.933 371.537 390.252 371.405 389.549C371.273 388.846 371.152 388.154 371.02 387.462C370.731 386.078 370.595 384.667 370.614 383.254C370.618 380.438 371.426 377.682 372.943 375.31C374.478 373.101 376.461 371.241 378.763 369.849C381.065 368.458 383.634 367.567 386.303 367.235C388.864 366.866 391.472 366.974 393.994 367.553L395.829 368.026L397.597 368.553L401.102 369.597L426.822 377.288L464.068 388.45L474.187 391.516L476.813 392.318C477.406 392.504 477.702 392.614 477.702 392.614C477.702 392.614 477.395 392.548 476.791 392.373L474.154 391.626L464.002 388.659L426.647 377.672L400.894 370.047L397.389 369.015L395.587 368.498L393.818 368.059C391.37 367.505 388.843 367.401 386.358 367.751C383.762 368.076 381.264 368.944 379.026 370.3C376.788 371.655 374.862 373.467 373.371 375.618C371.915 377.917 371.152 380.587 371.174 383.309C371.157 384.693 371.293 386.075 371.581 387.429C371.701 388.11 371.833 388.802 371.965 389.494C372.097 390.186 372.284 390.867 372.438 391.56C373.756 397.053 375.404 402.634 377.184 408.271C380.711 419.532 384.721 431.09 388.94 442.89C390.884 448.318 392.829 453.679 394.697 458.7L394.356 458.524L423.779 449.735L423.592 450.076C420.67 440.88 417.846 431.98 415.132 423.454C413.792 419.184 412.481 415.013 411.199 410.94C410.573 408.908 409.958 406.886 409.342 404.898L409.134 404.14V404.03C409.222 403.964 408.936 404.118 409.32 403.711C409.837 403.92 409.485 403.777 409.606 403.843L409.738 403.953L410.002 404.184L411.177 405.172L413.539 407.095C419.857 412.138 425.954 416.719 431.767 420.774C434.667 422.817 437.513 424.685 440.281 426.421C441.655 427.289 443.05 428.069 444.39 428.871C445.731 429.673 447.082 430.376 448.445 430.969C450.955 432.236 453.664 433.061 456.454 433.408C458.923 433.756 461.43 433.734 463.892 433.343C467.823 432.739 471.588 431.337 474.956 429.222C477.08 427.93 479.014 426.347 480.702 424.52C481.132 424.044 481.535 423.546 481.91 423.026C482.086 422.575 482.273 422.4 482.273 422.4Z" fill="#263238"/>
<path d="M396.027 390.988C396.886 391.316 397.699 391.755 398.444 392.296C400.304 393.499 402.048 394.875 403.651 396.405C405.26 397.93 406.704 399.62 407.958 401.448C408.527 402.176 408.979 402.987 409.299 403.854C408.696 403.158 408.138 402.424 407.629 401.656C406.298 399.918 404.828 398.29 403.234 396.789C401.647 395.285 399.962 393.887 398.191 392.603C397.433 392.116 396.709 391.577 396.027 390.988V390.988Z" fill="#263238"/>
<path d="M405.948 387.747C406.417 388.424 406.787 389.164 407.046 389.945C407.757 391.766 408.327 393.639 408.749 395.548C409.178 397.453 409.454 399.389 409.573 401.338C409.679 402.144 409.679 402.96 409.573 403.766C409.398 403.766 409.211 400.085 408.211 395.669C407.211 391.252 405.783 387.813 405.948 387.747Z" fill="#263238"/>
<path d="M470.188 386.605L480.801 383.55L487.734 384.803L491.03 396.383C494.326 406.623 493.59 412.49 486.8 416.983C484.811 418.302 482.922 419.027 481.548 418.445C476.78 416.423 470.188 386.605 470.188 386.605Z" fill="#455A64"/>
<path d="M480.8 383.55L413.067 372.41L413.22 373.311L480.8 393.526V383.55Z" fill="#455A64"/>
<path d="M58.05 436.254L51.392 459.689C51.392 459.689 72.6076 474.4 71.7946 478.839L26.5837 467.38L35.4941 430.519L58.05 436.254Z" fill="#455A64"/>
<path d="M37.9 454.097C37.4297 454.126 36.9864 454.326 36.6542 454.66C36.3221 454.995 36.1242 455.439 36.0981 455.91C36.1031 456.382 36.2875 456.834 36.6141 457.175C36.9406 457.516 37.3847 457.719 37.856 457.744C38.3553 457.713 38.8253 457.498 39.1759 457.141C39.5266 456.784 39.7334 456.311 39.7568 455.811C39.6689 454.866 38.6581 453.888 37.7242 454.119" fill="#E0E0E0"/>
<g opacity="0.6">
<path d="M26.5837 467.38L27.6275 463.699L70.586 476.06C70.586 476.06 72.3769 477.466 71.7946 478.839L26.5837 467.38Z" fill="white"/>
</g>
<path d="M52.1844 459.579C52.1185 459.799 50.9978 459.579 49.7344 460.074C48.4709 460.568 47.6578 461.304 47.4711 461.173C47.2843 461.041 47.9435 459.821 49.4817 459.305C51.0198 458.788 52.2833 459.393 52.1844 459.579Z" fill="#263238"/>
<path d="M56.4343 462.777C56.4343 462.996 55.3356 463.139 54.4017 463.875C53.4678 464.611 52.9515 465.578 52.7317 465.512C52.512 465.446 52.7317 464.139 53.9293 463.227C55.1269 462.315 56.4782 462.557 56.4343 462.777Z" fill="#263238"/>
<path d="M57.708 469.204C57.4882 469.204 57.4663 468.006 58.3342 466.929C59.2022 465.853 60.3558 465.622 60.3998 465.831C60.4437 466.04 59.6417 466.534 58.9495 467.424C58.2573 468.314 57.9277 469.237 57.708 469.204Z" fill="#263238"/>
<path d="M53.1159 454.086C52.9731 454.262 52.0172 453.701 50.7647 453.471C49.5122 453.24 48.4245 453.394 48.3586 453.174C48.2927 452.954 49.4573 452.383 50.9186 452.68C52.3798 452.976 53.2697 453.932 53.1159 454.086Z" fill="#263238"/>
<path d="M42.2069 441.759L41.1082 466.061C41.1082 466.061 65.1474 475.312 65.3891 479.828L18.8379 479.465L18.9368 441.517L42.2069 441.759Z" fill="#455A64"/>
<path d="M26.7594 463.908C26.3072 464.048 25.9222 464.349 25.6772 464.754C25.4322 465.159 25.3442 465.64 25.4299 466.105C25.5449 466.561 25.8295 466.956 26.2256 467.209C26.6217 467.462 27.0994 467.555 27.5614 467.468C28.0314 467.32 28.4319 467.008 28.6885 466.587C28.9452 466.167 29.0405 465.668 28.9567 465.182C28.7943 464.717 28.4557 464.335 28.0139 464.117C27.5721 463.899 27.0624 463.864 26.5946 464.018" fill="#E0E0E0"/>
<g opacity="0.6">
<path d="M18.8379 479.465L18.9917 475.642L63.6093 477.422C63.6093 477.422 65.6748 478.356 65.4331 479.839L18.8379 479.465Z" fill="white"/>
</g>
<path d="M41.9103 465.831C41.9103 466.062 40.8116 466.16 39.6361 466.93C38.4605 467.699 37.9111 468.632 37.7024 468.534C37.4936 468.435 37.8452 467.116 39.2186 466.259C40.5919 465.402 41.9653 465.622 41.9103 465.831Z" fill="#263238"/>
<path d="M46.7868 467.918C46.7868 468.138 45.8419 468.523 45.0618 469.501C44.2818 470.478 44.051 471.5 43.8313 471.478C43.6116 471.456 43.4687 470.171 44.4576 468.984C45.4464 467.798 46.7758 467.699 46.7868 467.918Z" fill="#263238"/>
<path d="M49.5116 473.873C49.3029 473.873 48.9952 472.775 49.5885 471.5C50.1818 470.226 51.2585 469.753 51.3464 469.94C51.4343 470.127 50.7861 470.808 50.3136 471.852C49.8412 472.895 49.7423 473.851 49.5116 473.873Z" fill="#263238"/>
<path d="M41.5464 460.26C41.4475 460.469 40.4477 460.15 39.1183 460.26C37.7889 460.37 36.8331 460.744 36.7122 460.546C36.5914 460.348 37.5692 459.524 39.0854 459.447C40.6016 459.37 41.7002 460.085 41.5464 460.26Z" fill="#263238"/>
<path d="M13.3769 263.849V283.076L18.4748 357.962C18.4748 357.962 15.3326 394.295 13.3549 414.808C11.6629 432.617 14.4536 463.633 14.4536 463.633H44.1181L54.7314 360.192L61.3235 295.678L72.7498 266.321L13.3769 263.849Z" fill="#263238"/>
<path d="M86.2308 263.849L89.0984 341.91C88.9006 356.556 84.8684 383.902 79.6277 397.558L55.7973 449.911L54.4239 454.624L36.7021 450.284L49.8754 265.222L86.2308 263.849Z" fill="#263238"/>
<path d="M65.7086 284.526C65.7233 284.683 65.7233 284.841 65.7086 284.999C65.7086 285.328 65.7086 285.779 65.7086 286.361C65.7086 287.602 65.7086 289.371 65.7086 291.635C65.7086 296.216 65.7086 302.841 65.5657 311.026C65.4229 319.212 65.1702 328.957 64.5879 339.768C64.0056 350.579 63.2255 362.5 60.6876 374.761C58.4572 387.033 55.9852 398.679 53.7878 409.271C51.5905 419.862 49.6348 429.41 48.1736 437.463C46.7123 445.516 45.6466 452.053 44.9984 456.591C44.6578 458.854 44.482 460.623 44.3172 461.81C44.2403 462.392 44.1744 462.842 44.1304 463.172C44.1177 463.329 44.0882 463.483 44.0425 463.634C44.0278 463.476 44.0278 463.318 44.0425 463.161C44.0425 462.831 44.1084 462.381 44.1634 461.799C44.2952 460.601 44.438 458.832 44.7457 456.558C45.284 452.009 46.2619 445.461 47.6682 437.386C49.0745 429.311 50.9642 419.807 53.1616 409.161C55.359 398.515 57.82 386.923 60.1602 374.651C62.6872 362.423 63.4563 350.48 64.0935 339.735C64.7307 328.99 64.9944 319.201 65.1922 311.015C65.3899 302.83 65.4668 296.216 65.5218 291.635C65.5218 289.371 65.5218 287.602 65.5218 286.361C65.5218 285.779 65.5218 285.328 65.5218 284.999C65.5733 284.837 65.6357 284.679 65.7086 284.526V284.526Z" fill="#455A64"/>
<path d="M103.051 243.897C103.453 245.359 103.601 246.878 103.491 248.39C103.271 250.687 103.161 256.356 97.0304 258.278C90.8997 260.201 85.1097 255.609 83.2419 253.532C81.3741 251.456 81.5829 244.655 81.5829 244.655L91.6578 240.172L103.051 243.897Z" fill="#F9D422"/>
<path d="M33.406 157.397L28.3081 165.593L7.64185 174.383L12.8166 259.212L16.5302 274.594L85.3408 272.309L87.0437 260.399V203.19C85.4836 188.512 78.3971 179.393 71.816 175.778L67.5201 172.834L65.8721 167.439L59.8073 161.759L40.3716 156.716L33.406 157.397Z" fill="#F9D422"/>
<g opacity="0.3">
<path d="M10.5303 252.763C12.7476 256.132 15.8844 258.794 19.5688 260.433C23.2532 262.073 27.3306 262.622 31.3174 262.014C38.2281 260.85 44.0621 256.29 50.6872 254.016C62.2124 250.038 75.3636 253.203 86.724 248.775C86.9437 246.819 86.8119 244.38 86.9437 243.084C81.2635 242.787 75.2098 242.469 70.1888 239.788L65.6293 238.107L10.5303 252.763Z" fill="black"/>
</g>
<path d="M7.64309 174.394C7.64309 174.394 -2.16815 182.788 0.677439 204.674C3.31428 224.999 7.99467 253.323 14.2352 256.608C20.4757 259.893 33.9456 258.245 43.8008 252.664C53.656 247.083 82.2547 231.965 82.2547 231.965L70.4219 210.936L32.3085 225.724C32.3085 225.724 27.3755 191.995 24.42 186.172" fill="#F9D422"/>
<path d="M24.4191 186.194C24.4191 186.194 24.529 186.403 24.7157 186.831C24.8036 187.051 24.9355 187.315 25.0563 187.644L25.4299 188.798C25.9902 190.534 26.6604 193.193 27.3855 196.565C28.8578 203.388 30.6816 213.32 32.5054 225.692L32.2307 225.527L70.3221 210.695L70.5308 210.607L70.6517 210.804C74.3872 217.451 78.3425 224.516 82.4845 231.822L82.6273 232.075L82.3527 232.262L57.918 245.446L45.9313 251.895C43.9647 252.994 41.998 254.093 39.9655 254.928C37.9392 255.795 35.8582 256.529 33.7359 257.125C29.6011 258.274 25.3122 258.771 21.0242 258.597C18.9301 258.516 16.8648 258.081 14.9155 257.312L14.2013 256.993C13.962 256.865 13.7308 256.722 13.5092 256.565C13.1068 256.236 12.7387 255.868 12.4105 255.466C11.7864 254.658 11.2454 253.789 10.7954 252.873C9.16701 249.345 7.89004 245.665 6.98298 241.886C6.01614 238.228 5.25804 234.635 4.57686 231.163C3.22548 224.197 2.22568 217.671 1.39068 211.705C0.55568 205.739 -0.180437 200.301 0.0392994 195.5C0.151779 191.383 0.89279 187.307 2.23667 183.414C3.09631 180.96 4.31439 178.646 5.85133 176.547C6.25146 176.005 6.6883 175.492 7.15877 175.009C7.31407 174.842 7.48313 174.687 7.66416 174.548L7.19173 175.042C6.89508 175.383 6.45561 175.899 5.93923 176.613C4.46147 178.733 3.28561 181.048 2.44542 183.491C1.15696 187.367 0.464231 191.416 0.390878 195.5C0.204102 200.268 0.962193 205.674 1.81917 211.639C2.67614 217.605 3.7089 224.109 5.11522 231.053C5.80739 234.525 6.57647 238.107 7.54331 241.743C8.44573 245.501 9.71913 249.159 11.3448 252.664C11.782 253.548 12.3045 254.387 12.9049 255.169C13.2088 255.545 13.5513 255.887 13.9267 256.191C14.1183 256.331 14.3203 256.456 14.5309 256.565L15.2121 256.872C17.1053 257.617 19.1117 258.033 21.145 258.103C25.3635 258.203 29.5716 257.64 33.6151 256.433C35.7108 255.859 37.7662 255.147 39.7677 254.301C41.7783 253.433 43.69 252.346 45.6676 251.291L57.6653 244.831L82.111 231.646L82.0011 232.031L70.1903 211.068L70.5089 211.178L32.3736 225.911L32.1428 226.01V225.747C30.319 213.386 28.6051 203.432 27.2097 196.62C26.5176 193.203 25.8803 190.578 25.364 188.831C25.2321 188.391 25.1222 188.007 25.0124 187.666L24.7047 186.853C24.496 186.425 24.4191 186.194 24.4191 186.194Z" fill="#263238"/>
<path d="M27.7039 198.653L52.4572 197.027L57.9286 207.321L30.1869 212.309L27.7039 198.653Z" fill="#F9D422"/>
<path d="M27.7039 198.653C27.7993 198.978 27.8763 199.308 27.9346 199.642C28.0664 200.334 28.2532 201.246 28.4839 202.388C28.9454 204.794 29.5826 208.156 30.3956 212.276L30.1429 212.101L55.116 207.541L57.8847 207.047L57.676 207.453C55.7642 203.828 53.9185 200.367 52.1825 197.159L52.4352 197.29L34.7025 198.323L29.5606 198.598H28.1763H27.6709C27.8171 198.586 27.9641 198.586 28.1104 198.598L29.4288 198.477L34.5047 198.07L52.4023 196.763H52.5781L52.655 196.917L58.1484 207.201L58.3352 207.541L57.9506 207.618L55.1929 208.112L30.1869 212.507H29.9781V212.298C29.275 208.101 28.6927 204.674 28.2752 202.224C28.0884 201.125 27.9456 200.191 27.8357 199.521C27.7753 199.234 27.7312 198.944 27.7039 198.653V198.653Z" fill="#263238"/>
<path d="M32.3074 225.724C32.4613 225.845 30.2419 228.449 28.3961 232.163C26.5503 235.876 25.7593 239.216 25.5615 239.161C25.5918 238.412 25.7324 237.672 25.979 236.964C26.4435 235.22 27.0802 233.527 27.8797 231.91C28.6864 230.296 29.6545 228.769 30.7693 227.35C31.1964 226.733 31.7151 226.185 32.3074 225.724V225.724Z" fill="#263238"/>
<path d="M57.1725 178.558C56.6836 178.278 56.2235 177.951 55.7991 177.58L52.2064 174.724H52.5141C51.127 176.966 49.4784 179.035 47.6029 180.887L47.4272 181.063L47.2294 180.898L43.4389 177.745C39.3738 174.449 35.5724 171.548 32.8037 169.505L29.5076 167.077C29.0901 166.804 28.7 166.491 28.343 166.143C28.7987 166.353 29.2329 166.607 29.6395 166.901C30.4525 167.417 31.6171 168.186 33.0344 169.175C35.869 171.142 39.7144 173.977 43.7905 177.306C45.1199 178.404 46.4054 179.503 47.581 180.481H47.1964C49.0557 178.665 50.7133 176.654 52.1405 174.482L52.2724 174.273L52.4481 174.438L55.9859 177.393C56.4087 177.753 56.8053 178.142 57.1725 178.558V178.558Z" fill="#263238"/>
<path d="M67.3456 173.361C67.492 173.804 67.5589 174.269 67.5434 174.735C67.6155 175.959 67.5751 177.187 67.4226 178.404L67.3456 179.052L66.9721 178.503C66.0588 177.184 65.0759 175.916 64.0276 174.702C63.5881 174.185 63.1377 173.702 62.6982 173.24C62.4969 173.014 62.2842 172.797 62.061 172.592C61.8412 172.449 61.8742 172.449 61.6764 172.658L59.8526 175.196C59.3296 176.012 58.726 176.774 58.0508 177.47C58.4584 176.589 58.9515 175.75 59.523 174.965L61.2589 172.339C61.3119 172.247 61.3849 172.167 61.4727 172.106C61.5605 172.046 61.6608 172.005 61.7662 171.988C61.8716 171.972 61.9794 171.979 62.0818 172.009C62.1841 172.039 62.2784 172.092 62.3576 172.164C62.6433 172.405 62.8191 172.603 63.0608 172.845C63.5112 173.306 63.9727 173.801 64.4232 174.328C65.4887 175.557 66.4654 176.86 67.3456 178.228L66.8842 178.338C67.3786 175.383 67.2248 173.361 67.3456 173.361Z" fill="#263238"/>
<path d="M23.2875 182.821C22.7222 182.259 22.2075 181.649 21.7493 180.997C20.5921 179.499 19.2269 178.175 17.6952 177.064C16.1154 176.058 14.3405 175.399 12.4874 175.13C11.6961 175.065 10.9104 174.944 10.1362 174.767C10.9325 174.631 11.7461 174.631 12.5423 174.767C14.5066 174.964 16.3927 175.64 18.0358 176.734C19.6221 177.871 20.9978 179.277 22.1009 180.887C22.5845 181.473 22.9839 182.124 23.2875 182.821V182.821Z" fill="#263238"/>
<path d="M77.0683 198.049C76.2376 196.362 75.5823 194.595 75.1126 192.775C74.4572 190.996 73.9823 189.156 73.6953 187.282C74.5289 188.972 75.1879 190.742 75.662 192.566C76.3152 194.341 76.7864 196.178 77.0683 198.049Z" fill="#263238"/>
<path d="M86.8016 246.544C86.9599 247.266 87.0336 248.003 87.0213 248.742C87.1092 250.082 87.263 251.928 87.3509 253.983C87.4493 255.744 87.4126 257.511 87.2411 259.267C87.2201 260.022 87.0599 260.767 86.7686 261.465C86.7315 260.732 86.7536 259.997 86.8346 259.267C86.8346 257.927 86.8346 256.081 86.8346 254.037C86.8346 251.994 86.6588 250.137 86.6807 248.786C86.5984 248.037 86.6392 247.28 86.8016 246.544V246.544Z" fill="#263238"/>
<path d="M41.8889 205.893C41.6584 206.136 41.5279 206.456 41.5233 206.791C41.5187 207.125 41.6405 207.449 41.8642 207.698C42.0879 207.947 42.3972 208.102 42.7303 208.133C43.0635 208.164 43.3959 208.068 43.6614 207.864C43.9269 207.661 44.106 207.364 44.1627 207.035C44.2195 206.705 44.1499 206.366 43.9678 206.085C43.7856 205.805 43.5044 205.603 43.1802 205.521C42.8559 205.438 42.5125 205.481 42.2185 205.641" fill="#E0E0E0"/>
<g opacity="0.3">
<path d="M26.0566 191.237L33.0003 211.804L55.8859 207.695L33.8243 216.341L31.9676 223.472L26.0566 191.237Z" fill="black"/>
</g>
<g opacity="0.3">
<path d="M28.9336 166.505L49.3911 185.018L52.5553 176.361L55.8513 177.459L52.3026 174.515C52.3026 174.515 48.4133 180.492 47.3805 180.601L28.9336 166.505Z" fill="black"/>
</g>
<path d="M67.9258 210.848C67.7406 210.451 67.6006 210.035 67.5083 209.607C67.2556 208.684 66.926 207.53 66.5414 206.168C65.7284 203.267 64.5528 199.279 63.1135 194.906C61.6743 190.534 60.224 186.644 59.1473 183.821C58.6529 182.502 58.2244 181.393 57.8838 180.525C57.7025 180.122 57.5626 179.703 57.4663 179.272C57.7148 179.636 57.9212 180.027 58.0816 180.437C58.4441 181.195 58.9385 182.316 59.5318 183.733C60.6964 186.513 62.2016 190.413 63.6519 194.786C65.1022 199.158 66.2228 203.191 66.948 206.124C67.3105 207.585 67.5742 208.783 67.739 209.607C67.8496 210.012 67.9123 210.429 67.9258 210.848V210.848Z" fill="#263238"/>
<path d="M67.6304 188.007C71.4978 191.863 81.2981 201.927 81.2981 201.927L83.9239 200.345L70.1135 185.6C69.8351 185.308 69.4633 185.121 69.0622 185.073C68.6611 185.025 68.2558 185.118 67.9161 185.337V185.337C67.6996 185.476 67.5171 185.662 67.382 185.882C67.2468 186.101 67.1624 186.347 67.135 186.603C67.1076 186.859 67.1379 187.118 67.2236 187.361C67.3094 187.604 67.4484 187.824 67.6304 188.007V188.007Z" fill="#263238"/>
<path d="M70.4211 210.936L73.7172 201.663C74.0526 200.656 74.6881 199.775 75.5384 199.138C76.3887 198.502 77.4132 198.141 78.4745 198.104C78.6389 198.087 78.8045 198.087 78.9689 198.104C80.9465 198.323 91.0544 198.983 91.0544 198.983L94.9548 203.377C95.2711 203.746 95.4451 204.216 95.4451 204.701C95.4451 205.187 95.2711 205.657 94.9548 206.025V206.025L96.0534 213.903L93.8561 215.408L94.0758 220.901C94.0758 220.901 92.0982 222.22 91.2302 221.78L90.3513 221.341L89.0328 220.022L85.3083 225.285L80.1555 228.263L70.4211 210.936Z" fill="#FFBE9D"/>
<path d="M94.965 206.432C94.5234 205.891 94.0501 205.378 93.5477 204.893C92.9854 204.427 92.3508 204.056 91.6689 203.795C90.7746 203.584 89.8622 203.459 88.9442 203.421C86.5244 203.288 84.1185 202.968 81.7478 202.465C84.1713 202.396 86.5965 202.525 88.9991 202.85C89.9618 202.89 90.9167 203.041 91.8447 203.3C92.5858 203.608 93.2581 204.059 93.8223 204.63C94.3835 205.095 94.7834 205.726 94.965 206.432Z" fill="#EB996E"/>
<path d="M94.7469 213.683C94.5233 212.991 94.2516 212.315 93.9339 211.661C93.0419 210.159 91.6727 208.999 90.0445 208.365C88.3904 207.779 86.6467 207.485 84.8917 207.497C84.1589 207.548 83.4228 207.526 82.6943 207.431C83.4019 207.194 84.1456 207.083 84.8917 207.102C86.7147 206.958 88.5473 207.209 90.2643 207.838C92.0076 208.504 93.4461 209.786 94.3074 211.442C94.7041 212.117 94.8591 212.908 94.7469 213.683V213.683Z" fill="#EB996E"/>
<path d="M93.7578 220.451C93.385 219.78 93.2026 219.02 93.2304 218.253C93.1878 217.477 93.0209 216.713 92.736 215.99C92.5407 215.581 92.2502 215.225 91.8889 214.952C91.5276 214.679 91.106 214.496 90.6595 214.419C88.932 214.047 87.181 213.794 85.4188 213.661C84.6602 213.639 83.9133 213.467 83.2214 213.155C83.9555 213.145 84.6895 213.181 85.4188 213.265C87.2224 213.276 89.0197 213.479 90.7804 213.87C91.3143 213.998 91.8181 214.23 92.2636 214.551C92.6726 214.874 92.9906 215.298 93.1865 215.781C93.4697 216.563 93.6074 217.389 93.593 218.22C93.637 219.616 93.8237 220.418 93.7578 220.451Z" fill="#EB996E"/>
<path d="M99.2393 203.037L55.7974 247.907L57.4674 249.599L88.5931 246.094L130.475 206.19L130.431 204.278L99.2393 203.037Z" fill="#455A64"/>
<g opacity="0.3">
<path d="M102.052 231.229C101.21 230.462 100.217 229.879 99.1364 229.518C98.0561 229.156 96.9123 229.024 95.7782 229.13C93.5021 229.367 91.3485 230.278 89.5926 231.745C88.1117 232.832 87.0304 234.377 86.5163 236.14C85.7911 239.249 87.8567 242.501 90.6693 244.007L91.0538 243.556L101.755 234.965C102.338 234.595 102.776 234.036 102.997 233.382C103.027 232.974 102.957 232.563 102.792 232.188C102.628 231.812 102.373 231.483 102.052 231.229V231.229Z" fill="black"/>
</g>
<path d="M97.4705 227.032C97.4705 227.032 101.678 227.12 103.052 227.801C104.425 228.482 108.205 232.514 108.205 232.514C108.205 232.514 108.205 235.25 107.106 235.36C107.235 235.971 107.309 236.592 107.326 237.217C107.436 238.755 107.655 239.634 105.568 240.941C105.568 240.941 105.787 243.468 105.018 244.116C104.501 244.556 103.954 244.96 103.381 245.325C103.381 245.325 100.975 248.28 99.547 248.061C98.1187 247.841 96.0641 249.599 96.0641 249.599C96.0641 249.599 88.3733 246.391 89.1424 245.479L91.8232 242.512C91.8232 242.512 86.5166 238.645 86.6264 237.436C86.7363 236.228 87.1758 236.129 87.1758 236.129C87.1758 236.129 86.956 233.822 88.8128 233.602C88.8128 233.602 90.2411 230.756 91.6584 230.647C93.0757 230.537 102.722 234.041 102.722 234.041L99.1075 230.976C99.1075 230.976 95.4928 230.427 95.6027 229.229C95.7126 228.032 97.4705 227.032 97.4705 227.032Z" fill="#FFBE9D"/>
<path d="M96.8232 241.468C96.7353 241.6 94.6258 240.37 91.9451 239.095C90.2702 238.397 88.6345 237.608 87.0449 236.733C88.8458 237.072 90.5814 237.695 92.1868 238.579C93.8799 239.282 95.4462 240.258 96.8232 241.468V241.468Z" fill="#EB996E"/>
<path d="M101.844 238.107C99.6935 237.616 97.5904 236.936 95.5598 236.074C93.4586 235.395 91.4217 234.531 89.4731 233.492C91.6223 234.003 93.7246 234.694 95.7576 235.558C97.8545 236.235 99.8906 237.087 101.844 238.107V238.107Z" fill="#EB996E"/>
<path d="M130.31 206.113C130.12 206.129 129.929 206.129 129.739 206.113H128.08L121.85 206.036L100.195 205.618L100.393 205.542L89.5049 216.88C80.7154 225.944 72.75 234.129 66.9379 240.117L60.0492 247.105L58.1814 248.972C57.9674 249.199 57.736 249.408 57.4893 249.599C57.6753 249.345 57.881 249.106 58.1045 248.885L59.9173 246.929L66.6743 239.809L89.1204 216.462L100.03 205.201L100.107 205.113H100.228L121.883 205.739L128.102 205.97L129.761 206.047C129.946 206.043 130.131 206.065 130.31 206.113V206.113Z" fill="#263238"/>
<path d="M77.0787 116.757C75.7076 115.202 73.8011 114.222 71.7391 114.01C70.589 113.703 69.3684 113.796 68.2782 114.274C67.6377 114.708 67.1314 115.312 66.8168 116.019C66.5023 116.726 66.3919 117.507 66.4984 118.273C66.7369 119.792 67.1843 121.271 67.8278 122.668C68.4732 124.08 68.6909 125.649 68.454 127.184L72.3983 136.577C73.0759 136.322 73.6897 135.923 74.197 135.407C74.7043 134.89 75.0928 134.269 75.3355 133.587C75.5782 132.905 75.6692 132.178 75.6021 131.458C75.5351 130.737 75.3116 130.039 74.9472 129.414C75.5719 129.075 76.1138 128.603 76.5341 128.03C76.9544 127.457 77.2426 126.798 77.3781 126.101C77.5136 125.403 77.493 124.685 77.3177 123.996C77.1425 123.308 76.817 122.666 76.3645 122.119C78.1664 121.152 78.3092 118.394 77.0787 116.757Z" fill="#263238"/>
<path d="M40.6905 141.28L40.2291 122.294L28.2094 121.745C27.4765 121.93 26.8107 122.318 26.2889 122.865C25.767 123.411 25.4103 124.095 25.2598 124.835C25.1094 125.576 25.1713 126.344 25.4386 127.051C25.7058 127.758 26.1674 128.375 26.7702 128.832C25.8432 129.249 25.0676 129.943 24.5489 130.817C24.0303 131.692 23.7939 132.705 23.872 133.719C23.9501 134.732 24.3388 135.697 24.9852 136.482C25.6316 137.267 26.5043 137.834 27.4843 138.104C26.9331 138.788 26.5734 139.605 26.4419 140.473C26.3104 141.341 26.412 142.229 26.7361 143.045C27.0602 143.861 27.5953 144.576 28.2866 145.117C28.9779 145.658 29.8006 146.006 30.6705 146.125C30.6705 148.322 31.923 150.783 34.0764 151.398C36.2298 152.014 38.7568 150.377 39.7676 148.245C40.7784 146.114 40.7454 143.642 40.6905 141.28Z" fill="#263238"/>
<path d="M27.8809 119.647C27.8809 119.647 29.0674 135.358 30.6056 140.148C31.86 143.644 33.5115 146.983 35.5277 150.102L72.1798 138.72C73.4213 130.238 74.7068 121.712 74.1794 115.032L62.4894 110.868L27.8809 119.647Z" fill="#263238"/>
<path d="M35.6359 140.148C34.0817 135.946 32.8871 131.62 32.0652 127.217C31.2527 122.795 31.5547 118.241 32.9442 113.966C33.1639 113.318 35.1415 109.022 35.8007 109.088C36.2841 109.088 35.0976 113.12 35.3503 113.538C37.6071 117.615 38.5762 122.281 38.1299 126.92C37.7851 131.393 36.9487 135.814 35.6359 140.104" fill="#263238"/>
<path d="M61.0824 169.56V158.924C61.0824 158.924 71.9154 157.672 72.4648 146.916C72.7394 141.719 72.4648 130.974 72.0143 121.262C71.8054 116.223 69.7064 111.447 66.1352 107.886C62.5641 104.325 57.7828 102.24 52.7434 102.046H51.7106C40.4931 102.254 34.4064 111.934 34.9337 123.118V159.551L57.0832 175.504L61.0824 169.56Z" fill="#FFBE9D"/>
<path d="M61.1047 158.924C56.1387 158.723 51.3344 157.103 47.2612 154.255C47.2612 154.255 50.3705 162.22 61.1486 161.671L61.1047 158.924Z" fill="#EB996E"/>
<path d="M68.5194 130.458C68.5079 130.86 68.3393 131.241 68.0497 131.521C67.7601 131.8 67.3726 131.955 66.9703 131.952C66.7748 131.961 66.5794 131.93 66.3959 131.862C66.2124 131.794 66.0445 131.69 65.902 131.555C65.7596 131.421 65.6456 131.26 65.5667 131.081C65.4879 130.901 65.4459 130.708 65.4431 130.512C65.446 130.108 65.6078 129.722 65.8936 129.436C66.1794 129.15 66.5661 128.988 66.9703 128.985C67.1704 128.973 67.3708 129.002 67.5591 129.071C67.7474 129.14 67.9196 129.247 68.0649 129.385C68.2102 129.523 68.3255 129.689 68.4037 129.874C68.4819 130.058 68.5213 130.257 68.5194 130.458Z" fill="#263238"/>
<path d="M69.5643 125.689C69.3665 125.876 68.2349 124.975 66.5759 124.909C64.9169 124.843 63.6753 125.634 63.5105 125.425C63.3457 125.217 63.6314 124.975 64.1807 124.612C64.9127 124.142 65.7729 123.912 66.6418 123.953C67.5016 123.983 68.3293 124.287 69.004 124.821C69.4984 125.173 69.6632 125.546 69.5643 125.689Z" fill="#263238"/>
<path d="M53.6996 130.721C53.6882 131.122 53.5211 131.502 53.2338 131.781C52.9466 132.06 52.5619 132.216 52.1614 132.216C51.9648 132.223 51.7687 132.191 51.5846 132.122C51.4004 132.053 51.2318 131.947 51.0887 131.813C50.9455 131.678 50.8306 131.515 50.7507 131.336C50.6708 131.156 50.6275 130.962 50.6233 130.765C50.6375 130.364 50.807 129.984 51.096 129.705C51.385 129.426 51.7709 129.271 52.1724 129.271C52.3685 129.264 52.5641 129.296 52.7476 129.365C52.9312 129.434 53.099 129.54 53.2413 129.675C53.3836 129.81 53.4974 129.972 53.5761 130.152C53.6548 130.331 53.6968 130.525 53.6996 130.721V130.721Z" fill="#263238"/>
<path d="M53.335 125.689C53.1373 125.887 52.0056 124.975 50.3466 124.92C48.6876 124.865 47.4571 125.634 47.2813 125.426C47.1055 125.217 47.4021 124.975 47.9515 124.613C48.6846 124.145 49.5439 123.915 50.4125 123.953C51.2747 123.988 52.1043 124.292 52.7857 124.821C53.2691 125.217 53.4339 125.579 53.335 125.689Z" fill="#263238"/>
<path d="M58.7737 138.61C59.6544 138.366 60.5628 138.237 61.4765 138.225C61.894 138.225 62.3005 138.137 62.3884 137.852C62.4356 137.416 62.3515 136.976 62.1467 136.588C61.7951 135.548 61.4288 134.449 61.048 133.292C59.4988 128.645 58.3892 124.832 58.5759 124.766C58.7627 124.7 60.18 128.425 61.7292 133.072C62.1027 134.171 62.4653 135.27 62.8278 136.368C63.0731 136.89 63.1313 137.479 62.9926 138.038C62.923 138.185 62.8218 138.314 62.6965 138.416C62.5711 138.519 62.4246 138.592 62.2675 138.632C62.0295 138.684 61.7859 138.706 61.5424 138.698C60.6193 138.781 59.6896 138.751 58.7737 138.61Z" fill="#263238"/>
<path d="M53.863 139.566C54.1266 139.566 54.0607 141.357 55.5439 142.686C57.0272 144.015 58.9499 143.895 58.9608 144.147C58.9718 144.4 58.5214 144.477 57.7083 144.466C56.6591 144.451 55.6497 144.061 54.8628 143.367C54.1044 142.698 53.6356 141.76 53.5553 140.752C53.5224 139.972 53.786 139.544 53.863 139.566Z" fill="#263238"/>
<path d="M54.0958 119.987C53.92 120.427 52.272 120.152 50.3273 120.306C48.3827 120.46 46.7896 120.932 46.5479 120.525C46.438 120.328 46.7237 119.91 47.3719 119.504C48.2344 118.993 49.2061 118.696 50.2065 118.636C51.2037 118.55 52.2067 118.708 53.129 119.097C53.7882 119.405 54.1727 119.778 54.0958 119.987Z" fill="#263238"/>
<path d="M69.0928 120.108C68.7852 120.471 67.6645 120.042 66.2912 119.965C64.9178 119.888 63.7532 120.119 63.5005 119.712C63.3906 119.526 63.5884 119.152 64.1158 118.823C64.8063 118.409 65.6101 118.224 66.412 118.295C67.2126 118.342 67.9795 118.634 68.6094 119.13C69.0818 119.537 69.2246 119.932 69.0928 120.108Z" fill="#263238"/>
<path d="M35.5173 131.084C35.3415 130.996 28.211 128.601 28.1561 135.973C28.1011 143.345 35.5063 141.873 35.5282 141.664C35.5502 141.456 35.5173 131.084 35.5173 131.084Z" fill="#FFBE9D"/>
<path d="M33.2968 138.873C33.2968 138.873 33.165 138.961 32.9453 139.06C32.7942 139.125 32.6316 139.158 32.4673 139.158C32.3031 139.158 32.1405 139.125 31.9894 139.06C31.5137 138.758 31.1281 138.333 30.8729 137.831C30.6177 137.328 30.5025 136.766 30.5391 136.204C30.5265 135.572 30.6541 134.945 30.9127 134.369C30.9838 134.14 31.1087 133.932 31.277 133.762C31.4452 133.592 31.6519 133.465 31.8795 133.391C32.0284 133.354 32.1855 133.37 32.3238 133.436C32.4622 133.502 32.5732 133.614 32.6376 133.754C32.7365 133.951 32.6376 134.105 32.7255 134.116C32.8134 134.127 32.8903 133.995 32.8244 133.688C32.7884 133.504 32.6869 133.34 32.5388 133.226C32.3382 133.073 32.0866 133.002 31.8356 133.028C31.5362 133.083 31.2555 133.213 31.0193 133.405C30.7831 133.597 30.5991 133.845 30.4842 134.127C30.1662 134.764 30.0078 135.47 30.0228 136.182C29.9845 136.838 30.1402 137.491 30.4703 138.059C30.8005 138.628 31.2906 139.087 31.8795 139.379C32.0774 139.434 32.2848 139.446 32.4877 139.414C32.6906 139.382 32.8841 139.306 33.0551 139.192C33.2749 139.027 33.3188 138.873 33.2968 138.873Z" fill="#EB996E"/>
<path d="M67.2453 109.066C68.4429 108.407 64.8612 104.551 61.9277 103.221C57.533 101.222 50.7321 99.9912 46.645 101.156C41.7339 102.562 37.6578 105.012 35.1967 109.495C32.8246 114.053 31.7097 119.162 31.9666 124.294C31.925 125.863 32.3044 127.415 33.0653 128.788C34.098 130.414 36.0757 131.436 35.9878 133.688C35.9511 134.492 36.2266 135.279 36.7569 135.885C38.1082 137.324 39.7563 135.973 40.5143 134.622C42.1294 131.732 42.3052 128.282 42.437 124.975C42.661 122.632 42.5014 120.268 41.9646 117.977C41.602 116.746 41.0197 115.592 40.7231 114.34C40.5409 113.725 40.4928 113.079 40.5819 112.444C40.6709 111.809 40.8952 111.2 41.2395 110.659C41.4238 110.442 41.6259 110.239 41.8438 110.055C42.8673 109.178 44.1034 108.586 45.4282 108.337C46.7529 108.088 48.1197 108.192 49.3917 108.638C53.5447 110.099 60.6313 112.274 62.477 110.835C63.7903 109.974 64.9123 108.852 65.7731 107.539L67.2453 109.066Z" fill="#263238"/>
<path d="M46.4128 93.5418C45.8964 93.5968 33.2945 96.0029 29.8447 105.221C26.3948 114.439 27.2298 117.306 27.2298 117.306C26.7309 117.604 26.2791 117.974 25.8894 118.405C25.3511 118.998 26.0103 121.954 27.6473 121.701C40.0514 116.702 54.5321 116.647 70.6278 117.68L82.966 117.944C86.4049 118.46 87.6574 117.581 86.2621 116.669C85.1634 115.966 75.495 111.703 75.495 111.703L73.5613 110.209L68.7051 102.98C68.7051 102.98 69.3643 102.013 68.1448 101.156C66.9252 100.299 56.6635 92.4651 46.4128 93.5418Z" fill="#F9D422"/>
<path d="M73.5646 110.209C73.4037 110.219 73.2422 110.219 73.0812 110.209L71.7079 110.132C70.5103 110.044 68.7854 110 66.6429 109.978C61.0783 109.973 55.5238 110.451 50.0418 111.407C44.5588 112.399 39.1371 113.705 33.8033 115.318C31.7487 115.911 30.1007 116.416 28.9581 116.79L27.6397 117.186L27.1672 117.317L27.6177 117.153L28.9251 116.713C30.0238 116.34 31.7158 115.79 33.7593 115.175C39.0899 113.523 44.5166 112.198 50.0089 111.209C55.5055 110.223 61.0807 109.742 66.6649 109.769C70.9498 109.879 73.5646 110.209 73.5646 110.209Z" fill="#263238"/>
<g opacity="0.3">
<path d="M34.8118 98.6506C34.8118 98.6506 48.3585 96.9257 54.3024 100.035L53.6102 99.6614L59.2795 102.353C59.7155 102.649 60.2119 102.843 60.7326 102.923C61.2533 103.003 61.7853 102.966 62.2898 102.815C59.7765 100.653 56.8812 98.9796 53.7531 97.8816C48.1388 95.7831 39.2065 94.6624 34.8118 98.6506Z" fill="black"/>
</g>
<path d="M34.6145 98.7166C35.0032 98.4338 35.4148 98.1839 35.845 97.9695C37.007 97.349 38.2389 96.8695 39.5146 96.5412C41.4076 96.0515 43.3618 95.8405 45.3157 95.915C47.7224 95.9426 50.0947 96.4898 52.2704 97.519C53.3782 98.073 54.4498 98.6969 55.4785 99.3868C56.4673 100.046 57.4561 100.639 58.3461 101.299C59.153 101.946 60.0088 102.53 60.906 103.045C61.714 103.439 62.6002 103.645 63.4989 103.65C66.7949 103.815 68.8605 103.188 68.7286 102.98C68.666 103.091 68.5699 103.179 68.454 103.232C68.1219 103.372 67.7756 103.475 67.4212 103.54C66.1236 103.77 64.8047 103.859 63.4879 103.804C62.5671 103.808 61.6575 103.601 60.8291 103.199C59.9187 102.688 59.0515 102.104 58.2362 101.452C57.3573 100.804 56.3575 100.211 55.3686 99.5516C54.3442 98.8737 53.2802 98.2573 52.1825 97.7058C50.0346 96.6862 47.693 96.1392 45.3157 96.1017C43.3751 96.0197 41.4327 96.2158 39.5476 96.684C38.2793 97.0012 37.049 97.4543 35.878 98.0354C35.4605 98.2442 35.1529 98.42 34.9441 98.5408L34.6145 98.7166Z" fill="#263238"/>
<g opacity="0.3">
<path d="M28.5152 109.066C30.7741 109.005 33.0187 108.688 35.2061 108.121C37.7771 107.649 40.326 107.297 42.8969 106.704C44.8306 106.254 47.1159 105.858 48.3903 104.507C48.4679 104.984 48.4217 105.472 48.2563 105.926C48.0908 106.38 47.8117 106.784 47.4455 107.1C46.1628 107.882 44.7595 108.446 43.2925 108.77C38.2691 110.139 33.1114 110.957 27.9109 111.209C28.0623 110.462 28.2679 109.728 28.5261 109.011" fill="black"/>
</g>
<path d="M30.2749 104.21C28.7258 104.825 27.7699 105.243 27.682 106.539C27.6051 107.638 27.7809 108.967 28.8466 109.187C29.174 109.242 29.5081 109.242 29.8355 109.187L46.6234 106.385C47.204 106.353 47.7552 106.12 48.1835 105.726C48.4206 105.354 48.5016 104.903 48.4091 104.471C48.3166 104.039 48.058 103.662 47.6891 103.419C46.9246 102.958 46.043 102.729 45.1511 102.76C40.1482 102.583 35.1444 103.082 30.2749 104.243" fill="#F9D422"/>
<path d="M47.9196 105.913C48.1384 105.722 48.3016 105.475 48.392 105.199C48.4988 104.821 48.4978 104.422 48.3891 104.045C48.2803 103.668 48.0682 103.33 47.7767 103.067C46.8055 102.42 45.6444 102.118 44.4807 102.21C43.1403 102.21 41.6681 102.276 40.086 102.375C37.4474 102.509 34.8259 102.877 32.2523 103.474C31.2745 103.705 30.4835 103.957 29.9451 104.122L29.3189 104.32L29.0991 104.386C29.0991 104.386 29.165 104.386 29.3079 104.287L29.9231 104.045C30.6752 103.766 31.4417 103.528 32.2194 103.331C34.7926 102.678 37.4238 102.281 40.075 102.144C41.6241 102.046 43.1073 102.013 44.4697 102.002C45.6859 101.908 46.897 102.238 47.8976 102.935C48.1996 103.219 48.4156 103.581 48.5205 103.982C48.6255 104.382 48.6152 104.804 48.4909 105.199C48.4138 105.41 48.2899 105.602 48.1283 105.759L47.9196 105.913Z" fill="#263238"/>
<path d="M70.2456 105.243L59.7642 104.672L60.5442 107.66L71.9705 107.803L70.2456 105.243Z" fill="white"/>
<path d="M54.0598 114.021C54.0598 114.021 58.7512 113.461 64.5522 112.923C70.3533 112.384 75.0776 111.934 75.0776 111.989C75.0776 112.044 70.3863 112.549 64.5742 113.087C58.7622 113.626 54.0598 114.076 54.0598 114.021Z" fill="#263238"/>
<path d="M89.0985 262.278H8.37817V275.759H89.0985V262.278Z" fill="#455A64"/>
<path d="M10.8491 268.793H48.2044V306.675C48.2044 308.692 47.4034 310.625 45.9775 312.051C44.5517 313.477 42.6179 314.278 40.6015 314.278H18.452C17.4536 314.278 16.4649 314.081 15.5425 313.699C14.6201 313.317 13.782 312.757 13.076 312.051C12.37 311.345 11.8099 310.507 11.4279 309.585C11.0458 308.662 10.8491 307.674 10.8491 306.675V268.793Z" fill="#455A64"/>
<path d="M48.2264 281.109C48.1183 280.334 48.0669 279.552 48.0726 278.769C48.0429 276.653 47.7664 274.547 47.2486 272.495C47.0679 271.849 46.7366 271.254 46.2818 270.76C45.7464 270.24 45.1571 269.78 44.5239 269.386C43.0936 268.55 41.4946 268.043 39.8435 267.903C36.3277 267.639 32.3834 267.76 28.2743 267.793C24.1653 267.826 20.199 267.463 16.7601 268.222C15.1302 268.467 13.6253 269.238 12.4753 270.419C11.6433 271.588 11.1699 272.974 11.1129 274.407C10.8602 277.077 10.9151 279.263 10.8712 280.769C10.8712 281.472 10.8712 282.043 10.8712 282.504C10.8874 282.706 10.8874 282.908 10.8712 283.109C10.8213 282.911 10.7991 282.708 10.8053 282.504C10.8053 282.043 10.8053 281.472 10.7503 280.769C10.7503 279.263 10.6185 277.088 10.8162 274.374C10.8587 272.851 11.3435 271.374 12.2116 270.122C13.4214 268.845 15.0215 268.007 16.7601 267.738C18.6105 267.362 20.498 267.2 22.3854 267.255C24.3191 267.255 26.3297 267.255 28.3842 267.255C32.5043 267.255 36.4046 267.112 40.0083 267.409C41.7303 267.572 43.3937 268.12 44.8754 269.013C45.536 269.434 46.1477 269.928 46.6993 270.485C47.2205 271.024 47.5983 271.685 47.7979 272.408C48.2945 274.498 48.5161 276.643 48.4572 278.791C48.4572 279.494 48.4572 280.065 48.4572 280.527C48.3979 280.727 48.3207 280.922 48.2264 281.109Z" fill="#263238"/>
<path d="M47.9517 285.097C47.9517 285.262 39.7335 285.383 29.5926 285.383C19.4518 285.383 11.2336 285.262 11.2336 285.097C11.2336 284.932 19.4518 284.812 29.5926 284.812C39.7335 284.812 47.9517 284.998 47.9517 285.097Z" fill="#263238"/>
<path d="M21.5505 314.663C21.3857 314.663 21.2649 308.016 21.2649 299.82C21.2649 291.623 21.3857 284.965 21.5505 284.965C21.7154 284.965 21.8362 291.612 21.8362 299.82C21.8362 308.027 21.7044 314.663 21.5505 314.663Z" fill="#263238"/>
<path d="M38.4048 314.564C38.251 314.564 38.1191 307.972 38.1191 299.864C38.1191 291.755 38.251 285.152 38.4048 285.152C38.5586 285.152 38.6905 291.744 38.6905 299.864C38.6905 307.983 38.5586 314.564 38.4048 314.564Z" fill="#263238"/>
<path d="M89.0978 262.278L93.7562 268.793C93.7562 268.793 97.9202 307.62 96.0634 309.444C94.2067 311.268 87.9661 311.224 87.9661 311.224L86.2632 264.739L89.0978 262.278Z" fill="#455A64"/>
<path d="M74.4745 275.22C73.7425 270.89 73.6832 266.472 74.2987 262.124C74.4686 264.317 74.5199 266.517 74.4525 268.716C74.5766 270.882 74.5839 273.053 74.4745 275.22V275.22Z" fill="#263238"/>
<path d="M89.1866 262.498C89.4567 263.202 89.6233 263.942 89.681 264.695C89.9008 266.057 90.1205 267.991 90.2414 270.068C90.3352 271.072 90.2945 272.084 90.1205 273.078C89.9623 273.933 89.5165 274.708 88.857 275.275C88.4195 275.658 87.8662 275.882 87.2859 275.913C86.8684 275.913 86.6707 275.814 86.6707 275.792C87.3826 275.74 88.0563 275.45 88.5824 274.968C89.1301 274.438 89.4891 273.743 89.6041 272.99C89.7383 272.033 89.7605 271.063 89.6701 270.1C89.4503 265.893 89.0218 262.52 89.1866 262.498Z" fill="#263238"/>
<path d="M459.76 268.628L464.902 263.772C470.469 264.608 476.147 263.333 480.821 260.196C485.495 257.06 488.827 252.289 490.164 246.821C491.5 241.353 490.743 235.583 488.043 230.644C485.342 225.706 480.893 221.955 475.568 220.13C470.243 218.304 464.429 218.535 459.266 220.778C454.103 223.021 449.965 227.113 447.665 232.25C445.365 237.388 445.07 243.2 446.836 248.544C448.602 253.889 452.303 258.38 457.211 261.135V261.135L459.76 268.628Z" fill="white"/>
<path d="M459.76 268.628L459.596 268.123C459.486 267.793 459.332 267.31 459.134 266.683C458.717 265.409 458.101 263.541 457.31 261.102L457.222 261.19C457.234 261.201 457.25 261.207 457.266 261.207C457.283 261.207 457.298 261.201 457.31 261.19C457.318 261.179 457.323 261.165 457.323 261.151C457.323 261.138 457.318 261.124 457.31 261.113C454.04 259.259 451.286 256.615 449.301 253.422C448.686 252.437 448.149 251.405 447.697 250.335C447.246 249.184 446.879 248.001 446.598 246.797C445.211 241.145 446.079 235.176 449.018 230.153C451.957 225.13 456.736 221.449 462.343 219.889C467.949 218.33 473.942 219.014 479.053 221.797C484.164 224.58 487.99 229.244 489.721 234.8C490.721 237.919 491.01 241.222 490.567 244.468C489.809 250.245 486.835 255.501 482.272 259.124L481.503 259.707C481.263 259.908 481.006 260.088 480.734 260.245L479.163 261.223C478.124 261.76 477.057 262.241 475.966 262.662C472.452 263.938 468.676 264.315 464.979 263.761H464.924C463.276 265.343 462.002 266.551 461.145 267.386L460.156 268.331L459.826 268.661L460.156 268.364L461.134 267.452L465.012 263.86H464.957C468.681 264.452 472.495 264.093 476.043 262.816C477.146 262.406 478.221 261.925 479.262 261.377L480.855 260.41C481.134 260.253 481.398 260.073 481.646 259.872L482.415 259.278C486.026 256.429 488.686 252.55 490.043 248.155C491.401 243.76 491.392 239.057 490.018 234.668C488.938 231.31 487.104 228.243 484.657 225.702C482.08 223.047 478.893 221.063 475.373 219.923C474.94 219.762 474.495 219.633 474.043 219.539L472.714 219.22L471.373 219.022C470.928 218.937 470.476 218.889 470.022 218.88L468.682 218.814C468.232 218.786 467.78 218.786 467.33 218.814C466.891 218.814 466.44 218.814 466.001 218.891L464.693 219.088C461.277 219.637 458.035 220.972 455.223 222.989C451.53 225.612 448.711 229.285 447.131 233.53C445.552 237.776 445.286 242.398 446.367 246.797C446.668 248.014 447.057 249.208 447.532 250.368C447.994 251.444 448.538 252.484 449.158 253.477C451.18 256.682 453.976 259.327 457.288 261.168V261.036C457.269 261.033 457.25 261.036 457.234 261.047C457.217 261.057 457.206 261.073 457.2 261.091L459.123 266.694L459.607 268.112C459.694 268.518 459.76 268.628 459.76 268.628Z" fill="#263238"/>
<path d="M456.563 241.106L459.958 238.063L465.869 243.908L476.592 233.91L479.405 237.283L465.078 250.093L456.563 241.106Z" fill="#263238"/>
</svg>
