<svg width="547" height="419" viewBox="0 0 547 419" fill="none" xmlns="http://www.w3.org/2000/svg">
<path d="M283.172 418.713C428.88 418.713 547 412.269 547 404.321C547 396.372 428.88 389.928 283.172 389.928C137.464 389.928 19.3442 396.372 19.3442 404.321C19.3442 412.269 137.464 418.713 283.172 418.713Z" fill="#F9D422"/>
<path opacity="0.3" d="M283.172 418.713C428.88 418.713 547 412.269 547 404.321C547 396.372 428.88 389.928 283.172 389.928C137.464 389.928 19.3442 396.372 19.3442 404.321C19.3442 412.269 137.464 418.713 283.172 418.713Z" fill="white"/>
<path d="M439.088 187.379C439.008 187.379 440.005 182.422 440.111 182.063C441.254 178.528 445.56 172.362 449.719 172.375C450.411 172.395 451.091 172.56 451.714 172.859C452.338 173.159 452.892 173.587 453.339 174.115C453.787 174.642 454.118 175.258 454.312 175.923C454.505 176.587 454.557 177.284 454.464 177.97C454.158 180.907 451.527 183.392 449.148 184.841C446.357 186.582 439.088 187.379 439.088 187.379Z" fill="#F9D422"/>
<path d="M431.021 154.009C434.941 155.417 436.895 162.674 436.762 166.395C436.762 166.714 436.018 171.711 435.951 171.711H435.872C436.177 172.853 436.509 174.089 436.842 175.432C437.426 177.93 438.064 180.748 438.556 183.884C439.126 187.248 439.499 190.643 439.672 194.051C439.884 197.864 439.755 201.689 439.287 205.48C439.28 205.524 439.28 205.569 439.287 205.613C439.805 204.51 441.334 201.453 441.48 201.227C443.526 198.117 449.294 193.253 453.321 194.423C453.981 194.626 454.591 194.966 455.111 195.42C455.631 195.874 456.05 196.433 456.341 197.059C456.632 197.686 456.787 198.366 456.798 199.057C456.809 199.747 456.675 200.432 456.404 201.068C455.341 203.805 452.151 205.52 449.48 206.277C446.463 207.141 439.739 206.118 439.207 206.038C438.64 209.881 437.814 213.682 436.735 217.414C436.115 219.593 435.442 221.773 434.715 223.952C435.18 223.009 435.619 222.172 435.686 222.052C437.732 218.942 443.5 214.078 447.527 215.234C448.188 215.436 448.799 215.775 449.32 216.229C449.842 216.682 450.262 217.241 450.553 217.868C450.844 218.495 450.999 219.176 451.009 219.868C451.019 220.559 450.883 221.244 450.61 221.879C449.547 224.63 446.357 226.331 443.686 227.102C441.015 227.873 435.22 227.102 433.705 226.903C433.426 227.727 433.147 228.564 432.855 229.388C431.526 233.375 430.091 237.362 428.868 241.269C428.429 242.598 428.044 244.033 427.659 245.415C428.084 244.578 428.443 243.874 428.509 243.781C430.542 240.671 436.323 235.807 440.337 236.963C440.997 237.167 441.607 237.507 442.127 237.961C442.648 238.415 443.068 238.973 443.359 239.599C443.651 240.225 443.808 240.905 443.821 241.595C443.834 242.286 443.702 242.972 443.433 243.608C442.37 246.346 439.167 248.06 436.496 248.818C433.825 249.575 428.602 248.911 426.795 248.658C426.436 250.093 426.09 251.515 425.811 252.911C425.638 253.868 425.413 254.785 425.293 255.755C425.173 256.725 425.027 257.668 424.894 258.599C424.708 260.419 424.496 262.307 424.363 264.087C424.256 265.323 424.177 266.506 424.097 267.689C424.509 266.36 425.426 263.622 425.492 263.396C426.968 260.475 429.163 257.978 431.871 256.14C432.019 255.807 432.202 255.491 432.416 255.197C432.793 254.617 433.287 254.122 433.867 253.746C434.447 253.369 435.1 253.119 435.783 253.011C436.466 252.904 437.164 252.941 437.832 253.12C438.5 253.3 439.122 253.618 439.659 254.054C442.822 256.712 442.025 264.26 440.576 267.689C440.496 267.888 439.314 269.975 438.556 271.277C439.128 270.586 439.659 269.948 440.257 269.177C441.413 267.769 442.609 266.387 443.885 264.898L445.839 262.785C446.477 262.054 447.248 261.376 447.952 260.672C449.613 259.064 451.381 257.509 453.201 255.981C451.952 254.971 447.606 251.289 446.357 248.791C445.108 246.292 444.218 242.797 445.52 240.166C445.805 239.534 446.22 238.969 446.738 238.508C447.256 238.047 447.865 237.701 448.526 237.491C449.187 237.282 449.884 237.214 450.573 237.292C451.262 237.371 451.927 237.594 452.524 237.947C456.045 240.153 456.404 247.661 455.487 251.236C455.487 251.462 454.477 253.974 453.932 255.343C455.035 254.439 456.125 253.522 457.268 252.685C460.564 250.133 463.979 247.661 467.368 245.176L470.465 242.877C470.026 242.518 464.763 238.266 463.355 235.475C462.119 232.989 461.215 229.481 462.517 226.836C462.804 226.206 463.22 225.642 463.738 225.182C464.256 224.723 464.865 224.377 465.525 224.168C466.186 223.959 466.883 223.89 467.571 223.968C468.259 224.045 468.924 224.266 469.521 224.617C473.043 226.836 473.402 234.345 472.485 237.907C472.418 238.186 471.049 241.801 470.651 242.704C472.923 241.003 475.169 239.302 477.296 237.535C480.207 235.157 482.96 232.591 485.535 229.853C485.336 229.694 479.821 225.281 478.385 222.411C477.136 219.926 476.246 216.417 477.548 213.786C477.832 213.154 478.245 212.589 478.762 212.129C479.279 211.668 479.887 211.321 480.547 211.112C481.207 210.902 481.903 210.834 482.591 210.913C483.279 210.991 483.943 211.214 484.539 211.566C488.074 213.773 488.432 221.281 487.515 224.856C487.449 225.082 486.412 227.846 485.881 229.149L486.093 229.268C488.614 226.445 490.878 223.403 492.858 220.178C493.961 218.424 494.931 216.683 495.835 214.955C494.719 214.238 489.682 210.968 488.1 208.47C486.519 205.971 485.323 202.755 486.319 199.991C486.534 199.341 486.882 198.742 487.341 198.233C487.8 197.725 488.36 197.318 488.985 197.037C489.611 196.757 490.287 196.611 490.972 196.607C491.657 196.603 492.336 196.741 492.964 197.014C496.725 198.822 497.895 206.251 497.376 209.932C497.376 210.131 496.845 212.138 496.459 213.6C496.845 212.816 497.27 212.018 497.629 211.261C498.958 208.417 500.088 205.732 501.018 203.287C501.549 201.958 501.988 200.629 502.347 199.526C501.616 198.197 498.772 193.08 498.493 190.223C498.214 187.366 498.666 183.857 500.832 181.864C501.326 181.379 501.916 181.004 502.565 180.763C503.214 180.521 503.906 180.419 504.597 180.463C505.288 180.507 505.961 180.696 506.574 181.017C507.187 181.339 507.726 181.786 508.154 182.329C510.653 185.665 508.274 192.788 506.121 195.831C505.935 196.084 502.546 199.818 502.506 199.818V199.739C502.134 200.868 501.735 202.078 501.257 203.38C500.38 205.785 499.343 208.51 498.041 211.354C496.653 214.471 495.087 217.506 493.35 220.444C491.414 223.735 489.191 226.849 486.705 229.747L486.612 229.853C487.648 229.202 490.599 227.514 490.851 227.408C494.28 225.946 501.749 225.109 504.486 228.258C504.925 228.793 505.247 229.414 505.431 230.08C505.614 230.747 505.656 231.445 505.553 232.129C505.451 232.812 505.206 233.467 504.834 234.05C504.463 234.634 503.973 235.132 503.397 235.515C500.991 237.216 497.376 236.843 494.732 236.033C491.742 235.089 486.758 230.531 486.293 230.172C483.701 233.063 480.917 235.776 477.96 238.292C476.232 239.781 474.465 241.216 472.644 242.624C473.561 242.106 474.385 241.641 474.505 241.588C477.92 240.126 485.389 239.289 488.127 242.438C488.567 242.972 488.891 243.593 489.076 244.26C489.261 244.927 489.303 245.625 489.2 246.31C489.098 246.994 488.852 247.649 488.479 248.232C488.106 248.816 487.615 249.314 487.037 249.695C484.645 251.396 481.03 251.024 478.385 250.213C475.741 249.402 471.315 245.575 470.172 244.552L468.086 246.16C464.737 248.724 461.441 251.263 458.185 253.854C457.055 254.771 455.979 255.715 454.889 256.645C455.713 256.18 456.391 255.795 456.51 255.755C459.926 254.28 467.395 253.456 470.132 256.592C470.575 257.125 470.9 257.745 471.086 258.413C471.272 259.08 471.316 259.779 471.213 260.464C471.11 261.149 470.863 261.805 470.489 262.388C470.115 262.971 469.622 263.469 469.043 263.848C466.637 265.549 463.036 265.177 460.391 264.38C457.746 263.582 453.746 260.101 452.417 258.891C451.341 259.888 450.251 260.871 449.254 261.895C448.577 262.599 447.925 263.224 447.261 263.981C446.596 264.739 445.932 265.416 445.347 266.134C444.191 267.543 442.982 269.005 441.879 270.413C441.108 271.383 440.39 272.327 439.672 273.271C440.775 272.354 443.008 270.613 443.208 270.466C446.357 268.5 453.613 266.546 456.803 269.231C457.318 269.694 457.73 270.261 458.012 270.894C458.294 271.527 458.439 272.212 458.439 272.905C458.439 273.598 458.294 274.283 458.012 274.916C457.73 275.549 457.318 276.116 456.803 276.58C454.69 278.613 451.075 278.839 448.337 278.414C445.307 277.935 439.832 274.427 439.154 273.922C437.958 275.49 436.815 277.032 435.752 278.507C432.071 283.597 429.2 287.969 427.233 291.066L427.034 291.371L424.482 290.135C424.615 289.936 424.748 289.75 424.881 289.537C426.941 286.454 429.944 282.095 433.772 277.032C434.981 275.437 436.297 273.749 437.666 272.021C436.241 270.472 434.91 268.838 433.679 267.131C430.742 268.274 424.642 268.327 423.858 268.327C423.738 270.294 423.632 272.207 423.552 274.015C423.286 280.301 423.313 285.537 423.379 289.192V289.63L420.575 288.301C420.575 284.673 420.721 279.743 421.093 273.935C421.213 271.928 421.386 269.789 421.585 267.609C420.801 267.41 414.462 265.775 412.07 263.862C409.903 262.134 407.618 259.316 407.697 256.379C407.69 255.687 407.829 255 408.105 254.365C408.382 253.73 408.789 253.16 409.301 252.693C409.813 252.226 410.418 251.873 411.076 251.656C411.734 251.44 412.43 251.364 413.12 251.436C417.253 251.967 420.708 258.639 421.399 262.293C421.399 262.506 421.612 264.951 421.691 266.413C421.784 265.509 421.851 264.646 421.944 263.755C422.13 261.935 422.369 260.114 422.622 258.16C422.768 257.23 422.927 256.286 423.074 255.329C423.22 254.373 423.472 253.389 423.672 252.406C424.177 250.147 424.788 247.874 425.466 245.601C423.871 245.429 418.223 244.764 415.791 243.382C413.359 242 410.701 239.555 410.342 236.644C410.229 235.96 410.261 235.26 410.438 234.589C410.615 233.918 410.931 233.293 411.366 232.753C411.802 232.213 412.347 231.772 412.965 231.458C413.583 231.143 414.261 230.963 414.954 230.93C419.113 230.823 423.552 236.897 424.775 240.405C424.854 240.631 425.452 243.249 425.745 244.698C426.17 243.369 426.569 241.96 427.074 240.604C428.403 236.618 429.904 232.71 431.366 228.763C431.818 227.554 432.243 226.345 432.695 225.149C432.124 225.149 425.386 224.444 422.675 222.889C420.269 221.56 417.585 219.062 417.213 216.151C417.104 215.468 417.14 214.769 417.318 214.1C417.496 213.431 417.813 212.807 418.248 212.268C418.682 211.73 419.225 211.288 419.841 210.973C420.458 210.657 421.133 210.475 421.824 210.437C425.997 210.33 430.436 216.404 431.659 219.912C431.752 220.178 432.602 223.899 432.775 224.923C433.732 222.265 434.675 219.607 435.433 216.949C436.557 213.36 437.445 209.702 438.091 205.998C437.825 205.998 430.782 205.334 428.017 203.739C425.599 202.41 422.914 199.911 422.555 197.001C422.446 196.317 422.482 195.618 422.66 194.95C422.839 194.281 423.155 193.657 423.59 193.118C424.025 192.579 424.568 192.138 425.184 191.822C425.8 191.507 426.476 191.324 427.167 191.286C431.326 191.193 435.765 197.253 436.988 200.762C437.068 201.001 437.719 203.872 437.998 205.241H438.237C438.786 201.497 438.999 197.712 438.875 193.931C438.875 191.844 438.676 189.864 438.476 187.924C437.147 187.924 431.114 187.924 428.456 186.781C425.798 185.638 422.967 183.538 422.276 180.681C422.092 180.012 422.051 179.311 422.156 178.625C422.261 177.939 422.51 177.282 422.887 176.699C423.263 176.116 423.758 175.618 424.34 175.24C424.922 174.861 425.577 174.609 426.263 174.501C430.396 173.943 435.473 179.485 437.081 182.847C437.161 183.033 437.852 184.987 438.317 186.409C438.224 185.545 438.131 184.641 438.011 183.817C437.599 180.694 437.014 177.85 436.483 175.352C436.164 173.93 435.858 172.694 435.553 171.458C434.224 170.794 429.014 168.056 427.22 165.836C425.426 163.617 423.858 160.441 424.562 157.584C424.714 156.902 425.008 156.261 425.426 155.703C425.844 155.144 426.376 154.68 426.987 154.342C427.597 154.004 428.273 153.8 428.968 153.742C429.663 153.685 430.363 153.776 431.021 154.009Z" fill="#F9D422"/>
<path d="M506.347 218.238C503.091 218.105 496.579 214.769 496.579 214.756C496.579 214.743 500.074 211.141 500.326 210.942C503.237 208.616 510.227 205.852 513.696 208.151C514.261 208.551 514.737 209.065 515.091 209.66C515.445 210.256 515.67 210.919 515.752 211.607C515.833 212.295 515.769 212.992 515.564 213.654C515.358 214.315 515.016 214.926 514.56 215.447C512.699 217.68 509.124 218.344 506.347 218.238Z" fill="#F9D422"/>
<g opacity="0.5">
<path d="M439.088 187.379C439.008 187.379 440.005 182.422 440.111 182.063C441.254 178.528 445.56 172.362 449.719 172.375C450.411 172.395 451.091 172.56 451.714 172.859C452.338 173.159 452.892 173.587 453.339 174.115C453.787 174.642 454.118 175.258 454.312 175.923C454.505 176.587 454.557 177.284 454.464 177.97C454.158 180.907 451.527 183.392 449.148 184.841C446.357 186.582 439.088 187.379 439.088 187.379Z" fill="white"/>
<path d="M431.021 154.009C434.941 155.417 436.895 162.674 436.762 166.395C436.762 166.714 436.018 171.711 435.951 171.711H435.872C436.177 172.853 436.509 174.089 436.842 175.432C437.426 177.93 438.064 180.748 438.556 183.884C439.126 187.248 439.499 190.643 439.672 194.051C439.884 197.864 439.755 201.689 439.287 205.48C439.28 205.524 439.28 205.569 439.287 205.613C439.805 204.51 441.334 201.453 441.48 201.227C443.526 198.117 449.294 193.253 453.321 194.423C453.981 194.626 454.591 194.966 455.111 195.42C455.631 195.874 456.05 196.433 456.341 197.059C456.632 197.686 456.787 198.366 456.798 199.057C456.809 199.747 456.675 200.432 456.404 201.068C455.341 203.805 452.151 205.52 449.48 206.277C446.463 207.141 439.739 206.118 439.207 206.038C438.64 209.881 437.814 213.682 436.735 217.414C436.115 219.593 435.442 221.773 434.715 223.952C435.18 223.009 435.619 222.172 435.686 222.052C437.732 218.942 443.5 214.078 447.527 215.234C448.188 215.436 448.799 215.775 449.32 216.229C449.842 216.682 450.262 217.241 450.553 217.868C450.844 218.495 450.999 219.176 451.009 219.868C451.019 220.559 450.883 221.244 450.61 221.879C449.547 224.63 446.357 226.331 443.686 227.102C441.015 227.873 435.22 227.102 433.705 226.903C433.426 227.727 433.147 228.564 432.855 229.388C431.526 233.375 430.091 237.362 428.868 241.269C428.429 242.598 428.044 244.033 427.659 245.415C428.084 244.578 428.443 243.874 428.509 243.781C430.542 240.671 436.323 235.807 440.337 236.963C440.997 237.167 441.607 237.507 442.127 237.961C442.648 238.415 443.068 238.973 443.359 239.599C443.651 240.225 443.808 240.905 443.821 241.595C443.834 242.286 443.702 242.972 443.433 243.608C442.37 246.346 439.167 248.06 436.496 248.818C433.825 249.575 428.602 248.911 426.795 248.658C426.436 250.093 426.09 251.515 425.811 252.911C425.638 253.868 425.413 254.785 425.293 255.755C425.173 256.725 425.027 257.668 424.894 258.599C424.708 260.419 424.496 262.307 424.363 264.087C424.256 265.323 424.177 266.506 424.097 267.689C424.509 266.36 425.426 263.622 425.492 263.396C426.968 260.475 429.163 257.978 431.871 256.14C432.019 255.807 432.202 255.491 432.416 255.197C432.793 254.617 433.287 254.122 433.867 253.746C434.447 253.369 435.1 253.119 435.783 253.011C436.466 252.904 437.164 252.941 437.832 253.12C438.5 253.3 439.122 253.618 439.659 254.054C442.822 256.712 442.025 264.26 440.576 267.689C440.496 267.888 439.314 269.975 438.556 271.277C439.128 270.586 439.659 269.948 440.257 269.177C441.413 267.769 442.609 266.387 443.885 264.898L445.839 262.785C446.477 262.054 447.248 261.376 447.952 260.672C449.613 259.064 451.381 257.509 453.201 255.981C451.952 254.971 447.606 251.289 446.357 248.791C445.108 246.292 444.218 242.797 445.52 240.166C445.805 239.534 446.22 238.969 446.738 238.508C447.256 238.047 447.865 237.701 448.526 237.491C449.187 237.282 449.884 237.214 450.573 237.292C451.262 237.371 451.927 237.594 452.524 237.947C456.045 240.153 456.404 247.661 455.487 251.236C455.487 251.462 454.477 253.974 453.932 255.343C455.035 254.439 456.125 253.522 457.268 252.685C460.564 250.133 463.979 247.661 467.368 245.176L470.465 242.877C470.026 242.518 464.763 238.266 463.355 235.475C462.119 232.989 461.215 229.481 462.517 226.836C462.804 226.206 463.22 225.642 463.738 225.182C464.256 224.723 464.865 224.377 465.525 224.168C466.186 223.959 466.883 223.89 467.571 223.968C468.259 224.045 468.924 224.266 469.521 224.617C473.043 226.836 473.402 234.345 472.485 237.907C472.418 238.186 471.049 241.801 470.651 242.704C472.923 241.003 475.169 239.302 477.296 237.535C480.207 235.157 482.96 232.591 485.535 229.853C485.336 229.694 479.821 225.281 478.385 222.411C477.136 219.926 476.246 216.417 477.548 213.786C477.832 213.154 478.245 212.589 478.762 212.129C479.279 211.668 479.887 211.321 480.547 211.112C481.207 210.902 481.903 210.834 482.591 210.913C483.279 210.991 483.943 211.214 484.539 211.566C488.074 213.773 488.432 221.281 487.515 224.856C487.449 225.082 486.412 227.846 485.881 229.149L486.093 229.268C488.614 226.445 490.878 223.403 492.858 220.178C493.961 218.424 494.931 216.683 495.835 214.955C494.719 214.238 489.682 210.968 488.1 208.47C486.519 205.971 485.323 202.755 486.319 199.991C486.534 199.341 486.882 198.742 487.341 198.233C487.8 197.725 488.36 197.318 488.985 197.037C489.611 196.757 490.287 196.611 490.972 196.607C491.657 196.603 492.336 196.741 492.964 197.014C496.725 198.822 497.895 206.251 497.376 209.932C497.376 210.131 496.845 212.138 496.459 213.6C496.845 212.816 497.27 212.018 497.629 211.261C498.958 208.417 500.088 205.732 501.018 203.287C501.549 201.958 501.988 200.629 502.347 199.526C501.616 198.197 498.772 193.08 498.493 190.223C498.214 187.366 498.666 183.857 500.832 181.864C501.326 181.379 501.916 181.004 502.565 180.763C503.214 180.521 503.906 180.419 504.597 180.463C505.288 180.507 505.961 180.696 506.574 181.017C507.187 181.339 507.726 181.786 508.154 182.329C510.653 185.665 508.274 192.788 506.121 195.831C505.935 196.084 502.546 199.818 502.506 199.818V199.739C502.134 200.868 501.735 202.078 501.257 203.38C500.38 205.785 499.343 208.51 498.041 211.354C496.653 214.471 495.087 217.506 493.35 220.444C491.414 223.735 489.191 226.849 486.705 229.747L486.612 229.853C487.648 229.202 490.599 227.514 490.851 227.408C494.28 225.946 501.749 225.109 504.486 228.258C504.925 228.793 505.247 229.414 505.431 230.08C505.614 230.747 505.656 231.445 505.553 232.129C505.451 232.812 505.206 233.467 504.834 234.05C504.463 234.634 503.973 235.132 503.397 235.515C500.991 237.216 497.376 236.843 494.732 236.033C491.742 235.089 486.758 230.531 486.293 230.172C483.701 233.063 480.917 235.776 477.96 238.292C476.232 239.781 474.465 241.216 472.644 242.624C473.561 242.106 474.385 241.641 474.505 241.588C477.92 240.126 485.389 239.289 488.127 242.438C488.567 242.972 488.891 243.593 489.076 244.26C489.261 244.927 489.303 245.625 489.2 246.31C489.098 246.994 488.852 247.649 488.479 248.232C488.106 248.816 487.615 249.314 487.037 249.695C484.645 251.396 481.03 251.024 478.385 250.213C475.741 249.402 471.315 245.575 470.172 244.552L468.086 246.16C464.737 248.724 461.441 251.263 458.185 253.854C457.055 254.771 455.979 255.715 454.889 256.645C455.713 256.18 456.391 255.795 456.51 255.755C459.926 254.28 467.395 253.456 470.132 256.592C470.575 257.125 470.9 257.745 471.086 258.413C471.272 259.08 471.316 259.779 471.213 260.464C471.11 261.149 470.863 261.805 470.489 262.388C470.115 262.971 469.622 263.469 469.043 263.848C466.637 265.549 463.036 265.177 460.391 264.38C457.746 263.582 453.746 260.101 452.417 258.891C451.341 259.888 450.251 260.871 449.254 261.895C448.577 262.599 447.925 263.224 447.261 263.981C446.596 264.739 445.932 265.416 445.347 266.134C444.191 267.543 442.982 269.005 441.879 270.413C441.108 271.383 440.39 272.327 439.672 273.271C440.775 272.354 443.008 270.613 443.208 270.466C446.357 268.5 453.613 266.546 456.803 269.231C457.318 269.694 457.73 270.261 458.012 270.894C458.294 271.527 458.439 272.212 458.439 272.905C458.439 273.598 458.294 274.283 458.012 274.916C457.73 275.549 457.318 276.116 456.803 276.58C454.69 278.613 451.075 278.839 448.337 278.414C445.307 277.935 439.832 274.427 439.154 273.922C437.958 275.49 436.815 277.032 435.752 278.507C432.071 283.597 429.2 287.969 427.233 291.066L427.034 291.371L424.482 290.135C424.615 289.936 424.748 289.75 424.881 289.537C426.941 286.454 429.944 282.095 433.772 277.032C434.981 275.437 436.297 273.749 437.666 272.021C436.241 270.472 434.91 268.838 433.679 267.131C430.742 268.274 424.642 268.327 423.858 268.327C423.738 270.294 423.632 272.207 423.552 274.015C423.286 280.301 423.313 285.537 423.379 289.192V289.63L420.575 288.301C420.575 284.673 420.721 279.743 421.093 273.935C421.213 271.928 421.386 269.789 421.585 267.609C420.801 267.41 414.462 265.775 412.07 263.862C409.903 262.134 407.618 259.316 407.697 256.379C407.69 255.687 407.829 255 408.105 254.365C408.382 253.73 408.789 253.16 409.301 252.693C409.813 252.226 410.418 251.873 411.076 251.656C411.734 251.44 412.43 251.364 413.12 251.436C417.253 251.967 420.708 258.639 421.399 262.293C421.399 262.506 421.612 264.951 421.691 266.413C421.784 265.509 421.851 264.646 421.944 263.755C422.13 261.935 422.369 260.114 422.622 258.16C422.768 257.23 422.927 256.286 423.074 255.329C423.22 254.373 423.472 253.389 423.672 252.406C424.177 250.147 424.788 247.874 425.466 245.601C423.871 245.429 418.223 244.764 415.791 243.382C413.359 242 410.701 239.555 410.342 236.644C410.229 235.96 410.261 235.26 410.438 234.589C410.615 233.918 410.931 233.293 411.366 232.753C411.802 232.213 412.347 231.772 412.965 231.458C413.583 231.143 414.261 230.963 414.954 230.93C419.113 230.823 423.552 236.897 424.775 240.405C424.854 240.631 425.452 243.249 425.745 244.698C426.17 243.369 426.569 241.96 427.074 240.604C428.403 236.618 429.904 232.71 431.366 228.763C431.818 227.554 432.243 226.345 432.695 225.149C432.124 225.149 425.386 224.444 422.675 222.889C420.269 221.56 417.585 219.062 417.213 216.151C417.104 215.468 417.14 214.769 417.318 214.1C417.496 213.431 417.813 212.807 418.248 212.268C418.682 211.73 419.225 211.288 419.841 210.973C420.458 210.657 421.133 210.475 421.824 210.437C425.997 210.33 430.436 216.404 431.659 219.912C431.752 220.178 432.602 223.899 432.775 224.923C433.732 222.265 434.675 219.607 435.433 216.949C436.557 213.36 437.445 209.702 438.091 205.998C437.825 205.998 430.782 205.334 428.017 203.739C425.599 202.41 422.914 199.911 422.555 197.001C422.446 196.317 422.482 195.618 422.66 194.95C422.839 194.281 423.155 193.657 423.59 193.118C424.025 192.579 424.568 192.138 425.184 191.822C425.8 191.507 426.476 191.324 427.167 191.286C431.326 191.193 435.765 197.253 436.988 200.762C437.068 201.001 437.719 203.872 437.998 205.241H438.237C438.786 201.497 438.999 197.712 438.875 193.931C438.875 191.844 438.676 189.864 438.476 187.924C437.147 187.924 431.114 187.924 428.456 186.781C425.798 185.638 422.967 183.538 422.276 180.681C422.092 180.012 422.051 179.311 422.156 178.625C422.261 177.939 422.51 177.282 422.887 176.699C423.263 176.116 423.758 175.618 424.34 175.24C424.922 174.861 425.577 174.609 426.263 174.501C430.396 173.943 435.473 179.485 437.081 182.847C437.161 183.033 437.852 184.987 438.317 186.409C438.224 185.545 438.131 184.641 438.011 183.817C437.599 180.694 437.014 177.85 436.483 175.352C436.164 173.93 435.858 172.694 435.553 171.458C434.224 170.794 429.014 168.056 427.22 165.836C425.426 163.617 423.858 160.441 424.562 157.584C424.714 156.902 425.008 156.261 425.426 155.703C425.844 155.144 426.376 154.68 426.987 154.342C427.597 154.004 428.273 153.8 428.968 153.742C429.663 153.685 430.363 153.776 431.021 154.009Z" fill="white"/>
<path d="M506.347 218.238C503.091 218.105 496.579 214.769 496.579 214.756C496.579 214.743 500.074 211.141 500.326 210.942C503.237 208.616 510.227 205.852 513.696 208.151C514.261 208.551 514.737 209.065 515.091 209.66C515.445 210.256 515.67 210.919 515.752 211.607C515.833 212.295 515.769 212.992 515.564 213.654C515.358 214.315 515.016 214.926 514.56 215.447C512.699 217.68 509.124 218.344 506.347 218.238Z" fill="white"/>
</g>
<path d="M468.325 299.783C468.325 299.783 448.563 252.14 437.506 254.213C426.449 256.286 456.444 330.15 456.444 330.15C456.444 330.15 421.678 264.566 397.969 264.566C374.26 264.566 406.66 337.061 436.682 361.222C436.682 361.222 389.277 310.136 361.621 321.18C333.965 332.224 416.933 384 416.933 384C416.933 384 368.731 368.81 374.26 380.545C379.788 392.28 394.806 394.353 394.806 394.353L340.318 397.117H529.962L487.289 392.971C487.289 392.971 531.544 370.883 519.689 361.913C507.835 352.942 481.76 372.266 481.76 372.266C481.76 372.266 526.799 322.562 518.108 303.916C509.416 285.271 470.69 337.752 470.69 337.752C470.69 337.752 502.306 270.785 495.941 259.05C489.575 247.315 468.325 299.783 468.325 299.783Z" fill="#F9D422"/>
<path opacity="0.4" d="M468.325 299.783C468.325 299.783 448.563 252.14 437.506 254.213C426.449 256.286 456.444 330.15 456.444 330.15C456.444 330.15 421.678 264.566 397.969 264.566C374.26 264.566 406.66 337.061 436.682 361.222C436.682 361.222 389.277 310.136 361.621 321.18C333.965 332.224 416.933 384 416.933 384C416.933 384 368.731 368.81 374.26 380.545C379.788 392.28 394.806 394.353 394.806 394.353L340.318 397.117H529.962L487.289 392.971C487.289 392.971 531.544 370.883 519.689 361.913C507.835 352.942 481.76 372.266 481.76 372.266C481.76 372.266 526.799 322.562 518.108 303.916C509.416 285.271 470.69 337.752 470.69 337.752C470.69 337.752 502.306 270.785 495.941 259.05C489.575 247.315 468.325 299.783 468.325 299.783Z" fill="white"/>
<path d="M474.651 302.282C457.255 353.647 457.255 389.994 457.255 389.994C457.255 389.994 477.801 390.778 499.144 374.977" stroke="#263238" stroke-linecap="round" stroke-linejoin="round"/>
<path d="M465.96 329.951C462.372 314.593 457.614 299.531 451.727 284.899" stroke="#263238" stroke-linecap="round" stroke-linejoin="round"/>
<path d="M414.595 299.917L458.836 365.501C458.836 365.501 488.871 340.251 499.144 325.991" stroke="#263238" stroke-linecap="round" stroke-linejoin="round"/>
<path d="M458.052 381.316C458.052 381.316 411.432 359.189 392.467 346.59" stroke="#263238" stroke-linecap="round" stroke-linejoin="round"/>
<path d="M416.202 27.6365H274.214C268.401 27.6365 263.689 32.3489 263.689 38.1619V386.592C263.689 392.405 268.401 397.118 274.214 397.118H416.202C422.015 397.118 426.727 392.405 426.727 386.592V38.1619C426.727 32.3489 422.015 27.6365 416.202 27.6365Z" fill="white" stroke="#263238" stroke-linecap="round" stroke-linejoin="round"/>
<path d="M421.279 92.3175C420.705 92.3175 420.154 92.0893 419.747 91.683C419.341 91.2768 419.113 90.7258 419.113 90.1513V61.1132C419.156 60.5663 419.403 60.0556 419.806 59.6831C420.209 59.3107 420.737 59.1038 421.286 59.1038C421.834 59.1038 422.363 59.3107 422.765 59.6831C423.168 60.0556 423.416 60.5663 423.459 61.1132V90.0981C423.464 90.3877 423.411 90.6754 423.304 90.9444C423.197 91.2135 423.037 91.4585 422.834 91.6651C422.632 91.8717 422.389 92.0359 422.122 92.1479C421.855 92.2599 421.569 92.3175 421.279 92.3175Z" fill="#263238"/>
<path d="M421.279 119.216C420.705 119.216 420.154 118.988 419.747 118.582C419.341 118.175 419.113 117.624 419.113 117.05V100.823C419.156 100.276 419.403 99.7654 419.806 99.393C420.209 99.0205 420.737 98.8136 421.286 98.8136C421.834 98.8136 422.363 99.0205 422.765 99.393C423.168 99.7654 423.416 100.276 423.459 100.823V117.05C423.455 117.626 423.224 118.177 422.815 118.582C422.407 118.988 421.855 119.216 421.279 119.216V119.216Z" fill="#263238"/>
<path d="M403.909 27.6365H261.921C256.108 27.6365 251.396 32.3489 251.396 38.1619V386.592C251.396 392.405 256.108 397.118 261.921 397.118H403.909C409.722 397.118 414.434 392.405 414.434 386.592V38.1619C414.434 32.3489 409.722 27.6365 403.909 27.6365Z" fill="#263238" stroke="#263238" stroke-linecap="round" stroke-linejoin="round"/>
<path d="M403.577 52.2357H262.254V369.143H403.577V52.2357Z" fill="#F9D422"/>
<path d="M311.931 42.1089H349.554" stroke="white" stroke-width="3" stroke-linecap="round" stroke-linejoin="round"/>
<path d="M327.852 380.359C327.852 382.951 326.23 385.05 324.224 385.05C322.217 385.05 320.609 382.951 320.609 380.359C320.609 377.768 322.23 375.655 324.224 375.655C326.217 375.655 327.852 377.754 327.852 380.359Z" fill="white"/>
<path d="M332.914 131.097C346.449 131.097 357.421 118.305 357.421 102.524C357.421 86.7438 346.449 73.9513 332.914 73.9513C319.38 73.9513 308.408 86.7438 308.408 102.524C308.408 118.305 319.38 131.097 332.914 131.097Z" fill="white"/>
<path d="M332.916 102.165C338.053 102.165 342.218 97.304 342.218 91.3074C342.218 85.3109 338.053 80.4497 332.916 80.4497C327.778 80.4497 323.613 85.3109 323.613 91.3074C323.613 97.304 327.778 102.165 332.916 102.165Z" fill="#263238" stroke="#263238" stroke-linecap="round" stroke-linejoin="round"/>
<path d="M332.915 105.049C323.613 105.049 315.998 112.186 315.998 120.997C316.005 121.817 316.081 122.635 316.223 123.442C318.287 125.85 320.847 127.784 323.729 129.109C326.61 130.435 329.744 131.121 332.915 131.121C336.087 131.121 339.221 130.435 342.102 129.109C344.983 127.784 347.544 125.85 349.607 123.442C349.739 122.633 349.81 121.816 349.82 120.997C349.82 112.186 342.245 105.049 332.915 105.049Z" fill="#263238" stroke="#263238" stroke-linecap="round" stroke-linejoin="round"/>
<path d="M362.711 226.982H303.12C301.543 226.92 300.055 226.234 298.983 225.075C297.912 223.917 297.344 222.38 297.405 220.803V184.017C297.405 162.819 313.353 145.569 332.916 145.569C352.478 145.569 368.412 162.846 368.412 184.017V220.776C368.446 221.558 368.326 222.339 368.057 223.074C367.789 223.81 367.378 224.485 366.849 225.061C366.319 225.638 365.681 226.104 364.971 226.434C364.261 226.763 363.493 226.95 362.711 226.982V226.982ZM308.821 214.623H356.997V184.056C356.997 169.677 346.192 157.969 332.916 157.969C319.639 157.969 308.821 169.677 308.821 184.056V214.623Z" fill="#263238"/>
<path d="M374.286 201.878H291.544V280.154H374.286V201.878Z" fill="white"/>
<path d="M344.968 255.768L338.828 241.003C340.186 239.976 341.284 238.646 342.034 237.118C342.784 235.59 343.166 233.907 343.148 232.205C343.148 226.318 338.749 221.573 333.313 221.573C327.878 221.573 323.492 226.331 323.492 232.205C323.471 233.906 323.85 235.589 324.598 237.117C325.346 238.645 326.442 239.976 327.798 241.003L321.671 255.768H344.968Z" fill="#263238" stroke="#263238" stroke-linecap="round" stroke-linejoin="round"/>
<path d="M307.704 350.497C307.832 350.591 307.985 350.642 308.143 350.644C308.256 350.643 308.367 350.615 308.467 350.562C308.566 350.509 308.651 350.432 308.714 350.338L403.577 221.308V218.863L307.598 349.487C307.539 349.561 307.494 349.645 307.468 349.735C307.441 349.826 307.432 349.921 307.442 350.014C307.452 350.108 307.48 350.199 307.525 350.282C307.57 350.365 307.631 350.438 307.704 350.497V350.497Z" fill="white"/>
<path d="M384.492 98.7232C384.436 98.7998 384.395 98.8868 384.373 98.9792C384.35 99.0716 384.346 99.1676 384.361 99.2616C384.376 99.3556 384.409 99.4457 384.459 99.5267C384.509 99.6076 384.575 99.6779 384.652 99.7332C384.808 99.844 385.001 99.8893 385.19 99.8595C385.378 99.8297 385.548 99.7271 385.662 99.5738L403.577 75.2137V72.8215L384.492 98.7232Z" fill="white"/>
<path d="M262.254 267.463L379.363 108.212C379.476 108.057 379.522 107.863 379.492 107.674C379.463 107.485 379.359 107.315 379.204 107.202C379.048 107.089 378.855 107.043 378.666 107.073C378.476 107.102 378.306 107.206 378.194 107.362L262.307 265.018L262.254 267.463Z" fill="white"/>
<path d="M296.701 366.205C296.814 366.203 296.925 366.176 297.026 366.126C297.127 366.075 297.216 366.002 297.285 365.913L303.93 356.929C303.987 356.853 304.028 356.766 304.05 356.673C304.073 356.581 304.077 356.485 304.062 356.391C304.047 356.297 304.014 356.207 303.964 356.126C303.914 356.045 303.848 355.975 303.771 355.919C303.615 355.808 303.422 355.763 303.233 355.793C303.044 355.823 302.875 355.925 302.761 356.079L296.116 365.049C296.059 365.125 296.017 365.211 295.993 365.303C295.97 365.395 295.964 365.491 295.978 365.585C295.992 365.679 296.024 365.769 296.073 365.85C296.121 365.932 296.186 366.003 296.262 366.059C296.387 366.158 296.542 366.21 296.701 366.205V366.205Z" fill="white"/>
<path d="M403.577 247.143L325.699 353.076C325.62 353.183 325.572 353.31 325.561 353.443C325.551 353.576 325.577 353.709 325.638 353.828C325.699 353.946 325.791 354.046 325.905 354.115C326.019 354.184 326.15 354.22 326.283 354.218C326.397 354.221 326.51 354.195 326.612 354.144C326.714 354.093 326.802 354.018 326.868 353.926L403.577 249.575V247.143Z" fill="white"/>
<path d="M130.061 98.2581C131.379 95.3384 132.015 92.1572 131.921 88.9552C131.921 83.0147 124.732 79.5727 116.279 78.6291C107.827 77.6855 104.079 81.1276 105.329 83.3204C106.627 85.1289 108.211 86.7135 110.02 88.0117C110.02 88.0117 101.568 83.3204 95.9329 87.0814C90.298 90.8424 98.4446 89.2742 96.8764 93.0219C95.3083 96.7696 86.5503 95.2147 84.3575 105.222C82.1647 115.229 88.4242 125.249 82.7893 129.635C77.1545 134.021 60.1968 128.067 55.253 139.018C50.3092 149.968 57.3262 154.832 45.4452 161.717C33.5642 168.601 24.8993 175.325 28.3413 192.216C31.7833 209.108 43.053 215.022 65.2735 209.055C87.4939 203.087 85.9257 189.652 93.1819 175.83C100.438 162.009 111.655 164.879 115.097 157.052C118.539 149.224 114.153 139.842 114.472 132.639C114.791 125.436 121.981 123.881 124.798 115.362C127.616 106.843 130.061 98.2581 130.061 98.2581Z" fill="#263238" stroke="#263238" stroke-linecap="round" stroke-linejoin="round"/>
<path d="M30.9332 191.898C30.3504 193.074 30.0544 194.372 30.0694 195.685" stroke="white" stroke-width="0.5" stroke-linecap="round" stroke-linejoin="round"/>
<path d="M118.047 92.0518C118.047 92.0518 114.14 87.5333 121.662 89.6331C131.137 92.291 120.014 103.255 115.734 105.461C107.149 109.86 95.7997 108.451 89.1549 116.452C83.1213 123.681 91.2679 131.217 87.6531 136.945C84.0383 142.672 69.5658 139.35 64.7549 146.247C59.944 153.145 73.4863 167.949 59.6251 176.083C49.6046 181.97 38.6273 184.229 33.3247 188.894" stroke="white" stroke-width="0.5" stroke-linecap="round" stroke-linejoin="round"/>
<path d="M95.5746 118.791C94.7533 120.713 94.5041 122.831 94.857 124.891C96.0531 130.007 102.99 139.656 96.6644 145.078C90.3385 150.5 79.4808 150.194 77.6867 156.547C75.8926 162.899 79.4941 180.349 73.4738 188.442C67.4536 196.536 55.6922 195.977 49.3663 201.4C43.0403 206.822 43.944 209.839 43.944 209.839" stroke="white" stroke-width="0.5" stroke-linecap="round" stroke-linejoin="round"/>
<path d="M98.7636 112.837C98.2159 113.611 97.7101 114.414 97.2485 115.242" stroke="white" stroke-width="0.5" stroke-linecap="round" stroke-linejoin="round"/>
<path d="M134.115 191.419L135.643 203.38C135.643 203.38 143.617 211.354 149.478 216.284C155.338 221.215 170.356 231.647 170.356 231.647L162.741 233.813C162.741 233.813 137.849 219.062 132.932 217.866C128.015 216.669 124.333 209.573 122.805 207.42C121.277 205.267 130.114 189.266 134.115 191.419Z" fill="white" stroke="#263238" stroke-linecap="round" stroke-linejoin="round"/>
<path d="M149.318 386.021C149.318 386.021 156.84 392.373 159.95 394.5C163.06 396.626 166.688 397.583 166.116 398.739C165.545 399.895 163.99 401.051 156.667 400.068C149.345 399.084 147.231 396.599 145.876 396.214C144.52 395.829 141.251 396.799 138.753 395.257C136.254 393.715 140.215 384.532 140.215 384.532C141.312 385.815 142.828 386.668 144.494 386.941C146.16 387.213 147.869 386.887 149.318 386.021Z" fill="white" stroke="#263238" stroke-linecap="round" stroke-linejoin="round"/>
<path d="M166.09 398.739C166.096 398.677 166.096 398.615 166.09 398.553C161.862 398.941 157.599 398.54 153.518 397.37C148.786 396.254 147.391 393.742 142.886 393.742C141.118 393.758 139.36 393.47 137.69 392.891C137.641 393.335 137.702 393.783 137.866 394.198C138.031 394.612 138.294 394.981 138.633 395.27C141.132 396.812 144.414 395.842 145.756 396.227C147.099 396.612 149.225 399.124 156.548 400.081C163.87 401.038 165.505 399.895 166.09 398.739Z" fill="white" stroke="#263238" stroke-linecap="round" stroke-linejoin="round"/>
<path d="M109.94 129.17C109.94 129.17 111.389 138.925 109.528 142.859C107.668 146.792 101.847 147.218 96.8766 148.055C91.9062 148.892 80.4903 153.238 81.7263 164.441C82.9622 175.644 97.2885 199.911 97.2885 206.756C97.2885 213.6 92.9295 217.122 88.1585 230.398C83.3875 243.675 84.0121 268.367 85.5005 284.341C86.5915 294.884 88.6739 305.3 91.7201 315.452C91.7201 315.452 79.7594 334.749 74.4435 343.042C69.1276 351.335 50.522 387.443 50.522 387.443C50.522 387.443 50.522 388.679 53.4191 389.516C55.4574 390.012 57.5662 390.151 59.652 389.928C59.652 389.928 95.3217 346.989 101.967 339.733C108.611 332.476 114.831 319.798 115.655 314.004C116.479 308.209 115.456 272.726 115.456 272.726C115.456 272.726 122.911 290.561 128.745 299.691C132.284 305.278 135.531 311.045 138.473 316.967C137.656 324.476 137.656 332.051 138.473 339.56C139.922 349.926 138.699 383.23 140.148 385.928C141.597 388.626 147.218 387.496 148.467 386.26C149.717 385.024 150.301 376.957 150.301 376.957C150.301 376.957 152.786 351.707 154.288 339.826C155.79 327.945 158.275 317.831 157.411 315.133C156.547 312.436 151.391 283.597 147.444 269.948C143.497 256.3 131.496 230.744 128.838 224.112C126.18 217.48 124.679 211.447 125.104 209.374C125.529 207.301 133.609 194.861 135.736 191.539C136.948 189.287 137.617 186.782 137.688 184.225C137.76 181.668 137.232 179.13 136.148 176.814C133.663 171.418 136.148 164.149 135.736 159.803C135.324 155.457 128.892 153.57 125.569 151.922C122.247 150.274 120.997 146.527 120.997 143.417C121.2 140.797 121.833 138.229 122.871 135.815C122.871 135.815 112.638 129.17 109.94 129.17Z" fill="white" stroke="#263238" stroke-linecap="round" stroke-linejoin="round"/>
<path d="M135.085 173.544C133.992 170.767 133.082 167.921 132.361 165.025" stroke="#263238" stroke-linecap="round" stroke-linejoin="round"/>
<path d="M108.147 196.642C108.147 196.642 111.895 197.466 119.403 193.718" stroke="#263238" stroke-linecap="round" stroke-linejoin="round"/>
<path d="M147.484 269.815C143.723 256.738 132.573 232.856 129.237 224.975C113.289 230.956 98.3783 225.853 91.3746 222.557C90.3646 224.763 89.2748 227.314 88.1585 230.398C83.3875 243.687 84.0121 268.366 85.5005 284.341C86.5915 294.884 88.6739 305.3 91.7201 315.452C91.7201 315.452 79.7594 334.749 74.4435 343.041C69.1276 351.334 50.522 387.442 50.522 387.442C50.522 387.442 50.522 388.678 53.4191 389.516C55.4574 390.012 57.5662 390.151 59.652 389.928C59.652 389.928 95.3217 346.989 101.967 339.732C108.611 332.476 114.831 319.798 115.655 314.003C116.479 308.209 115.456 272.726 115.456 272.726C115.456 272.726 122.911 290.56 128.745 299.69C132.284 305.278 135.531 311.044 138.473 316.967C137.656 324.476 137.656 332.051 138.473 339.56C139.922 349.926 138.699 383.23 140.148 385.927C141.597 388.625 147.218 387.496 148.467 386.26C149.717 385.024 150.301 376.957 150.301 376.957C150.301 376.957 152.786 351.706 154.288 339.825C155.79 327.944 158.275 317.831 157.411 315.133C156.547 312.435 151.431 283.503 147.484 269.815Z" fill="#263238" stroke="#263238" stroke-linecap="round" stroke-linejoin="round"/>
<path d="M228.738 256.645V253.934H231.01V232.644H228.738H206.305H204.032V253.934H206.305V256.645H204.019V261.589H212.777V259.928H222.266V261.589H231.024V256.645H228.738Z" fill="#F9D422" stroke="#263238" stroke-linecap="round" stroke-linejoin="round"/>
<path d="M83.7461 226.278H240.246C240.873 226.278 241.475 226.527 241.919 226.971C242.362 227.415 242.612 228.016 242.612 228.644V233.401C242.612 234.029 242.362 234.631 241.919 235.074C241.475 235.518 240.873 235.767 240.246 235.767H83.7461V226.265V226.278Z" fill="#F9D422" stroke="#263238" stroke-linecap="round" stroke-linejoin="round"/>
<path d="M196.071 224.856H186.542C185.816 224.856 185.227 225.445 185.227 226.172V235.886C185.227 236.613 185.816 237.202 186.542 237.202H196.071C196.798 237.202 197.387 236.613 197.387 235.886V226.172C197.387 225.445 196.798 224.856 196.071 224.856Z" fill="#F9D422" stroke="#263238" stroke-linecap="round" stroke-linejoin="round"/>
<path d="M88.6425 235.025C90.8475 221.56 81.7193 208.857 68.2541 206.652C54.7889 204.447 42.0857 213.575 39.8807 227.04C37.6757 240.505 46.8039 253.209 60.2691 255.414C73.7343 257.619 86.4375 248.49 88.6425 235.025Z" fill="#F9D422" stroke="#263238" stroke-linecap="round" stroke-linejoin="round"/>
<path d="M69.34 230.969C70.7723 230.283 71.9877 229.216 72.8529 227.884C73.718 226.553 74.1993 225.008 74.2439 223.421C74.2439 218.57 69.7785 214.636 64.2633 214.636C58.7481 214.636 54.2827 218.623 54.2827 223.421C54.3243 225.009 54.8044 226.555 55.6699 227.887C56.5354 229.219 57.7525 230.286 59.1866 230.969C57.7533 231.657 56.5373 232.727 55.6722 234.061C54.8071 235.395 54.3264 236.942 54.2827 238.531C54.2827 243.382 58.7481 247.316 64.2633 247.316C69.7785 247.316 74.2439 243.329 74.2439 238.531C74.1973 236.943 73.7153 235.397 72.8506 234.064C71.9858 232.73 70.7715 231.66 69.34 230.969V230.969Z" fill="white" stroke="#263238" stroke-linecap="round" stroke-linejoin="round"/>
<path d="M165.478 235.979C165.478 235.979 173.213 239.249 175.605 239.249C177.997 239.249 180.761 236.843 182.13 233.933C183.499 231.022 183.459 229.64 182.648 230.331L180.934 231.66C180.934 231.66 182.263 228.75 180.761 229.095C179.721 229.442 178.858 230.181 178.356 231.155C178.356 231.155 178.183 228.577 176.814 229.826C175.908 230.647 175.101 231.57 174.409 232.577C174.409 232.577 174.236 229.321 173.372 230.172C172.508 231.022 169.266 235.661 169.266 235.661L165.478 235.979Z" fill="white" stroke="#263238" stroke-linecap="round" stroke-linejoin="round"/>
<path d="M174.409 232.551C174.409 232.551 173.891 236.671 171.326 237.362Z" fill="white"/>
<path d="M174.409 232.551C174.409 232.551 173.891 236.671 171.326 237.362" stroke="#263238" stroke-linecap="round" stroke-linejoin="round"/>
<path d="M178.356 231.182C178.356 231.182 177.027 237.694 174.927 238.731Z" fill="white"/>
<path d="M178.356 231.182C178.356 231.182 177.027 237.694 174.927 238.731" stroke="#263238" stroke-linecap="round" stroke-linejoin="round"/>
<path d="M180.934 231.687C180.249 234.063 179.327 236.365 178.183 238.558Z" fill="white"/>
<path d="M180.934 231.687C180.249 234.063 179.327 236.365 178.183 238.558" stroke="#263238" stroke-linecap="round" stroke-linejoin="round"/>
<path d="M125.077 151.524C123.739 150.62 122.655 149.388 121.929 147.945C121.203 146.502 120.859 144.897 120.931 143.284C121.169 140.706 121.825 138.183 122.871 135.815C122.871 135.815 112.705 129.17 110.007 129.17C110.007 129.17 111.455 138.925 109.595 142.859C108.985 144.082 107.991 145.072 106.764 145.676C109.221 152.291 112.551 158.548 116.665 164.282C120.399 168.973 122.22 159.085 125.077 151.524Z" fill="white" stroke="#263238" stroke-linecap="round" stroke-linejoin="round"/>
<path d="M93.7008 149.397C91.1648 149.83 88.7642 150.846 86.6884 152.366C84.6127 153.886 82.9187 155.868 81.7401 158.155C77.6468 166.049 59.7589 201.878 61.2872 204.018C69.9787 216.244 101.595 225.042 104.811 228.258C108.026 231.621 111.555 234.669 115.35 237.362C118.566 239.408 124.985 238.531 126.154 237.946C127.324 237.362 128.201 234.73 126.154 234.73C125.372 234.741 124.611 234.482 123.996 233.999C123.382 233.515 122.952 232.835 122.779 232.072C122.486 230.903 125.995 233.242 127.749 232.365C129.503 231.488 123.829 228.285 122.074 226.823C120.32 225.361 118.858 223.328 116.519 223.328C114.18 223.328 109.781 223.328 109.781 223.328C109.781 223.328 99.0167 215.527 92.5048 209.719C87.4377 205.147 81.9107 201.112 76.0122 197.678L95.7474 165.212" fill="white"/>
<path d="M93.7008 149.397C91.1648 149.83 88.7642 150.846 86.6884 152.366C84.6127 153.886 82.9187 155.868 81.7401 158.155C77.6468 166.049 59.7589 201.878 61.2872 204.018C69.9787 216.244 101.595 225.042 104.811 228.258C108.026 231.621 111.555 234.669 115.35 237.362C118.566 239.408 124.985 238.531 126.154 237.946C127.324 237.362 128.201 234.73 126.154 234.73C125.372 234.741 124.611 234.482 123.996 233.999C123.382 233.515 122.952 232.835 122.779 232.072C122.486 230.903 125.995 233.242 127.749 232.365C129.503 231.488 123.829 228.285 122.074 226.823C120.32 225.361 118.858 223.328 116.519 223.328C114.18 223.328 109.781 223.328 109.781 223.328C109.781 223.328 99.0167 215.527 92.5048 209.719C87.4377 205.147 81.9107 201.112 76.0122 197.678L95.7474 165.212" stroke="#263238" stroke-linecap="round" stroke-linejoin="round"/>
<path d="M122.06 226.836C120.306 225.374 118.844 223.341 116.505 223.341C114.166 223.341 109.767 223.341 109.767 223.341C109.767 223.341 99.0028 215.54 92.4908 209.732C87.4238 205.16 81.8968 201.125 75.9983 197.692L83.8924 184.695C79.8566 182.252 75.2401 180.935 70.5229 180.88C65.207 191.964 60.436 202.915 61.2201 204.071C69.9116 216.298 101.528 225.095 104.744 228.311C107.959 231.674 111.488 234.723 115.283 237.415C118.499 239.462 124.918 238.584 126.087 238C127.257 237.415 128.134 234.784 126.087 234.784C125.305 234.794 124.544 234.536 123.929 234.052C123.315 233.568 122.885 232.888 122.712 232.126C122.419 230.956 125.928 233.295 127.682 232.418C129.436 231.541 123.815 228.311 122.06 226.836Z" fill="white" stroke="#263238" stroke-linecap="round" stroke-linejoin="round"/>
<path d="M132.759 114.857C131.722 112.784 131.722 111.123 132.134 108.212C132.546 105.302 130.061 98.2449 130.061 98.2449C127.523 102.63 120.187 105.235 116.944 106.219C113.369 107.308 118.592 109.78 118.034 113.089C117.476 116.399 110.339 118.312 110.339 118.312C110.339 118.312 108.253 114.02 105.355 114.02C102.458 114.02 100.398 120.665 102.046 124.186C102.476 125.162 103.224 125.963 104.168 126.458C105.112 126.953 106.196 127.113 107.242 126.911C107.242 126.911 107.043 133.144 110.977 135.004C115.174 137.007 119.553 138.605 124.054 139.775C126.539 140.187 129.024 138.951 130.061 135.217C130.872 131.453 131.427 127.639 131.722 123.801C133.462 122.662 135.064 121.324 136.493 119.814C137.49 118.379 133.795 116.93 132.759 114.857Z" fill="white" stroke="#263238" stroke-linecap="round" stroke-linejoin="round"/>
<path d="M128.719 114.95C128.719 116.093 128.347 117.01 127.895 117.01C127.443 117.01 127.071 116.093 127.071 114.95C127.071 113.807 127.443 112.89 127.895 112.89C128.347 112.89 128.719 113.807 128.719 114.95Z" fill="#263238"/>
<path d="M125.144 111.521C125.144 111.521 127.35 109.036 128.998 109.594" stroke="#263238" stroke-linecap="round" stroke-linejoin="round"/>
<path d="M128.998 128.559C128.002 128.859 126.945 128.895 125.931 128.662C124.917 128.429 123.982 127.935 123.217 127.23" stroke="#263238" stroke-linecap="round" stroke-linejoin="round"/>
<path d="M50.615 387.443C50.615 387.443 45.6579 397.383 45.844 398.739C46.03 400.094 55.8644 407.218 60.4627 409.716C65.0609 412.215 73.3803 412.613 72.7955 409.145C72.2108 405.676 64.3167 403.364 62.3897 398.154C61.3635 395.459 60.4763 392.713 59.7317 389.928C56.5193 389.975 53.3588 389.114 50.615 387.443V387.443Z" fill="white" stroke="#263238" stroke-linecap="round" stroke-linejoin="round"/>
<path d="M72.8225 409.198C69.2842 409.672 65.6837 409.162 62.4166 407.723C55.2801 404.626 48.3694 398.3 46.469 396.506C46.1314 397.223 45.9158 397.991 45.8311 398.779C46.0304 400.108 55.8515 407.257 60.4498 409.756C65.048 412.254 73.3009 412.6 72.8225 409.198Z" fill="white" stroke="#263238" stroke-linecap="round" stroke-linejoin="round"/>
</svg>
