<svg width="442" height="444" viewBox="0 0 442 444" fill="none" xmlns="http://www.w3.org/2000/svg">
<path d="M221.111 443.717C343.105 443.717 442.001 386.623 442.001 316.193C442.001 245.764 343.105 188.669 221.111 188.669C99.1165 188.669 0.220703 245.764 0.220703 316.193C0.220703 386.623 99.1165 443.717 221.111 443.717Z" fill="#F5F5F5"/>
<path d="M228.094 257.908L103.183 330.049C99.6664 332.076 93.5747 331.826 89.4718 329.482L45.1093 303.875C41.0449 301.531 40.6029 297.985 44.1485 295.958L169.059 223.817C172.576 221.79 178.668 222.049 182.77 224.384L227.123 249.991C231.168 252.335 231.639 255.881 228.094 257.908Z" fill="#E0E0E0"/>
<path d="M296.765 353.887C345.098 353.887 384.28 331.268 384.28 303.366C384.28 275.463 345.098 252.844 296.765 252.844C248.432 252.844 209.251 275.463 209.251 303.366C209.251 331.268 248.432 353.887 296.765 353.887Z" fill="#E0E0E0"/>
<path d="M216.081 378.774C238.942 378.774 257.474 368.075 257.474 354.877C257.474 341.68 238.942 330.981 216.081 330.981C193.22 330.981 174.688 341.68 174.688 354.877C174.688 368.075 193.22 378.774 216.081 378.774Z" fill="#E0E0E0"/>
<path d="M394.8 318.634C404.485 324.226 404.485 333.296 394.8 338.889C385.114 344.481 369.395 344.481 359.709 338.889C350.024 333.296 350.024 324.226 359.709 318.634C369.395 313.042 385.105 313.071 394.8 318.634Z" fill="#E0E0E0"/>
<path d="M378.047 272.331C372.493 308.161 336.394 346.095 281.097 335.507C280.549 335.41 280.002 335.305 279.464 335.189C278.32 334.949 277.167 334.699 276.014 334.411C217.844 320.431 213.751 282.756 216.297 266.354C218.844 249.952 233.996 236.76 242.951 231.533C251.906 226.306 263.004 220.387 273.209 203.899C282.462 188.91 297.316 179.935 319.464 181.444L321.434 181.597C323.019 181.751 324.662 181.963 326.334 182.212C326.334 182.212 390.769 190.293 378.047 272.331Z" fill="#30319D"/>
<path opacity="0.6" d="M378.047 272.331C372.493 308.161 336.394 346.095 281.097 335.507C280.549 335.41 280.002 335.305 279.464 335.189C278.32 334.949 277.167 334.699 276.014 334.411C217.844 320.431 213.751 282.756 216.297 266.354C218.844 249.952 233.996 236.76 242.951 231.533C251.906 226.306 263.004 220.387 273.209 203.899C282.462 188.91 297.316 179.935 319.464 181.444L321.434 181.597C323.019 181.751 324.662 181.963 326.334 182.212C326.334 182.212 390.769 190.293 378.047 272.331Z" fill="white"/>
<path d="M364.373 270.217C359.06 304.519 328.063 341.108 281.096 335.554C280.549 335.458 280.001 335.353 279.463 335.237C325.44 339.725 355.735 303.606 360.981 269.736C371.493 201.977 333.117 185.258 319.463 181.492C318.204 181.136 317.157 180.906 316.369 180.742L318.195 181.002C319.285 181.157 320.366 181.372 321.433 181.645C333.597 184.566 375.279 199.93 364.373 270.217Z" fill="#30319D"/>
<path opacity="0.4" d="M364.373 270.217C359.06 304.519 328.063 341.108 281.096 335.554C280.549 335.458 280.001 335.353 279.463 335.237C325.44 339.725 355.735 303.606 360.981 269.736C371.493 201.977 333.117 185.258 319.463 181.492C318.204 181.136 317.157 180.906 316.369 180.742L318.195 181.002C319.285 181.157 320.366 181.372 321.433 181.645C333.597 184.566 375.279 199.93 364.373 270.217Z" fill="white"/>
<path d="M332.263 268.141C332.263 268.141 363.164 196.654 313.104 196.654C313.104 196.654 286.066 189.746 274.324 223.01C262.582 256.275 229.164 247.637 229.164 274.07C229.164 290.068 236.034 308.276 241.742 320.133C246.508 323.324 251.577 326.037 256.875 328.233L257.096 328.079C257.096 328.079 259.095 311.534 271.153 303.443C283.212 295.353 310.154 287.416 319.013 280.738C327.382 274.445 344.639 276.578 347.426 280.95C345.984 277.923 340.565 267.248 332.263 268.141Z" fill="#30319D"/>
<path opacity="0.4" d="M332.263 268.141C332.263 268.141 363.164 196.654 313.104 196.654C313.104 196.654 286.066 189.746 274.324 223.01C262.582 256.275 229.164 247.637 229.164 274.07C229.164 290.068 236.034 308.276 241.742 320.133C246.508 323.324 251.577 326.037 256.875 328.233L257.096 328.079C257.096 328.079 259.095 311.534 271.153 303.443C283.212 295.353 310.154 287.416 319.013 280.738C327.382 274.445 344.639 276.578 347.426 280.95C345.984 277.923 340.565 267.248 332.263 268.141Z" fill="white"/>
<path d="M347.386 280.95C347.607 281.449 347.732 281.747 347.732 281.747C347.663 281.463 347.546 281.193 347.386 280.95Z" fill="#30319D"/>
<path d="M229.403 285.475L231.786 322.103C231.786 322.103 246.804 323.727 245.008 312.033C245.008 312.033 244.258 310.803 244.431 307.921C244.604 305.038 247.977 290.01 248.101 285.322L229.403 285.475Z" fill="#FFA8A7"/>
<path d="M231.355 315.511L233.229 316.905L246.969 288.108L245.028 285.35L243.154 285.37L239.695 288.108L230.798 306.969L231.355 315.511Z" fill="#F28F8F"/>
<path d="M230.873 322.237C230.873 322.237 227.77 316.213 232.219 314.637C236.667 313.061 239.473 314.637 239.771 316.299C240.069 317.962 240.261 320.392 240.261 320.392C242.636 318.138 244.289 315.228 245.008 312.033C245.008 312.033 251.906 318.106 251.349 321.257C250.792 324.409 245.507 331.154 244.854 333.268C244.2 335.382 242.596 348.44 236.1 350.323C229.605 352.206 220.362 352.245 222.649 344.846C223.427 342.29 227.453 339.292 228.366 336.775C229.278 334.258 230.873 322.237 230.873 322.237Z" fill="#30319D"/>
<path d="M242.374 342.694C241.256 340.125 239.302 338.01 236.831 336.692C234.359 335.373 231.515 334.928 228.758 335.43C228.624 336.006 228.499 336.468 228.393 336.775C227.481 339.292 223.455 342.29 222.676 344.846C220.409 352.283 229.652 352.206 236.128 350.323C239.136 349.449 241.096 346.172 242.403 342.694H242.374Z" fill="#EBEBEB"/>
<path d="M250.58 318.471C250.674 318.831 250.694 319.207 250.638 319.576C250.013 322.862 244.383 329.838 243.672 332.067C242.961 334.296 241.087 347.892 234.265 349.775C231.134 350.693 227.849 350.971 224.608 350.592C227.414 351.937 232.238 351.457 236.139 350.342C242.634 348.42 244.248 335.41 244.892 333.287C245.536 331.163 250.84 324.428 251.387 321.276C251.44 320.277 251.156 319.289 250.58 318.471V318.471Z" fill="#263238"/>
<path d="M238.752 324.073C238.633 324.071 238.519 324.023 238.435 323.938C235.37 320.882 231.219 322.574 231.046 322.641C230.938 322.687 230.816 322.688 230.707 322.644C230.598 322.599 230.511 322.514 230.465 322.405C230.419 322.297 230.418 322.175 230.462 322.066C230.506 321.957 230.592 321.87 230.7 321.824C230.748 321.824 235.562 319.826 239.069 323.304C239.132 323.367 239.174 323.447 239.191 323.534C239.208 323.621 239.199 323.711 239.165 323.793C239.131 323.875 239.074 323.945 239.001 323.995C238.927 324.045 238.841 324.072 238.752 324.073V324.073Z" fill="#EBEBEB"/>
<path d="M238.367 327.483C238.31 327.484 238.253 327.473 238.201 327.452C238.148 327.43 238.1 327.399 238.059 327.359C234.985 324.303 230.834 325.985 230.661 326.061C230.607 326.085 230.548 326.097 230.489 326.098C230.43 326.099 230.372 326.087 230.317 326.065C230.262 326.043 230.213 326.01 230.171 325.968C230.13 325.926 230.097 325.876 230.075 325.821C230.03 325.712 230.03 325.589 230.075 325.479C230.12 325.369 230.206 325.282 230.315 325.235C230.315 325.235 235.186 323.237 238.684 326.724C238.767 326.807 238.813 326.92 238.813 327.037C238.813 327.154 238.767 327.266 238.684 327.349C238.644 327.393 238.595 327.428 238.54 327.451C238.485 327.474 238.426 327.485 238.367 327.483V327.483Z" fill="#EBEBEB"/>
<path d="M237.869 330.846C237.811 330.848 237.753 330.837 237.698 330.816C237.644 330.794 237.594 330.762 237.552 330.722C234.478 327.656 230.336 329.348 230.163 329.424C230.056 329.46 229.94 329.453 229.837 329.407C229.734 329.36 229.653 329.277 229.608 329.174C229.563 329.07 229.559 328.954 229.596 328.847C229.633 328.741 229.709 328.652 229.808 328.598C229.856 328.598 234.679 326.6 238.177 330.087C238.22 330.127 238.255 330.175 238.279 330.229C238.302 330.283 238.315 330.341 238.315 330.4C238.315 330.458 238.302 330.517 238.279 330.57C238.255 330.624 238.22 330.672 238.177 330.712C238.138 330.755 238.09 330.789 238.037 330.812C237.985 330.835 237.927 330.847 237.869 330.846V330.846Z" fill="#EBEBEB"/>
<path d="M237.166 334.258C237.047 334.256 236.933 334.208 236.849 334.123C233.774 331.068 229.633 332.759 229.46 332.826C229.407 332.849 229.349 332.861 229.291 332.861C229.232 332.861 229.175 332.85 229.121 332.829C229.067 332.807 229.018 332.774 228.976 332.734C228.935 332.693 228.902 332.644 228.879 332.59C228.856 332.537 228.844 332.479 228.844 332.421C228.843 332.363 228.854 332.305 228.876 332.251C228.898 332.197 228.93 332.148 228.971 332.106C229.012 332.065 229.061 332.032 229.114 332.009C229.162 332.009 233.976 330.001 237.483 333.489C237.546 333.552 237.588 333.632 237.605 333.719C237.622 333.806 237.613 333.896 237.579 333.978C237.545 334.06 237.488 334.13 237.415 334.18C237.341 334.23 237.255 334.257 237.166 334.258V334.258Z" fill="#EBEBEB"/>
<path d="M294.243 254.968L279.734 262.482L253.455 276.117C252.282 276.728 251.243 277.568 250.398 278.586C249.554 279.603 248.92 280.78 248.535 282.045C248.26 282.942 248.115 283.874 248.103 284.812V285.321C247.516 285.727 246.903 286.093 246.268 286.417C244.227 287.454 241.983 288.031 239.695 288.108C236.091 288.172 232.536 287.263 229.405 285.475C229.405 285.475 229.309 281.132 229.126 274.07C228.944 267.008 234.997 263.693 240.541 259.561C246.085 255.429 275.843 242.804 275.843 242.804L294.243 254.968Z" fill="#455A64"/>
<path d="M275.843 259.936L291.937 255.093L294.243 257.361L277.169 263.818L275.843 259.936Z" fill="#37474F"/>
<path d="M281.076 263.683L248.532 282.045L248.177 282.247L246.255 286.417C244.214 287.454 241.971 288.031 239.683 288.108L243.247 280.613C244.111 278.797 245.509 277.288 247.254 276.289L275.83 259.955C275.83 259.955 275.618 255.151 276.579 253.075C276.579 253.075 276.743 259.109 279.721 262.501C280.115 262.957 280.571 263.355 281.076 263.683V263.683Z" fill="#37474F"/>
<path d="M237.404 297.697L216.601 341.522C216.601 341.522 214.968 350.39 220.733 350.39C226.498 350.39 227.459 347.44 227.459 347.44C227.459 347.44 228.007 343.722 232.926 336.871C237.846 330.02 253.046 316.693 256.313 307.181L237.404 297.697Z" fill="#FFA8A7"/>
<path d="M322.104 260.608C322.104 260.608 319.222 273.215 313.812 277.577C308.402 281.939 303.973 284.889 285.803 288.732C273.85 291.25 266.058 293.364 262.128 294.497C261.233 294.757 260.427 295.257 259.796 295.943C259.166 296.629 258.736 297.475 258.553 298.389C257.974 301.309 257.237 304.196 256.343 307.036C256.343 307.036 244.439 307.43 237.453 297.572L244.362 284.351C246.15 280.915 248.824 278.019 252.106 275.963C260.181 270.824 268.548 266.159 277.165 261.992C291.28 255.429 293.202 254.228 293.202 254.228L322.104 260.608Z" fill="#455A64"/>
<path d="M276.091 212.057L262.639 233.08L272.833 242.804L288.024 219.378C288.024 219.378 283.528 211.547 276.091 212.057Z" fill="#FFA8A7"/>
<path d="M276.091 212.056C276.091 212.056 284.162 214.161 286.055 219.378L302.303 199.738L299.689 190.197C297.34 189.816 294.931 190.059 292.705 190.902C290.479 191.745 288.513 193.159 287.006 195.001C283.47 199.181 276.091 212.056 276.091 212.056Z" fill="#30319D"/>
<path opacity="0.2" d="M276.091 212.056C276.091 212.056 284.162 214.161 286.055 219.378L302.303 199.738L299.689 190.197C297.34 189.816 294.931 190.059 292.705 190.902C290.479 191.745 288.513 193.159 287.006 195.001C283.47 199.181 276.091 212.056 276.091 212.056Z" fill="black"/>
<path d="M303.496 143.817C303.496 143.817 299.652 140.646 295.184 145.546C290.716 150.447 294.829 164.763 288.305 163.995C288.305 163.995 292.59 168.588 296.866 165.359C297.02 165.243 297.197 165.161 297.385 165.119C299.066 164.792 300.613 167.819 301.286 168.895C303.15 171.855 304.764 174.948 306.628 177.898C308.492 180.848 310.837 184.961 313.892 186.805C317.515 189.006 322.963 188.669 326.671 186.959C332.686 184.192 336.876 177.793 338.97 171.71C339.931 169.02 340.758 165.82 340.402 162.976C339.835 158.479 336.501 156.894 336.482 157.105C336.482 157.105 337.913 145.691 323.03 142.875C309.184 140.243 303.496 143.817 303.496 143.817Z" fill="#263238"/>
<path d="M323.237 180.416L321.671 194.271L326.197 196.193C326.197 196.193 304.097 207.3 298.995 205.609C293.893 203.918 304.424 190.543 304.424 190.543L306.98 190.86L307.316 184.442L323.237 180.416Z" fill="#FFA8A7"/>
<path d="M319.145 183.058L313.15 182.972L307.317 184.451L307.067 189.054C316.57 186.921 319.145 183.058 319.145 183.058Z" fill="#FF9090"/>
<path d="M303.465 149.419C303.465 149.419 297.104 152.301 295.489 165.945C293.875 179.589 296.172 185.902 304.742 185.902C311.632 185.902 319.761 184.941 323.239 180.416C324.084 179.301 325.814 152.474 318.55 148.708C311.286 144.941 303.465 149.419 303.465 149.419Z" fill="#FFA8A7"/>
<path d="M303.463 148.218C303.463 148.218 303.165 162.784 319.721 167.31C319.721 167.31 318.52 174.997 323.18 174.997H327.725V161.545C327.725 157.488 326.113 153.597 323.244 150.728C320.376 147.86 316.485 146.248 312.428 146.248H305.51C304.973 146.25 304.459 146.465 304.079 146.845C303.699 147.224 303.485 147.738 303.482 148.275L303.463 148.218Z" fill="#263238"/>
<path d="M304.549 165.359V173.661L299.688 172.172L304.549 165.359Z" fill="#FF9090"/>
<path d="M309.577 169.452C310.272 169.452 310.836 168.889 310.836 168.194C310.836 167.498 310.272 166.935 309.577 166.935C308.882 166.935 308.318 167.498 308.318 168.194C308.318 168.889 308.882 169.452 309.577 169.452Z" fill="#263238"/>
<path d="M301.315 166.061C301.317 166.312 301.244 166.559 301.105 166.769C300.967 166.979 300.769 167.143 300.536 167.24C300.304 167.337 300.048 167.363 299.802 167.315C299.555 167.266 299.328 167.145 299.15 166.967C298.972 166.789 298.851 166.562 298.802 166.315C298.754 166.068 298.78 165.813 298.877 165.581C298.974 165.348 299.138 165.15 299.348 165.012C299.558 164.873 299.805 164.8 300.056 164.802C300.39 164.802 300.71 164.935 300.946 165.171C301.182 165.407 301.315 165.727 301.315 166.061V166.061Z" fill="#263238"/>
<path d="M298.48 161.372L301.622 160.468C301.622 160.468 300.863 159.114 299.652 159.508C298.441 159.901 298.48 161.372 298.48 161.372Z" fill="#263238"/>
<path d="M323.055 173.747C323 172.373 323.253 171.004 323.795 169.741C324.06 168.953 324.55 168.261 325.204 167.749C325.858 167.237 326.647 166.927 327.475 166.858C331.712 166.743 332.279 170.826 332.231 172.277C332.078 176.121 328.984 180.223 323.238 180.377L323.055 173.747Z" fill="#FFAAA8"/>
<path d="M304.428 190.553L299.691 190.197C299.691 190.197 281.963 203.39 283.097 212.546C283.77 217.927 285.413 220.944 286.489 222.386C286.796 222.812 287.009 223.299 287.113 223.815C287.217 224.33 287.211 224.861 287.094 225.374C286.451 228.256 285.038 233.637 283.049 236.164C280.923 238.659 278.503 240.889 275.843 242.804C275.843 242.804 281.204 252.614 291.524 257.706C301.843 262.799 318.476 263.26 322.108 260.589L326.912 233.08L329.295 197.615L325.317 195.789C325.317 195.789 306.283 204.735 300.335 204.216C297.279 203.966 304.428 190.553 304.428 190.553Z" fill="#30319D"/>
<path opacity="0.2" d="M296.69 224.471C299.356 226.43 302.598 227.445 305.905 227.353C309.29 227.421 312.582 226.237 315.148 224.029C315.148 224.029 312.621 228.747 305.77 228.747C298.92 228.747 296.69 224.471 296.69 224.471Z" fill="black"/>
<path d="M318.706 229.621L315.872 242.054C310.041 240.742 304.142 239.75 298.202 239.085C287.536 237.846 285.403 237.164 285.403 237.164L286.066 248.751C286.066 248.751 298.99 253.94 310.827 255.65C322.665 257.361 325.807 256.919 328.853 247.291C331.899 237.663 333.004 233.839 333.004 233.839L318.706 229.621Z" fill="#FFA8A7"/>
<path d="M329.254 197.634C329.254 197.634 320.443 203.966 321.423 218.043C321.423 218.043 318.992 228.612 318.704 229.573C318.704 229.573 323.873 233.628 333.002 233.762L338.844 212.681C339.484 210.414 339.392 208.002 338.581 205.79C337.771 203.578 336.282 201.679 334.328 200.363C332.716 199.313 331.019 198.401 329.254 197.634Z" fill="#30319D"/>
<path opacity="0.2" d="M329.254 197.634C329.254 197.634 320.443 203.966 321.423 218.043C321.423 218.043 318.992 228.612 318.704 229.573C318.704 229.573 323.873 233.628 333.002 233.762L338.844 212.681C339.484 210.414 339.392 208.002 338.581 205.79C337.771 203.578 336.282 201.679 334.328 200.363C332.716 199.313 331.019 198.401 329.254 197.634Z" fill="black"/>
<path d="M283.46 252.96L283.191 251.72L277.868 226.892C277.868 226.892 278.262 226.095 278.541 225.508C278.693 225.605 278.832 225.721 278.954 225.854C279.233 226.163 279.431 226.536 279.53 226.94L284.959 250.452L285.046 250.798C285.382 252.259 283.46 252.96 283.46 252.96Z" fill="#37474F"/>
<path d="M278.952 225.854L277.866 226.892L264.866 222.539L263.79 222.184L264.376 221.617C264.468 221.518 264.575 221.433 264.693 221.367C264.897 221.238 265.124 221.151 265.362 221.111C265.599 221.071 265.843 221.08 266.077 221.136L277.972 225.21C278.347 225.341 278.683 225.563 278.952 225.854V225.854Z" fill="#455A64"/>
<path d="M263.608 222.828L269.527 246.484C269.65 246.971 269.889 247.421 270.224 247.796C270.558 248.171 270.979 248.459 271.449 248.636L282.71 252.989C282.875 253.059 283.057 253.082 283.234 253.054C283.411 253.027 283.577 252.95 283.713 252.833C283.849 252.716 283.95 252.563 284.003 252.392C284.057 252.221 284.062 252.038 284.017 251.864L278.492 228.007C278.403 227.608 278.213 227.239 277.94 226.934C277.668 226.63 277.322 226.4 276.935 226.267L264.511 222.02C264.395 221.976 264.268 221.965 264.145 221.987C264.022 222.01 263.908 222.066 263.815 222.149C263.721 222.233 263.653 222.34 263.616 222.46C263.58 222.579 263.577 222.706 263.608 222.828Z" fill="#263238"/>
<path d="M227.443 347.421C226.487 348.003 225.416 348.368 224.304 348.493C223.192 348.617 222.066 348.497 221.005 348.142C221.005 348.142 222.571 344.116 219.612 342.377C216.653 340.637 213.751 340.637 212.992 343.126L212.223 345.615C212.223 345.615 204.786 351.447 201.99 353.234C199.194 355.021 196.523 356.367 194.438 357.712C192.353 359.057 186.991 362.958 191.632 367.868C196.273 372.778 210.071 370.251 213.568 364.649C217.066 359.047 227.155 361.767 227.155 354.983C227.155 348.199 227.443 347.421 227.443 347.421Z" fill="#30319D"/>
<path d="M200.704 354.022C198.388 355.425 196.197 356.559 194.439 357.693C192.363 359.028 186.992 362.939 191.633 367.849C195.198 371.635 204.192 371.001 209.745 367.955C209.928 356.665 203.048 354.685 200.704 354.022Z" fill="#EBEBEB"/>
<path d="M213.836 362.91C210.146 368.81 195.58 371.481 190.728 366.302C190.507 366.071 190.314 365.841 190.132 365.61C190.485 366.445 190.993 367.205 191.631 367.849C196.272 372.768 210.069 370.232 213.567 364.63C216.901 359.307 226.173 361.526 227.077 355.896C224.29 359.115 216.815 358.154 213.836 362.91Z" fill="#263238"/>
<path d="M217.892 351.687C217.787 351.687 217.686 351.65 217.606 351.584C217.525 351.517 217.47 351.425 217.45 351.322C216.681 347.037 212.175 346.037 212.127 346.028C212.012 346.002 211.911 345.933 211.846 345.834C211.782 345.735 211.758 345.615 211.781 345.499C211.806 345.384 211.876 345.283 211.975 345.219C212.073 345.154 212.194 345.131 212.309 345.154C212.367 345.154 217.45 346.297 218.334 351.159C218.354 351.276 218.326 351.396 218.258 351.493C218.19 351.59 218.086 351.657 217.969 351.678L217.892 351.687Z" fill="#EBEBEB"/>
<path d="M215.412 353.638C215.307 353.638 215.206 353.601 215.125 353.535C215.045 353.468 214.99 353.375 214.97 353.273C214.201 348.997 209.694 347.998 209.646 347.988C209.531 347.963 209.43 347.893 209.366 347.794C209.301 347.696 209.278 347.575 209.301 347.46C209.312 347.402 209.335 347.347 209.368 347.298C209.401 347.25 209.443 347.208 209.492 347.176C209.541 347.143 209.596 347.121 209.654 347.111C209.712 347.1 209.772 347.101 209.829 347.114C209.887 347.114 214.97 348.248 215.854 353.109C215.865 353.168 215.864 353.227 215.851 353.285C215.839 353.343 215.815 353.398 215.781 353.446C215.747 353.495 215.703 353.536 215.653 353.567C215.603 353.598 215.547 353.619 215.488 353.628L215.412 353.638Z" fill="#EBEBEB"/>
<path d="M212.579 355.838C212.474 355.838 212.373 355.801 212.292 355.735C212.212 355.668 212.157 355.576 212.137 355.473C211.368 351.207 207.006 350.227 206.814 350.188C206.698 350.161 206.597 350.089 206.532 349.989C206.468 349.889 206.445 349.767 206.468 349.65C206.48 349.593 206.504 349.54 206.537 349.492C206.571 349.444 206.613 349.404 206.662 349.372C206.711 349.341 206.766 349.32 206.823 349.31C206.881 349.3 206.939 349.301 206.996 349.314C207.054 349.314 212.137 350.448 213.021 355.31C213.032 355.368 213.031 355.428 213.018 355.485C213.006 355.543 212.982 355.598 212.948 355.646C212.914 355.695 212.87 355.736 212.82 355.767C212.77 355.798 212.714 355.819 212.656 355.829L212.579 355.838Z" fill="#EBEBEB"/>
<path d="M210.155 357.664C210.05 357.663 209.949 357.625 209.87 357.556C209.791 357.487 209.738 357.393 209.722 357.289C208.954 353.033 204.582 352.043 204.399 352.004C204.284 351.979 204.183 351.91 204.119 351.811C204.054 351.712 204.031 351.592 204.053 351.476C204.065 351.418 204.088 351.363 204.121 351.315C204.153 351.266 204.196 351.224 204.245 351.192C204.294 351.16 204.349 351.138 204.407 351.127C204.465 351.116 204.524 351.117 204.582 351.13C204.582 351.13 209.723 352.274 210.597 357.135C210.608 357.193 210.608 357.252 210.596 357.309C210.584 357.367 210.561 357.421 210.528 357.469C210.494 357.517 210.452 357.559 210.403 357.59C210.354 357.622 210.299 357.644 210.241 357.654L210.155 357.664Z" fill="#EBEBEB"/>
<path d="M303.463 175.669C305.164 175.781 306.854 175.325 308.267 174.372C308.267 174.372 308.594 176.918 306.47 177.399C304.347 177.879 303.463 175.669 303.463 175.669Z" fill="#FF9090"/>
<path d="M265.339 234.118C265.109 233.772 265.214 233.301 265.109 232.744C264.886 231.754 264.507 230.807 263.984 229.938C263.782 229.451 263.45 229.029 263.024 228.718C262.802 228.569 262.534 228.505 262.269 228.539C262.004 228.572 261.76 228.701 261.582 228.9C261.438 229.155 261.369 229.444 261.381 229.736C261.274 231.065 261.388 232.403 261.717 233.695C262.024 234.656 261.419 235.915 261.284 236.856C261.063 238.326 261.64 238.941 261.986 240.402C262.783 243.707 265.464 245.206 268.712 244.601C275.438 243.371 275.188 234.358 274.285 233.118C273.382 231.879 271.844 231.139 269.24 233.301C268.395 234.002 266.992 234.906 265.81 234.464C265.619 234.404 265.454 234.282 265.339 234.118V234.118Z" fill="#FFA8A7"/>
<path d="M287.986 238.067C286.391 235.193 283.79 233.01 280.683 231.937L281.644 235.934C281.644 235.934 276.965 236.837 274.005 236.309C271.046 235.78 265.617 232.35 266.482 236.251C267.347 240.152 268.221 242.727 270.45 244.495C272.805 246.491 275.696 247.748 278.762 248.108C281.961 248.358 286.102 248.761 286.102 248.761L287.986 238.067Z" fill="#FFA8A7"/>
<path d="M270.412 244.716C270.363 244.714 270.316 244.698 270.277 244.668C268.029 242.88 267.116 240.353 266.223 236.299C266.031 235.424 266.127 234.829 266.521 234.492C267.328 233.781 269.153 234.492 271.094 235.174C272.028 235.57 272.992 235.892 273.977 236.135C274.406 236.204 274.839 236.249 275.274 236.27C275.333 236.27 275.389 236.293 275.43 236.335C275.472 236.376 275.495 236.432 275.495 236.491C275.495 236.549 275.472 236.606 275.43 236.647C275.389 236.689 275.333 236.712 275.274 236.712C274.819 236.698 274.367 236.649 273.919 236.568C272.898 236.33 271.899 236.009 270.931 235.607C269.278 234.992 267.414 234.3 266.799 234.838C266.549 235.059 266.501 235.52 266.645 236.212C267.52 240.161 268.394 242.631 270.537 244.322C270.577 244.365 270.6 244.421 270.6 244.48C270.6 244.539 270.577 244.596 270.537 244.639C270.506 244.679 270.462 244.707 270.412 244.716V244.716Z" fill="#FF9090"/>
<path d="M336.011 157.413C337.974 156.297 340.209 155.75 342.465 155.835C344.721 155.92 346.908 156.633 348.781 157.894C350.625 159.199 352.153 160.899 353.256 162.871C354.358 164.842 355.006 167.035 355.152 169.289C355.853 178.6 352.336 181.31 348.791 192.465C347.628 196.116 348.791 200.43 358.082 204.725C358.082 204.725 333.965 209.395 338.096 185.163C341.094 167.579 334.676 168.232 334.676 168.232L336.011 157.413Z" fill="#263238"/>
<path d="M381.68 302.578C381.68 302.578 369.602 290.779 376.482 271.014C380.325 259.936 393.105 251.797 400.378 251.038C397.965 253.906 396.043 257.152 394.69 260.647L385.533 266.738L393.95 264.106L392.163 271.312C392.163 271.312 384.332 276.039 383.169 277.077L391.606 274.867C391.606 274.867 390.962 295.247 381.68 302.578Z" fill="#30319D"/>
<path opacity="0.4" d="M381.68 302.578C381.68 302.578 369.602 290.779 376.482 271.014C380.325 259.936 393.105 251.797 400.378 251.038C397.965 253.906 396.043 257.152 394.69 260.647L385.533 266.738L393.95 264.106L392.163 271.312C392.163 271.312 384.332 276.039 383.169 277.077L391.606 274.867C391.606 274.867 390.962 295.247 381.68 302.578Z" fill="black"/>
<path d="M381.677 302.578C381.677 302.578 375.421 277.884 384.684 263.491C384.684 263.491 373.846 276.193 381.677 302.578Z" fill="white"/>
<path d="M395.516 305.922L380.728 305.739H380.574L365.796 305.922C365.796 305.922 365.633 324.13 371.235 331.548C372.791 333.47 376.423 334.901 380.651 334.901C384.879 334.901 388.53 333.508 390.077 331.538C395.679 324.12 395.516 305.922 395.516 305.922Z" fill="#37474F"/>
<path d="M380.651 313.897C388.855 313.897 395.505 310.326 395.505 305.922C395.505 301.517 388.855 297.947 380.651 297.947C372.447 297.947 365.796 301.517 365.796 305.922C365.796 310.326 372.447 313.897 380.651 313.897Z" fill="#455A64"/>
<path d="M380.654 303.808C385.765 303.808 390.099 305.441 391.617 307.719C391.993 307.194 392.201 306.567 392.213 305.922C392.213 302.77 387.043 300.214 380.683 300.214C374.322 300.214 369.152 302.77 369.152 305.922C369.165 306.567 369.372 307.194 369.748 307.719C371.209 305.441 375.542 303.808 380.654 303.808Z" fill="#263238"/>
<path d="M380.648 303.808C375.536 303.808 371.203 305.441 369.685 307.719C371.203 309.986 375.536 311.629 380.648 311.629C385.76 311.629 390.093 309.986 391.611 307.719C390.093 305.441 385.76 303.808 380.648 303.808Z" fill="#E0E0E0"/>
<path d="M380.833 308.699C380.833 308.699 375.068 308.478 370.197 300.878C368.169 297.736 367.189 296.073 367.189 296.073L375.174 295.478L366.228 293.239L362.01 286.782L369.428 286.225C369.428 286.225 363.903 284.303 359.954 284.303C359.954 284.303 353.113 272.215 351.104 270.486C356.283 270.808 361.344 272.164 365.99 274.474C370.636 276.785 374.771 280.003 378.152 283.938C389.404 297.207 382.495 309.045 380.833 308.699Z" fill="#30319D"/>
<path d="M380.834 308.699C380.834 308.699 384.418 287.128 361.56 274.156C361.56 274.156 385.283 285.552 380.834 308.699Z" fill="white"/>
<path d="M380.836 308.699C380.836 308.699 386.024 309.035 391.174 302.636C393.298 300.003 394.326 298.61 394.326 298.61L387.187 297.322L395.46 296.14L399.88 290.712L393.24 289.52C393.24 289.52 398.41 288.29 401.974 288.636C401.974 288.636 409.286 278.374 411.256 277.01C406.553 276.813 401.859 277.562 397.45 279.213C393.042 280.863 389.01 283.381 385.592 286.618C374.187 297.524 379.298 308.852 380.836 308.699Z" fill="#30319D"/>
<path opacity="0.2" d="M380.836 308.699C380.836 308.699 386.024 309.035 391.174 302.636C393.298 300.003 394.326 298.61 394.326 298.61L387.187 297.322L395.46 296.14L399.88 290.712L393.24 289.52C393.24 289.52 398.41 288.29 401.974 288.636C401.974 288.636 409.286 278.374 411.256 277.01C406.553 276.813 401.859 277.562 397.45 279.213C393.042 280.863 389.01 283.381 385.592 286.618C374.187 297.524 379.298 308.852 380.836 308.699Z" fill="black"/>
<path d="M380.835 308.699C380.835 308.699 379.615 288.895 401.474 279.345C401.474 279.345 379 287.397 380.835 308.699Z" fill="white"/>
<path d="M81.1649 308.084L178.951 251.634C185.85 247.646 191.442 236.962 191.442 227.766V18.368C191.442 9.17265 185.85 4.91608 178.951 8.93243L81.1649 65.3824C74.266 69.37 68.6738 80.0546 68.6738 89.25V298.658C68.6738 307.844 74.266 312.11 81.1649 308.084Z" fill="#455A64"/>
<path d="M69.9022 58.8199L167.688 2.3603C170.638 0.659595 173.347 0.4386 175.48 1.50514C175.745 1.6322 175.999 1.78 176.24 1.94714L187.193 8.30797C184.993 7.00121 182.101 7.08769 178.94 8.92291L81.1634 65.3825C74.2645 69.37 68.6723 80.0547 68.6723 89.25V298.658C68.6723 303.52 70.2385 306.988 72.7271 308.593L61.9175 302.3C59.1599 300.829 57.4111 297.236 57.4111 292.086V82.6874C57.4111 73.4921 63.0033 62.8074 69.9022 58.8199Z" fill="#37474F"/>
<path d="M68.6723 89.2502V298.658C68.6723 303.52 70.2385 306.989 72.7271 308.593L61.9175 302.3C59.1599 300.83 57.4111 297.236 57.4111 292.086V82.6876L68.6723 89.1926V89.2502Z" fill="#263238"/>
<path d="M57.4111 98.9451L68.6723 105.45V110.523L57.4111 104.018V98.9451Z" fill="#37474F"/>
<path d="M62.3414 132.728C63.3022 133.305 64.167 132.728 64.167 131.345V120.43C64.1566 119.746 63.9861 119.074 63.669 118.468C63.352 117.863 62.8972 117.34 62.3414 116.942V116.942C61.3805 116.365 60.5254 116.942 60.5254 118.325V129.241C60.5362 129.923 60.7059 130.594 61.0211 131.199C61.3364 131.805 61.7884 132.328 62.3414 132.728V132.728Z" fill="#37474F"/>
<path d="M64.1673 131.345V120.43C64.1569 119.746 63.9863 119.074 63.6693 118.469C63.3522 117.863 62.8975 117.34 62.3417 116.942C62.1765 116.827 61.9843 116.757 61.7839 116.738C61.5835 116.719 61.3817 116.753 61.1982 116.836V116.836L62.5338 116.096C62.7202 116.002 62.9286 115.961 63.1367 115.976C63.3448 115.991 63.5449 116.063 63.7157 116.183C64.2721 116.58 64.7272 117.103 65.0443 117.709C65.3614 118.315 65.5317 118.987 65.5413 119.671V130.586C65.5711 130.862 65.5304 131.14 65.4228 131.396C65.3152 131.651 65.1444 131.875 64.9263 132.046V132.046L63.4947 132.786C63.7238 132.627 63.9067 132.409 64.0248 132.156C64.1429 131.903 64.192 131.623 64.1673 131.345Z" fill="#455A64"/>
<path d="M62.3414 159.162C63.3022 159.748 64.167 159.162 64.167 157.788V146.844C64.1574 146.161 63.9871 145.491 63.6699 144.886C63.3527 144.282 62.8976 143.761 62.3414 143.365V143.365C61.3805 142.779 60.5254 143.365 60.5254 144.739V155.683C60.5362 156.365 60.706 157.034 61.0213 157.638C61.3366 158.242 61.7886 158.763 62.3414 159.162V159.162Z" fill="#37474F"/>
<path d="M64.1673 157.788V146.844C64.1577 146.161 63.9874 145.491 63.6702 144.886C63.353 144.282 62.8979 143.761 62.3417 143.365C62.1773 143.248 61.985 143.177 61.7842 143.159C61.5834 143.14 61.3812 143.175 61.1982 143.26V143.26L62.5626 142.558C62.749 142.464 62.9574 142.423 63.1655 142.438C63.3737 142.453 63.5738 142.525 63.7445 142.645C64.3003 143.043 64.7551 143.566 65.0721 144.172C65.3892 144.777 65.5597 145.449 65.5701 146.133V157.048C65.6009 157.324 65.5605 157.603 65.4529 157.858C65.3452 158.114 65.1739 158.338 64.9552 158.508V158.508L63.5235 159.258C63.7534 159.094 63.9347 158.87 64.048 158.611C64.1613 158.353 64.2025 158.068 64.1673 157.788V157.788Z" fill="#455A64"/>
<path d="M84.5655 71.2727L180.718 15.7739C181.121 15.5545 181.574 15.4433 182.032 15.4513C182.491 15.4593 182.94 15.5862 183.335 15.8195C183.73 16.0529 184.058 16.3847 184.286 16.7826C184.515 17.1804 184.636 17.6308 184.638 18.0896V227.766C184.638 234.761 179.68 243.361 173.617 246.859L79.8285 300.993C79.3867 301.262 78.8807 301.407 78.3634 301.414C77.8462 301.42 77.3368 301.287 76.8887 301.028C76.4406 300.77 76.0703 300.395 75.8166 299.945C75.563 299.494 75.4353 298.983 75.447 298.466V87.021C75.4662 81.2463 79.5595 74.1648 84.5655 71.2727Z" fill="#30319D"/>
<path opacity="0.5" d="M84.5655 71.2727L180.718 15.7739C181.121 15.5545 181.574 15.4433 182.032 15.4513C182.491 15.4593 182.94 15.5862 183.335 15.8195C183.73 16.0529 184.058 16.3847 184.286 16.7826C184.515 17.1804 184.636 17.6308 184.638 18.0896V227.766C184.638 234.761 179.68 243.361 173.617 246.859L79.8285 300.993C79.3867 301.262 78.8807 301.407 78.3634 301.414C77.8462 301.42 77.3368 301.287 76.8887 301.028C76.4406 300.77 76.0703 300.395 75.8166 299.945C75.563 299.494 75.4353 298.983 75.447 298.466V87.021C75.4662 81.2463 79.5595 74.1648 84.5655 71.2727Z" fill="white"/>
<path d="M151.928 30.2634L150.439 36.5378L118.587 54.8996L113.091 51.9691L151.928 30.2634Z" fill="#455A64"/>
<path d="M142.568 36.3457C142.568 37.3834 143.299 37.8062 144.192 37.3066C144.668 36.9974 145.063 36.5805 145.347 36.0896C145.631 35.5988 145.795 35.0479 145.826 34.4817C145.826 33.444 145.095 33.0212 144.192 33.5208C143.72 33.8321 143.327 34.2498 143.045 34.7404C142.763 35.2309 142.6 35.7807 142.568 36.3457V36.3457Z" fill="#263238"/>
<path d="M121.146 49.5863C121.32 49.5873 121.492 49.5444 121.645 49.4614L137.913 40.3621C138.03 40.298 138.134 40.2111 138.217 40.1065C138.301 40.0019 138.363 39.8817 138.4 39.7529C138.436 39.6241 138.447 39.4893 138.431 39.3564C138.415 39.2234 138.373 39.095 138.307 38.9785C138.175 38.743 137.956 38.5693 137.696 38.4955C137.437 38.4216 137.159 38.4537 136.923 38.5846L120.646 47.6742C120.412 47.8093 120.24 48.0306 120.166 48.2908C120.093 48.551 120.123 48.8297 120.252 49.0674C120.342 49.2251 120.472 49.3562 120.629 49.4473C120.786 49.5384 120.964 49.5864 121.146 49.5863V49.5863Z" fill="#263238"/>
<path d="M203.94 261.752C182.936 274.243 128.282 306.912 101.235 323.189C100.428 323.673 99.5077 323.936 98.567 323.948C97.6262 323.961 96.699 323.723 95.8801 323.26C95.0612 322.797 94.38 322.124 93.906 321.312C93.4321 320.499 93.1825 319.575 93.1826 318.634V92.6228C93.1823 90.0503 93.8553 87.5225 95.1348 85.2907C96.4142 83.0589 98.2554 81.2009 100.475 79.9012L204.43 18.9736C205.237 18.5021 206.154 18.2517 207.089 18.2478C208.023 18.244 208.943 18.4868 209.754 18.9516C210.564 19.4165 211.238 20.0871 211.707 20.8957C212.176 21.7042 212.423 22.6222 212.424 23.5569V246.772C212.429 249.79 211.649 252.757 210.162 255.383C208.674 258.009 206.53 260.204 203.94 261.752Z" fill="#F5F5F5"/>
<path d="M203.516 261.031C187.034 270.87 170.549 280.716 154.061 290.568L124.793 308.074L111.428 316.088L105.586 319.604C103.808 320.671 101.915 322.18 99.9648 322.881C96.8709 323.976 94.1037 321.478 94.0172 318.442C94.0172 317.913 94.0172 317.395 94.0172 316.866V109.639C94.0172 104.124 94.0172 98.6088 94.0172 93.0839C93.9792 90.5305 94.6235 88.0131 95.8836 85.7919C97.1437 83.5707 98.9739 81.7262 101.185 80.4487C103.568 79.0363 105.989 77.643 108.353 76.2498L141.935 56.5235L181.733 33.2037C189.276 28.7838 196.809 24.3254 204.381 19.9343C206.571 18.6564 209.319 18.7429 210.866 21.0489C211.421 21.9742 211.676 23.048 211.597 24.1236C211.597 26.0453 211.597 28.0631 211.597 30.0329V245.936C211.597 252.134 208.906 257.726 203.516 261.031C202.603 261.598 203.439 263.039 204.361 262.472C207.147 260.752 209.435 258.334 210.997 255.457C212.56 252.579 213.343 249.344 213.268 246.071V39.9296C213.268 34.5585 213.326 29.1873 213.268 23.8258C213.285 22.6977 212.996 21.5861 212.432 20.6089C211.868 19.6316 211.051 18.825 210.066 18.2745C209.081 17.724 207.966 17.4501 206.838 17.4818C205.71 17.5135 204.612 17.8497 203.66 18.4546C201.162 19.8959 198.683 21.3372 196.184 22.8361L161.68 43.0716L121.526 66.5933C114.426 70.7537 107.296 74.8854 100.224 79.0843C97.791 80.5037 95.7772 82.5425 94.3882 84.9932C92.9991 87.444 92.2843 90.219 92.3165 93.0359C92.3165 94.8807 92.3165 96.7351 92.3165 98.58V317.558C92.3165 317.913 92.3165 318.269 92.3165 318.624C92.3267 319.592 92.5629 320.544 93.0063 321.404C93.4497 322.264 94.088 323.008 94.8703 323.577C95.6525 324.147 96.5571 324.526 97.5117 324.683C98.4663 324.841 99.4446 324.773 100.368 324.486C102.29 323.832 104.212 322.362 105.961 321.296L111.918 317.721L125.245 309.727C144.667 298.094 164.098 286.478 183.54 274.877L204.323 262.472C204.48 262.349 204.587 262.174 204.627 261.979C204.666 261.783 204.634 261.58 204.536 261.406C204.439 261.232 204.282 261.099 204.095 261.03C203.908 260.961 203.703 260.962 203.516 261.031Z" fill="#E0E0E0"/>
<path d="M149.832 287.31L156.558 283.467C157.234 282.984 157.787 282.348 158.172 281.612C158.558 280.876 158.765 280.06 158.777 279.229V272.292C158.777 270.659 157.817 269.909 156.558 270.62L149.832 274.464C149.156 274.947 148.604 275.582 148.218 276.318C147.833 277.054 147.625 277.87 147.612 278.701V285.629C147.612 287.272 148.612 288.021 149.832 287.31Z" fill="#E0E0E0"/>
<path d="M153.177 282.237C153.379 282.105 153.547 281.928 153.667 281.719C153.787 281.511 153.857 281.276 153.869 281.036V276.078C153.869 275.636 153.562 275.463 153.177 275.684C152.975 275.815 152.807 275.993 152.687 276.202C152.567 276.41 152.498 276.644 152.485 276.885V281.843C152.485 282.323 152.793 282.458 153.177 282.237Z" fill="white"/>
<path d="M151.03 280.998L155.315 278.519C155.518 278.388 155.687 278.211 155.809 278.002C155.931 277.793 156.002 277.559 156.016 277.318C156.016 276.876 155.699 276.703 155.315 276.924L151.03 279.441C150.826 279.572 150.657 279.749 150.535 279.958C150.413 280.166 150.342 280.401 150.328 280.642C150.328 281.046 150.645 281.219 151.03 280.998Z" fill="white"/>
<path d="M132.299 286.522C132.551 286.294 132.87 286.152 133.208 286.116C133.547 286.08 133.888 286.152 134.183 286.321C134.479 286.49 134.713 286.749 134.852 287.06C134.992 287.37 135.029 287.717 134.96 288.05C134.928 288.977 134.661 289.88 134.182 290.673C133.725 291.489 133.062 292.172 132.26 292.653C131.988 292.858 131.665 292.985 131.326 293.019C130.987 293.052 130.645 292.992 130.338 292.845C129.301 292.249 129.301 290.299 130.338 288.502C130.794 287.685 131.457 287.002 132.26 286.522M132.26 284.918C131.057 285.661 130.065 286.699 129.378 287.935C127.792 290.673 127.792 293.633 129.378 294.536C129.84 294.748 130.35 294.834 130.856 294.785C131.363 294.736 131.847 294.554 132.26 294.257C133.465 293.516 134.457 292.477 135.143 291.24C136.718 288.502 136.718 285.542 135.143 284.63C134.679 284.419 134.169 284.335 133.663 284.385C133.156 284.436 132.672 284.62 132.26 284.918Z" fill="#E0E0E0"/>
<path d="M126.418 300.58C126.623 300.451 126.791 300.273 126.908 300.061L129.934 294.824C130.203 294.353 130.203 293.863 129.934 293.69C129.665 293.517 129.223 293.787 128.974 294.257L125.947 299.494C125.678 299.965 125.678 300.455 125.947 300.628C126.023 300.658 126.106 300.67 126.188 300.662C126.27 300.653 126.349 300.625 126.418 300.58V300.58Z" fill="#E0E0E0"/>
<path d="M169.984 262.828C171.656 261.867 173.011 262.924 173.011 265.201C173.021 264.055 173.301 262.928 173.826 261.91C174.352 260.892 175.109 260.012 176.037 259.34C177.709 258.379 179.064 259.436 179.064 261.703C179.064 267.469 173.011 273.464 173.011 273.464C173.011 273.464 166.967 274.483 166.967 268.66C166.982 267.52 167.263 266.4 167.787 265.388C168.311 264.375 169.063 263.499 169.984 262.828Z" fill="#E0E0E0"/>
<path d="M190.968 252.585C190.968 254.295 192.169 254.987 193.649 254.132C194.429 253.624 195.079 252.939 195.544 252.133C196.01 251.326 196.279 250.421 196.329 249.491C196.329 247.781 195.128 247.089 193.649 247.944C192.868 248.452 192.219 249.138 191.753 249.944C191.287 250.75 191.018 251.655 190.968 252.585V252.585Z" fill="#E0E0E0"/>
<path d="M193.646 254.132C195.837 252.873 197.614 254.209 197.614 257.13V258.033L189.678 262.616V261.704C189.678 258.792 191.455 255.42 193.646 254.132Z" fill="#E0E0E0"/>
<path d="M111.293 297.034L116.644 298.802V306.345L112.494 308.689V304.606C112.494 303.837 111.956 303.529 111.293 303.914C110.943 304.143 110.652 304.451 110.443 304.813C110.234 305.175 110.114 305.581 110.091 305.999V310.073L105.95 312.465V304.971L111.293 297.034Z" fill="#E0E0E0"/>
<path d="M93.18 301.233C93.0821 301.235 92.9857 301.21 92.901 301.161C92.8164 301.111 92.7467 301.04 92.6996 300.954C92.6617 300.891 92.6369 300.82 92.6266 300.747C92.6162 300.674 92.6206 300.599 92.6394 300.528C92.6581 300.456 92.691 300.389 92.736 300.33C92.7809 300.272 92.8372 300.223 92.9013 300.186L212.114 231.398C212.244 231.325 212.398 231.307 212.542 231.346C212.686 231.386 212.808 231.481 212.883 231.61C212.921 231.673 212.945 231.744 212.956 231.817C212.966 231.89 212.962 231.965 212.943 232.036C212.924 232.108 212.891 232.175 212.846 232.234C212.801 232.293 212.745 232.342 212.681 232.379L93.4682 301.156C93.3813 301.209 93.2814 301.235 93.18 301.233V301.233Z" fill="#E0E0E0"/>
<path d="M100.475 79.9012L204.43 18.9736C205.237 18.5021 206.154 18.2517 207.089 18.2478C208.023 18.244 208.943 18.4868 209.754 18.9516C210.564 19.4165 211.238 20.0871 211.707 20.8957C212.176 21.7042 212.423 22.6222 212.424 23.5569V33.3672L93.1826 102.193V92.5844C93.189 90.0184 93.8652 87.4985 95.1443 85.2741C96.4234 83.0496 98.261 81.1976 100.475 79.9012V79.9012Z" fill="#E0E0E0"/>
<path d="M121.887 114.052C125.262 108.207 125.264 101.889 121.89 99.9414C118.517 97.9939 113.047 101.154 109.672 107C106.297 112.845 106.295 119.163 109.668 121.111C113.042 123.058 118.512 119.898 121.887 114.052Z" fill="#30319D"/>
<path d="M129.214 108.784C129.001 108.786 128.794 108.717 128.624 108.588C128.455 108.459 128.334 108.277 128.279 108.072C128.224 107.866 128.239 107.648 128.321 107.452C128.403 107.256 128.548 107.092 128.733 106.987L143.011 98.7433C143.233 98.6159 143.496 98.5818 143.743 98.6485C143.99 98.7151 144.2 98.8771 144.328 99.0988C144.455 99.3206 144.489 99.5838 144.423 99.8307C144.356 100.078 144.194 100.288 143.972 100.415L129.694 108.65C129.55 108.739 129.383 108.786 129.214 108.784V108.784Z" fill="#455A64"/>
<path d="M129.262 100.54C129.049 100.542 128.842 100.472 128.672 100.343C128.503 100.214 128.382 100.033 128.327 99.8274C128.272 99.6219 128.286 99.4039 128.369 99.2077C128.451 99.0115 128.596 98.8481 128.781 98.7433L168.032 76.0864C168.251 75.9715 168.507 75.9459 168.745 76.015C168.983 76.084 169.185 76.2424 169.309 76.4569C169.433 76.6715 169.469 76.9257 169.41 77.1664C169.352 77.4071 169.202 77.6157 168.993 77.7487L129.79 100.415C129.63 100.507 129.446 100.55 129.262 100.54Z" fill="#455A64"/>
<path d="M124.418 265.374C124.418 270.889 120.575 277.587 115.771 280.344C110.966 283.102 107.123 280.863 107.123 275.357C107.123 269.852 110.966 263.145 115.771 260.387C120.575 257.63 124.418 259.868 124.418 265.374Z" fill="#30319D"/>
<path d="M129.214 268.631C129.001 268.633 128.794 268.564 128.624 268.435C128.455 268.306 128.334 268.124 128.279 267.919C128.224 267.713 128.239 267.495 128.321 267.299C128.403 267.103 128.548 266.939 128.733 266.834L143.011 258.59C143.121 258.521 143.243 258.474 143.371 258.453C143.499 258.432 143.63 258.437 143.756 258.468C143.881 258.499 144 258.555 144.103 258.632C144.207 258.71 144.294 258.808 144.359 258.92C144.424 259.033 144.465 259.157 144.481 259.285C144.496 259.414 144.486 259.544 144.45 259.669C144.414 259.793 144.353 259.909 144.271 260.01C144.189 260.11 144.087 260.193 143.972 260.253L129.694 268.497C129.549 268.583 129.383 268.629 129.214 268.631Z" fill="#455A64"/>
<path d="M129.262 260.387C129.049 260.389 128.842 260.319 128.672 260.19C128.503 260.061 128.382 259.88 128.327 259.674C128.272 259.469 128.286 259.251 128.369 259.055C128.451 258.859 128.596 258.695 128.781 258.59L168.032 235.933C168.251 235.819 168.507 235.793 168.745 235.862C168.983 235.931 169.185 236.089 169.309 236.304C169.433 236.519 169.469 236.773 169.41 237.013C169.352 237.254 169.202 237.463 168.993 237.596L129.79 260.224C129.634 260.329 129.45 260.386 129.262 260.387V260.387Z" fill="#455A64"/>
<path d="M124.418 215.535C124.418 221.05 120.575 227.747 115.771 230.505C110.966 233.262 107.123 231.024 107.123 225.518C107.123 220.012 110.966 213.306 115.771 210.548C120.575 207.79 124.418 210.029 124.418 215.535Z" fill="#30319D"/>
<path d="M129.215 218.782C129.005 218.78 128.802 218.71 128.636 218.581C128.47 218.453 128.351 218.273 128.297 218.071C128.242 217.868 128.255 217.654 128.335 217.459C128.414 217.265 128.554 217.102 128.734 216.995L143.013 208.751C143.122 208.682 143.244 208.635 143.372 208.614C143.5 208.593 143.631 208.598 143.757 208.629C143.882 208.659 144.001 208.715 144.104 208.793C144.208 208.871 144.295 208.969 144.36 209.081C144.425 209.193 144.466 209.317 144.482 209.446C144.497 209.575 144.487 209.705 144.451 209.83C144.415 209.954 144.354 210.07 144.272 210.17C144.19 210.271 144.088 210.353 143.973 210.413L129.695 218.657C129.549 218.74 129.383 218.783 129.215 218.782V218.782Z" fill="#455A64"/>
<path d="M129.26 210.538C129.092 210.537 128.928 210.493 128.783 210.408C128.638 210.324 128.517 210.203 128.433 210.058C128.307 209.839 128.273 209.578 128.338 209.334C128.402 209.089 128.561 208.88 128.779 208.751L168.03 186.094C168.249 185.968 168.51 185.934 168.755 185.999C168.999 186.063 169.208 186.222 169.337 186.44C169.401 186.549 169.442 186.67 169.46 186.795C169.477 186.921 169.469 187.048 169.437 187.17C169.405 187.293 169.349 187.407 169.272 187.508C169.196 187.609 169.1 187.693 168.991 187.757L129.788 210.414C129.628 210.505 129.444 210.548 129.26 210.538Z" fill="#455A64"/>
<path d="M145.279 222.27V223.057L143.308 224.19V223.403L145.279 222.27ZM143.755 222.242L144.663 221.72V225.239C144.663 225.336 144.676 225.404 144.701 225.443C144.727 225.481 144.762 225.497 144.808 225.493C144.855 225.487 144.909 225.467 144.97 225.431C145.012 225.407 145.055 225.378 145.098 225.346C145.14 225.311 145.173 225.285 145.196 225.267L145.338 225.964C145.293 226.007 145.229 226.062 145.147 226.131C145.064 226.201 144.964 226.273 144.846 226.345C144.628 226.481 144.436 226.558 144.271 226.575C144.108 226.592 143.98 226.546 143.89 226.436C143.799 226.326 143.754 226.147 143.755 225.898V222.242ZM147.326 224.942C146.99 225.136 146.7 225.224 146.457 225.206C146.216 225.186 146.03 225.068 145.899 224.853C145.768 224.637 145.703 224.33 145.703 223.931C145.703 223.543 145.768 223.165 145.899 222.796C146.03 222.428 146.213 222.094 146.451 221.794C146.689 221.493 146.969 221.25 147.29 221.065C147.506 220.941 147.707 220.866 147.893 220.839C148.081 220.81 148.244 220.835 148.383 220.914C148.524 220.992 148.633 221.129 148.711 221.325C148.79 221.519 148.829 221.777 148.829 222.098V222.386L146.065 223.974V223.325L147.974 222.228C147.974 222.077 147.946 221.96 147.889 221.876C147.832 221.793 147.753 221.747 147.652 221.739C147.553 221.729 147.437 221.762 147.305 221.838C147.167 221.917 147.045 222.025 146.939 222.159C146.834 222.292 146.751 222.437 146.691 222.594C146.632 222.749 146.601 222.902 146.6 223.052V223.669C146.6 223.856 146.63 224 146.689 224.102C146.75 224.203 146.836 224.258 146.947 224.268C147.058 224.278 147.189 224.239 147.341 224.152C147.442 224.094 147.535 224.025 147.618 223.944C147.702 223.863 147.774 223.772 147.834 223.673C147.893 223.573 147.939 223.466 147.97 223.353L148.809 222.935C148.767 223.192 148.679 223.445 148.547 223.695C148.417 223.942 148.248 224.174 148.04 224.389C147.834 224.603 147.596 224.787 147.326 224.942ZM150.627 223.033C150.378 223.176 150.153 223.232 149.952 223.2C149.751 223.166 149.592 223.039 149.474 222.818C149.358 222.595 149.3 222.273 149.3 221.852C149.3 221.42 149.36 221.025 149.481 220.669C149.601 220.311 149.762 220.004 149.962 219.746C150.164 219.486 150.385 219.287 150.625 219.149C150.808 219.044 150.961 218.992 151.083 218.994C151.207 218.993 151.306 219.024 151.381 219.088C151.458 219.148 151.516 219.218 151.556 219.297L151.584 219.281V217.389L152.489 216.868V221.901L151.594 222.416V221.811L151.556 221.833C151.513 221.963 151.453 222.101 151.375 222.249C151.298 222.395 151.198 222.537 151.074 222.675C150.952 222.813 150.803 222.932 150.627 223.033ZM150.915 222.035C151.061 221.951 151.184 221.834 151.285 221.684C151.388 221.532 151.466 221.357 151.52 221.158C151.575 220.96 151.603 220.748 151.603 220.523C151.603 220.299 151.576 220.119 151.522 219.985C151.468 219.851 151.39 219.768 151.287 219.736C151.185 219.705 151.061 219.731 150.915 219.815C150.765 219.901 150.64 220.02 150.537 220.172C150.435 220.324 150.358 220.498 150.305 220.694C150.253 220.89 150.226 221.097 150.226 221.314C150.226 221.534 150.253 221.713 150.305 221.852C150.359 221.988 150.437 222.074 150.537 222.111C150.64 222.146 150.765 222.12 150.915 222.035Z" fill="#455A64"/>
<path d="M195.414 143.961L110.936 192.734C110.552 192.957 110.115 193.074 109.671 193.075C109.226 193.075 108.789 192.959 108.404 192.736C108.019 192.514 107.7 192.194 107.478 191.809C107.256 191.424 107.14 190.987 107.141 190.543V137.091C107.14 136.016 107.421 134.96 107.958 134.029C108.494 133.098 109.266 132.325 110.196 131.787L194.674 83.014C195.059 82.794 195.495 82.6787 195.938 82.6797C196.382 82.6806 196.817 82.7978 197.201 83.0194C197.585 83.241 197.904 83.5595 198.127 83.9429C198.349 84.3263 198.467 84.7614 198.47 85.2048V138.686C198.467 139.756 198.184 140.806 197.648 141.732C197.111 142.658 196.341 143.427 195.414 143.961V143.961Z" fill="#30319D"/>
<path opacity="0.5" d="M195.414 143.961L110.936 192.734C110.552 192.957 110.115 193.074 109.671 193.075C109.226 193.075 108.789 192.959 108.404 192.736C108.019 192.514 107.7 192.194 107.478 191.809C107.256 191.424 107.14 190.987 107.141 190.543V137.091C107.14 136.016 107.421 134.96 107.958 134.029C108.494 133.098 109.266 132.325 110.196 131.787L194.674 83.014C195.059 82.794 195.495 82.6787 195.938 82.6797C196.382 82.6806 196.817 82.7978 197.201 83.0194C197.585 83.241 197.904 83.5595 198.127 83.9429C198.349 84.3263 198.467 84.7614 198.47 85.2048V138.686C198.467 139.756 198.184 140.806 197.648 141.732C197.111 142.658 196.341 143.427 195.414 143.961V143.961Z" fill="white"/>
<path d="M165.669 152.671C172.26 141.255 172.26 128.916 165.67 125.112C159.08 121.307 148.395 127.476 141.804 138.892C135.213 150.308 135.213 162.646 141.803 166.451C148.393 170.256 159.078 164.086 165.669 152.671Z" fill="white"/>
<path d="M198.479 118.614V138.686C198.475 139.757 198.19 140.807 197.652 141.733C197.114 142.659 196.342 143.427 195.414 143.961L110.926 192.734C110.543 192.958 110.107 193.076 109.662 193.077C109.218 193.077 108.782 192.961 108.397 192.738C108.013 192.516 107.694 192.195 107.473 191.81C107.253 191.424 107.138 190.987 107.141 190.543V171.326L198.479 118.614Z" fill="#30319D"/>
<path d="M132.366 172.229C131.891 172.204 131.442 172.01 131.098 171.682C130.704 171.374 130.56 171.268 130.041 171.557C129.979 171.618 129.903 171.664 129.821 171.692C129.738 171.72 129.65 171.729 129.564 171.718C129.477 171.707 129.394 171.677 129.321 171.629C129.248 171.581 129.187 171.518 129.142 171.443C129.097 171.368 129.07 171.284 129.062 171.197C129.054 171.11 129.066 171.022 129.097 170.941C129.128 170.859 129.178 170.786 129.241 170.726C129.305 170.666 129.381 170.622 129.464 170.596C129.817 170.349 130.246 170.234 130.675 170.273C131.104 170.312 131.506 170.501 131.809 170.807C132.203 171.115 132.347 171.23 132.866 170.932C133.533 170.447 134.047 169.78 134.345 169.01C134.737 168.049 135.406 167.226 136.267 166.647C136.619 166.4 137.046 166.286 137.473 166.325C137.901 166.364 138.301 166.553 138.602 166.858C139.006 167.175 139.15 167.281 139.669 166.983C140.337 166.501 140.848 165.832 141.139 165.061C141.532 164.099 142.201 163.273 143.06 162.688C143.414 162.443 143.842 162.33 144.271 162.368C144.7 162.407 145.101 162.595 145.405 162.899C145.799 163.207 145.953 163.322 146.462 163.024C146.595 162.95 146.751 162.931 146.899 162.97C147.046 163.01 147.172 163.105 147.25 163.236C147.288 163.301 147.312 163.374 147.322 163.449C147.332 163.524 147.327 163.6 147.307 163.673C147.288 163.747 147.254 163.815 147.208 163.875C147.161 163.935 147.104 163.986 147.038 164.024C146.685 164.271 146.256 164.385 145.827 164.346C145.398 164.307 144.997 164.118 144.694 163.812C144.3 163.505 144.146 163.389 143.637 163.687C142.964 164.167 142.449 164.836 142.157 165.609C141.762 166.568 141.094 167.39 140.235 167.973C139.883 168.22 139.454 168.334 139.025 168.295C138.596 168.257 138.194 168.067 137.891 167.761C137.497 167.454 137.343 167.338 136.834 167.636C136.162 168.117 135.647 168.786 135.354 169.558C134.965 170.523 134.296 171.35 133.433 171.931C133.11 172.123 132.742 172.226 132.366 172.229V172.229Z" fill="#30319D"/>
<g opacity="0.5">
<path d="M132.366 172.229C131.891 172.204 131.442 172.01 131.098 171.682C130.704 171.374 130.56 171.268 130.041 171.557C129.979 171.618 129.903 171.664 129.821 171.692C129.738 171.72 129.65 171.729 129.564 171.718C129.477 171.707 129.394 171.677 129.321 171.629C129.248 171.581 129.187 171.518 129.142 171.443C129.097 171.368 129.07 171.284 129.062 171.197C129.054 171.11 129.066 171.022 129.097 170.941C129.128 170.859 129.178 170.786 129.241 170.726C129.305 170.666 129.381 170.622 129.464 170.596C129.817 170.349 130.246 170.234 130.675 170.273C131.104 170.312 131.506 170.501 131.809 170.807C132.203 171.115 132.347 171.23 132.866 170.932C133.533 170.447 134.047 169.78 134.345 169.01C134.737 168.049 135.406 167.226 136.267 166.647C136.619 166.4 137.046 166.286 137.473 166.325C137.901 166.364 138.301 166.553 138.602 166.858C139.006 167.175 139.15 167.281 139.669 166.983C140.337 166.501 140.848 165.832 141.139 165.061C141.532 164.099 142.201 163.273 143.06 162.688C143.414 162.443 143.842 162.33 144.271 162.368C144.7 162.407 145.101 162.595 145.405 162.899C145.799 163.207 145.953 163.322 146.462 163.024C146.595 162.95 146.751 162.931 146.899 162.97C147.046 163.01 147.172 163.105 147.25 163.236C147.288 163.301 147.312 163.374 147.322 163.449C147.332 163.524 147.327 163.6 147.307 163.673C147.288 163.747 147.254 163.815 147.208 163.875C147.161 163.935 147.104 163.986 147.038 164.024C146.685 164.271 146.256 164.385 145.827 164.346C145.398 164.307 144.997 164.118 144.694 163.812C144.3 163.505 144.146 163.389 143.637 163.687C142.964 164.167 142.449 164.836 142.157 165.609C141.762 166.568 141.094 167.39 140.235 167.973C139.883 168.22 139.454 168.334 139.025 168.295C138.596 168.257 138.194 168.067 137.891 167.761C137.497 167.454 137.343 167.338 136.834 167.636C136.162 168.117 135.647 168.786 135.354 169.558C134.965 170.523 134.296 171.35 133.433 171.931C133.11 172.123 132.742 172.226 132.366 172.229V172.229Z" fill="white"/>
</g>
<path d="M174.74 148.266C174.266 148.238 173.817 148.044 173.472 147.718C173.068 147.41 172.924 147.295 172.415 147.593C172.353 147.654 172.277 147.701 172.195 147.729C172.112 147.757 172.024 147.765 171.938 147.754C171.851 147.743 171.768 147.713 171.695 147.665C171.622 147.618 171.561 147.554 171.516 147.479C171.471 147.404 171.444 147.32 171.436 147.233C171.428 147.146 171.44 147.059 171.471 146.977C171.502 146.896 171.552 146.822 171.615 146.763C171.679 146.703 171.755 146.658 171.838 146.632C172.19 146.385 172.619 146.272 173.047 146.312C173.475 146.353 173.874 146.545 174.173 146.853C174.567 147.161 174.721 147.276 175.23 146.978C175.901 146.496 176.415 145.828 176.71 145.056C177.102 144.095 177.771 143.272 178.632 142.693C178.985 142.447 179.414 142.334 179.842 142.373C180.271 142.412 180.672 142.6 180.976 142.904C181.37 143.212 181.524 143.327 182.033 143.029C182.701 142.544 183.214 141.877 183.513 141.107C183.904 140.146 184.573 139.323 185.434 138.744C185.787 138.497 186.216 138.382 186.645 138.421C187.074 138.46 187.476 138.649 187.779 138.955C188.173 139.262 188.327 139.378 188.836 139.08C188.901 139.042 188.974 139.017 189.049 139.008C189.124 138.998 189.2 139.003 189.274 139.022C189.347 139.042 189.415 139.076 189.475 139.122C189.536 139.168 189.586 139.226 189.624 139.291C189.663 139.357 189.689 139.429 189.699 139.504C189.71 139.58 189.705 139.657 189.685 139.73C189.666 139.804 189.631 139.872 189.584 139.932C189.537 139.992 189.479 140.042 189.412 140.079C189.06 140.324 188.633 140.436 188.206 140.398C187.78 140.359 187.38 140.172 187.077 139.868C186.674 139.56 186.53 139.445 186.011 139.743C185.343 140.228 184.83 140.895 184.531 141.665C184.14 142.626 183.471 143.449 182.61 144.028C182.256 144.273 181.827 144.387 181.399 144.348C180.97 144.309 180.569 144.121 180.265 143.817C179.871 143.509 179.727 143.394 179.208 143.692C178.539 144.176 178.025 144.843 177.728 145.614C177.339 146.579 176.67 147.406 175.807 147.987C175.48 148.168 175.113 148.263 174.74 148.266Z" fill="#30319D"/>
<g opacity="0.5">
<path d="M174.736 148.266C174.262 148.238 173.813 148.044 173.468 147.718C173.064 147.41 172.92 147.295 172.411 147.593C172.349 147.654 172.274 147.701 172.191 147.729C172.108 147.757 172.02 147.765 171.934 147.754C171.847 147.743 171.764 147.713 171.691 147.665C171.618 147.618 171.557 147.554 171.512 147.479C171.467 147.404 171.44 147.32 171.432 147.233C171.424 147.146 171.436 147.059 171.467 146.977C171.499 146.896 171.548 146.822 171.611 146.763C171.675 146.703 171.751 146.658 171.834 146.632C172.186 146.385 172.615 146.272 173.043 146.312C173.471 146.353 173.87 146.545 174.169 146.853C174.563 147.161 174.717 147.276 175.226 146.978C175.897 146.496 176.412 145.828 176.706 145.056C177.098 144.095 177.767 143.272 178.628 142.693C178.981 142.447 179.41 142.334 179.838 142.373C180.267 142.412 180.668 142.6 180.972 142.904C181.366 143.212 181.52 143.327 182.029 143.029C182.697 142.544 183.21 141.877 183.509 141.107C183.9 140.146 184.569 139.323 185.431 138.744C185.783 138.497 186.212 138.382 186.641 138.421C187.07 138.46 187.472 138.649 187.775 138.955C188.169 139.262 188.323 139.378 188.832 139.08C188.898 139.042 188.97 139.017 189.045 139.008C189.12 138.998 189.197 139.003 189.27 139.022C189.343 139.042 189.411 139.076 189.472 139.122C189.532 139.168 189.582 139.226 189.62 139.291C189.659 139.357 189.685 139.429 189.695 139.504C189.706 139.58 189.701 139.657 189.681 139.73C189.662 139.804 189.627 139.872 189.58 139.932C189.534 139.992 189.475 140.042 189.408 140.079C189.056 140.324 188.629 140.436 188.203 140.398C187.776 140.359 187.376 140.172 187.074 139.868C186.67 139.56 186.526 139.445 186.007 139.743C185.339 140.228 184.826 140.895 184.527 141.665C184.136 142.626 183.467 143.449 182.606 144.028C182.252 144.273 181.824 144.387 181.395 144.348C180.966 144.309 180.565 144.121 180.261 143.817C179.867 143.509 179.723 143.394 179.204 143.692C178.535 144.176 178.021 144.843 177.724 145.614C177.335 146.579 176.666 147.406 175.803 147.987C175.476 148.168 175.109 148.263 174.736 148.266Z" fill="white"/>
</g>
<path d="M147.844 158.239C147.372 158.212 146.924 158.022 146.576 157.701C146.182 157.394 146.028 157.278 145.519 157.576C145.386 157.65 145.23 157.669 145.082 157.63C144.935 157.59 144.809 157.495 144.731 157.365C144.692 157.299 144.666 157.227 144.656 157.152C144.645 157.076 144.65 156.999 144.67 156.926C144.689 156.852 144.724 156.784 144.771 156.724C144.818 156.664 144.876 156.614 144.943 156.577C145.296 156.33 145.725 156.215 146.154 156.254C146.583 156.293 146.984 156.482 147.287 156.788C147.681 157.096 147.825 157.211 148.344 156.913C149.011 156.429 149.521 155.761 149.814 154.991C150.21 154.03 150.878 153.205 151.736 152.618C152.089 152.37 152.519 152.257 152.949 152.297C153.378 152.338 153.78 152.53 154.08 152.839C154.474 153.147 154.628 153.262 155.137 152.964C155.808 152.482 156.323 151.814 156.617 151.042C157.009 150.079 157.678 149.253 158.539 148.669C158.892 148.421 159.322 148.307 159.752 148.348C160.181 148.388 160.582 148.581 160.883 148.89C161.287 149.197 161.431 149.313 161.95 149.015C162.012 148.954 162.087 148.907 162.17 148.879C162.253 148.851 162.34 148.843 162.427 148.853C162.514 148.864 162.597 148.895 162.67 148.943C162.743 148.99 162.804 149.054 162.849 149.129C162.894 149.204 162.921 149.288 162.929 149.375C162.937 149.462 162.924 149.549 162.893 149.631C162.862 149.712 162.813 149.786 162.749 149.845C162.686 149.905 162.61 149.95 162.526 149.976C162.175 150.227 161.745 150.343 161.315 150.304C160.885 150.266 160.483 150.074 160.182 149.764C159.788 149.457 159.634 149.342 159.115 149.639C158.45 150.125 157.939 150.792 157.645 151.561C157.251 152.521 156.583 153.344 155.723 153.925C155.373 154.173 154.945 154.288 154.517 154.249C154.089 154.211 153.689 154.021 153.389 153.713C152.985 153.406 152.841 153.291 152.322 153.589C151.655 154.072 151.144 154.74 150.852 155.51C150.457 156.469 149.789 157.291 148.93 157.874C148.609 158.093 148.233 158.219 147.844 158.239V158.239Z" fill="#30319D"/>
<g opacity="0.5">
<path d="M147.845 158.239C147.373 158.212 146.925 158.022 146.577 157.701C146.183 157.394 146.029 157.278 145.52 157.576C145.387 157.65 145.231 157.669 145.083 157.63C144.936 157.59 144.81 157.495 144.732 157.365C144.693 157.299 144.667 157.227 144.657 157.152C144.646 157.076 144.651 156.999 144.671 156.926C144.69 156.852 144.725 156.784 144.772 156.724C144.819 156.664 144.877 156.614 144.944 156.577C145.297 156.33 145.726 156.215 146.155 156.254C146.584 156.293 146.985 156.482 147.288 156.788C147.682 157.096 147.826 157.211 148.345 156.913C149.011 156.429 149.522 155.761 149.815 154.991C150.211 154.03 150.879 153.205 151.737 152.618C152.09 152.37 152.52 152.257 152.95 152.297C153.379 152.338 153.781 152.53 154.081 152.839C154.475 153.147 154.629 153.262 155.138 152.964C155.809 152.482 156.324 151.814 156.618 151.042C157.01 150.079 157.679 149.253 158.54 148.669C158.893 148.421 159.323 148.307 159.753 148.348C160.182 148.388 160.583 148.581 160.884 148.89C161.288 149.197 161.432 149.313 161.951 149.015C162.013 148.954 162.088 148.907 162.171 148.879C162.253 148.851 162.341 148.843 162.428 148.853C162.515 148.864 162.598 148.895 162.671 148.943C162.744 148.99 162.805 149.054 162.85 149.129C162.895 149.204 162.922 149.288 162.93 149.375C162.937 149.462 162.925 149.549 162.894 149.631C162.863 149.712 162.814 149.786 162.75 149.845C162.687 149.905 162.611 149.95 162.527 149.976C162.176 150.227 161.746 150.343 161.316 150.304C160.886 150.266 160.484 150.074 160.183 149.764C159.789 149.457 159.635 149.342 159.116 149.639C158.451 150.125 157.94 150.792 157.646 151.561C157.252 152.521 156.584 153.344 155.724 153.925C155.374 154.173 154.946 154.288 154.518 154.249C154.09 154.211 153.69 154.021 153.39 153.713C152.986 153.406 152.842 153.291 152.323 153.589C151.656 154.072 151.145 154.74 150.853 155.51C150.458 156.469 149.79 157.291 148.931 157.874C148.61 158.093 148.234 158.219 147.845 158.239V158.239Z" fill="white"/>
</g>
<path d="M119.953 173.872C119.599 174.118 119.169 174.231 118.74 174.19C118.311 174.15 117.91 173.959 117.608 173.651C117.204 173.353 117.07 173.238 116.551 173.536C115.883 174.023 115.367 174.689 115.062 175.457C114.669 176.42 114 177.246 113.14 177.831C112.785 178.073 112.356 178.183 111.928 178.143C111.5 178.103 111.099 177.914 110.796 177.61C110.392 177.302 110.258 177.187 109.729 177.485C109.065 177.974 108.552 178.64 108.249 179.407C107.965 180.032 107.59 180.612 107.135 181.126V179.07L107.231 178.878C107.624 177.918 108.293 177.095 109.153 176.514C109.504 176.264 109.934 176.147 110.364 176.186C110.794 176.225 111.196 176.416 111.497 176.726C111.891 177.033 112.045 177.158 112.554 176.851C113.228 176.372 113.743 175.703 114.034 174.929C114.426 173.965 115.094 173.14 115.955 172.556C116.311 172.309 116.742 172.196 117.173 172.237C117.603 172.277 118.006 172.468 118.309 172.777C118.694 173.075 118.848 173.19 119.366 172.892C119.498 172.818 119.653 172.799 119.799 172.839C119.944 172.878 120.068 172.973 120.145 173.103C120.219 173.231 120.241 173.383 120.205 173.527C120.169 173.67 120.079 173.794 119.953 173.872V173.872Z" fill="#30319D"/>
<g opacity="0.5">
<path d="M119.947 173.872C119.593 174.118 119.163 174.231 118.734 174.19C118.305 174.15 117.904 173.959 117.602 173.651C117.199 173.353 117.064 173.238 116.545 173.536C115.877 174.023 115.361 174.689 115.056 175.457C114.663 176.42 113.994 177.246 113.134 177.831C112.779 178.073 112.35 178.183 111.922 178.143C111.494 178.103 111.094 177.914 110.79 177.61C110.386 177.302 110.252 177.187 109.723 177.485C109.059 177.974 108.547 178.64 108.243 179.407C107.96 180.032 107.584 180.612 107.129 181.126V179.07L107.225 178.878C107.618 177.918 108.287 177.095 109.147 176.514C109.498 176.264 109.928 176.147 110.358 176.186C110.788 176.225 111.19 176.416 111.491 176.726C111.885 177.033 112.039 177.158 112.548 176.851C113.222 176.372 113.737 175.703 114.028 174.929C114.42 173.965 115.089 173.14 115.95 172.556C116.305 172.309 116.736 172.196 117.167 172.237C117.598 172.277 118 172.468 118.304 172.777C118.688 173.075 118.842 173.19 119.361 172.892C119.492 172.818 119.647 172.799 119.793 172.839C119.938 172.878 120.063 172.973 120.139 173.103C120.214 173.231 120.235 173.383 120.199 173.527C120.163 173.67 120.073 173.794 119.947 173.872V173.872Z" fill="white"/>
</g>
<path d="M198.484 125.243V126.665C198.039 127.128 197.678 127.665 197.417 128.251C197.02 129.211 196.352 130.036 195.495 130.624C195.143 130.869 194.715 130.982 194.288 130.941C193.86 130.901 193.461 130.71 193.161 130.403C192.757 130.105 192.613 129.98 192.094 130.278C191.428 130.765 190.914 131.431 190.614 132.2C190.228 133.167 189.558 133.994 188.693 134.573C188.373 134.777 188.005 134.889 187.626 134.9C187.153 134.875 186.704 134.684 186.358 134.362C185.964 134.054 185.81 133.93 185.291 134.237C185.169 134.272 185.038 134.265 184.919 134.218C184.801 134.171 184.701 134.085 184.637 133.975C184.572 133.866 184.545 133.737 184.561 133.611C184.577 133.484 184.634 133.367 184.724 133.276C185.078 133.035 185.505 132.925 185.932 132.965C186.358 133.005 186.757 133.194 187.059 133.497C187.453 133.814 187.607 133.92 188.126 133.622C188.793 133.139 189.304 132.471 189.596 131.7C189.997 130.745 190.664 129.924 191.517 129.337C191.872 129.093 192.3 128.981 192.728 129.02C193.156 129.058 193.557 129.245 193.862 129.548C194.256 129.855 194.41 129.98 194.919 129.683C195.587 129.198 196.101 128.531 196.399 127.761C196.791 126.797 197.459 125.971 198.32 125.388L198.484 125.243Z" fill="#30319D"/>
<g opacity="0.5">
<path d="M198.481 125.243V126.665C198.036 127.128 197.675 127.665 197.414 128.251C197.017 129.211 196.349 130.036 195.492 130.624C195.14 130.869 194.712 130.982 194.285 130.941C193.857 130.901 193.458 130.71 193.158 130.403C192.754 130.105 192.61 129.98 192.091 130.278C191.425 130.765 190.911 131.431 190.611 132.2C190.225 133.167 189.555 133.994 188.69 134.573C188.37 134.777 188.002 134.889 187.623 134.9C187.15 134.875 186.701 134.684 186.355 134.362C185.961 134.054 185.807 133.93 185.288 134.237C185.166 134.272 185.035 134.265 184.916 134.218C184.798 134.171 184.699 134.085 184.634 133.975C184.569 133.866 184.542 133.737 184.558 133.611C184.574 133.484 184.631 133.367 184.721 133.276C185.075 133.035 185.502 132.925 185.929 132.965C186.355 133.005 186.754 133.194 187.056 133.497C187.45 133.814 187.604 133.92 188.123 133.622C188.79 133.139 189.301 132.471 189.593 131.7C189.994 130.745 190.661 129.924 191.515 129.337C191.869 129.093 192.297 128.981 192.725 129.02C193.153 129.058 193.554 129.245 193.859 129.548C194.253 129.855 194.407 129.98 194.916 129.683C195.584 129.198 196.098 128.531 196.396 127.761C196.788 126.797 197.456 125.971 198.317 125.388L198.481 125.243Z" fill="white"/>
</g>
<path d="M127.751 137.283L125.388 138.628V137.792C125.388 137.735 125.388 137.677 125.388 137.619C125.388 137.562 125.388 137.504 125.388 137.447C125.301 136.342 124.427 135.919 123.466 136.486C123.004 136.771 122.608 137.151 122.303 137.6C122.073 136.101 120.843 135.554 119.363 136.409C118.493 136.977 117.769 137.741 117.25 138.641C116.731 139.541 116.431 140.55 116.375 141.588V143.375C116.375 143.517 116.338 143.657 116.267 143.78C116.196 143.903 116.094 144.005 115.971 144.076L114.578 144.893C114.283 145.075 114.039 145.329 113.871 145.632C113.703 145.935 113.615 146.276 113.617 146.623C113.618 146.767 113.657 146.909 113.73 147.034C113.802 147.159 113.907 147.263 114.032 147.335C114.158 147.407 114.3 147.445 114.445 147.444C114.589 147.444 114.731 147.406 114.857 147.334L127.771 139.878C128.108 139.682 128.389 139.402 128.586 139.065C128.783 138.728 128.889 138.346 128.895 137.956C128.909 137.817 128.883 137.677 128.819 137.552C128.756 137.428 128.659 137.324 128.538 137.253C128.418 137.183 128.28 137.148 128.141 137.153C128.001 137.158 127.866 137.204 127.751 137.283Z" fill="white"/>
<path d="M185.52 106.084L183.156 107.429V106.228C183.07 105.114 182.195 104.691 181.235 105.268C180.769 105.548 180.372 105.929 180.072 106.382C179.841 104.874 178.611 104.335 177.122 105.191C176.255 105.758 175.533 106.522 175.015 107.42C174.498 108.318 174.199 109.325 174.143 110.36V112.157C174.142 112.299 174.104 112.437 174.033 112.56C173.963 112.683 173.862 112.786 173.74 112.858L172.347 113.665C172.051 113.846 171.807 114.1 171.638 114.404C171.47 114.707 171.383 115.048 171.386 115.395C171.385 115.54 171.422 115.683 171.495 115.81C171.567 115.936 171.671 116.041 171.797 116.114C171.923 116.187 172.065 116.226 172.211 116.226C172.356 116.226 172.499 116.188 172.625 116.116L185.539 108.65C185.877 108.454 186.158 108.174 186.355 107.837C186.552 107.5 186.658 107.118 186.663 106.728C186.671 106.591 186.641 106.455 186.575 106.335C186.51 106.215 186.412 106.116 186.293 106.049C186.173 105.982 186.038 105.95 185.901 105.956C185.765 105.962 185.633 106.007 185.52 106.084Z" fill="white"/>
<path d="M132.482 146.344L130.858 147.305V146.488C130.801 145.729 130.224 145.431 129.523 145.835C129.202 146.031 128.927 146.293 128.716 146.603C128.562 145.575 127.755 145.2 126.698 145.786C126.101 146.177 125.605 146.702 125.25 147.319C124.894 147.937 124.689 148.63 124.651 149.342V150.572C124.65 150.669 124.624 150.764 124.575 150.848C124.526 150.932 124.456 151.003 124.373 151.052L123.412 151.609C123.204 151.731 123.032 151.905 122.912 152.114C122.793 152.323 122.73 152.56 122.729 152.801C122.73 152.899 122.757 152.996 122.806 153.082C122.856 153.167 122.927 153.238 123.012 153.288C123.098 153.337 123.194 153.363 123.293 153.364C123.392 153.365 123.489 153.339 123.575 153.291L132.444 148.169C132.68 148.033 132.876 147.837 133.013 147.601C133.149 147.365 133.221 147.097 133.222 146.824C133.23 146.734 133.213 146.643 133.173 146.562C133.134 146.48 133.072 146.411 132.996 146.362C132.92 146.312 132.832 146.285 132.742 146.282C132.651 146.278 132.561 146.3 132.482 146.344Z" fill="white"/>
<path d="M107.413 207.915C107.313 207.918 107.215 207.893 107.129 207.844C107.043 207.795 106.971 207.723 106.923 207.637C106.849 207.508 106.828 207.355 106.866 207.211C106.904 207.067 106.997 206.944 107.124 206.868L197.925 154.444C198.054 154.37 198.207 154.35 198.35 154.387C198.494 154.425 198.617 154.518 198.693 154.646C198.732 154.71 198.757 154.781 198.767 154.855C198.777 154.929 198.773 155.004 198.754 155.077C198.736 155.149 198.703 155.217 198.658 155.277C198.613 155.336 198.556 155.386 198.492 155.424L107.691 207.848C107.605 207.893 107.51 207.916 107.413 207.915V207.915Z" fill="#E0E0E0"/>
<path d="M107.409 257.581C107.284 257.582 107.162 257.541 107.063 257.466C106.963 257.39 106.892 257.284 106.859 257.164C106.826 257.043 106.834 256.915 106.881 256.799C106.929 256.684 107.013 256.587 107.121 256.524L197.921 204.1C198.051 204.027 198.205 204.009 198.349 204.048C198.493 204.088 198.615 204.182 198.69 204.312C198.728 204.375 198.753 204.446 198.763 204.519C198.773 204.592 198.769 204.667 198.75 204.738C198.731 204.81 198.698 204.877 198.653 204.936C198.608 204.994 198.552 205.044 198.488 205.08L107.688 257.504C107.602 257.552 107.507 257.579 107.409 257.581V257.581Z" fill="#E0E0E0"/>
<path d="M260.382 154.425C276.896 154.425 290.284 141.037 290.284 124.523C290.284 108.009 276.896 94.6213 260.382 94.6213C243.868 94.6213 230.48 108.009 230.48 124.523C230.48 141.037 243.868 154.425 260.382 154.425Z" fill="#30319D"/>
<path d="M239.927 139.685C239.927 139.685 243.175 154.425 231.645 154.425C231.645 154.425 245.221 160.324 250.131 148.246L239.927 139.685Z" fill="#30319D"/>
<path d="M262.679 125.378C264.31 124.833 265.694 123.725 266.583 122.253C267.472 120.781 267.809 119.041 267.533 117.343C267.257 115.646 266.386 114.102 265.076 112.988C263.766 111.874 262.102 111.262 260.382 111.262C258.662 111.262 256.999 111.874 255.689 112.988C254.378 114.102 253.507 115.646 253.231 117.343C252.955 119.041 253.292 120.781 254.181 122.253C255.071 123.725 256.455 124.833 258.086 125.378C255.246 125.93 252.686 127.45 250.843 129.679C248.999 131.908 247.987 134.708 247.978 137.6C247.978 137.658 247.978 137.715 247.978 137.773H272.844C272.844 137.715 272.844 137.658 272.844 137.6C272.833 134.699 271.812 131.893 269.957 129.663C268.102 127.433 265.529 125.918 262.679 125.378V125.378Z" fill="white"/>
<path d="M229.117 84.9167C242.086 84.9167 252.6 74.4029 252.6 61.4335C252.6 48.4641 242.086 37.9503 229.117 37.9503C216.148 37.9503 205.634 48.4641 205.634 61.4335C205.634 74.4029 216.148 84.9167 229.117 84.9167Z" fill="#30319D"/>
<path d="M213.063 73.3384C213.063 73.3384 215.609 84.8686 206.52 84.8686C206.52 84.8686 217.175 89.4999 221.028 80.0643L213.063 73.3384Z" fill="#30319D"/>
<path d="M235.42 52.7953C233.749 52.7953 232.145 53.4594 230.963 54.6414C229.781 55.8235 229.117 57.4268 229.117 59.0985C229.117 57.4268 228.453 55.8235 227.271 54.6414C226.089 53.4594 224.486 52.7953 222.814 52.7953C221.142 52.7953 219.539 53.4594 218.357 54.6414C217.175 55.8235 216.511 57.4268 216.511 59.0985C216.511 69.3892 229.117 73.3959 229.117 73.3959C229.117 73.3959 241.723 69.3892 241.723 59.0985C241.723 57.4268 241.059 55.8235 239.877 54.6414C238.695 53.4594 237.092 52.7953 235.42 52.7953V52.7953Z" fill="white"/>
<path d="M76.0113 254.216C87.3321 242.895 87.3321 224.54 76.0113 213.22C64.6904 201.899 46.3357 201.899 35.0148 213.22C23.694 224.54 23.694 242.895 35.0148 254.216C46.3357 265.537 64.6904 265.537 76.0113 254.216Z" fill="#30319D"/>
<path d="M75.3333 248.405C75.3333 248.405 72.1913 262.703 83.414 262.703C83.414 262.703 70.2504 268.41 65.4941 256.707L75.3333 248.405Z" fill="#30319D"/>
<path d="M66.6084 223.385H44.4127C43.4017 223.385 42.4313 223.783 41.7119 224.494C40.9925 225.204 40.582 226.169 40.5693 227.18V240.248C40.5693 241.267 40.9743 242.245 41.695 242.966C42.4158 243.686 43.3934 244.091 44.4127 244.091H52.5511L55.6835 251.086L58.5661 244.091H66.5604C67.5797 244.091 68.5573 243.686 69.278 242.966C69.9988 242.245 70.4038 241.267 70.4038 240.248V227.18C70.3913 226.178 69.9874 225.22 69.2783 224.51C68.5693 223.801 67.6111 223.397 66.6084 223.385V223.385ZM63.3799 237.346H47.5259C47.2609 237.346 47.0067 237.241 46.8193 237.053C46.6319 236.866 46.5266 236.612 46.5266 236.347C46.5266 236.082 46.6319 235.828 46.8193 235.64C47.0067 235.453 47.2609 235.348 47.5259 235.348H63.3799C63.645 235.348 63.8991 235.453 64.0865 235.64C64.2739 235.828 64.3792 236.082 64.3792 236.347C64.3792 236.612 64.2739 236.866 64.0865 237.053C63.8991 237.241 63.645 237.346 63.3799 237.346V237.346ZM63.3799 230.841H47.5259C47.3947 230.841 47.2647 230.815 47.1435 230.765C47.0222 230.715 46.9121 230.641 46.8193 230.549C46.7265 230.456 46.6529 230.346 46.6027 230.224C46.5525 230.103 46.5266 229.973 46.5266 229.842C46.5266 229.711 46.5525 229.581 46.6027 229.46C46.6529 229.338 46.7265 229.228 46.8193 229.135C46.9121 229.043 47.0222 228.969 47.1435 228.919C47.2647 228.868 47.3947 228.843 47.5259 228.843H63.3799C63.645 228.843 63.8991 228.948 64.0865 229.135C64.2739 229.323 64.3792 229.577 64.3792 229.842C64.3792 230.107 64.2739 230.361 64.0865 230.549C63.8991 230.736 63.645 230.841 63.3799 230.841Z" fill="white"/>
</svg>
