<svg width="24" height="24" viewBox="0 0 24 24" fill="none" xmlns="http://www.w3.org/2000/svg">
<path fill-rule="evenodd" clip-rule="evenodd" d="M13.9756 2.00031C14.0185 2.00031 14.0606 2.00392 14.1016 2.01087L14.2385 2.01171C14.4425 2.01171 14.6375 2.09471 14.7795 2.24171L19.8445 7.51871C19.9785 7.65771 20.0536 7.84471 20.0536 8.03771V17.2037C20.0715 19.7127 18.1175 21.7627 15.6045 21.8647L7.58546 21.8657H7.47646C5.02652 21.8103 3.06163 19.8289 3.00177 17.4029L3.00146 6.49071C3.05946 4.00971 5.10846 2.01171 7.57147 2.01171L13.8495 2.01087C13.8905 2.00392 13.9326 2.00031 13.9756 2.00031ZM13.2255 3.51131L7.57346 3.51171C5.91646 3.51171 4.54046 4.85371 4.50146 6.50871V17.2037C4.46446 18.9167 5.81446 20.3277 7.51046 20.3657H15.5745C17.2435 20.2967 18.5655 18.9097 18.5535 17.2097L18.5535 8.98331L16.5436 8.98431C14.7136 8.97931 13.2256 7.48731 13.2256 5.65931L13.2255 3.51131ZM13.7888 14.6084C14.2028 14.6084 14.5388 14.9444 14.5388 15.3584C14.5388 15.7724 14.2028 16.1084 13.7888 16.1084H8.38876C7.97476 16.1084 7.63876 15.7724 7.63876 15.3584C7.63876 14.9444 7.97476 14.6084 8.38876 14.6084H13.7888ZM11.7439 10.8564C12.1579 10.8564 12.4939 11.1924 12.4939 11.6064C12.4939 12.0204 12.1579 12.3564 11.7439 12.3564H8.38787C7.97387 12.3564 7.63787 12.0204 7.63787 11.6064C7.63787 11.1924 7.97387 10.8564 8.38787 10.8564H11.7439ZM14.7255 4.35231L14.7256 5.65931C14.7256 6.66331 15.5426 7.48131 16.5456 7.48431L17.7315 7.48331L14.7255 4.35231Z" fill="black"/>
</svg>
