<svg width="28" height="25" viewBox="0 0 28 25" fill="none" xmlns="http://www.w3.org/2000/svg">
<path d="M25.25 5.5H2.75V2.6875H23.375V0.8125H2.75C2.25272 0.8125 1.77581 1.01004 1.42417 1.36167C1.07254 1.71331 0.875 2.19022 0.875 2.6875V22.375C0.875 22.8723 1.07254 23.3492 1.42417 23.7008C1.77581 24.0525 2.25272 24.25 2.75 24.25H25.25C25.7473 24.25 26.2242 24.0525 26.5758 23.7008C26.9275 23.3492 27.125 22.8723 27.125 22.375V7.375C27.125 6.87772 26.9275 6.40081 26.5758 6.04918C26.2242 5.69754 25.7473 5.5 25.25 5.5ZM2.75 22.375V7.375H25.25V10.1875H17.75C17.2527 10.1875 16.7758 10.385 16.4242 10.7367C16.0725 11.0883 15.875 11.5652 15.875 12.0625V17.6875C15.875 18.1848 16.0725 18.6617 16.4242 19.0133C16.7758 19.365 17.2527 19.5625 17.75 19.5625H25.25V22.375H2.75ZM25.25 12.0625V17.6875H17.75V12.0625H25.25Z" fill="black"/>
</svg>
