<svg width="28" height="28" viewBox="0 0 28 28" fill="none" xmlns="http://www.w3.org/2000/svg">
<path d="M26.6834 12.3398C27.7094 12.3398 28.1377 11.0217 27.3043 10.4141L14.624 1.19024C14.4429 1.05756 14.2243 0.986036 13.9998 0.986036C13.7753 0.986036 13.5567 1.05756 13.3756 1.19024L0.695307 10.4141C-0.138092 11.0184 0.290229 12.3398 1.31953 12.3398H3.3748V24.7578H0.984174C0.83808 24.7578 0.718549 24.8773 0.718549 25.0234V26.75C0.718549 26.8961 0.83808 27.0156 0.984174 27.0156H27.0154C27.1615 27.0156 27.281 26.8961 27.281 26.75V25.0234C27.281 24.8773 27.1615 24.7578 27.0154 24.7578H24.6248V12.3398H26.6834ZM13.9998 3.53105L23.0012 10.0787H4.99843L13.9998 3.53105ZM5.76542 12.3398H9.65019V24.7578H5.76542V12.3398ZM12.0408 12.3398H15.9256V24.7578H12.0408V12.3398ZM22.2342 24.7578H18.3162V12.3398H22.2342V24.7578Z" fill="black"/>
</svg>
